G75*
%MOIN*%
%OFA0B0*%
%FSLAX24Y24*%
%IPPOS*%
%LPD*%
%AMOC8*
5,1,8,0,0,1.08239X$1,22.5*
%
%ADD10C,0.0100*%
%ADD11R,0.0394X0.0433*%
%ADD12C,0.0860*%
%ADD13C,0.0760*%
%ADD14R,0.0354X0.0315*%
%ADD15R,0.0740X0.0740*%
%ADD16C,0.0740*%
%ADD17R,0.0433X0.0394*%
%ADD18C,0.1581*%
%ADD19R,0.0650X0.0650*%
%ADD20C,0.0650*%
%ADD21C,0.0520*%
%ADD22R,0.0315X0.0354*%
%ADD23C,0.0356*%
%ADD24C,0.0160*%
%ADD25C,0.0120*%
%ADD26C,0.0240*%
D10*
X001993Y000973D02*
X001993Y003848D01*
X006805Y003848D01*
X006805Y008223D01*
X001993Y008223D01*
X001993Y024910D01*
X021368Y024910D01*
X021368Y000973D01*
X001993Y000973D01*
X011868Y010660D02*
X011618Y010910D01*
X011868Y010660D02*
X013368Y010660D01*
X013493Y010535D01*
X013493Y009348D01*
X013305Y009160D01*
X012930Y009160D01*
X012930Y013160D02*
X012180Y013160D01*
X012055Y013285D01*
X012055Y014160D01*
X015055Y013388D02*
X015349Y013098D01*
X015618Y013098D01*
X016305Y015473D02*
X017493Y015473D01*
X016743Y016035D02*
X016618Y015910D01*
X014930Y015910D01*
X014930Y016410D02*
X016118Y016410D01*
X015930Y016848D02*
X016055Y016973D01*
X016055Y019098D01*
X015743Y019410D01*
X015743Y018410D02*
X015743Y017285D01*
D11*
X016180Y014057D03*
X016680Y014057D03*
X016680Y013388D03*
X016180Y013388D03*
X008743Y014138D03*
X008243Y014138D03*
X008243Y014807D03*
X008743Y014807D03*
X008743Y017075D03*
X008180Y017075D03*
X008180Y017745D03*
X008743Y017745D03*
X005805Y017620D03*
X005805Y016950D03*
X005805Y014120D03*
X005805Y013450D03*
X008305Y010870D03*
X008805Y010870D03*
X008805Y010200D03*
X008305Y010200D03*
X005805Y020513D03*
X005805Y021182D03*
X008118Y021450D03*
X008680Y021450D03*
X008680Y022120D03*
X008118Y022120D03*
D12*
X003555Y021579D03*
X003555Y020201D03*
X003555Y018017D03*
X003555Y016639D03*
X003555Y014517D03*
X003555Y013139D03*
X003555Y010892D03*
X003555Y009514D03*
D13*
X012930Y009160D03*
X012930Y010160D03*
X012930Y011160D03*
X012930Y012160D03*
X012930Y013160D03*
X012930Y014160D03*
X012930Y018723D03*
X012930Y019723D03*
X012930Y020723D03*
X012930Y021723D03*
X012930Y022723D03*
X012930Y023723D03*
D14*
X005168Y021785D03*
X004568Y021785D03*
X004568Y019910D03*
X005168Y019910D03*
X005168Y018223D03*
X004568Y018223D03*
X004568Y016348D03*
X005168Y016348D03*
X005168Y014785D03*
X004568Y014785D03*
X004568Y012848D03*
X005168Y012848D03*
X005230Y011160D03*
X004630Y011160D03*
X004630Y009223D03*
X005230Y009223D03*
D15*
X011618Y007035D03*
X011618Y002348D03*
X017993Y021035D03*
D16*
X017993Y020035D03*
X017993Y019035D03*
X017993Y018035D03*
X017993Y022723D03*
X017993Y023723D03*
X010618Y007035D03*
X010618Y002348D03*
X019743Y004223D03*
X019743Y005223D03*
D17*
X015055Y013388D03*
X015055Y014057D03*
D18*
X020243Y023785D03*
X003118Y023785D03*
X003118Y002160D03*
X020243Y002098D03*
D19*
X014805Y003160D03*
D20*
X013805Y003160D03*
D21*
X015733Y022285D02*
X016253Y022285D01*
X016253Y023285D02*
X015733Y023285D01*
X015733Y024285D02*
X016253Y024285D01*
D22*
X005805Y010523D03*
X005805Y009923D03*
D23*
X006305Y009910D03*
X005805Y011098D03*
X006493Y013410D03*
X007055Y013285D03*
X005805Y014910D03*
X007055Y016160D03*
X006430Y016973D03*
X005805Y018348D03*
X006368Y020535D03*
X007180Y020535D03*
X005930Y022035D03*
X010118Y018723D03*
X010555Y017660D03*
X011118Y015660D03*
X010555Y014723D03*
X011118Y013285D03*
X012055Y014160D03*
X012055Y014910D03*
X013743Y015035D03*
X014930Y015348D03*
X014930Y015910D03*
X014930Y016410D03*
X015743Y017285D03*
X015930Y016848D03*
X016118Y016410D03*
X016743Y016035D03*
X016305Y015473D03*
X015618Y013098D03*
X013743Y013660D03*
X013743Y012223D03*
X015243Y011098D03*
X015743Y010598D03*
X016930Y011410D03*
X018243Y012973D03*
X020430Y016535D03*
X015743Y018410D03*
X015743Y019410D03*
X013618Y019223D03*
X010555Y022035D03*
X010555Y022973D03*
X019743Y021973D03*
X011618Y010910D03*
X010555Y010785D03*
X015118Y009035D03*
X008555Y006160D03*
D24*
X005537Y009011D02*
X005537Y009434D01*
X005461Y009510D01*
X005452Y009510D01*
X005452Y009636D01*
X005518Y009701D01*
X005518Y009691D01*
X005594Y009615D01*
X006016Y009615D01*
X006090Y009689D01*
X006130Y009649D01*
X006244Y009602D01*
X006366Y009602D01*
X006480Y009649D01*
X006566Y009735D01*
X006613Y009849D01*
X006613Y009971D01*
X006566Y010085D01*
X006480Y010171D01*
X006366Y010218D01*
X006244Y010218D01*
X006130Y010171D01*
X006092Y010133D01*
X006092Y010154D01*
X006023Y010223D01*
X006092Y010291D01*
X006092Y010754D01*
X006016Y010830D01*
X006015Y010830D01*
X006015Y010872D01*
X006066Y010923D01*
X006113Y011036D01*
X006113Y011159D01*
X006066Y011272D01*
X005980Y011359D01*
X005866Y011406D01*
X005744Y011406D01*
X005630Y011359D01*
X005544Y011272D01*
X005537Y011256D01*
X005537Y011371D01*
X005660Y011371D01*
X005537Y011371D02*
X005461Y011447D01*
X004999Y011447D01*
X004930Y011378D01*
X004861Y011447D01*
X004399Y011447D01*
X004323Y011371D01*
X003861Y011371D01*
X003872Y011367D02*
X003666Y011452D01*
X003444Y011452D01*
X003238Y011367D01*
X003080Y011209D01*
X002995Y011003D01*
X002995Y010780D01*
X003080Y010575D01*
X003238Y010417D01*
X003444Y010332D01*
X003666Y010332D01*
X003872Y010417D01*
X004030Y010575D01*
X004082Y010700D01*
X004579Y010700D01*
X004702Y010823D01*
X004752Y010873D01*
X004861Y010873D01*
X004930Y010942D01*
X004999Y010873D01*
X005020Y010873D01*
X005020Y010586D01*
X005158Y010448D01*
X005281Y010325D01*
X005518Y010325D01*
X005518Y010291D01*
X005587Y010223D01*
X005518Y010154D01*
X005518Y010132D01*
X005356Y010132D01*
X005156Y009932D01*
X005033Y009809D01*
X005033Y009510D01*
X004999Y009510D01*
X004930Y009441D01*
X004861Y009510D01*
X004815Y009510D01*
X004702Y009622D01*
X004579Y009745D01*
X004065Y009745D01*
X004030Y009831D01*
X003872Y009989D01*
X003666Y010074D01*
X003444Y010074D01*
X003238Y009989D01*
X003080Y009831D01*
X002995Y009625D01*
X002995Y009402D01*
X003080Y009197D01*
X003238Y009039D01*
X003444Y008954D01*
X003666Y008954D01*
X003872Y009039D01*
X004030Y009197D01*
X004083Y009325D01*
X004323Y009325D01*
X004323Y009011D01*
X004399Y008935D01*
X004861Y008935D01*
X004930Y009004D01*
X004999Y008935D01*
X005461Y008935D01*
X005537Y009011D01*
X005520Y008994D02*
X012447Y008994D01*
X012420Y009059D02*
X012498Y008871D01*
X012641Y008728D01*
X012829Y008650D01*
X013031Y008650D01*
X013219Y008728D01*
X013362Y008871D01*
X013427Y009028D01*
X013567Y009168D01*
X013672Y009273D01*
X013672Y010610D01*
X013547Y010735D01*
X013442Y010840D01*
X013390Y010840D01*
X013409Y010866D01*
X013449Y010945D01*
X013476Y011029D01*
X013490Y011116D01*
X013490Y011142D01*
X012948Y011142D01*
X012948Y011178D01*
X013490Y011178D01*
X013490Y011204D01*
X013476Y011291D01*
X013449Y011375D01*
X013409Y011454D01*
X013357Y011525D01*
X013295Y011587D01*
X013224Y011639D01*
X013145Y011679D01*
X013121Y011687D01*
X013219Y011728D01*
X013362Y011871D01*
X013440Y012059D01*
X013440Y012261D01*
X013362Y012449D01*
X013219Y012592D01*
X013056Y012660D01*
X013219Y012728D01*
X013362Y012871D01*
X013440Y013059D01*
X013440Y013261D01*
X013362Y013449D01*
X013219Y013592D01*
X013056Y013660D01*
X013219Y013728D01*
X013362Y013871D01*
X013440Y014059D01*
X013440Y014261D01*
X013362Y014449D01*
X013219Y014592D01*
X013031Y014670D01*
X012829Y014670D01*
X012641Y014592D01*
X012498Y014449D01*
X012420Y014261D01*
X012420Y014059D01*
X012498Y013871D01*
X012641Y013728D01*
X012804Y013660D01*
X012641Y013592D01*
X012498Y013449D01*
X012453Y013340D01*
X012255Y013340D01*
X012235Y013360D01*
X012235Y013904D01*
X012316Y013985D01*
X012363Y014099D01*
X012363Y014221D01*
X012316Y014335D01*
X012230Y014421D01*
X012116Y014468D01*
X011994Y014468D01*
X011880Y014421D01*
X011794Y014335D01*
X011747Y014221D01*
X011747Y014099D01*
X011794Y013985D01*
X011875Y013904D01*
X011875Y013210D01*
X011980Y013105D01*
X012105Y012980D01*
X012453Y012980D01*
X012498Y012871D01*
X012641Y012728D01*
X012804Y012660D01*
X012641Y012592D01*
X012498Y012449D01*
X012457Y012350D01*
X010745Y012350D01*
X010745Y014477D01*
X010816Y014548D01*
X010863Y014661D01*
X010863Y014784D01*
X010816Y014897D01*
X010745Y014968D01*
X010745Y017414D01*
X010816Y017485D01*
X010863Y017599D01*
X010863Y017721D01*
X010816Y017835D01*
X010745Y017906D01*
X010745Y021789D01*
X010801Y021845D01*
X012429Y021845D01*
X012420Y021824D01*
X012420Y021621D01*
X012498Y021434D01*
X012641Y021290D01*
X012739Y021249D01*
X012715Y021241D01*
X012636Y021201D01*
X012565Y021150D01*
X012503Y021087D01*
X012451Y021016D01*
X012411Y020937D01*
X012384Y020854D01*
X012370Y020767D01*
X012370Y020741D01*
X012912Y020741D01*
X012912Y020704D01*
X012370Y020704D01*
X012370Y020678D01*
X012384Y020591D01*
X012411Y020508D01*
X012451Y020429D01*
X012503Y020358D01*
X012565Y020295D01*
X012636Y020244D01*
X012715Y020204D01*
X012739Y020196D01*
X012641Y020155D01*
X012498Y020011D01*
X012465Y019932D01*
X011093Y019932D01*
X010970Y019809D01*
X010908Y019747D01*
X010908Y015886D01*
X010856Y015835D01*
X010809Y015721D01*
X010809Y015599D01*
X010856Y015485D01*
X010943Y015399D01*
X011056Y015352D01*
X011179Y015352D01*
X011292Y015399D01*
X011379Y015485D01*
X011426Y015599D01*
X011426Y015721D01*
X011379Y015835D01*
X011327Y015886D01*
X011327Y019513D01*
X012465Y019513D01*
X012498Y019434D01*
X012641Y019290D01*
X012804Y019222D01*
X012641Y019155D01*
X012498Y019011D01*
X012420Y018824D01*
X012420Y018621D01*
X012498Y018434D01*
X012641Y018290D01*
X012829Y018213D01*
X013031Y018213D01*
X013219Y018290D01*
X013362Y018434D01*
X013440Y018621D01*
X013440Y018824D01*
X013362Y019011D01*
X013219Y019155D01*
X013056Y019222D01*
X013219Y019290D01*
X013362Y019434D01*
X013440Y019621D01*
X013440Y019824D01*
X013362Y020011D01*
X013219Y020155D01*
X013121Y020196D01*
X013145Y020204D01*
X013224Y020244D01*
X013295Y020295D01*
X013357Y020358D01*
X013409Y020429D01*
X013449Y020508D01*
X013476Y020591D01*
X013490Y020678D01*
X013490Y020704D01*
X012948Y020704D01*
X012948Y020741D01*
X013490Y020741D01*
X013490Y020767D01*
X013476Y020854D01*
X013449Y020937D01*
X013409Y021016D01*
X013357Y021087D01*
X013295Y021150D01*
X013224Y021201D01*
X013145Y021241D01*
X013121Y021249D01*
X013219Y021290D01*
X013362Y021434D01*
X013440Y021621D01*
X013440Y021824D01*
X013362Y022011D01*
X013219Y022155D01*
X013056Y022222D01*
X013219Y022290D01*
X013362Y022434D01*
X013440Y022621D01*
X013440Y022824D01*
X013362Y023011D01*
X013219Y023155D01*
X013056Y023222D01*
X013219Y023290D01*
X013362Y023434D01*
X013440Y023621D01*
X013440Y023824D01*
X013362Y024011D01*
X013219Y024155D01*
X013031Y024232D01*
X012829Y024232D01*
X012641Y024155D01*
X012498Y024011D01*
X012420Y023824D01*
X012420Y023621D01*
X012498Y023434D01*
X012641Y023290D01*
X012804Y023222D01*
X012641Y023155D01*
X012498Y023011D01*
X012420Y022824D01*
X012420Y022621D01*
X012498Y022434D01*
X012641Y022290D01*
X012804Y022222D01*
X012730Y022192D01*
X012696Y022225D01*
X010801Y022225D01*
X010730Y022296D01*
X010616Y022343D01*
X010494Y022343D01*
X010380Y022296D01*
X010294Y022210D01*
X010247Y022096D01*
X010247Y021974D01*
X010294Y021860D01*
X010365Y021789D01*
X010365Y017906D01*
X010294Y017835D01*
X010247Y017721D01*
X010247Y017599D01*
X010294Y017485D01*
X010365Y017414D01*
X010365Y014968D01*
X010294Y014897D01*
X010247Y014784D01*
X010247Y014661D01*
X010294Y014548D01*
X010365Y014477D01*
X010365Y011031D01*
X010294Y010960D01*
X010247Y010846D01*
X010247Y010724D01*
X010294Y010610D01*
X010380Y010524D01*
X010494Y010477D01*
X010616Y010477D01*
X010730Y010524D01*
X010816Y010610D01*
X010863Y010724D01*
X010863Y010846D01*
X010816Y010960D01*
X010745Y011031D01*
X010745Y011970D01*
X012457Y011970D01*
X012498Y011871D01*
X012641Y011728D01*
X012739Y011687D01*
X012715Y011679D01*
X012636Y011639D01*
X012565Y011587D01*
X012503Y011525D01*
X012451Y011454D01*
X012411Y011375D01*
X012384Y011291D01*
X012370Y011204D01*
X012370Y011178D01*
X012912Y011178D01*
X012912Y011142D01*
X012370Y011142D01*
X012370Y011116D01*
X012384Y011029D01*
X012411Y010945D01*
X012451Y010866D01*
X012470Y010840D01*
X011942Y010840D01*
X011926Y010856D01*
X011926Y010971D01*
X011879Y011085D01*
X011792Y011171D01*
X011679Y011218D01*
X011556Y011218D01*
X011443Y011171D01*
X011356Y011085D01*
X011309Y010971D01*
X011309Y010849D01*
X011356Y010735D01*
X011443Y010649D01*
X011556Y010602D01*
X011671Y010602D01*
X011793Y010480D01*
X012529Y010480D01*
X012498Y010449D01*
X012465Y010370D01*
X012156Y010370D01*
X011656Y009870D01*
X009072Y009870D01*
X009132Y009930D01*
X009132Y010471D01*
X009100Y010502D01*
X009112Y010509D01*
X009146Y010543D01*
X009170Y010584D01*
X009182Y010629D01*
X009182Y010851D01*
X008823Y010851D01*
X008823Y010888D01*
X008787Y010888D01*
X008787Y011266D01*
X008584Y011266D01*
X008555Y011258D01*
X008526Y011266D01*
X008323Y011266D01*
X008323Y010888D01*
X008287Y010888D01*
X008287Y011266D01*
X008084Y011266D01*
X008039Y011254D01*
X007998Y011230D01*
X007964Y011197D01*
X007940Y011156D01*
X007928Y011110D01*
X007928Y010888D01*
X008287Y010888D01*
X008287Y010851D01*
X007928Y010851D01*
X007928Y010629D01*
X007940Y010584D01*
X007964Y010543D01*
X007998Y010509D01*
X008010Y010502D01*
X007978Y010471D01*
X007978Y010370D01*
X007267Y010370D01*
X007265Y010372D01*
X007265Y013059D01*
X007316Y013110D01*
X007363Y013224D01*
X007363Y013346D01*
X007316Y013460D01*
X007265Y013511D01*
X007265Y013888D01*
X007916Y013888D01*
X007916Y013867D01*
X007992Y013791D01*
X008993Y013791D01*
X009069Y013867D01*
X009069Y014408D01*
X009038Y014440D01*
X009050Y014447D01*
X009083Y014480D01*
X009107Y014521D01*
X009119Y014567D01*
X009119Y014789D01*
X008761Y014789D01*
X008761Y014826D01*
X008724Y014826D01*
X008724Y015204D01*
X008522Y015204D01*
X008492Y015196D01*
X008463Y015204D01*
X008261Y015204D01*
X008261Y014826D01*
X008224Y014826D01*
X008224Y015204D01*
X008022Y015204D01*
X007976Y015191D01*
X007935Y015168D01*
X007902Y015134D01*
X007878Y015093D01*
X007866Y015047D01*
X007866Y014826D01*
X008224Y014826D01*
X008224Y014789D01*
X007866Y014789D01*
X007866Y014567D01*
X007878Y014521D01*
X007902Y014480D01*
X007935Y014447D01*
X007947Y014440D01*
X007916Y014408D01*
X007916Y014307D01*
X007265Y014307D01*
X007265Y015934D01*
X007316Y015985D01*
X007363Y016099D01*
X007363Y016221D01*
X007316Y016335D01*
X007265Y016386D01*
X007265Y016779D01*
X007352Y016865D01*
X007853Y016865D01*
X007853Y016805D01*
X007929Y016729D01*
X008431Y016729D01*
X008461Y016759D01*
X008492Y016729D01*
X008993Y016729D01*
X009069Y016805D01*
X009069Y017346D01*
X009038Y017377D01*
X009050Y017384D01*
X009083Y017418D01*
X009107Y017459D01*
X009119Y017504D01*
X009119Y017726D01*
X008761Y017726D01*
X008761Y017763D01*
X009119Y017763D01*
X009119Y017985D01*
X009107Y018031D01*
X009083Y018072D01*
X009050Y018105D01*
X009009Y018129D01*
X008963Y018141D01*
X008761Y018141D01*
X008761Y017763D01*
X008724Y017763D01*
X008724Y017726D01*
X008198Y017726D01*
X008198Y017763D01*
X008162Y017763D01*
X008162Y018141D01*
X007959Y018141D01*
X007914Y018129D01*
X007873Y018105D01*
X007839Y018072D01*
X007815Y018031D01*
X007803Y017985D01*
X007803Y017763D01*
X008162Y017763D01*
X008162Y017726D01*
X007803Y017726D01*
X007803Y017504D01*
X007815Y017459D01*
X007839Y017418D01*
X007873Y017384D01*
X007885Y017377D01*
X007853Y017346D01*
X007853Y017285D01*
X007390Y017285D01*
X007390Y020309D01*
X007441Y020360D01*
X007488Y020474D01*
X007488Y020596D01*
X007441Y020710D01*
X007390Y020761D01*
X007390Y020823D01*
X007392Y020825D01*
X008079Y020825D01*
X008202Y020948D01*
X008327Y021073D01*
X008327Y021104D01*
X008368Y021104D01*
X008399Y021134D01*
X008429Y021104D01*
X008931Y021104D01*
X009007Y021180D01*
X009007Y021721D01*
X008975Y021752D01*
X008987Y021759D01*
X009021Y021793D01*
X009045Y021834D01*
X009057Y021879D01*
X009057Y022101D01*
X008698Y022101D01*
X008698Y022138D01*
X008662Y022138D01*
X008662Y022516D01*
X008459Y022516D01*
X008414Y022504D01*
X008399Y022495D01*
X008384Y022504D01*
X008338Y022516D01*
X008136Y022516D01*
X008136Y022138D01*
X008662Y022138D01*
X008662Y022101D01*
X008303Y022101D01*
X008136Y022101D01*
X008136Y022138D01*
X008099Y022138D01*
X008099Y022101D01*
X007741Y022101D01*
X007741Y021879D01*
X007753Y021834D01*
X007777Y021793D01*
X007810Y021759D01*
X007822Y021752D01*
X007791Y021721D01*
X007791Y021245D01*
X007218Y021245D01*
X007093Y021120D01*
X006970Y020997D01*
X006970Y020761D01*
X006919Y020710D01*
X006872Y020596D01*
X006872Y020474D01*
X006919Y020360D01*
X006970Y020309D01*
X006970Y017078D01*
X006968Y017076D01*
X006845Y016953D01*
X006845Y016386D01*
X006794Y016335D01*
X006747Y016221D01*
X006747Y016099D01*
X006794Y015985D01*
X006845Y015934D01*
X006845Y013511D01*
X006801Y013466D01*
X006801Y013471D01*
X006754Y013585D01*
X006667Y013671D01*
X006554Y013718D01*
X006431Y013718D01*
X006318Y013671D01*
X006267Y013620D01*
X006132Y013620D01*
X006132Y013721D01*
X006068Y013785D01*
X006132Y013849D01*
X006132Y014390D01*
X006056Y014466D01*
X006015Y014466D01*
X006015Y014684D01*
X006066Y014735D01*
X006113Y014849D01*
X006113Y014971D01*
X006066Y015085D01*
X005980Y015171D01*
X005866Y015218D01*
X005744Y015218D01*
X005630Y015171D01*
X005544Y015085D01*
X005497Y014971D01*
X005497Y014849D01*
X005544Y014735D01*
X005595Y014684D01*
X005595Y014466D01*
X005554Y014466D01*
X005478Y014390D01*
X005478Y014307D01*
X005392Y014307D01*
X005377Y014322D01*
X005377Y014498D01*
X005399Y014498D01*
X005475Y014574D01*
X005475Y014996D01*
X005399Y015072D01*
X004936Y015072D01*
X004867Y015003D01*
X004799Y015072D01*
X004336Y015072D01*
X004260Y014996D01*
X004260Y014745D01*
X004067Y014745D01*
X004030Y014834D01*
X003872Y014992D01*
X003666Y015077D01*
X003444Y015077D01*
X003238Y014992D01*
X003080Y014834D01*
X002995Y014628D01*
X002995Y014405D01*
X003080Y014200D01*
X003238Y014042D01*
X003444Y013957D01*
X003666Y013957D01*
X003872Y014042D01*
X004030Y014200D01*
X004082Y014325D01*
X004517Y014325D01*
X004640Y014448D01*
X004690Y014498D01*
X004799Y014498D01*
X004867Y014567D01*
X004936Y014498D01*
X004958Y014498D01*
X004958Y014148D01*
X005095Y014011D01*
X005218Y013888D01*
X005478Y013888D01*
X005478Y013849D01*
X005542Y013785D01*
X005478Y013721D01*
X005478Y013620D01*
X005218Y013620D01*
X005095Y013497D01*
X004958Y013359D01*
X004958Y013135D01*
X004936Y013135D01*
X004867Y013066D01*
X004799Y013135D01*
X004690Y013135D01*
X004640Y013184D01*
X004517Y013307D01*
X004091Y013307D01*
X004030Y013456D01*
X003872Y013614D01*
X003666Y013699D01*
X003444Y013699D01*
X003238Y013614D01*
X003080Y013456D01*
X002995Y013250D01*
X002995Y013027D01*
X003080Y012822D01*
X003238Y012664D01*
X003444Y012579D01*
X003666Y012579D01*
X003872Y012664D01*
X004030Y012822D01*
X004057Y012888D01*
X004260Y012888D01*
X004260Y012636D01*
X004336Y012560D01*
X004799Y012560D01*
X004867Y012629D01*
X004936Y012560D01*
X005399Y012560D01*
X005475Y012636D01*
X005475Y013059D01*
X005399Y013135D01*
X005377Y013135D01*
X005377Y013186D01*
X005392Y013200D01*
X005478Y013200D01*
X005478Y013180D01*
X005554Y013104D01*
X006056Y013104D01*
X006132Y013180D01*
X006132Y013200D01*
X006267Y013200D01*
X006318Y013149D01*
X006431Y013102D01*
X006554Y013102D01*
X006667Y013149D01*
X006747Y013229D01*
X006747Y013224D01*
X006794Y013110D01*
X006845Y013059D01*
X006845Y010198D01*
X006970Y010073D01*
X007093Y009950D01*
X007978Y009950D01*
X007978Y009930D01*
X008054Y009854D01*
X008595Y009854D01*
X008595Y009636D01*
X008718Y009513D01*
X008781Y009450D01*
X011829Y009450D01*
X011952Y009573D01*
X012329Y009950D01*
X012465Y009950D01*
X012498Y009871D01*
X012641Y009728D01*
X012804Y009660D01*
X012641Y009592D01*
X012498Y009449D01*
X012420Y009261D01*
X012420Y009059D01*
X012420Y009152D02*
X005537Y009152D01*
X005537Y009311D02*
X012440Y009311D01*
X012518Y009469D02*
X011848Y009469D01*
X011743Y009660D02*
X008868Y009660D01*
X008805Y009723D01*
X008805Y010200D01*
X008305Y010200D01*
X008265Y010160D01*
X007180Y010160D01*
X007055Y010285D01*
X007055Y013285D01*
X007055Y014160D01*
X007118Y014098D01*
X008202Y014098D01*
X008243Y014138D01*
X008743Y014138D01*
X009069Y014066D02*
X010365Y014066D01*
X010365Y014224D02*
X009069Y014224D01*
X009069Y014383D02*
X010365Y014383D01*
X010301Y014541D02*
X009112Y014541D01*
X009119Y014700D02*
X010247Y014700D01*
X010278Y014858D02*
X009119Y014858D01*
X009119Y014826D02*
X009119Y015047D01*
X009107Y015093D01*
X009083Y015134D01*
X009050Y015168D01*
X009009Y015191D01*
X008963Y015204D01*
X008761Y015204D01*
X008761Y014826D01*
X009119Y014826D01*
X009119Y015017D02*
X010365Y015017D01*
X010365Y015175D02*
X009037Y015175D01*
X008761Y015175D02*
X008724Y015175D01*
X008724Y015017D02*
X008761Y015017D01*
X008761Y014858D02*
X008724Y014858D01*
X008724Y014826D02*
X008724Y014789D01*
X008366Y014789D01*
X008261Y014789D01*
X008261Y014826D01*
X008724Y014826D01*
X008261Y014858D02*
X008224Y014858D01*
X008224Y015017D02*
X008261Y015017D01*
X008261Y015175D02*
X008224Y015175D01*
X007948Y015175D02*
X007265Y015175D01*
X007265Y015017D02*
X007866Y015017D01*
X007866Y014858D02*
X007265Y014858D01*
X007265Y014700D02*
X007866Y014700D01*
X007873Y014541D02*
X007265Y014541D01*
X007265Y014383D02*
X007916Y014383D01*
X007055Y014160D02*
X007055Y016160D01*
X007055Y016866D01*
X007265Y017075D01*
X007180Y017160D01*
X007180Y020535D01*
X007180Y020910D01*
X007305Y021035D01*
X007993Y021035D01*
X008118Y021160D01*
X008118Y021450D01*
X008680Y021450D01*
X008294Y021040D02*
X010365Y021040D01*
X010365Y021198D02*
X009007Y021198D01*
X009007Y021357D02*
X010365Y021357D01*
X010365Y021515D02*
X009007Y021515D01*
X009007Y021674D02*
X010365Y021674D01*
X010322Y021832D02*
X009044Y021832D01*
X009057Y021991D02*
X010247Y021991D01*
X010269Y022149D02*
X009057Y022149D01*
X009057Y022138D02*
X009057Y022360D01*
X009045Y022406D01*
X009021Y022447D01*
X008987Y022480D01*
X008946Y022504D01*
X008901Y022516D01*
X008698Y022516D01*
X008698Y022138D01*
X009057Y022138D01*
X009057Y022308D02*
X010408Y022308D01*
X010702Y022308D02*
X012624Y022308D01*
X012484Y022466D02*
X009002Y022466D01*
X008698Y022466D02*
X008662Y022466D01*
X008662Y022308D02*
X008698Y022308D01*
X008698Y022149D02*
X008662Y022149D01*
X008136Y022149D02*
X008099Y022149D01*
X008099Y022138D02*
X008099Y022516D01*
X007897Y022516D01*
X007851Y022504D01*
X007810Y022480D01*
X007777Y022447D01*
X007753Y022406D01*
X007741Y022360D01*
X007741Y022138D01*
X008099Y022138D01*
X008099Y022308D02*
X008136Y022308D01*
X008136Y022466D02*
X008099Y022466D01*
X007796Y022466D02*
X005118Y022466D01*
X005118Y022410D02*
X002222Y022410D01*
X002222Y008535D01*
X013993Y008535D01*
X013993Y024285D01*
X005118Y024285D01*
X005118Y022410D01*
X005118Y022625D02*
X012420Y022625D01*
X012420Y022783D02*
X005118Y022783D01*
X005118Y022942D02*
X012469Y022942D01*
X012586Y023100D02*
X005118Y023100D01*
X005118Y023259D02*
X012717Y023259D01*
X012514Y023417D02*
X005118Y023417D01*
X005118Y023576D02*
X012439Y023576D01*
X012420Y023734D02*
X005118Y023734D01*
X005118Y023893D02*
X012448Y023893D01*
X012537Y024051D02*
X005118Y024051D01*
X005118Y024210D02*
X012773Y024210D01*
X013087Y024210D02*
X013993Y024210D01*
X013993Y024051D02*
X013323Y024051D01*
X013412Y023893D02*
X013993Y023893D01*
X013993Y023734D02*
X013440Y023734D01*
X013421Y023576D02*
X013993Y023576D01*
X013993Y023417D02*
X013346Y023417D01*
X013143Y023259D02*
X013993Y023259D01*
X013993Y023100D02*
X013274Y023100D01*
X013391Y022942D02*
X013993Y022942D01*
X013993Y022783D02*
X013440Y022783D01*
X013440Y022625D02*
X013993Y022625D01*
X013993Y022466D02*
X013376Y022466D01*
X013236Y022308D02*
X013993Y022308D01*
X013993Y022149D02*
X013225Y022149D01*
X013371Y021991D02*
X013993Y021991D01*
X013993Y021832D02*
X013437Y021832D01*
X013440Y021674D02*
X013993Y021674D01*
X013993Y021515D02*
X013396Y021515D01*
X013285Y021357D02*
X013993Y021357D01*
X013993Y021198D02*
X013228Y021198D01*
X013392Y021040D02*
X013993Y021040D01*
X013993Y020881D02*
X013467Y020881D01*
X013467Y020564D02*
X013993Y020564D01*
X013993Y020406D02*
X013392Y020406D01*
X013228Y020247D02*
X013993Y020247D01*
X013993Y020089D02*
X013285Y020089D01*
X013396Y019930D02*
X013993Y019930D01*
X013993Y019772D02*
X013440Y019772D01*
X013437Y019613D02*
X013993Y019613D01*
X013993Y019455D02*
X013371Y019455D01*
X013225Y019296D02*
X013993Y019296D01*
X013993Y019138D02*
X013236Y019138D01*
X013376Y018979D02*
X013993Y018979D01*
X013993Y018821D02*
X013440Y018821D01*
X013440Y018662D02*
X013993Y018662D01*
X013993Y018504D02*
X013391Y018504D01*
X013274Y018345D02*
X013993Y018345D01*
X013993Y018187D02*
X011327Y018187D01*
X011327Y018345D02*
X012586Y018345D01*
X012469Y018504D02*
X011327Y018504D01*
X011327Y018662D02*
X012420Y018662D01*
X012420Y018821D02*
X011327Y018821D01*
X011327Y018979D02*
X012484Y018979D01*
X012624Y019138D02*
X011327Y019138D01*
X011327Y019296D02*
X012635Y019296D01*
X012489Y019455D02*
X011327Y019455D01*
X011118Y019660D02*
X011180Y019723D01*
X012930Y019723D01*
X012575Y020089D02*
X010745Y020089D01*
X010745Y020247D02*
X012632Y020247D01*
X012468Y020406D02*
X010745Y020406D01*
X010745Y020564D02*
X012393Y020564D01*
X012393Y020881D02*
X010745Y020881D01*
X010745Y020723D02*
X012912Y020723D01*
X012948Y020723D02*
X013993Y020723D01*
X012632Y021198D02*
X010745Y021198D01*
X010745Y021040D02*
X012468Y021040D01*
X012575Y021357D02*
X010745Y021357D01*
X010745Y021515D02*
X012464Y021515D01*
X012420Y021674D02*
X010745Y021674D01*
X010788Y021832D02*
X012423Y021832D01*
X011091Y019930D02*
X010745Y019930D01*
X010745Y019772D02*
X010932Y019772D01*
X010908Y019613D02*
X010745Y019613D01*
X010745Y019455D02*
X010908Y019455D01*
X010908Y019296D02*
X010745Y019296D01*
X010745Y019138D02*
X010908Y019138D01*
X010908Y018979D02*
X010745Y018979D01*
X010745Y018821D02*
X010908Y018821D01*
X010908Y018662D02*
X010745Y018662D01*
X010745Y018504D02*
X010908Y018504D01*
X010908Y018345D02*
X010745Y018345D01*
X010745Y018187D02*
X010908Y018187D01*
X010908Y018028D02*
X010745Y018028D01*
X010781Y017870D02*
X010908Y017870D01*
X010908Y017711D02*
X010863Y017711D01*
X010844Y017553D02*
X010908Y017553D01*
X010908Y017394D02*
X010745Y017394D01*
X010745Y017236D02*
X010908Y017236D01*
X010908Y017077D02*
X010745Y017077D01*
X010745Y016919D02*
X010908Y016919D01*
X010908Y016760D02*
X010745Y016760D01*
X010745Y016602D02*
X010908Y016602D01*
X010908Y016443D02*
X010745Y016443D01*
X010745Y016285D02*
X010908Y016285D01*
X010908Y016126D02*
X010745Y016126D01*
X010745Y015968D02*
X010908Y015968D01*
X010846Y015809D02*
X010745Y015809D01*
X010745Y015651D02*
X010809Y015651D01*
X010854Y015492D02*
X010745Y015492D01*
X010745Y015334D02*
X013993Y015334D01*
X013993Y015492D02*
X011381Y015492D01*
X011426Y015651D02*
X013993Y015651D01*
X013993Y015809D02*
X011389Y015809D01*
X011327Y015968D02*
X013993Y015968D01*
X013993Y016126D02*
X011327Y016126D01*
X011327Y016285D02*
X013993Y016285D01*
X013993Y016443D02*
X011327Y016443D01*
X011327Y016602D02*
X013993Y016602D01*
X013993Y016760D02*
X011327Y016760D01*
X011327Y016919D02*
X013993Y016919D01*
X013993Y017077D02*
X011327Y017077D01*
X011327Y017236D02*
X013993Y017236D01*
X013993Y017394D02*
X011327Y017394D01*
X011327Y017553D02*
X013993Y017553D01*
X013993Y017711D02*
X011327Y017711D01*
X011327Y017870D02*
X013993Y017870D01*
X013993Y018028D02*
X011327Y018028D01*
X010365Y018028D02*
X009108Y018028D01*
X009119Y017870D02*
X010329Y017870D01*
X010247Y017711D02*
X009119Y017711D01*
X009119Y017553D02*
X010266Y017553D01*
X010365Y017394D02*
X009060Y017394D01*
X009069Y017236D02*
X010365Y017236D01*
X010365Y017077D02*
X009069Y017077D01*
X009069Y016919D02*
X010365Y016919D01*
X010365Y016760D02*
X009024Y016760D01*
X008743Y017075D02*
X007720Y017075D01*
X007898Y016760D02*
X007265Y016760D01*
X007265Y016602D02*
X010365Y016602D01*
X010365Y016443D02*
X007265Y016443D01*
X007337Y016285D02*
X010365Y016285D01*
X010365Y016126D02*
X007363Y016126D01*
X007298Y015968D02*
X010365Y015968D01*
X010365Y015809D02*
X007265Y015809D01*
X007265Y015651D02*
X010365Y015651D01*
X010365Y015492D02*
X007265Y015492D01*
X007265Y015334D02*
X010365Y015334D01*
X010745Y015175D02*
X013993Y015175D01*
X013993Y015017D02*
X010745Y015017D01*
X010832Y014858D02*
X013993Y014858D01*
X013993Y014700D02*
X010863Y014700D01*
X010809Y014541D02*
X012590Y014541D01*
X012470Y014383D02*
X012268Y014383D01*
X012362Y014224D02*
X012420Y014224D01*
X012420Y014066D02*
X012349Y014066D01*
X012238Y013907D02*
X012483Y013907D01*
X012620Y013749D02*
X012235Y013749D01*
X012235Y013590D02*
X012639Y013590D01*
X012490Y013432D02*
X012235Y013432D01*
X011971Y013115D02*
X010745Y013115D01*
X010745Y013273D02*
X011875Y013273D01*
X011875Y013432D02*
X010745Y013432D01*
X010745Y013590D02*
X011875Y013590D01*
X011875Y013749D02*
X010745Y013749D01*
X010745Y013907D02*
X011872Y013907D01*
X011761Y014066D02*
X010745Y014066D01*
X010745Y014224D02*
X011748Y014224D01*
X011842Y014383D02*
X010745Y014383D01*
X010365Y013907D02*
X009069Y013907D01*
X010365Y013749D02*
X007265Y013749D01*
X007265Y013590D02*
X010365Y013590D01*
X010365Y013432D02*
X007328Y013432D01*
X007363Y013273D02*
X010365Y013273D01*
X010365Y013115D02*
X007318Y013115D01*
X007265Y012956D02*
X010365Y012956D01*
X010365Y012798D02*
X007265Y012798D01*
X007265Y012639D02*
X010365Y012639D01*
X010365Y012481D02*
X007265Y012481D01*
X007265Y012322D02*
X010365Y012322D01*
X010365Y012164D02*
X007265Y012164D01*
X007265Y012005D02*
X010365Y012005D01*
X010365Y011847D02*
X007265Y011847D01*
X007265Y011688D02*
X010365Y011688D01*
X010365Y011530D02*
X007265Y011530D01*
X007265Y011371D02*
X010365Y011371D01*
X010365Y011213D02*
X009130Y011213D01*
X009146Y011197D02*
X009112Y011230D01*
X009071Y011254D01*
X009026Y011266D01*
X008823Y011266D01*
X008823Y010888D01*
X009182Y010888D01*
X009182Y011110D01*
X009170Y011156D01*
X009146Y011197D01*
X009182Y011054D02*
X010365Y011054D01*
X010267Y010896D02*
X009182Y010896D01*
X009182Y010737D02*
X010247Y010737D01*
X010326Y010579D02*
X009167Y010579D01*
X009132Y010420D02*
X012486Y010420D01*
X012243Y010160D02*
X011743Y009660D01*
X012007Y009628D02*
X012726Y009628D01*
X012583Y009786D02*
X012165Y009786D01*
X012324Y009945D02*
X012467Y009945D01*
X012243Y010160D02*
X012930Y010160D01*
X013545Y010737D02*
X013993Y010737D01*
X013993Y010579D02*
X013672Y010579D01*
X013672Y010420D02*
X013993Y010420D01*
X013993Y010262D02*
X013672Y010262D01*
X013672Y010103D02*
X013993Y010103D01*
X013993Y009945D02*
X013672Y009945D01*
X013672Y009786D02*
X013993Y009786D01*
X013993Y009628D02*
X013672Y009628D01*
X013672Y009469D02*
X013993Y009469D01*
X013993Y009311D02*
X013672Y009311D01*
X013552Y009152D02*
X013993Y009152D01*
X013993Y008994D02*
X013413Y008994D01*
X013326Y008835D02*
X013993Y008835D01*
X013993Y008677D02*
X013095Y008677D01*
X012765Y008677D02*
X002222Y008677D01*
X002222Y008835D02*
X012534Y008835D01*
X011730Y009945D02*
X009132Y009945D01*
X009132Y010103D02*
X011889Y010103D01*
X012047Y010262D02*
X009132Y010262D01*
X008787Y010851D02*
X008428Y010851D01*
X008323Y010851D01*
X008323Y010888D01*
X008787Y010888D01*
X008787Y010851D01*
X008787Y010896D02*
X008823Y010896D01*
X008823Y011054D02*
X008787Y011054D01*
X008787Y011213D02*
X008823Y011213D01*
X008323Y011213D02*
X008287Y011213D01*
X008287Y011054D02*
X008323Y011054D01*
X008323Y010896D02*
X008287Y010896D01*
X007978Y010420D02*
X007265Y010420D01*
X007265Y010579D02*
X007943Y010579D01*
X007928Y010737D02*
X007265Y010737D01*
X007265Y010896D02*
X007928Y010896D01*
X007928Y011054D02*
X007265Y011054D01*
X007265Y011213D02*
X007980Y011213D01*
X006845Y011213D02*
X006091Y011213D01*
X006113Y011054D02*
X006845Y011054D01*
X006845Y010896D02*
X006039Y010896D01*
X006092Y010737D02*
X006845Y010737D01*
X006845Y010579D02*
X006092Y010579D01*
X006092Y010420D02*
X006845Y010420D01*
X006845Y010262D02*
X006063Y010262D01*
X005805Y010523D02*
X005805Y011098D01*
X005950Y011371D02*
X006845Y011371D01*
X006845Y011530D02*
X002222Y011530D01*
X002222Y011688D02*
X006845Y011688D01*
X006845Y011847D02*
X002222Y011847D01*
X002222Y012005D02*
X006845Y012005D01*
X006845Y012164D02*
X002222Y012164D01*
X002222Y012322D02*
X006845Y012322D01*
X006845Y012481D02*
X002222Y012481D01*
X002222Y012639D02*
X003298Y012639D01*
X003104Y012798D02*
X002222Y012798D01*
X002222Y012956D02*
X003025Y012956D01*
X002995Y013115D02*
X002222Y013115D01*
X002222Y013273D02*
X003004Y013273D01*
X003070Y013432D02*
X002222Y013432D01*
X002222Y013590D02*
X003214Y013590D01*
X003214Y014066D02*
X002222Y014066D01*
X002222Y014224D02*
X003070Y014224D01*
X003004Y014383D02*
X002222Y014383D01*
X002222Y014541D02*
X002995Y014541D01*
X003025Y014700D02*
X002222Y014700D01*
X002222Y014858D02*
X003104Y014858D01*
X003298Y015017D02*
X002222Y015017D01*
X002222Y015175D02*
X005640Y015175D01*
X005516Y015017D02*
X005454Y015017D01*
X005475Y014858D02*
X005497Y014858D01*
X005475Y014700D02*
X005580Y014700D01*
X005595Y014541D02*
X005442Y014541D01*
X005478Y014383D02*
X005377Y014383D01*
X005168Y014235D02*
X005305Y014098D01*
X005783Y014098D01*
X005805Y014120D01*
X005805Y014910D01*
X006030Y014700D02*
X006845Y014700D01*
X006845Y014858D02*
X006113Y014858D01*
X006094Y015017D02*
X006845Y015017D01*
X006845Y015175D02*
X005970Y015175D01*
X006015Y014541D02*
X006845Y014541D01*
X006845Y014383D02*
X006132Y014383D01*
X006132Y014224D02*
X006845Y014224D01*
X006845Y014066D02*
X006132Y014066D01*
X006132Y013907D02*
X006845Y013907D01*
X006845Y013749D02*
X006104Y013749D01*
X005805Y013450D02*
X005845Y013410D01*
X006493Y013410D01*
X006584Y013115D02*
X006792Y013115D01*
X006845Y012956D02*
X005475Y012956D01*
X005475Y012798D02*
X006845Y012798D01*
X006845Y012639D02*
X005475Y012639D01*
X005168Y012848D02*
X005168Y013273D01*
X005305Y013410D01*
X005765Y013410D01*
X005805Y013450D01*
X005506Y013749D02*
X002222Y013749D01*
X002222Y013907D02*
X005198Y013907D01*
X005040Y014066D02*
X003896Y014066D01*
X004040Y014224D02*
X004958Y014224D01*
X004958Y014383D02*
X004575Y014383D01*
X004430Y014535D02*
X003573Y014535D01*
X003555Y014517D01*
X003812Y015017D02*
X004281Y015017D01*
X004260Y014858D02*
X004006Y014858D01*
X004430Y014535D02*
X004568Y014673D01*
X004568Y014785D01*
X004842Y014541D02*
X004893Y014541D01*
X005168Y014785D02*
X005168Y014235D01*
X005188Y013590D02*
X003896Y013590D01*
X004040Y013432D02*
X005030Y013432D01*
X004958Y013273D02*
X004551Y013273D01*
X004430Y013098D02*
X003596Y013098D01*
X003555Y013139D01*
X003812Y012639D02*
X004260Y012639D01*
X004260Y012798D02*
X004006Y012798D01*
X004430Y013098D02*
X004568Y012960D01*
X004568Y012848D01*
X004819Y013115D02*
X004916Y013115D01*
X005419Y013115D02*
X005544Y013115D01*
X006066Y013115D02*
X006401Y013115D01*
X006748Y013590D02*
X006845Y013590D01*
X005827Y014098D02*
X005805Y014120D01*
X004881Y015017D02*
X004854Y015017D01*
X004799Y016060D02*
X004336Y016060D01*
X004260Y016136D01*
X004260Y016450D01*
X004083Y016450D01*
X004030Y016322D01*
X003872Y016164D01*
X003666Y016079D01*
X003444Y016079D01*
X003238Y016164D01*
X003080Y016322D01*
X002995Y016527D01*
X002995Y016750D01*
X003080Y016956D01*
X003238Y017114D01*
X003444Y017199D01*
X003666Y017199D01*
X003872Y017114D01*
X004030Y016956D01*
X004065Y016870D01*
X004454Y016870D01*
X004577Y016747D01*
X004690Y016635D01*
X004799Y016635D01*
X004867Y016566D01*
X004936Y016635D01*
X004958Y016635D01*
X004958Y016922D01*
X005095Y017059D01*
X005218Y017182D01*
X005478Y017182D01*
X005478Y017221D01*
X005542Y017285D01*
X005478Y017349D01*
X005478Y017388D01*
X005218Y017388D01*
X005095Y017511D01*
X004958Y017648D01*
X004958Y017935D01*
X004936Y017935D01*
X004867Y018004D01*
X004799Y017935D01*
X004577Y017935D01*
X004449Y017807D01*
X004074Y017807D01*
X004030Y017700D01*
X003872Y017542D01*
X003666Y017457D01*
X003444Y017457D01*
X003238Y017542D01*
X003080Y017700D01*
X002995Y017905D01*
X002995Y018128D01*
X003080Y018334D01*
X003238Y018492D01*
X003444Y018577D01*
X003666Y018577D01*
X003872Y018492D01*
X004030Y018334D01*
X004074Y018227D01*
X004260Y018227D01*
X004260Y018434D01*
X004336Y018510D01*
X004799Y018510D01*
X004867Y018441D01*
X004936Y018510D01*
X005399Y018510D01*
X005475Y018434D01*
X005475Y018011D01*
X005399Y017935D01*
X005377Y017935D01*
X005377Y017822D01*
X005392Y017807D01*
X005478Y017807D01*
X005478Y017890D01*
X005554Y017966D01*
X005595Y017966D01*
X005595Y018122D01*
X005544Y018173D01*
X005497Y018286D01*
X005497Y018409D01*
X005544Y018522D01*
X005630Y018609D01*
X005744Y018656D01*
X005866Y018656D01*
X005980Y018609D01*
X006066Y018522D01*
X006113Y018409D01*
X006113Y018286D01*
X006066Y018173D01*
X006015Y018122D01*
X006015Y017966D01*
X006056Y017966D01*
X006132Y017890D01*
X006132Y017818D01*
X006140Y017809D01*
X006140Y017636D01*
X006132Y017627D01*
X006132Y017349D01*
X006068Y017285D01*
X006132Y017221D01*
X006132Y017182D01*
X006204Y017182D01*
X006255Y017234D01*
X006369Y017281D01*
X006491Y017281D01*
X006605Y017234D01*
X006691Y017147D01*
X006738Y017034D01*
X006738Y016911D01*
X006691Y016798D01*
X006605Y016711D01*
X006491Y016664D01*
X006369Y016664D01*
X006255Y016711D01*
X006204Y016763D01*
X006132Y016763D01*
X006132Y016680D01*
X006056Y016604D01*
X005554Y016604D01*
X005478Y016680D01*
X005478Y016763D01*
X005392Y016763D01*
X005377Y016748D01*
X005377Y016635D01*
X005399Y016635D01*
X005475Y016559D01*
X005475Y016136D01*
X005399Y016060D01*
X004936Y016060D01*
X004867Y016129D01*
X004799Y016060D01*
X004865Y016126D02*
X004870Y016126D01*
X005168Y016348D02*
X005168Y016835D01*
X005305Y016973D01*
X005783Y016973D01*
X005805Y016950D01*
X005827Y016973D01*
X006430Y016973D01*
X006653Y016760D02*
X006845Y016760D01*
X006845Y016602D02*
X005432Y016602D01*
X005390Y016760D02*
X005478Y016760D01*
X005475Y016443D02*
X006845Y016443D01*
X006773Y016285D02*
X005475Y016285D01*
X005465Y016126D02*
X006747Y016126D01*
X006812Y015968D02*
X002222Y015968D01*
X002222Y016126D02*
X003330Y016126D01*
X003117Y016285D02*
X002222Y016285D01*
X002222Y016443D02*
X003030Y016443D01*
X002995Y016602D02*
X002222Y016602D01*
X002222Y016760D02*
X002999Y016760D01*
X003065Y016919D02*
X002222Y016919D01*
X002222Y017077D02*
X003201Y017077D01*
X003227Y017553D02*
X002222Y017553D01*
X002222Y017711D02*
X003076Y017711D01*
X003010Y017870D02*
X002222Y017870D01*
X002222Y018028D02*
X002995Y018028D01*
X003019Y018187D02*
X002222Y018187D01*
X002222Y018345D02*
X003091Y018345D01*
X003267Y018504D02*
X002222Y018504D01*
X002222Y018662D02*
X006970Y018662D01*
X006970Y018504D02*
X006074Y018504D01*
X006113Y018345D02*
X006970Y018345D01*
X006970Y018187D02*
X006072Y018187D01*
X006015Y018028D02*
X006970Y018028D01*
X006970Y017870D02*
X006132Y017870D01*
X006140Y017711D02*
X006970Y017711D01*
X006970Y017553D02*
X006132Y017553D01*
X006132Y017394D02*
X006970Y017394D01*
X006970Y017236D02*
X006600Y017236D01*
X006720Y017077D02*
X006969Y017077D01*
X006968Y017076D02*
X006968Y017076D01*
X006845Y016919D02*
X006738Y016919D01*
X007265Y017075D02*
X008180Y017075D01*
X007863Y017394D02*
X007390Y017394D01*
X007390Y017553D02*
X007803Y017553D01*
X007803Y017711D02*
X007390Y017711D01*
X007390Y017870D02*
X007803Y017870D01*
X007815Y018028D02*
X007390Y018028D01*
X007390Y018187D02*
X010365Y018187D01*
X010365Y018345D02*
X007390Y018345D01*
X007390Y018504D02*
X010365Y018504D01*
X010365Y018662D02*
X007390Y018662D01*
X007390Y018821D02*
X010365Y018821D01*
X010365Y018979D02*
X007390Y018979D01*
X007390Y019138D02*
X010365Y019138D01*
X010365Y019296D02*
X007390Y019296D01*
X007390Y019455D02*
X010365Y019455D01*
X010365Y019613D02*
X007390Y019613D01*
X007390Y019772D02*
X010365Y019772D01*
X010365Y019930D02*
X007390Y019930D01*
X007390Y020089D02*
X010365Y020089D01*
X010365Y020247D02*
X007390Y020247D01*
X007460Y020406D02*
X010365Y020406D01*
X010365Y020564D02*
X007488Y020564D01*
X007428Y020723D02*
X010365Y020723D01*
X010365Y020881D02*
X008136Y020881D01*
X007791Y021357D02*
X006132Y021357D01*
X006132Y021453D02*
X006056Y021529D01*
X006015Y021529D01*
X006015Y021737D01*
X006105Y021774D01*
X006191Y021860D01*
X006238Y021974D01*
X006238Y022096D01*
X006191Y022210D01*
X006105Y022296D01*
X005991Y022343D01*
X005869Y022343D01*
X005755Y022296D01*
X005669Y022210D01*
X005622Y022096D01*
X005622Y022024D01*
X005595Y021997D01*
X005595Y021529D01*
X005554Y021529D01*
X005478Y021453D01*
X005478Y021432D01*
X005392Y021432D01*
X005377Y021447D01*
X005377Y021498D01*
X005399Y021498D01*
X005475Y021574D01*
X005475Y021996D01*
X005399Y022072D01*
X004936Y022072D01*
X004867Y022003D01*
X004799Y022072D01*
X004336Y022072D01*
X004260Y021996D01*
X004260Y021789D01*
X004074Y021789D01*
X004030Y021897D01*
X003872Y022054D01*
X003666Y022139D01*
X003444Y022139D01*
X003238Y022054D01*
X003080Y021897D01*
X002995Y021691D01*
X002995Y021468D01*
X003080Y021262D01*
X003238Y021105D01*
X003444Y021019D01*
X003666Y021019D01*
X003872Y021105D01*
X004030Y021262D01*
X004074Y021369D01*
X004449Y021369D01*
X004577Y021498D01*
X004799Y021498D01*
X004867Y021567D01*
X004936Y021498D01*
X004958Y021498D01*
X004958Y021273D01*
X005095Y021136D01*
X005218Y021013D01*
X005478Y021013D01*
X005478Y020912D01*
X005542Y020848D01*
X005478Y020783D01*
X005478Y020745D01*
X005281Y020745D01*
X005158Y020622D01*
X004958Y020422D01*
X004958Y020197D01*
X004936Y020197D01*
X004867Y020128D01*
X004799Y020197D01*
X004577Y020197D01*
X004486Y020288D01*
X004486Y020288D01*
X004363Y020411D01*
X004074Y020411D01*
X004030Y020519D01*
X003872Y020676D01*
X003666Y020761D01*
X003444Y020761D01*
X003238Y020676D01*
X003080Y020519D01*
X002995Y020313D01*
X002995Y020090D01*
X003080Y019884D01*
X003238Y019727D01*
X003444Y019641D01*
X003666Y019641D01*
X003872Y019727D01*
X004030Y019884D01*
X004074Y019991D01*
X004189Y019991D01*
X004260Y019920D01*
X004260Y019699D01*
X004336Y019623D01*
X004799Y019623D01*
X004867Y019692D01*
X004936Y019623D01*
X005399Y019623D01*
X005475Y019699D01*
X005475Y020121D01*
X005399Y020197D01*
X005377Y020197D01*
X005377Y020248D01*
X005454Y020325D01*
X005478Y020325D01*
X005478Y020242D01*
X005554Y020166D01*
X006056Y020166D01*
X006132Y020242D01*
X006132Y020325D01*
X006142Y020325D01*
X006193Y020274D01*
X006306Y020227D01*
X006429Y020227D01*
X006542Y020274D01*
X006629Y020360D01*
X006676Y020474D01*
X006676Y020596D01*
X006629Y020710D01*
X006542Y020796D01*
X006429Y020843D01*
X006306Y020843D01*
X006193Y020796D01*
X006142Y020745D01*
X006132Y020745D01*
X006132Y020783D01*
X006068Y020848D01*
X006132Y020912D01*
X006132Y021453D01*
X006069Y021515D02*
X007791Y021515D01*
X007791Y021674D02*
X006015Y021674D01*
X006163Y021832D02*
X007754Y021832D01*
X007741Y021991D02*
X006238Y021991D01*
X006216Y022149D02*
X007741Y022149D01*
X007741Y022308D02*
X006077Y022308D01*
X005783Y022308D02*
X002222Y022308D01*
X002222Y022149D02*
X005644Y022149D01*
X005595Y021991D02*
X005475Y021991D01*
X005475Y021832D02*
X005595Y021832D01*
X005595Y021674D02*
X005475Y021674D01*
X005416Y021515D02*
X005541Y021515D01*
X005765Y021223D02*
X005305Y021223D01*
X005168Y021360D01*
X005168Y021785D01*
X004919Y021515D02*
X004816Y021515D01*
X004958Y021357D02*
X004069Y021357D01*
X003966Y021198D02*
X005032Y021198D01*
X005191Y021040D02*
X003715Y021040D01*
X003395Y021040D02*
X002222Y021040D01*
X002222Y021198D02*
X003144Y021198D01*
X003041Y021357D02*
X002222Y021357D01*
X002222Y021515D02*
X002995Y021515D01*
X002995Y021674D02*
X002222Y021674D01*
X002222Y021832D02*
X003054Y021832D01*
X003174Y021991D02*
X002222Y021991D01*
X002222Y020881D02*
X005509Y020881D01*
X005258Y020723D02*
X003760Y020723D01*
X003984Y020564D02*
X005100Y020564D01*
X004958Y020406D02*
X004369Y020406D01*
X004527Y020247D02*
X004958Y020247D01*
X005168Y020335D02*
X005368Y020535D01*
X005783Y020535D01*
X005805Y020513D01*
X005827Y020535D01*
X006368Y020535D01*
X006647Y020406D02*
X006900Y020406D01*
X006872Y020564D02*
X006676Y020564D01*
X006616Y020723D02*
X006932Y020723D01*
X006970Y020881D02*
X006101Y020881D01*
X006132Y021040D02*
X007013Y021040D01*
X007171Y021198D02*
X006132Y021198D01*
X005908Y021285D02*
X005805Y021182D01*
X005805Y021910D01*
X005930Y022035D01*
X005765Y021223D02*
X005805Y021182D01*
X005478Y020247D02*
X005377Y020247D01*
X005475Y020089D02*
X006970Y020089D01*
X006970Y020247D02*
X006477Y020247D01*
X006258Y020247D02*
X006132Y020247D01*
X005475Y019930D02*
X006970Y019930D01*
X006970Y019772D02*
X005475Y019772D01*
X005168Y019910D02*
X005168Y020335D01*
X004568Y019910D02*
X004276Y020201D01*
X003555Y020201D01*
X003917Y019772D02*
X004260Y019772D01*
X004250Y019930D02*
X004049Y019930D01*
X003350Y020723D02*
X002222Y020723D01*
X002222Y020564D02*
X003126Y020564D01*
X003033Y020406D02*
X002222Y020406D01*
X002222Y020247D02*
X002995Y020247D01*
X002996Y020089D02*
X002222Y020089D01*
X002222Y019930D02*
X003061Y019930D01*
X003193Y019772D02*
X002222Y019772D01*
X002222Y019613D02*
X006970Y019613D01*
X006970Y019455D02*
X002222Y019455D01*
X002222Y019296D02*
X006970Y019296D01*
X006970Y019138D02*
X002222Y019138D01*
X002222Y018979D02*
X006970Y018979D01*
X006970Y018821D02*
X002222Y018821D01*
X002222Y017394D02*
X005211Y017394D01*
X005053Y017553D02*
X003883Y017553D01*
X004034Y017711D02*
X004958Y017711D01*
X004958Y017870D02*
X004512Y017870D01*
X004362Y018017D02*
X004568Y018223D01*
X004362Y018017D02*
X003555Y018017D01*
X003843Y018504D02*
X004330Y018504D01*
X004260Y018345D02*
X004019Y018345D01*
X004805Y018504D02*
X004930Y018504D01*
X005168Y018223D02*
X005168Y017735D01*
X005305Y017598D01*
X005783Y017598D01*
X005805Y017620D01*
X005805Y018348D01*
X005497Y018345D02*
X005475Y018345D01*
X005475Y018187D02*
X005538Y018187D01*
X005595Y018028D02*
X005475Y018028D01*
X005478Y017870D02*
X005377Y017870D01*
X005805Y017620D02*
X005908Y017723D01*
X005930Y017723D01*
X006117Y017236D02*
X006260Y017236D01*
X006207Y016760D02*
X006132Y016760D01*
X005493Y017236D02*
X002222Y017236D01*
X002222Y015809D02*
X006845Y015809D01*
X006845Y015651D02*
X002222Y015651D01*
X002222Y015492D02*
X006845Y015492D01*
X006845Y015334D02*
X002222Y015334D01*
X003555Y016639D02*
X003576Y016660D01*
X004368Y016660D01*
X004568Y016460D01*
X004568Y016348D01*
X004260Y016285D02*
X003993Y016285D01*
X004080Y016443D02*
X004260Y016443D01*
X004270Y016126D02*
X003780Y016126D01*
X004045Y016919D02*
X004958Y016919D01*
X004958Y016760D02*
X004564Y016760D01*
X004832Y016602D02*
X004903Y016602D01*
X005113Y017077D02*
X003909Y017077D01*
X005405Y018504D02*
X005536Y018504D01*
X008162Y018028D02*
X008198Y018028D01*
X008198Y018141D02*
X008198Y017763D01*
X008557Y017763D01*
X008724Y017763D01*
X008724Y018141D01*
X008522Y018141D01*
X008476Y018129D01*
X008461Y018120D01*
X008446Y018129D01*
X008401Y018141D01*
X008198Y018141D01*
X008198Y017870D02*
X008162Y017870D01*
X008724Y017870D02*
X008761Y017870D01*
X008761Y018028D02*
X008724Y018028D01*
X011118Y019660D02*
X011118Y015660D01*
X013270Y014541D02*
X013993Y014541D01*
X013993Y014383D02*
X013390Y014383D01*
X013440Y014224D02*
X013993Y014224D01*
X013993Y014066D02*
X013440Y014066D01*
X013377Y013907D02*
X013993Y013907D01*
X013993Y013749D02*
X013240Y013749D01*
X013221Y013590D02*
X013993Y013590D01*
X013993Y013432D02*
X013370Y013432D01*
X013435Y013273D02*
X013993Y013273D01*
X013993Y013115D02*
X013440Y013115D01*
X013398Y012956D02*
X013993Y012956D01*
X013993Y012798D02*
X013289Y012798D01*
X013106Y012639D02*
X013993Y012639D01*
X013993Y012481D02*
X013331Y012481D01*
X013415Y012322D02*
X013993Y012322D01*
X013993Y012164D02*
X013440Y012164D01*
X013418Y012005D02*
X013993Y012005D01*
X013993Y011847D02*
X013338Y011847D01*
X013123Y011688D02*
X013993Y011688D01*
X013993Y011530D02*
X013352Y011530D01*
X013450Y011371D02*
X013993Y011371D01*
X013993Y011213D02*
X013489Y011213D01*
X013480Y011054D02*
X013993Y011054D01*
X013993Y010896D02*
X013424Y010896D01*
X012436Y010896D02*
X011926Y010896D01*
X011891Y011054D02*
X012380Y011054D01*
X012371Y011213D02*
X011692Y011213D01*
X011543Y011213D02*
X010745Y011213D01*
X010745Y011371D02*
X012410Y011371D01*
X012508Y011530D02*
X010745Y011530D01*
X010745Y011688D02*
X012737Y011688D01*
X012522Y011847D02*
X010745Y011847D01*
X010745Y012481D02*
X012529Y012481D01*
X012754Y012639D02*
X010745Y012639D01*
X010745Y012798D02*
X012571Y012798D01*
X012462Y012956D02*
X010745Y012956D01*
X010745Y011054D02*
X011344Y011054D01*
X011309Y010896D02*
X010843Y010896D01*
X010863Y010737D02*
X011356Y010737D01*
X011694Y010579D02*
X010784Y010579D01*
X008762Y009469D02*
X005502Y009469D01*
X005452Y009628D02*
X005581Y009628D01*
X005443Y009923D02*
X005243Y009723D01*
X005243Y009235D01*
X005230Y009223D01*
X004958Y009469D02*
X004902Y009469D01*
X005033Y009628D02*
X004697Y009628D01*
X004493Y009535D02*
X003576Y009535D01*
X003555Y009514D01*
X004077Y009311D02*
X004323Y009311D01*
X004323Y009152D02*
X003985Y009152D01*
X003762Y008994D02*
X004340Y008994D01*
X004630Y009223D02*
X004630Y009398D01*
X004493Y009535D01*
X004048Y009786D02*
X005033Y009786D01*
X005168Y009945D02*
X003916Y009945D01*
X003875Y010420D02*
X005185Y010420D01*
X005368Y010535D02*
X005230Y010673D01*
X005230Y011160D01*
X004976Y010896D02*
X004884Y010896D01*
X005020Y010737D02*
X004616Y010737D01*
X004493Y010910D02*
X003573Y010910D01*
X003555Y010892D01*
X003235Y010420D02*
X002222Y010420D01*
X002222Y010262D02*
X005547Y010262D01*
X005326Y010103D02*
X002222Y010103D01*
X002222Y009945D02*
X003194Y009945D01*
X003062Y009786D02*
X002222Y009786D01*
X002222Y009628D02*
X002996Y009628D01*
X002995Y009469D02*
X002222Y009469D01*
X002222Y009311D02*
X003033Y009311D01*
X003125Y009152D02*
X002222Y009152D01*
X002222Y008994D02*
X003348Y008994D01*
X004920Y008994D02*
X004940Y008994D01*
X005443Y009923D02*
X005805Y009923D01*
X005818Y009910D01*
X006305Y009910D01*
X006182Y009628D02*
X006029Y009628D01*
X006428Y009628D02*
X008603Y009628D01*
X008595Y009786D02*
X006587Y009786D01*
X006613Y009945D02*
X007978Y009945D01*
X006940Y010103D02*
X006548Y010103D01*
X005805Y010523D02*
X005793Y010535D01*
X005368Y010535D01*
X005027Y010579D02*
X004031Y010579D01*
X004067Y011120D02*
X004030Y011209D01*
X003872Y011367D01*
X004026Y011213D02*
X004323Y011213D01*
X004323Y011120D02*
X004323Y011371D01*
X004323Y011120D02*
X004067Y011120D01*
X004493Y010910D02*
X004630Y011048D01*
X004630Y011160D01*
X003249Y011371D02*
X002222Y011371D01*
X002222Y011213D02*
X003084Y011213D01*
X003016Y011054D02*
X002222Y011054D01*
X002222Y010896D02*
X002995Y010896D01*
X003013Y010737D02*
X002222Y010737D01*
X002222Y010579D02*
X003079Y010579D01*
X003555Y021579D02*
X004362Y021579D01*
X004568Y021785D01*
X004260Y021832D02*
X004056Y021832D01*
X003936Y021991D02*
X004260Y021991D01*
X016180Y013388D02*
X016680Y013388D01*
D25*
X016718Y013353D02*
X017263Y013353D01*
X017263Y013471D02*
X017037Y013471D01*
X017037Y013426D02*
X017037Y013625D01*
X017026Y013666D01*
X017005Y013703D01*
X016975Y013732D01*
X016943Y013751D01*
X016987Y013795D01*
X016987Y013805D01*
X017263Y013805D01*
X017263Y009318D01*
X017210Y009265D01*
X015295Y009265D01*
X015281Y009279D01*
X015175Y009323D01*
X015060Y009323D01*
X014954Y009279D01*
X014873Y009198D01*
X014829Y009092D01*
X014829Y008978D01*
X014873Y008872D01*
X014954Y008791D01*
X015060Y008747D01*
X015175Y008747D01*
X015281Y008791D01*
X015295Y008805D01*
X017400Y008805D01*
X017588Y008993D01*
X017722Y009127D01*
X017722Y016630D01*
X017588Y016765D01*
X017285Y017068D01*
X017285Y020690D01*
X017400Y020805D01*
X017513Y020805D01*
X017513Y020619D01*
X017577Y020555D01*
X018408Y020555D01*
X018472Y020619D01*
X018472Y021451D01*
X018408Y021515D01*
X017577Y021515D01*
X017513Y021451D01*
X017513Y021265D01*
X017210Y021265D01*
X017075Y021130D01*
X016825Y020880D01*
X016825Y016877D01*
X017263Y016440D01*
X017263Y015632D01*
X016551Y015632D01*
X016549Y015636D01*
X016468Y015717D01*
X016388Y015750D01*
X016678Y015750D01*
X016685Y015747D01*
X016800Y015747D01*
X016906Y015791D01*
X016987Y015872D01*
X017031Y015978D01*
X017031Y016092D01*
X016987Y016198D01*
X016906Y016279D01*
X016800Y016323D01*
X016685Y016323D01*
X016579Y016279D01*
X016498Y016198D01*
X016454Y016092D01*
X016454Y016070D01*
X015176Y016070D01*
X015174Y016073D01*
X015093Y016154D01*
X015079Y016160D01*
X015093Y016166D01*
X015174Y016247D01*
X015176Y016250D01*
X015872Y016250D01*
X015873Y016247D01*
X015954Y016166D01*
X016060Y016122D01*
X016175Y016122D01*
X016281Y016166D01*
X016362Y016247D01*
X016406Y016353D01*
X016406Y016467D01*
X016362Y016573D01*
X016281Y016654D01*
X016179Y016696D01*
X016218Y016790D01*
X016218Y016905D01*
X016215Y016912D01*
X016215Y019164D01*
X016029Y019349D01*
X016031Y019353D01*
X016031Y019467D01*
X015987Y019573D01*
X015906Y019654D01*
X015800Y019698D01*
X015685Y019698D01*
X015579Y019654D01*
X015498Y019573D01*
X015454Y019467D01*
X015454Y019353D01*
X015498Y019247D01*
X015579Y019166D01*
X015685Y019122D01*
X015800Y019122D01*
X015803Y019123D01*
X015895Y019031D01*
X015895Y018659D01*
X015800Y018698D01*
X015685Y018698D01*
X015579Y018654D01*
X015498Y018573D01*
X015454Y018467D01*
X015454Y018353D01*
X015498Y018247D01*
X015579Y018166D01*
X015583Y018164D01*
X015583Y017531D01*
X015579Y017529D01*
X015498Y017448D01*
X015454Y017342D01*
X015454Y017228D01*
X015498Y017122D01*
X015579Y017041D01*
X015681Y016999D01*
X015642Y016905D01*
X015642Y016790D01*
X015686Y016684D01*
X015767Y016603D01*
X015847Y016570D01*
X015176Y016570D01*
X015174Y016573D01*
X015093Y016654D01*
X014987Y016698D01*
X014873Y016698D01*
X014767Y016654D01*
X014686Y016573D01*
X014642Y016467D01*
X014642Y016353D01*
X014686Y016247D01*
X014767Y016166D01*
X014781Y016160D01*
X014767Y016154D01*
X014686Y016073D01*
X014642Y015967D01*
X014642Y015853D01*
X014686Y015747D01*
X014767Y015666D01*
X014873Y015622D01*
X014987Y015622D01*
X015093Y015666D01*
X015174Y015747D01*
X015176Y015750D01*
X016222Y015750D01*
X016142Y015717D01*
X016061Y015636D01*
X016017Y015530D01*
X016017Y015415D01*
X016061Y015309D01*
X016142Y015228D01*
X016248Y015184D01*
X016362Y015184D01*
X016468Y015228D01*
X016549Y015309D01*
X016551Y015313D01*
X017263Y015313D01*
X017263Y014265D01*
X016987Y014265D01*
X016987Y014319D01*
X016922Y014384D01*
X016438Y014384D01*
X016430Y014376D01*
X016422Y014384D01*
X015938Y014384D01*
X015873Y014319D01*
X015873Y014287D01*
X015382Y014287D01*
X015382Y014300D01*
X015317Y014364D01*
X014793Y014364D01*
X014728Y014300D01*
X014728Y013815D01*
X014793Y013750D01*
X015317Y013750D01*
X015382Y013815D01*
X015382Y013827D01*
X015873Y013827D01*
X015873Y013795D01*
X015917Y013751D01*
X015885Y013732D01*
X015855Y013703D01*
X015834Y013666D01*
X015823Y013625D01*
X015823Y013426D01*
X016142Y013426D01*
X016142Y013349D01*
X016218Y013349D01*
X016218Y013011D01*
X016398Y013011D01*
X016430Y013020D01*
X016462Y013011D01*
X016642Y013011D01*
X016642Y013349D01*
X016718Y013349D01*
X016718Y013011D01*
X016898Y013011D01*
X016939Y013022D01*
X016975Y013043D01*
X017005Y013073D01*
X017026Y013110D01*
X017037Y013150D01*
X017037Y013349D01*
X016718Y013349D01*
X016718Y013426D01*
X017037Y013426D01*
X017037Y013590D02*
X017263Y013590D01*
X017263Y013708D02*
X016999Y013708D01*
X017037Y013234D02*
X017263Y013234D01*
X017263Y013116D02*
X017028Y013116D01*
X017263Y012997D02*
X015888Y012997D01*
X015903Y013033D02*
X015862Y012934D01*
X015781Y012853D01*
X015675Y012809D01*
X015560Y012809D01*
X015454Y012853D01*
X015373Y012934D01*
X015372Y012938D01*
X015349Y012938D01*
X015283Y012937D01*
X015283Y012938D01*
X015283Y012938D01*
X015236Y012984D01*
X015138Y013081D01*
X014793Y013081D01*
X014728Y013145D01*
X014728Y013630D01*
X014793Y013695D01*
X015317Y013695D01*
X015382Y013630D01*
X015382Y013290D01*
X015392Y013280D01*
X015454Y013342D01*
X015560Y013386D01*
X015675Y013386D01*
X015781Y013342D01*
X015823Y013299D01*
X015823Y013349D01*
X016142Y013349D01*
X016142Y013011D01*
X015962Y013011D01*
X015921Y013022D01*
X015903Y013033D01*
X015806Y012879D02*
X017263Y012879D01*
X017263Y012760D02*
X014493Y012760D01*
X014493Y012642D02*
X017263Y012642D01*
X017263Y012523D02*
X014493Y012523D01*
X014493Y012405D02*
X017263Y012405D01*
X017263Y012286D02*
X014493Y012286D01*
X014493Y012168D02*
X017263Y012168D01*
X017263Y012049D02*
X014493Y012049D01*
X014493Y011931D02*
X017263Y011931D01*
X017263Y011812D02*
X014493Y011812D01*
X014493Y011694D02*
X017263Y011694D01*
X017263Y011575D02*
X014493Y011575D01*
X014493Y011457D02*
X017263Y011457D01*
X017263Y011338D02*
X014493Y011338D01*
X014493Y011220D02*
X017263Y011220D01*
X017263Y011101D02*
X014493Y011101D01*
X014493Y010983D02*
X017263Y010983D01*
X017263Y010864D02*
X014493Y010864D01*
X014493Y010746D02*
X017263Y010746D01*
X017263Y010627D02*
X014493Y010627D01*
X014493Y010509D02*
X017263Y010509D01*
X017263Y010390D02*
X014493Y010390D01*
X014493Y010272D02*
X017263Y010272D01*
X017263Y010153D02*
X014493Y010153D01*
X014493Y010035D02*
X017263Y010035D01*
X017263Y009916D02*
X014493Y009916D01*
X014493Y009798D02*
X017263Y009798D01*
X017263Y009679D02*
X014493Y009679D01*
X014493Y009561D02*
X017263Y009561D01*
X017263Y009442D02*
X014493Y009442D01*
X014493Y009324D02*
X017263Y009324D01*
X017563Y008968D02*
X021158Y008968D01*
X021158Y008850D02*
X017445Y008850D01*
X017682Y009087D02*
X021158Y009087D01*
X021158Y009205D02*
X017722Y009205D01*
X017722Y009324D02*
X021158Y009324D01*
X021158Y009442D02*
X017722Y009442D01*
X017722Y009561D02*
X021158Y009561D01*
X021158Y009679D02*
X017722Y009679D01*
X017722Y009798D02*
X021158Y009798D01*
X021158Y009916D02*
X017722Y009916D01*
X017722Y010035D02*
X021158Y010035D01*
X021158Y010153D02*
X017722Y010153D01*
X017722Y010272D02*
X021158Y010272D01*
X021158Y010390D02*
X017722Y010390D01*
X017722Y010509D02*
X021158Y010509D01*
X021158Y010627D02*
X017722Y010627D01*
X017722Y010746D02*
X021158Y010746D01*
X021158Y010864D02*
X017722Y010864D01*
X017722Y010983D02*
X021158Y010983D01*
X021158Y011101D02*
X017722Y011101D01*
X017722Y011220D02*
X021158Y011220D01*
X021158Y011338D02*
X017722Y011338D01*
X017722Y011457D02*
X021158Y011457D01*
X021158Y011575D02*
X017722Y011575D01*
X017722Y011694D02*
X021158Y011694D01*
X021158Y011812D02*
X017722Y011812D01*
X017722Y011931D02*
X021158Y011931D01*
X021158Y012049D02*
X017722Y012049D01*
X017722Y012168D02*
X021158Y012168D01*
X021158Y012286D02*
X017722Y012286D01*
X017722Y012405D02*
X021158Y012405D01*
X021158Y012523D02*
X017722Y012523D01*
X017722Y012642D02*
X021158Y012642D01*
X021158Y012760D02*
X018437Y012760D01*
X018406Y012728D02*
X018480Y012803D01*
X018688Y012803D01*
X018813Y012928D01*
X018912Y013027D01*
X018912Y019918D01*
X018725Y020105D01*
X018625Y020205D01*
X018442Y020205D01*
X018399Y020307D01*
X018264Y020442D01*
X018088Y020515D01*
X017897Y020515D01*
X017721Y020442D01*
X017586Y020307D01*
X017513Y020130D01*
X017513Y019940D01*
X017586Y019763D01*
X017721Y019628D01*
X017897Y019555D01*
X018088Y019555D01*
X018264Y019628D01*
X018399Y019763D01*
X018442Y019865D01*
X018485Y019865D01*
X018573Y019777D01*
X018573Y013168D01*
X018547Y013142D01*
X018480Y013142D01*
X018406Y013217D01*
X018300Y013261D01*
X018185Y013261D01*
X018079Y013217D01*
X017998Y013136D01*
X017954Y013030D01*
X017954Y012915D01*
X017998Y012809D01*
X018079Y012728D01*
X018185Y012684D01*
X018300Y012684D01*
X018406Y012728D01*
X018243Y012973D02*
X018618Y012973D01*
X018743Y013098D01*
X018743Y019848D01*
X018555Y020035D01*
X017993Y020035D01*
X018362Y020344D02*
X021158Y020344D01*
X021158Y020226D02*
X018433Y020226D01*
X018723Y020107D02*
X021158Y020107D01*
X021158Y019989D02*
X018842Y019989D01*
X018912Y019870D02*
X021158Y019870D01*
X021158Y019752D02*
X018912Y019752D01*
X018912Y019633D02*
X021158Y019633D01*
X021158Y019515D02*
X018912Y019515D01*
X018912Y019396D02*
X021158Y019396D01*
X021158Y019278D02*
X018912Y019278D01*
X018912Y019159D02*
X021158Y019159D01*
X021158Y019041D02*
X018912Y019041D01*
X018912Y018922D02*
X021158Y018922D01*
X021158Y018804D02*
X018912Y018804D01*
X018912Y018685D02*
X021158Y018685D01*
X021158Y018567D02*
X018912Y018567D01*
X018912Y018448D02*
X021158Y018448D01*
X021158Y018330D02*
X018912Y018330D01*
X018912Y018211D02*
X021158Y018211D01*
X021158Y018093D02*
X018912Y018093D01*
X018912Y017974D02*
X021158Y017974D01*
X021158Y017856D02*
X018912Y017856D01*
X018912Y017737D02*
X021158Y017737D01*
X021158Y017619D02*
X018912Y017619D01*
X018912Y017500D02*
X021158Y017500D01*
X021158Y017382D02*
X018912Y017382D01*
X018912Y017263D02*
X021158Y017263D01*
X021158Y017145D02*
X018912Y017145D01*
X018912Y017026D02*
X021158Y017026D01*
X021158Y016908D02*
X018912Y016908D01*
X018912Y016789D02*
X021158Y016789D01*
X021158Y016671D02*
X018912Y016671D01*
X018912Y016552D02*
X021158Y016552D01*
X021158Y016434D02*
X018912Y016434D01*
X018912Y016315D02*
X021158Y016315D01*
X021158Y016197D02*
X018912Y016197D01*
X018912Y016078D02*
X021158Y016078D01*
X021158Y015960D02*
X018912Y015960D01*
X018912Y015841D02*
X021158Y015841D01*
X021158Y015723D02*
X018912Y015723D01*
X018912Y015604D02*
X021158Y015604D01*
X021158Y015486D02*
X018912Y015486D01*
X018912Y015367D02*
X021158Y015367D01*
X021158Y015249D02*
X018912Y015249D01*
X018912Y015130D02*
X021158Y015130D01*
X021158Y015012D02*
X018912Y015012D01*
X018912Y014893D02*
X021158Y014893D01*
X021158Y014775D02*
X018912Y014775D01*
X018912Y014656D02*
X021158Y014656D01*
X021158Y014538D02*
X018912Y014538D01*
X018912Y014419D02*
X021158Y014419D01*
X021158Y014301D02*
X018912Y014301D01*
X018912Y014182D02*
X021158Y014182D01*
X021158Y014064D02*
X018912Y014064D01*
X018912Y013945D02*
X021158Y013945D01*
X021158Y013827D02*
X018912Y013827D01*
X018912Y013708D02*
X021158Y013708D01*
X021158Y013590D02*
X018912Y013590D01*
X018912Y013471D02*
X021158Y013471D01*
X021158Y013353D02*
X018912Y013353D01*
X018912Y013234D02*
X021158Y013234D01*
X021158Y013116D02*
X018912Y013116D01*
X018882Y012997D02*
X021158Y012997D01*
X021158Y012879D02*
X018764Y012879D01*
X018813Y012928D02*
X018813Y012928D01*
X018573Y013234D02*
X018364Y013234D01*
X018573Y013353D02*
X017722Y013353D01*
X017722Y013471D02*
X018573Y013471D01*
X018573Y013590D02*
X017722Y013590D01*
X017722Y013708D02*
X018573Y013708D01*
X018573Y013827D02*
X017722Y013827D01*
X017722Y013945D02*
X018573Y013945D01*
X018573Y014064D02*
X017722Y014064D01*
X017722Y014182D02*
X018573Y014182D01*
X018573Y014301D02*
X017722Y014301D01*
X017722Y014419D02*
X018573Y014419D01*
X018573Y014538D02*
X017722Y014538D01*
X017722Y014656D02*
X018573Y014656D01*
X018573Y014775D02*
X017722Y014775D01*
X017722Y014893D02*
X018573Y014893D01*
X018573Y015012D02*
X017722Y015012D01*
X017722Y015130D02*
X018573Y015130D01*
X018573Y015249D02*
X017722Y015249D01*
X017722Y015367D02*
X018573Y015367D01*
X018573Y015486D02*
X017722Y015486D01*
X017722Y015604D02*
X018573Y015604D01*
X018573Y015723D02*
X017722Y015723D01*
X017722Y015841D02*
X018573Y015841D01*
X018573Y015960D02*
X017722Y015960D01*
X017722Y016078D02*
X018573Y016078D01*
X018573Y016197D02*
X017722Y016197D01*
X017722Y016315D02*
X018573Y016315D01*
X018573Y016434D02*
X017722Y016434D01*
X017722Y016552D02*
X018573Y016552D01*
X018573Y016671D02*
X017682Y016671D01*
X017564Y016789D02*
X018573Y016789D01*
X018573Y016908D02*
X017445Y016908D01*
X017327Y017026D02*
X018573Y017026D01*
X018573Y017145D02*
X017285Y017145D01*
X017285Y017263D02*
X018573Y017263D01*
X018573Y017382D02*
X017285Y017382D01*
X017285Y017500D02*
X018573Y017500D01*
X018573Y017619D02*
X018321Y017619D01*
X018338Y017631D02*
X018397Y017690D01*
X018446Y017757D01*
X018484Y017832D01*
X018509Y017911D01*
X018522Y017993D01*
X018522Y017995D01*
X018033Y017995D01*
X018033Y018075D01*
X018522Y018075D01*
X018522Y018077D01*
X018509Y018159D01*
X018484Y018238D01*
X018446Y018313D01*
X018397Y018380D01*
X018338Y018439D01*
X018270Y018488D01*
X018196Y018526D01*
X018117Y018552D01*
X018091Y018556D01*
X018264Y018628D01*
X018399Y018763D01*
X018472Y018940D01*
X018472Y019130D01*
X018399Y019307D01*
X018264Y019442D01*
X018088Y019515D01*
X017897Y019515D01*
X017721Y019442D01*
X017586Y019307D01*
X017513Y019130D01*
X017513Y018940D01*
X017586Y018763D01*
X017721Y018628D01*
X017894Y018556D01*
X017868Y018552D01*
X017789Y018526D01*
X017715Y018488D01*
X017647Y018439D01*
X017588Y018380D01*
X017539Y018313D01*
X017501Y018238D01*
X017476Y018159D01*
X017463Y018077D01*
X017463Y018075D01*
X017952Y018075D01*
X017952Y017995D01*
X017463Y017995D01*
X017463Y017993D01*
X017476Y017911D01*
X017501Y017832D01*
X017539Y017757D01*
X017588Y017690D01*
X017647Y017631D01*
X017715Y017582D01*
X017789Y017544D01*
X017868Y017518D01*
X017951Y017505D01*
X017952Y017505D01*
X017952Y017995D01*
X018033Y017995D01*
X018033Y017505D01*
X018034Y017505D01*
X018117Y017518D01*
X018196Y017544D01*
X018270Y017582D01*
X018338Y017631D01*
X018431Y017737D02*
X018573Y017737D01*
X018573Y017856D02*
X018491Y017856D01*
X018519Y017974D02*
X018573Y017974D01*
X018573Y018093D02*
X018520Y018093D01*
X018493Y018211D02*
X018573Y018211D01*
X018573Y018330D02*
X018434Y018330D01*
X018326Y018448D02*
X018573Y018448D01*
X018573Y018567D02*
X018116Y018567D01*
X018321Y018685D02*
X018573Y018685D01*
X018573Y018804D02*
X018416Y018804D01*
X018465Y018922D02*
X018573Y018922D01*
X018573Y019041D02*
X018472Y019041D01*
X018461Y019159D02*
X018573Y019159D01*
X018573Y019278D02*
X018412Y019278D01*
X018310Y019396D02*
X018573Y019396D01*
X018573Y019515D02*
X018089Y019515D01*
X017896Y019515D02*
X017285Y019515D01*
X017285Y019633D02*
X017716Y019633D01*
X017597Y019752D02*
X017285Y019752D01*
X017285Y019870D02*
X017541Y019870D01*
X017513Y019989D02*
X017285Y019989D01*
X017285Y020107D02*
X017513Y020107D01*
X017552Y020226D02*
X017285Y020226D01*
X017285Y020344D02*
X017623Y020344D01*
X017770Y020463D02*
X017285Y020463D01*
X017285Y020581D02*
X017551Y020581D01*
X017513Y020700D02*
X017295Y020700D01*
X017000Y021055D02*
X014493Y021055D01*
X014493Y020937D02*
X016881Y020937D01*
X016825Y020818D02*
X014493Y020818D01*
X014493Y020700D02*
X016825Y020700D01*
X016825Y020581D02*
X014493Y020581D01*
X014493Y020463D02*
X016825Y020463D01*
X016825Y020344D02*
X014493Y020344D01*
X014493Y020226D02*
X016825Y020226D01*
X016825Y020107D02*
X014493Y020107D01*
X014493Y019989D02*
X016825Y019989D01*
X016825Y019870D02*
X014493Y019870D01*
X014493Y019752D02*
X016825Y019752D01*
X016825Y019633D02*
X015927Y019633D01*
X016011Y019515D02*
X016825Y019515D01*
X016825Y019396D02*
X016031Y019396D01*
X016101Y019278D02*
X016825Y019278D01*
X016825Y019159D02*
X016215Y019159D01*
X016215Y019041D02*
X016825Y019041D01*
X016825Y018922D02*
X016215Y018922D01*
X016215Y018804D02*
X016825Y018804D01*
X016825Y018685D02*
X016215Y018685D01*
X016215Y018567D02*
X016825Y018567D01*
X016825Y018448D02*
X016215Y018448D01*
X016215Y018330D02*
X016825Y018330D01*
X016825Y018211D02*
X016215Y018211D01*
X016215Y018093D02*
X016825Y018093D01*
X016825Y017974D02*
X016215Y017974D01*
X016215Y017856D02*
X016825Y017856D01*
X016825Y017737D02*
X016215Y017737D01*
X016215Y017619D02*
X016825Y017619D01*
X016825Y017500D02*
X016215Y017500D01*
X016215Y017382D02*
X016825Y017382D01*
X016825Y017263D02*
X016215Y017263D01*
X016215Y017145D02*
X016825Y017145D01*
X016825Y017026D02*
X016215Y017026D01*
X016217Y016908D02*
X016825Y016908D01*
X016913Y016789D02*
X016218Y016789D01*
X016241Y016671D02*
X017032Y016671D01*
X017150Y016552D02*
X016371Y016552D01*
X016406Y016434D02*
X017263Y016434D01*
X017263Y016315D02*
X016819Y016315D01*
X016666Y016315D02*
X016390Y016315D01*
X016311Y016197D02*
X016498Y016197D01*
X016454Y016078D02*
X015169Y016078D01*
X015124Y016197D02*
X015924Y016197D01*
X015700Y016671D02*
X015054Y016671D01*
X014806Y016671D02*
X014493Y016671D01*
X014493Y016789D02*
X015642Y016789D01*
X015643Y016908D02*
X014493Y016908D01*
X014493Y017026D02*
X015615Y017026D01*
X015489Y017145D02*
X014493Y017145D01*
X014493Y017263D02*
X015454Y017263D01*
X015471Y017382D02*
X014493Y017382D01*
X014493Y017500D02*
X015550Y017500D01*
X015583Y017619D02*
X014493Y017619D01*
X014493Y017737D02*
X015583Y017737D01*
X015583Y017856D02*
X014493Y017856D01*
X014493Y017974D02*
X015583Y017974D01*
X015583Y018093D02*
X014493Y018093D01*
X014493Y018211D02*
X015534Y018211D01*
X015464Y018330D02*
X014493Y018330D01*
X014493Y018448D02*
X015454Y018448D01*
X015495Y018567D02*
X014493Y018567D01*
X014493Y018685D02*
X015654Y018685D01*
X015831Y018685D02*
X015895Y018685D01*
X015895Y018804D02*
X014493Y018804D01*
X014493Y018922D02*
X015895Y018922D01*
X015886Y019041D02*
X014493Y019041D01*
X014493Y019159D02*
X015596Y019159D01*
X015486Y019278D02*
X014493Y019278D01*
X014493Y019396D02*
X015454Y019396D01*
X015474Y019515D02*
X014493Y019515D01*
X014493Y019633D02*
X015558Y019633D01*
X014493Y021174D02*
X017118Y021174D01*
X017513Y021292D02*
X014493Y021292D01*
X014493Y021411D02*
X017513Y021411D01*
X017789Y022231D02*
X017868Y022206D01*
X017951Y022193D01*
X017952Y022193D01*
X017952Y022682D01*
X017463Y022682D01*
X017463Y022681D01*
X017476Y022598D01*
X017501Y022519D01*
X017539Y022445D01*
X017588Y022377D01*
X017647Y022318D01*
X017715Y022269D01*
X017789Y022231D01*
X017772Y022240D02*
X016671Y022240D01*
X016672Y022252D02*
X016672Y022265D01*
X016013Y022265D01*
X016013Y022305D01*
X016672Y022305D01*
X016672Y022318D01*
X016662Y022383D01*
X016642Y022446D01*
X016612Y022505D01*
X016573Y022559D01*
X016526Y022605D01*
X016473Y022644D01*
X016414Y022674D01*
X016351Y022695D01*
X016286Y022705D01*
X016013Y022705D01*
X016013Y022305D01*
X015972Y022305D01*
X015972Y022265D01*
X015313Y022265D01*
X015313Y022252D01*
X015323Y022187D01*
X015343Y022124D01*
X015373Y022065D01*
X015412Y022011D01*
X015459Y021965D01*
X015512Y021926D01*
X015571Y021896D01*
X015634Y021875D01*
X015699Y021865D01*
X015972Y021865D01*
X015972Y022265D01*
X016013Y022265D01*
X016013Y021865D01*
X016286Y021865D01*
X016351Y021875D01*
X016414Y021896D01*
X016473Y021926D01*
X016526Y021965D01*
X016573Y022011D01*
X016612Y022065D01*
X016642Y022124D01*
X016662Y022187D01*
X016672Y022252D01*
X016666Y022359D02*
X017607Y022359D01*
X017523Y022477D02*
X016626Y022477D01*
X016536Y022596D02*
X017476Y022596D01*
X017463Y022763D02*
X017952Y022763D01*
X017952Y022682D01*
X018033Y022682D01*
X018033Y022763D01*
X018522Y022763D01*
X018522Y022764D01*
X018509Y022847D01*
X018484Y022926D01*
X018446Y023000D01*
X018397Y023068D01*
X018338Y023127D01*
X018270Y023176D01*
X018196Y023214D01*
X018117Y023239D01*
X018091Y023244D01*
X018264Y023316D01*
X018399Y023451D01*
X018472Y023627D01*
X018472Y023818D01*
X018399Y023994D01*
X018264Y024129D01*
X018088Y024202D01*
X017897Y024202D01*
X017721Y024129D01*
X017586Y023994D01*
X017513Y023818D01*
X017513Y023627D01*
X017586Y023451D01*
X017721Y023316D01*
X017894Y023244D01*
X017868Y023239D01*
X017789Y023214D01*
X017715Y023176D01*
X017647Y023127D01*
X017588Y023068D01*
X017539Y023000D01*
X017501Y022926D01*
X017476Y022847D01*
X017463Y022764D01*
X017463Y022763D01*
X017473Y022833D02*
X014493Y022833D01*
X014493Y022951D02*
X015572Y022951D01*
X015523Y022971D02*
X015659Y022915D01*
X016326Y022915D01*
X016462Y022971D01*
X016566Y023075D01*
X016622Y023211D01*
X016622Y023359D01*
X016566Y023495D01*
X016462Y023599D01*
X016326Y023655D01*
X015659Y023655D01*
X015523Y023599D01*
X015419Y023495D01*
X015363Y023359D01*
X015363Y023211D01*
X015419Y023075D01*
X015523Y022971D01*
X015425Y023070D02*
X014493Y023070D01*
X014493Y023188D02*
X015372Y023188D01*
X015363Y023307D02*
X014493Y023307D01*
X014493Y023425D02*
X015390Y023425D01*
X015468Y023544D02*
X014493Y023544D01*
X014493Y023662D02*
X017513Y023662D01*
X017513Y023781D02*
X014493Y023781D01*
X014493Y023899D02*
X015565Y023899D01*
X015571Y023896D02*
X015634Y023875D01*
X015699Y023865D01*
X015972Y023865D01*
X015972Y024265D01*
X015313Y024265D01*
X015313Y024252D01*
X015323Y024187D01*
X015343Y024124D01*
X015373Y024065D01*
X015412Y024011D01*
X015459Y023965D01*
X015512Y023926D01*
X015571Y023896D01*
X015408Y024018D02*
X014493Y024018D01*
X014493Y024136D02*
X015339Y024136D01*
X015313Y024255D02*
X014493Y024255D01*
X014493Y024373D02*
X015321Y024373D01*
X015323Y024383D02*
X015313Y024318D01*
X015313Y024305D01*
X015972Y024305D01*
X015972Y024265D01*
X016013Y024265D01*
X016013Y024305D01*
X016672Y024305D01*
X016672Y024318D01*
X016662Y024383D01*
X016642Y024446D01*
X016612Y024505D01*
X016573Y024559D01*
X016526Y024605D01*
X016473Y024644D01*
X016414Y024674D01*
X016351Y024695D01*
X016317Y024700D01*
X021158Y024700D01*
X021158Y001182D01*
X002202Y001182D01*
X002202Y003638D01*
X006892Y003638D01*
X007015Y003761D01*
X007015Y008160D01*
X014493Y008160D01*
X014493Y024598D01*
X004743Y024598D01*
X004743Y022723D01*
X002202Y022723D01*
X002202Y024700D01*
X015668Y024700D01*
X015634Y024695D01*
X015571Y024674D01*
X015512Y024644D01*
X015459Y024605D01*
X015412Y024559D01*
X015373Y024505D01*
X015343Y024446D01*
X015323Y024383D01*
X015366Y024492D02*
X014493Y024492D01*
X015465Y024610D02*
X003479Y024610D01*
X003628Y024548D02*
X003297Y024686D01*
X002938Y024686D01*
X002607Y024548D01*
X002354Y024295D01*
X002217Y023964D01*
X002217Y023606D01*
X002354Y023275D01*
X002607Y023022D01*
X002938Y022884D01*
X003297Y022884D01*
X003628Y023022D01*
X003881Y023275D01*
X004018Y023606D01*
X004018Y023964D01*
X003881Y024295D01*
X003628Y024548D01*
X003685Y024492D02*
X004743Y024492D01*
X004743Y024373D02*
X003803Y024373D01*
X003898Y024255D02*
X004743Y024255D01*
X004743Y024136D02*
X003947Y024136D01*
X003996Y024018D02*
X004743Y024018D01*
X004743Y023899D02*
X004018Y023899D01*
X004018Y023781D02*
X004743Y023781D01*
X004743Y023662D02*
X004018Y023662D01*
X003992Y023544D02*
X004743Y023544D01*
X004743Y023425D02*
X003943Y023425D01*
X003894Y023307D02*
X004743Y023307D01*
X004743Y023188D02*
X003794Y023188D01*
X003676Y023070D02*
X004743Y023070D01*
X004743Y022951D02*
X003457Y022951D01*
X002778Y022951D02*
X002202Y022951D01*
X002202Y022833D02*
X004743Y022833D01*
X002756Y024610D02*
X002202Y024610D01*
X002202Y024492D02*
X002550Y024492D01*
X002432Y024373D02*
X002202Y024373D01*
X002202Y024255D02*
X002337Y024255D01*
X002288Y024136D02*
X002202Y024136D01*
X002202Y024018D02*
X002239Y024018D01*
X002217Y023899D02*
X002202Y023899D01*
X002202Y023781D02*
X002217Y023781D01*
X002202Y023662D02*
X002217Y023662D01*
X002202Y023544D02*
X002243Y023544D01*
X002202Y023425D02*
X002292Y023425D01*
X002341Y023307D02*
X002202Y023307D01*
X002202Y023188D02*
X002441Y023188D01*
X002559Y023070D02*
X002202Y023070D01*
X007720Y017075D02*
X008180Y017075D01*
X008743Y017075D01*
X010555Y017660D02*
X010555Y014723D01*
X010555Y012098D01*
X010618Y012160D01*
X012930Y012160D01*
X014493Y012879D02*
X015429Y012879D01*
X015223Y012997D02*
X014493Y012997D01*
X014493Y013116D02*
X014758Y013116D01*
X014728Y013234D02*
X014493Y013234D01*
X014493Y013353D02*
X014728Y013353D01*
X014728Y013471D02*
X014493Y013471D01*
X014493Y013590D02*
X014728Y013590D01*
X014728Y013827D02*
X014493Y013827D01*
X014493Y013945D02*
X014728Y013945D01*
X014728Y014064D02*
X014493Y014064D01*
X014493Y014182D02*
X014728Y014182D01*
X014729Y014301D02*
X014493Y014301D01*
X014493Y014419D02*
X017263Y014419D01*
X017263Y014301D02*
X016987Y014301D01*
X017263Y014538D02*
X014493Y014538D01*
X014493Y014656D02*
X017263Y014656D01*
X017263Y014775D02*
X014493Y014775D01*
X014493Y014893D02*
X017263Y014893D01*
X017263Y015012D02*
X014493Y015012D01*
X014493Y015130D02*
X017263Y015130D01*
X017263Y015249D02*
X016488Y015249D01*
X016122Y015249D02*
X014493Y015249D01*
X014493Y015367D02*
X016037Y015367D01*
X016017Y015486D02*
X014493Y015486D01*
X014493Y015604D02*
X016048Y015604D01*
X016156Y015723D02*
X015150Y015723D01*
X014710Y015723D02*
X014493Y015723D01*
X014493Y015841D02*
X014647Y015841D01*
X014642Y015960D02*
X014493Y015960D01*
X014493Y016078D02*
X014691Y016078D01*
X014736Y016197D02*
X014493Y016197D01*
X014493Y016315D02*
X014657Y016315D01*
X014642Y016434D02*
X014493Y016434D01*
X014493Y016552D02*
X014677Y016552D01*
X016454Y015723D02*
X017263Y015723D01*
X017263Y015841D02*
X016956Y015841D01*
X017023Y015960D02*
X017263Y015960D01*
X017263Y016078D02*
X017031Y016078D01*
X016987Y016197D02*
X017263Y016197D01*
X017285Y017619D02*
X017664Y017619D01*
X017554Y017737D02*
X017285Y017737D01*
X017285Y017856D02*
X017494Y017856D01*
X017466Y017974D02*
X017285Y017974D01*
X017285Y018093D02*
X017465Y018093D01*
X017492Y018211D02*
X017285Y018211D01*
X017285Y018330D02*
X017551Y018330D01*
X017659Y018448D02*
X017285Y018448D01*
X017285Y018567D02*
X017869Y018567D01*
X017664Y018685D02*
X017285Y018685D01*
X017285Y018804D02*
X017569Y018804D01*
X017520Y018922D02*
X017285Y018922D01*
X017285Y019041D02*
X017513Y019041D01*
X017524Y019159D02*
X017285Y019159D01*
X017285Y019278D02*
X017573Y019278D01*
X017675Y019396D02*
X017285Y019396D01*
X018269Y019633D02*
X018573Y019633D01*
X018573Y019752D02*
X018388Y019752D01*
X018215Y020463D02*
X021158Y020463D01*
X021158Y020581D02*
X018434Y020581D01*
X018472Y020700D02*
X021158Y020700D01*
X021158Y020818D02*
X018472Y020818D01*
X018472Y020937D02*
X021158Y020937D01*
X021158Y021055D02*
X018472Y021055D01*
X018472Y021174D02*
X021158Y021174D01*
X021158Y021292D02*
X018472Y021292D01*
X018472Y021411D02*
X021158Y021411D01*
X021158Y021529D02*
X014493Y021529D01*
X014493Y021648D02*
X021158Y021648D01*
X021158Y021766D02*
X014493Y021766D01*
X014493Y021885D02*
X015606Y021885D01*
X015420Y022003D02*
X014493Y022003D01*
X014493Y022122D02*
X015344Y022122D01*
X015314Y022240D02*
X014493Y022240D01*
X014493Y022359D02*
X015319Y022359D01*
X015323Y022383D02*
X015313Y022318D01*
X015313Y022305D01*
X015972Y022305D01*
X015972Y022705D01*
X015699Y022705D01*
X015634Y022695D01*
X015571Y022674D01*
X015512Y022644D01*
X015459Y022605D01*
X015412Y022559D01*
X015373Y022505D01*
X015343Y022446D01*
X015323Y022383D01*
X015359Y022477D02*
X014493Y022477D01*
X014493Y022596D02*
X015449Y022596D01*
X015972Y022596D02*
X016013Y022596D01*
X016013Y022477D02*
X015972Y022477D01*
X015972Y022359D02*
X016013Y022359D01*
X016013Y022240D02*
X015972Y022240D01*
X015972Y022122D02*
X016013Y022122D01*
X016013Y022003D02*
X015972Y022003D01*
X015972Y021885D02*
X016013Y021885D01*
X016379Y021885D02*
X021158Y021885D01*
X021158Y022003D02*
X016565Y022003D01*
X016641Y022122D02*
X021158Y022122D01*
X021158Y022240D02*
X018213Y022240D01*
X018196Y022231D02*
X018270Y022269D01*
X018338Y022318D01*
X018397Y022377D01*
X018446Y022445D01*
X018484Y022519D01*
X018509Y022598D01*
X018522Y022681D01*
X018522Y022682D01*
X018033Y022682D01*
X018033Y022193D01*
X018034Y022193D01*
X018117Y022206D01*
X018196Y022231D01*
X018033Y022240D02*
X017952Y022240D01*
X017952Y022359D02*
X018033Y022359D01*
X018033Y022477D02*
X017952Y022477D01*
X017952Y022596D02*
X018033Y022596D01*
X018033Y022714D02*
X021158Y022714D01*
X021158Y022596D02*
X018509Y022596D01*
X018462Y022477D02*
X021158Y022477D01*
X021158Y022359D02*
X018378Y022359D01*
X017952Y022714D02*
X014493Y022714D01*
X012930Y021723D02*
X012618Y022035D01*
X010555Y022035D01*
X010555Y017660D01*
X014493Y013708D02*
X015861Y013708D01*
X015873Y013827D02*
X015382Y013827D01*
X015382Y013590D02*
X015823Y013590D01*
X015823Y013471D02*
X015382Y013471D01*
X015382Y013353D02*
X015480Y013353D01*
X015755Y013353D02*
X016142Y013353D01*
X016218Y013353D02*
X016642Y013353D01*
X016642Y013349D02*
X016218Y013349D01*
X016218Y013426D01*
X016537Y013426D01*
X016642Y013426D01*
X016642Y013349D01*
X016642Y013234D02*
X016718Y013234D01*
X016718Y013116D02*
X016642Y013116D01*
X016218Y013116D02*
X016142Y013116D01*
X016142Y013234D02*
X016218Y013234D01*
X015873Y014301D02*
X015381Y014301D01*
X017722Y013234D02*
X018121Y013234D01*
X017990Y013116D02*
X017722Y013116D01*
X017722Y012997D02*
X017954Y012997D01*
X017970Y012879D02*
X017722Y012879D01*
X017722Y012760D02*
X018048Y012760D01*
X014880Y009205D02*
X014493Y009205D01*
X014493Y009087D02*
X014829Y009087D01*
X014833Y008968D02*
X014493Y008968D01*
X014493Y008850D02*
X014896Y008850D01*
X014493Y008731D02*
X021158Y008731D01*
X021158Y008613D02*
X014493Y008613D01*
X014493Y008494D02*
X021158Y008494D01*
X021158Y008376D02*
X014493Y008376D01*
X014493Y008257D02*
X021158Y008257D01*
X021158Y008139D02*
X007015Y008139D01*
X007015Y008020D02*
X021158Y008020D01*
X021158Y007902D02*
X007015Y007902D01*
X007015Y007783D02*
X021158Y007783D01*
X021158Y007665D02*
X007015Y007665D01*
X007015Y007546D02*
X010475Y007546D01*
X010493Y007552D02*
X010414Y007526D01*
X010340Y007488D01*
X010272Y007439D01*
X010213Y007380D01*
X010164Y007313D01*
X010126Y007238D01*
X010101Y007159D01*
X010088Y007077D01*
X010088Y007075D01*
X010577Y007075D01*
X010577Y006995D01*
X010088Y006995D01*
X010088Y006993D01*
X010101Y006911D01*
X010126Y006832D01*
X010164Y006757D01*
X010213Y006690D01*
X010272Y006631D01*
X010340Y006582D01*
X010414Y006544D01*
X010493Y006518D01*
X010576Y006505D01*
X010577Y006505D01*
X010577Y006995D01*
X010658Y006995D01*
X010658Y006505D01*
X010659Y006505D01*
X010742Y006518D01*
X010821Y006544D01*
X010895Y006582D01*
X010963Y006631D01*
X011022Y006690D01*
X011071Y006757D01*
X011109Y006832D01*
X011134Y006911D01*
X011138Y006930D01*
X011138Y006619D01*
X011202Y006555D01*
X012033Y006555D01*
X012097Y006619D01*
X012097Y007451D01*
X012033Y007515D01*
X011202Y007515D01*
X011138Y007451D01*
X011138Y007140D01*
X011134Y007159D01*
X011109Y007238D01*
X011071Y007313D01*
X011022Y007380D01*
X010963Y007439D01*
X010895Y007488D01*
X010821Y007526D01*
X010742Y007552D01*
X010659Y007565D01*
X010658Y007565D01*
X010658Y007075D01*
X010577Y007075D01*
X010577Y007565D01*
X010576Y007565D01*
X010493Y007552D01*
X010577Y007546D02*
X010658Y007546D01*
X010760Y007546D02*
X021158Y007546D01*
X021158Y007428D02*
X012097Y007428D01*
X012097Y007309D02*
X021158Y007309D01*
X021158Y007191D02*
X012097Y007191D01*
X012097Y007072D02*
X021158Y007072D01*
X021158Y006954D02*
X012097Y006954D01*
X012097Y006835D02*
X021158Y006835D01*
X021158Y006717D02*
X012097Y006717D01*
X012076Y006598D02*
X021158Y006598D01*
X021158Y006480D02*
X007015Y006480D01*
X007015Y006598D02*
X010317Y006598D01*
X010194Y006717D02*
X007015Y006717D01*
X007015Y006835D02*
X010125Y006835D01*
X010094Y006954D02*
X007015Y006954D01*
X007015Y007072D02*
X010577Y007072D01*
X010577Y006954D02*
X010658Y006954D01*
X010658Y006835D02*
X010577Y006835D01*
X010577Y006717D02*
X010658Y006717D01*
X010658Y006598D02*
X010577Y006598D01*
X010918Y006598D02*
X011159Y006598D01*
X011138Y006717D02*
X011041Y006717D01*
X011110Y006835D02*
X011138Y006835D01*
X011124Y007191D02*
X011138Y007191D01*
X011138Y007309D02*
X011073Y007309D01*
X011138Y007428D02*
X010975Y007428D01*
X010658Y007428D02*
X010577Y007428D01*
X010577Y007309D02*
X010658Y007309D01*
X010658Y007191D02*
X010577Y007191D01*
X010260Y007428D02*
X007015Y007428D01*
X007015Y007309D02*
X010162Y007309D01*
X010111Y007191D02*
X007015Y007191D01*
X007015Y006361D02*
X008349Y006361D01*
X008311Y006323D02*
X008267Y006217D01*
X008267Y006103D01*
X008311Y005997D01*
X008325Y005983D01*
X008325Y004252D01*
X008450Y004127D01*
X008585Y003993D01*
X019318Y003993D01*
X019336Y003951D01*
X019471Y003816D01*
X019647Y003743D01*
X019838Y003743D01*
X020014Y003816D01*
X020149Y003951D01*
X020222Y004127D01*
X020222Y004318D01*
X020149Y004494D01*
X020014Y004629D01*
X019841Y004701D01*
X019867Y004706D01*
X019946Y004731D01*
X020020Y004769D01*
X020088Y004818D01*
X020147Y004877D01*
X020196Y004945D01*
X020234Y005019D01*
X020259Y005098D01*
X020272Y005181D01*
X020272Y005182D01*
X019783Y005182D01*
X019783Y005263D01*
X019702Y005263D01*
X019702Y005752D01*
X019701Y005752D01*
X019618Y005739D01*
X019539Y005714D01*
X019465Y005676D01*
X019397Y005627D01*
X019338Y005568D01*
X019289Y005500D01*
X019251Y005426D01*
X019226Y005347D01*
X019213Y005264D01*
X019213Y005263D01*
X019702Y005263D01*
X019702Y005182D01*
X019213Y005182D01*
X019213Y005181D01*
X019226Y005098D01*
X019251Y005019D01*
X019289Y004945D01*
X019338Y004877D01*
X019397Y004818D01*
X019465Y004769D01*
X019539Y004731D01*
X019618Y004706D01*
X019644Y004701D01*
X019471Y004629D01*
X019336Y004494D01*
X019318Y004452D01*
X008785Y004452D01*
X008785Y005983D01*
X008799Y005997D01*
X008843Y006103D01*
X008843Y006217D01*
X008799Y006323D01*
X008718Y006404D01*
X008612Y006448D01*
X008498Y006448D01*
X008392Y006404D01*
X008311Y006323D01*
X008277Y006243D02*
X007015Y006243D01*
X007015Y006124D02*
X008267Y006124D01*
X008307Y006006D02*
X007015Y006006D01*
X007015Y005887D02*
X008325Y005887D01*
X008325Y005769D02*
X007015Y005769D01*
X007015Y005650D02*
X008325Y005650D01*
X008325Y005532D02*
X007015Y005532D01*
X007015Y005413D02*
X008325Y005413D01*
X008325Y005295D02*
X007015Y005295D01*
X007015Y005176D02*
X008325Y005176D01*
X008325Y005058D02*
X007015Y005058D01*
X007015Y004939D02*
X008325Y004939D01*
X008325Y004821D02*
X007015Y004821D01*
X007015Y004702D02*
X008325Y004702D01*
X008325Y004584D02*
X007015Y004584D01*
X007015Y004465D02*
X008325Y004465D01*
X008325Y004347D02*
X007015Y004347D01*
X007015Y004228D02*
X008349Y004228D01*
X008468Y004110D02*
X007015Y004110D01*
X007015Y003991D02*
X019319Y003991D01*
X019414Y003873D02*
X007015Y003873D01*
X007008Y003754D02*
X019619Y003754D01*
X019866Y003754D02*
X021158Y003754D01*
X021158Y003636D02*
X013903Y003636D01*
X013919Y003633D02*
X013843Y003645D01*
X013814Y003645D01*
X013814Y003169D01*
X014290Y003169D01*
X014290Y003198D01*
X014278Y003274D01*
X014254Y003346D01*
X014220Y003414D01*
X014175Y003476D01*
X014121Y003530D01*
X014059Y003575D01*
X013991Y003609D01*
X013919Y003633D01*
X013814Y003636D02*
X013796Y003636D01*
X013796Y003645D02*
X013767Y003645D01*
X013691Y003633D01*
X013619Y003609D01*
X013551Y003575D01*
X013489Y003530D01*
X013435Y003476D01*
X013390Y003414D01*
X013356Y003346D01*
X013332Y003274D01*
X013320Y003198D01*
X013320Y003169D01*
X013796Y003169D01*
X013796Y003645D01*
X013707Y003636D02*
X002202Y003636D01*
X002202Y003517D02*
X013476Y003517D01*
X013382Y003399D02*
X002202Y003399D01*
X002202Y003280D02*
X013334Y003280D01*
X013320Y003151D02*
X013320Y003122D01*
X013332Y003046D01*
X013356Y002974D01*
X013390Y002906D01*
X013435Y002844D01*
X013489Y002790D01*
X013551Y002745D01*
X013619Y002711D01*
X013691Y002687D01*
X013767Y002675D01*
X013796Y002675D01*
X013796Y003151D01*
X013814Y003151D01*
X013814Y003169D01*
X013796Y003169D01*
X013796Y003151D01*
X013320Y003151D01*
X013333Y003043D02*
X003339Y003043D01*
X003297Y003061D02*
X002938Y003061D01*
X002607Y002923D01*
X002354Y002670D01*
X002217Y002339D01*
X002217Y001981D01*
X002354Y001650D01*
X002607Y001397D01*
X002938Y001259D01*
X003297Y001259D01*
X003628Y001397D01*
X003881Y001650D01*
X004018Y001981D01*
X004018Y002339D01*
X003881Y002670D01*
X003628Y002923D01*
X003297Y003061D01*
X003625Y002925D02*
X013381Y002925D01*
X013473Y002806D02*
X012055Y002806D01*
X012033Y002827D02*
X011202Y002827D01*
X011138Y002763D01*
X011138Y001932D01*
X011202Y001868D01*
X012033Y001868D01*
X012097Y001932D01*
X012097Y002763D01*
X012033Y002827D01*
X012097Y002688D02*
X013690Y002688D01*
X013796Y002688D02*
X013814Y002688D01*
X013814Y002675D02*
X013843Y002675D01*
X013919Y002687D01*
X013991Y002711D01*
X014059Y002745D01*
X014121Y002790D01*
X014175Y002844D01*
X014220Y002906D01*
X014254Y002974D01*
X014278Y003046D01*
X014290Y003122D01*
X014290Y003151D01*
X013814Y003151D01*
X013814Y002675D01*
X013920Y002688D02*
X019559Y002688D01*
X019479Y002608D02*
X019342Y002277D01*
X019342Y001918D01*
X019479Y001587D01*
X019732Y001334D01*
X020063Y001197D01*
X020422Y001197D01*
X020753Y001334D01*
X021006Y001587D01*
X021143Y001918D01*
X021143Y002277D01*
X021006Y002608D01*
X020753Y002861D01*
X020422Y002998D01*
X020063Y002998D01*
X019732Y002861D01*
X019479Y002608D01*
X019463Y002569D02*
X012097Y002569D01*
X012097Y002451D02*
X019414Y002451D01*
X019365Y002332D02*
X012097Y002332D01*
X012097Y002214D02*
X019342Y002214D01*
X019342Y002095D02*
X012097Y002095D01*
X012097Y001977D02*
X019342Y001977D01*
X019367Y001858D02*
X003967Y001858D01*
X003918Y001740D02*
X019416Y001740D01*
X019465Y001621D02*
X003852Y001621D01*
X003734Y001503D02*
X019564Y001503D01*
X019682Y001384D02*
X003597Y001384D01*
X003311Y001266D02*
X019898Y001266D01*
X020587Y001266D02*
X021158Y001266D01*
X021158Y001384D02*
X020803Y001384D01*
X020921Y001503D02*
X021158Y001503D01*
X021158Y001621D02*
X021020Y001621D01*
X021069Y001740D02*
X021158Y001740D01*
X021158Y001858D02*
X021118Y001858D01*
X021143Y001977D02*
X021158Y001977D01*
X021143Y002095D02*
X021158Y002095D01*
X021143Y002214D02*
X021158Y002214D01*
X021158Y002332D02*
X021120Y002332D01*
X021158Y002451D02*
X021071Y002451D01*
X021022Y002569D02*
X021158Y002569D01*
X021158Y002688D02*
X020926Y002688D01*
X020808Y002806D02*
X021158Y002806D01*
X021158Y002925D02*
X020599Y002925D01*
X019886Y002925D02*
X015240Y002925D01*
X015240Y003043D02*
X021158Y003043D01*
X021158Y003162D02*
X015240Y003162D01*
X015240Y003280D02*
X021158Y003280D01*
X021158Y003399D02*
X015240Y003399D01*
X015240Y003517D02*
X021158Y003517D01*
X021158Y003873D02*
X020071Y003873D01*
X020166Y003991D02*
X021158Y003991D01*
X021158Y004110D02*
X020215Y004110D01*
X020222Y004228D02*
X021158Y004228D01*
X021158Y004347D02*
X020211Y004347D01*
X020162Y004465D02*
X021158Y004465D01*
X021158Y004584D02*
X020060Y004584D01*
X020090Y004821D02*
X021158Y004821D01*
X021158Y004939D02*
X020192Y004939D01*
X020246Y005058D02*
X021158Y005058D01*
X021158Y005176D02*
X020272Y005176D01*
X020272Y005263D02*
X020272Y005264D01*
X020259Y005347D01*
X020234Y005426D01*
X020196Y005500D01*
X020147Y005568D01*
X020088Y005627D01*
X020020Y005676D01*
X019946Y005714D01*
X019867Y005739D01*
X019784Y005752D01*
X019783Y005752D01*
X019783Y005263D01*
X020272Y005263D01*
X020268Y005295D02*
X021158Y005295D01*
X021158Y005413D02*
X020238Y005413D01*
X020173Y005532D02*
X021158Y005532D01*
X021158Y005650D02*
X020056Y005650D01*
X019783Y005650D02*
X019702Y005650D01*
X019702Y005532D02*
X019783Y005532D01*
X019783Y005413D02*
X019702Y005413D01*
X019702Y005295D02*
X019783Y005295D01*
X019429Y005650D02*
X008785Y005650D01*
X008785Y005532D02*
X019312Y005532D01*
X019247Y005413D02*
X008785Y005413D01*
X008785Y005295D02*
X019217Y005295D01*
X019213Y005176D02*
X008785Y005176D01*
X008785Y005058D02*
X019239Y005058D01*
X019293Y004939D02*
X008785Y004939D01*
X008785Y004821D02*
X019395Y004821D01*
X019425Y004584D02*
X008785Y004584D01*
X008785Y004702D02*
X019641Y004702D01*
X019844Y004702D02*
X021158Y004702D01*
X021158Y005769D02*
X008785Y005769D01*
X008785Y005887D02*
X021158Y005887D01*
X021158Y006006D02*
X008803Y006006D01*
X008843Y006124D02*
X021158Y006124D01*
X021158Y006243D02*
X008833Y006243D01*
X008761Y006361D02*
X021158Y006361D01*
X019323Y004465D02*
X008785Y004465D01*
X010346Y002754D02*
X010211Y002619D01*
X010138Y002443D01*
X010138Y002252D01*
X010211Y002076D01*
X010346Y001941D01*
X010522Y001868D01*
X010713Y001868D01*
X010889Y001941D01*
X011024Y002076D01*
X011097Y002252D01*
X011097Y002443D01*
X011024Y002619D01*
X010889Y002754D01*
X010713Y002827D01*
X010522Y002827D01*
X010346Y002754D01*
X010279Y002688D02*
X003864Y002688D01*
X003923Y002569D02*
X010190Y002569D01*
X010141Y002451D02*
X003972Y002451D01*
X004018Y002332D02*
X010138Y002332D01*
X010153Y002214D02*
X004018Y002214D01*
X004018Y002095D02*
X010203Y002095D01*
X010310Y001977D02*
X004016Y001977D01*
X003745Y002806D02*
X010470Y002806D01*
X010765Y002806D02*
X011180Y002806D01*
X011138Y002688D02*
X010956Y002688D01*
X011045Y002569D02*
X011138Y002569D01*
X011138Y002451D02*
X011094Y002451D01*
X011097Y002332D02*
X011138Y002332D01*
X011138Y002214D02*
X011082Y002214D01*
X011032Y002095D02*
X011138Y002095D01*
X011138Y001977D02*
X010925Y001977D01*
X013796Y002806D02*
X013814Y002806D01*
X013814Y002925D02*
X013796Y002925D01*
X013796Y003043D02*
X013814Y003043D01*
X013814Y003162D02*
X014370Y003162D01*
X014370Y003280D02*
X014276Y003280D01*
X014228Y003399D02*
X014370Y003399D01*
X014370Y003517D02*
X014134Y003517D01*
X014370Y003531D02*
X014370Y002789D01*
X014434Y002725D01*
X015176Y002725D01*
X015240Y002789D01*
X015240Y003531D01*
X015176Y003595D01*
X014434Y003595D01*
X014370Y003531D01*
X014370Y003043D02*
X014277Y003043D01*
X014229Y002925D02*
X014370Y002925D01*
X014370Y002806D02*
X014137Y002806D01*
X013796Y003162D02*
X002202Y003162D01*
X002202Y003043D02*
X002896Y003043D01*
X002610Y002925D02*
X002202Y002925D01*
X002202Y002806D02*
X002490Y002806D01*
X002371Y002688D02*
X002202Y002688D01*
X002202Y002569D02*
X002312Y002569D01*
X002263Y002451D02*
X002202Y002451D01*
X002202Y002332D02*
X002217Y002332D01*
X002202Y002214D02*
X002217Y002214D01*
X002202Y002095D02*
X002217Y002095D01*
X002202Y001977D02*
X002219Y001977D01*
X002202Y001858D02*
X002268Y001858D01*
X002317Y001740D02*
X002202Y001740D01*
X002202Y001621D02*
X002383Y001621D01*
X002501Y001503D02*
X002202Y001503D01*
X002202Y001384D02*
X002638Y001384D01*
X002924Y001266D02*
X002202Y001266D01*
X010555Y010785D02*
X010555Y012098D01*
X017952Y017619D02*
X018033Y017619D01*
X018033Y017737D02*
X017952Y017737D01*
X017952Y017856D02*
X018033Y017856D01*
X018033Y017974D02*
X017952Y017974D01*
X018512Y022833D02*
X021158Y022833D01*
X021158Y022951D02*
X020582Y022951D01*
X020422Y022884D02*
X020753Y023022D01*
X021006Y023275D01*
X021143Y023606D01*
X021143Y023964D01*
X021006Y024295D01*
X020753Y024548D01*
X020422Y024686D01*
X020063Y024686D01*
X019732Y024548D01*
X019479Y024295D01*
X019342Y023964D01*
X019342Y023606D01*
X019479Y023275D01*
X019732Y023022D01*
X020063Y022884D01*
X020422Y022884D01*
X020801Y023070D02*
X021158Y023070D01*
X021158Y023188D02*
X020919Y023188D01*
X021019Y023307D02*
X021158Y023307D01*
X021158Y023425D02*
X021068Y023425D01*
X021117Y023544D02*
X021158Y023544D01*
X021143Y023662D02*
X021158Y023662D01*
X021143Y023781D02*
X021158Y023781D01*
X021143Y023899D02*
X021158Y023899D01*
X021158Y024018D02*
X021121Y024018D01*
X021158Y024136D02*
X021072Y024136D01*
X021023Y024255D02*
X021158Y024255D01*
X021158Y024373D02*
X020928Y024373D01*
X020810Y024492D02*
X021158Y024492D01*
X021158Y024610D02*
X020604Y024610D01*
X019881Y024610D02*
X016520Y024610D01*
X016619Y024492D02*
X019675Y024492D01*
X019557Y024373D02*
X016664Y024373D01*
X016672Y024265D02*
X016013Y024265D01*
X016013Y023865D01*
X016286Y023865D01*
X016351Y023875D01*
X016414Y023896D01*
X016473Y023926D01*
X016526Y023965D01*
X016573Y024011D01*
X016612Y024065D01*
X016642Y024124D01*
X016662Y024187D01*
X016672Y024252D01*
X016672Y024265D01*
X016672Y024255D02*
X019462Y024255D01*
X019413Y024136D02*
X018248Y024136D01*
X018376Y024018D02*
X019364Y024018D01*
X019342Y023899D02*
X018439Y023899D01*
X018472Y023781D02*
X019342Y023781D01*
X019342Y023662D02*
X018472Y023662D01*
X018438Y023544D02*
X019368Y023544D01*
X019417Y023425D02*
X018374Y023425D01*
X018243Y023307D02*
X019466Y023307D01*
X019566Y023188D02*
X018246Y023188D01*
X018395Y023070D02*
X019684Y023070D01*
X019903Y022951D02*
X018471Y022951D01*
X017739Y023188D02*
X016613Y023188D01*
X016622Y023307D02*
X017742Y023307D01*
X017611Y023425D02*
X016595Y023425D01*
X016517Y023544D02*
X017547Y023544D01*
X017546Y023899D02*
X016420Y023899D01*
X016577Y024018D02*
X017609Y024018D01*
X017737Y024136D02*
X016646Y024136D01*
X016013Y024136D02*
X015972Y024136D01*
X015972Y024018D02*
X016013Y024018D01*
X016013Y023899D02*
X015972Y023899D01*
X015972Y024255D02*
X016013Y024255D01*
X016560Y023070D02*
X017590Y023070D01*
X017514Y022951D02*
X016413Y022951D01*
X013814Y003517D02*
X013796Y003517D01*
X013796Y003399D02*
X013814Y003399D01*
X013814Y003280D02*
X013796Y003280D01*
X015240Y002806D02*
X019677Y002806D01*
D26*
X019743Y004223D02*
X008680Y004223D01*
X008555Y004348D01*
X008555Y006160D01*
X015118Y009035D02*
X017305Y009035D01*
X017493Y009223D01*
X017493Y014035D01*
X017493Y015473D01*
X017493Y016535D01*
X017055Y016973D01*
X017055Y020785D01*
X017305Y021035D01*
X017993Y021035D01*
X017493Y014035D02*
X016638Y014035D01*
X016680Y014057D01*
X016638Y014035D02*
X016097Y014035D01*
X016180Y014057D01*
X015055Y014057D01*
M02*
