G75*
%MOIN*%
%OFA0B0*%
%FSLAX24Y24*%
%IPPOS*%
%LPD*%
%AMOC8*
5,1,8,0,0,1.08239X$1,22.5*
%
%ADD10C,0.0030*%
%ADD11C,0.0050*%
%ADD12C,0.0040*%
%ADD13C,0.0100*%
%ADD14C,0.0060*%
%ADD15C,0.0020*%
%ADD16C,0.0080*%
%ADD17C,0.0070*%
%ADD18R,0.0551X0.0256*%
%ADD19C,0.0157*%
%ADD20R,0.0256X0.0551*%
%ADD21C,0.0010*%
D10*
X004258Y001925D02*
X004504Y001925D01*
X004626Y001925D02*
X004873Y002172D01*
X004873Y002234D01*
X004811Y002295D01*
X004688Y002295D01*
X004626Y002234D01*
X004749Y002402D02*
X004811Y002402D01*
X004873Y002463D01*
X004873Y002772D01*
X004873Y002525D02*
X004688Y002525D01*
X004626Y002587D01*
X004626Y002772D01*
X004504Y002772D02*
X004443Y002710D01*
X004258Y002710D01*
X004443Y002710D02*
X004504Y002648D01*
X004504Y002587D01*
X004443Y002525D01*
X004258Y002525D01*
X004258Y002895D01*
X004443Y002895D01*
X004504Y002834D01*
X004504Y002772D01*
X004381Y002295D02*
X004381Y001925D01*
X004626Y001925D02*
X004873Y001925D01*
X004994Y001925D02*
X005241Y002295D01*
X005362Y002234D02*
X005424Y002295D01*
X005548Y002295D01*
X005609Y002234D01*
X005609Y002172D01*
X005362Y001925D01*
X005609Y001925D01*
X005731Y001987D02*
X005731Y002234D01*
X005792Y002295D01*
X005916Y002295D01*
X005978Y002234D01*
X005731Y001987D01*
X005792Y001925D01*
X005916Y001925D01*
X005978Y001987D01*
X005978Y002234D01*
X006099Y002172D02*
X006223Y002295D01*
X006223Y001925D01*
X006346Y001925D02*
X006099Y001925D01*
X006467Y002110D02*
X006714Y002110D01*
X006653Y001925D02*
X006653Y002295D01*
X006467Y002110D01*
X006467Y002525D02*
X006714Y002525D01*
X006467Y002525D02*
X006467Y002895D01*
X006346Y002895D02*
X006099Y002895D01*
X005978Y002895D02*
X005978Y002525D01*
X005854Y002648D01*
X005731Y002525D01*
X005731Y002895D01*
X005609Y002834D02*
X005609Y002710D01*
X005548Y002648D01*
X005362Y002648D01*
X005362Y002525D02*
X005362Y002895D01*
X005548Y002895D01*
X005609Y002834D01*
X006223Y002895D02*
X006223Y002525D01*
X006808Y003037D02*
X006870Y002975D01*
X006994Y002975D01*
X007055Y003037D01*
X007055Y003284D01*
X006994Y003345D01*
X006870Y003345D01*
X006808Y003284D01*
X006808Y003037D01*
X006932Y003098D02*
X007055Y002975D01*
X007177Y003160D02*
X007424Y003160D01*
X007362Y002975D02*
X007362Y003345D01*
X007177Y003160D01*
X006948Y001902D02*
X006851Y001902D01*
X006803Y001853D01*
X006803Y001805D01*
X006851Y001757D01*
X006948Y001757D01*
X006996Y001708D01*
X006996Y001660D01*
X006948Y001611D01*
X006851Y001611D01*
X006803Y001660D01*
X006996Y001853D02*
X006948Y001902D01*
X007098Y001805D02*
X007098Y001660D01*
X007146Y001611D01*
X007291Y001611D01*
X007291Y001563D02*
X007243Y001515D01*
X007194Y001515D01*
X007291Y001563D02*
X007291Y001805D01*
X007392Y001757D02*
X007441Y001805D01*
X007586Y001805D01*
X007537Y001708D02*
X007441Y001708D01*
X007392Y001757D01*
X007392Y001611D02*
X007537Y001611D01*
X007586Y001660D01*
X007537Y001708D01*
X007687Y001757D02*
X007784Y001757D01*
X007880Y001902D02*
X007687Y001902D01*
X007687Y001611D01*
X007982Y001660D02*
X008030Y001708D01*
X008175Y001708D01*
X008175Y001757D02*
X008175Y001611D01*
X008030Y001611D01*
X007982Y001660D01*
X008030Y001805D02*
X008127Y001805D01*
X008175Y001757D01*
X008276Y001805D02*
X008421Y001805D01*
X008470Y001757D01*
X008470Y001611D01*
X008571Y001563D02*
X008764Y001563D01*
X008866Y001660D02*
X008914Y001611D01*
X009011Y001611D01*
X009059Y001660D01*
X009059Y001853D01*
X009011Y001902D01*
X008914Y001902D01*
X008866Y001853D01*
X008866Y001660D01*
X009160Y001660D02*
X009209Y001611D01*
X009354Y001611D01*
X009354Y001805D01*
X009455Y001805D02*
X009552Y001805D01*
X009503Y001853D02*
X009503Y001660D01*
X009552Y001611D01*
X009160Y001660D02*
X009160Y001805D01*
X009230Y002156D02*
X009230Y002527D01*
X009045Y002342D01*
X009292Y002342D01*
X008924Y002342D02*
X008862Y002280D01*
X008677Y002280D01*
X008677Y002156D02*
X008677Y002527D01*
X008862Y002527D01*
X008924Y002465D01*
X008924Y002342D01*
X008556Y002527D02*
X008432Y002527D01*
X008494Y002527D02*
X008494Y002218D01*
X008432Y002156D01*
X008370Y002156D01*
X008309Y002218D01*
X008276Y001805D02*
X008276Y001611D01*
X008907Y004370D02*
X008907Y004555D01*
X008969Y004617D01*
X009092Y004617D01*
X009154Y004555D01*
X009154Y004370D01*
X009154Y004493D02*
X009278Y004617D01*
X009278Y004738D02*
X009031Y004985D01*
X008969Y004985D01*
X008907Y004924D01*
X008907Y004800D01*
X008969Y004738D01*
X009278Y004738D02*
X009278Y004985D01*
X009278Y005107D02*
X009278Y005354D01*
X009278Y005230D02*
X008907Y005230D01*
X009031Y005107D01*
X008907Y004370D02*
X009278Y004370D01*
X007453Y004500D02*
X007082Y004500D01*
X007082Y004685D01*
X007144Y004747D01*
X007267Y004747D01*
X007329Y004685D01*
X007329Y004500D01*
X007329Y004623D02*
X007453Y004747D01*
X007453Y004868D02*
X007206Y005115D01*
X007144Y005115D01*
X007082Y005053D01*
X007082Y004930D01*
X007144Y004868D01*
X007453Y004868D02*
X007453Y005115D01*
X007453Y005237D02*
X007206Y005484D01*
X007144Y005484D01*
X007082Y005422D01*
X007082Y005298D01*
X007144Y005237D01*
X007453Y005237D02*
X007453Y005484D01*
X007802Y006765D02*
X007850Y006765D01*
X007898Y006813D01*
X007898Y007055D01*
X007999Y007007D02*
X008048Y006958D01*
X008145Y006958D01*
X008193Y006910D01*
X008145Y006861D01*
X007999Y006861D01*
X007898Y006861D02*
X007753Y006861D01*
X007705Y006910D01*
X007705Y007055D01*
X007604Y007103D02*
X007555Y007152D01*
X007459Y007152D01*
X007410Y007103D01*
X007410Y007055D01*
X007459Y007007D01*
X007555Y007007D01*
X007604Y006958D01*
X007604Y006910D01*
X007555Y006861D01*
X007459Y006861D01*
X007410Y006910D01*
X007999Y007007D02*
X008048Y007055D01*
X008193Y007055D01*
X008294Y007007D02*
X008391Y007007D01*
X008294Y007152D02*
X008488Y007152D01*
X008637Y007055D02*
X008734Y007055D01*
X008782Y007007D01*
X008782Y006861D01*
X008637Y006861D01*
X008589Y006910D01*
X008637Y006958D01*
X008782Y006958D01*
X008883Y006861D02*
X008883Y007055D01*
X009029Y007055D01*
X009077Y007007D01*
X009077Y006861D01*
X009178Y007007D02*
X009372Y007007D01*
X009473Y007152D02*
X009569Y007152D01*
X009521Y007152D02*
X009521Y006861D01*
X009473Y006861D02*
X009569Y006861D01*
X009669Y006861D02*
X009669Y007055D01*
X009814Y007055D01*
X009863Y007007D01*
X009863Y006861D01*
X009355Y007469D02*
X009232Y007469D01*
X009170Y007531D01*
X009170Y007654D02*
X009294Y007716D01*
X009355Y007716D01*
X009417Y007654D01*
X009417Y007531D01*
X009355Y007469D01*
X009170Y007654D02*
X009170Y007839D01*
X009417Y007839D01*
X009049Y007777D02*
X009049Y007654D01*
X008987Y007592D01*
X008802Y007592D01*
X008802Y007469D02*
X008802Y007839D01*
X008987Y007839D01*
X009049Y007777D01*
X008681Y007839D02*
X008557Y007839D01*
X008619Y007839D02*
X008619Y007531D01*
X008557Y007469D01*
X008495Y007469D01*
X008434Y007531D01*
X008294Y007152D02*
X008294Y006861D01*
X006003Y009633D02*
X006065Y009694D01*
X006065Y009818D01*
X006003Y009879D01*
X005942Y009879D01*
X005880Y009818D01*
X005880Y009694D01*
X005818Y009633D01*
X005756Y009633D01*
X005695Y009694D01*
X005695Y009818D01*
X005756Y009879D01*
X005756Y010001D02*
X005818Y010001D01*
X005880Y010063D01*
X005880Y010186D01*
X005942Y010248D01*
X006003Y010248D01*
X006065Y010186D01*
X006065Y010063D01*
X006003Y010001D01*
X005756Y010001D02*
X005695Y010063D01*
X005695Y010186D01*
X005756Y010248D01*
X005756Y010369D02*
X005695Y010431D01*
X005695Y010554D01*
X005756Y010616D01*
X006003Y010369D01*
X006065Y010431D01*
X006065Y010554D01*
X006003Y010616D01*
X005756Y010616D01*
X005756Y010369D02*
X006003Y010369D01*
X006003Y013445D02*
X006065Y013507D01*
X006065Y013630D01*
X006003Y013692D01*
X005942Y013692D01*
X005880Y013630D01*
X005880Y013507D01*
X005818Y013445D01*
X005756Y013445D01*
X005695Y013507D01*
X005695Y013630D01*
X005756Y013692D01*
X005756Y013813D02*
X005695Y013875D01*
X005695Y013999D01*
X005756Y014060D01*
X005818Y014182D02*
X005695Y014305D01*
X006065Y014305D01*
X006065Y014182D02*
X006065Y014429D01*
X006003Y014060D02*
X005942Y014060D01*
X005880Y013999D01*
X005880Y013875D01*
X005818Y013813D01*
X005756Y013813D01*
X006003Y013813D02*
X006065Y013875D01*
X006065Y013999D01*
X006003Y014060D01*
X006003Y016883D02*
X006065Y016944D01*
X006065Y017068D01*
X006003Y017129D01*
X005942Y017129D01*
X005880Y017068D01*
X005880Y016944D01*
X005818Y016883D01*
X005756Y016883D01*
X005695Y016944D01*
X005695Y017068D01*
X005756Y017129D01*
X005756Y017251D02*
X005818Y017251D01*
X005880Y017313D01*
X005880Y017436D01*
X005942Y017498D01*
X006003Y017498D01*
X006065Y017436D01*
X006065Y017313D01*
X006003Y017251D01*
X005756Y017251D02*
X005695Y017313D01*
X005695Y017436D01*
X005756Y017498D01*
X005756Y017619D02*
X005695Y017681D01*
X005695Y017804D01*
X005756Y017866D01*
X005818Y017866D01*
X006065Y017619D01*
X006065Y017866D01*
X006003Y020383D02*
X006065Y020444D01*
X006065Y020568D01*
X006003Y020629D01*
X005942Y020629D01*
X005880Y020568D01*
X005880Y020444D01*
X005818Y020383D01*
X005756Y020383D01*
X005695Y020444D01*
X005695Y020568D01*
X005756Y020629D01*
X005756Y020751D02*
X005818Y020751D01*
X005880Y020813D01*
X005880Y020936D01*
X005942Y020998D01*
X006003Y020998D01*
X006065Y020936D01*
X006065Y020813D01*
X006003Y020751D01*
X005756Y020751D02*
X005695Y020813D01*
X005695Y020936D01*
X005756Y020998D01*
X005756Y021119D02*
X005695Y021181D01*
X005695Y021304D01*
X005756Y021366D01*
X005818Y021366D01*
X005880Y021304D01*
X005942Y021366D01*
X006003Y021366D01*
X006065Y021304D01*
X006065Y021181D01*
X006003Y021119D01*
X005880Y021243D02*
X005880Y021304D01*
X007395Y022875D02*
X007395Y023165D01*
X007492Y023068D01*
X007588Y023165D01*
X007588Y022875D01*
X007690Y022875D02*
X007690Y023068D01*
X007786Y023165D01*
X007883Y023068D01*
X007883Y022875D01*
X007984Y022875D02*
X008178Y023165D01*
X008279Y023117D02*
X008327Y023165D01*
X008424Y023165D01*
X008472Y023117D01*
X008472Y023068D01*
X008424Y023020D01*
X008472Y022972D01*
X008472Y022923D01*
X008424Y022875D01*
X008327Y022875D01*
X008279Y022923D01*
X008178Y022875D02*
X007984Y023165D01*
X007883Y023020D02*
X007690Y023020D01*
X008376Y023020D02*
X008424Y023020D01*
X008574Y023068D02*
X008670Y023165D01*
X008670Y022875D01*
X008574Y022875D02*
X008767Y022875D01*
X008868Y022923D02*
X008868Y022972D01*
X008917Y023020D01*
X009013Y023020D01*
X009062Y022972D01*
X009062Y022923D01*
X009013Y022875D01*
X008917Y022875D01*
X008868Y022923D01*
X008917Y023020D02*
X008868Y023068D01*
X008868Y023117D01*
X008917Y023165D01*
X009013Y023165D01*
X009062Y023117D01*
X009062Y023068D01*
X009013Y023020D01*
X009163Y023020D02*
X009260Y023068D01*
X009308Y023068D01*
X009356Y023020D01*
X009356Y022923D01*
X009308Y022875D01*
X009211Y022875D01*
X009163Y022923D01*
X009163Y023020D02*
X009163Y023165D01*
X009356Y023165D01*
X009458Y023165D02*
X009458Y023020D01*
X009554Y023068D01*
X009603Y023068D01*
X009651Y023020D01*
X009651Y022923D01*
X009603Y022875D01*
X009506Y022875D01*
X009458Y022923D01*
X009458Y023165D02*
X009651Y023165D01*
X007040Y023862D02*
X007040Y024109D01*
X006978Y024170D01*
X006793Y024170D01*
X006793Y023800D01*
X006978Y023800D01*
X007040Y023862D01*
X006672Y023800D02*
X006672Y024170D01*
X006425Y024170D02*
X006672Y023800D01*
X006425Y023800D02*
X006425Y024170D01*
X006304Y024109D02*
X006242Y024170D01*
X006118Y024170D01*
X006057Y024109D01*
X006057Y023862D01*
X006118Y023800D01*
X006242Y023800D01*
X006304Y023862D01*
X006304Y023985D01*
X006180Y023985D01*
X005567Y023985D02*
X005320Y023985D01*
X005320Y024047D02*
X005443Y024170D01*
X005567Y024047D01*
X005567Y023800D01*
X005320Y023800D02*
X005320Y024047D01*
X002571Y021235D02*
X002201Y021235D01*
X002386Y021050D01*
X002386Y021297D01*
X002201Y020928D02*
X002201Y020805D01*
X002201Y020867D02*
X002509Y020867D01*
X002571Y020805D01*
X002571Y020743D01*
X002509Y020681D01*
X002448Y017609D02*
X002509Y017609D01*
X002571Y017547D01*
X002571Y017424D01*
X002509Y017362D01*
X002386Y017486D02*
X002386Y017547D01*
X002448Y017609D01*
X002386Y017547D02*
X002324Y017609D01*
X002262Y017609D01*
X002201Y017547D01*
X002201Y017424D01*
X002262Y017362D01*
X002201Y017241D02*
X002201Y017117D01*
X002201Y017179D02*
X002509Y017179D01*
X002571Y017117D01*
X002571Y017056D01*
X002509Y016994D01*
X002595Y014180D02*
X002595Y013933D01*
X002348Y014180D01*
X002287Y014180D01*
X002225Y014118D01*
X002225Y013995D01*
X002287Y013933D01*
X002225Y013812D02*
X002225Y013688D01*
X002225Y013750D02*
X002534Y013750D01*
X002595Y013688D01*
X002595Y013627D01*
X002534Y013565D01*
X002571Y010547D02*
X002571Y010300D01*
X002571Y010423D02*
X002201Y010423D01*
X002324Y010300D01*
X002201Y010178D02*
X002201Y010055D01*
X002201Y010117D02*
X002509Y010117D01*
X002571Y010055D01*
X002571Y009993D01*
X002509Y009931D01*
X004381Y002295D02*
X004258Y002172D01*
X011420Y009358D02*
X011420Y009543D01*
X011481Y009604D01*
X011605Y009604D01*
X011667Y009543D01*
X011667Y009358D01*
X011667Y009481D02*
X011790Y009604D01*
X011790Y009726D02*
X011790Y009973D01*
X011790Y009849D02*
X011420Y009849D01*
X011543Y009726D01*
X011481Y010094D02*
X011420Y010156D01*
X011420Y010279D01*
X011481Y010341D01*
X011543Y010341D01*
X011605Y010279D01*
X011667Y010341D01*
X011728Y010341D01*
X011790Y010279D01*
X011790Y010156D01*
X011728Y010094D01*
X011605Y010218D02*
X011605Y010279D01*
X011790Y009358D02*
X011420Y009358D01*
X013445Y009229D02*
X013445Y009181D01*
X013493Y009133D01*
X013590Y009133D01*
X013638Y009084D01*
X013638Y009036D01*
X013590Y008988D01*
X013493Y008988D01*
X013445Y009036D01*
X013445Y009229D02*
X013493Y009278D01*
X013590Y009278D01*
X013638Y009229D01*
X013740Y009229D02*
X013740Y009181D01*
X013788Y009133D01*
X013885Y009133D01*
X013933Y009084D01*
X013933Y009036D01*
X013885Y008988D01*
X013788Y008988D01*
X013740Y009036D01*
X013740Y009229D02*
X013788Y009278D01*
X013885Y009278D01*
X013933Y009229D01*
X014034Y009229D02*
X014083Y009278D01*
X014179Y009278D01*
X014228Y009229D01*
X014034Y009036D01*
X014083Y008988D01*
X014179Y008988D01*
X014228Y009036D01*
X014228Y009229D01*
X014034Y009229D02*
X014034Y009036D01*
X014277Y008227D02*
X014215Y008165D01*
X014215Y007918D01*
X014277Y007856D01*
X014400Y007856D01*
X014462Y007918D01*
X014583Y007856D02*
X014830Y007856D01*
X014952Y007856D02*
X014952Y007918D01*
X015199Y008165D01*
X015199Y008227D01*
X014952Y008227D01*
X014707Y008227D02*
X014707Y007856D01*
X014583Y008103D02*
X014707Y008227D01*
X014462Y008165D02*
X014400Y008227D01*
X014277Y008227D01*
X015082Y009250D02*
X015082Y009435D01*
X015144Y009497D01*
X015267Y009497D01*
X015329Y009435D01*
X015329Y009250D01*
X015329Y009373D02*
X015453Y009497D01*
X015453Y009618D02*
X015206Y009865D01*
X015144Y009865D01*
X015082Y009803D01*
X015082Y009680D01*
X015144Y009618D01*
X015453Y009618D02*
X015453Y009865D01*
X015453Y009250D02*
X015082Y009250D01*
X016350Y010200D02*
X016640Y010200D01*
X016640Y010393D01*
X016640Y010495D02*
X016640Y010688D01*
X016640Y010789D02*
X016640Y010934D01*
X016592Y010983D01*
X016398Y010983D01*
X016350Y010934D01*
X016350Y010789D01*
X016640Y010789D01*
X016495Y010591D02*
X016495Y010495D01*
X016350Y010495D02*
X016640Y010495D01*
X016350Y010495D02*
X016350Y010688D01*
X016447Y011084D02*
X016350Y011181D01*
X016640Y011181D01*
X016640Y011277D02*
X016640Y011084D01*
X016585Y011650D02*
X016647Y011712D01*
X016647Y011959D01*
X016585Y012020D01*
X016462Y012020D01*
X016400Y011959D01*
X016400Y011712D01*
X016462Y011650D01*
X016585Y011650D01*
X016769Y011712D02*
X016830Y011650D01*
X016954Y011650D01*
X017016Y011712D01*
X017016Y011773D01*
X016954Y011835D01*
X016830Y011835D01*
X016769Y011897D01*
X016769Y011959D01*
X016830Y012020D01*
X016954Y012020D01*
X017016Y011959D01*
X017137Y012020D02*
X017260Y012020D01*
X017199Y012020D02*
X017199Y011650D01*
X017260Y011650D02*
X017137Y011650D01*
X017480Y011903D02*
X017480Y012000D01*
X017528Y012048D01*
X017528Y012150D02*
X017722Y012150D01*
X017770Y012198D01*
X017770Y012295D01*
X017722Y012343D01*
X017770Y012444D02*
X017770Y012638D01*
X017770Y012541D02*
X017480Y012541D01*
X017577Y012444D01*
X017528Y012343D02*
X017480Y012295D01*
X017480Y012198D01*
X017528Y012150D01*
X017673Y012048D02*
X017625Y012000D01*
X017625Y011903D01*
X017577Y011855D01*
X017528Y011855D01*
X017480Y011903D01*
X017673Y012048D02*
X017722Y012048D01*
X017770Y012000D01*
X017770Y011903D01*
X017722Y011855D01*
X017722Y012739D02*
X017673Y012739D01*
X017625Y012787D01*
X017625Y012884D01*
X017673Y012932D01*
X017722Y012932D01*
X017770Y012884D01*
X017770Y012787D01*
X017722Y012739D01*
X017625Y012787D02*
X017577Y012739D01*
X017528Y012739D01*
X017480Y012787D01*
X017480Y012884D01*
X017528Y012932D01*
X017577Y012932D01*
X017625Y012884D01*
X017770Y013034D02*
X017770Y013130D01*
X017770Y013082D02*
X017480Y013082D01*
X017480Y013034D02*
X017480Y013130D01*
X017528Y013230D02*
X017577Y013230D01*
X017625Y013278D01*
X017625Y013375D01*
X017673Y013424D01*
X017722Y013424D01*
X017770Y013375D01*
X017770Y013278D01*
X017722Y013230D01*
X017528Y013230D02*
X017480Y013278D01*
X017480Y013375D01*
X017528Y013424D01*
X017625Y013525D02*
X017625Y013670D01*
X017673Y013718D01*
X017722Y013718D01*
X017770Y013670D01*
X017770Y013573D01*
X017722Y013525D01*
X017625Y013525D01*
X017528Y013621D01*
X017480Y013718D01*
X017528Y013819D02*
X017480Y013868D01*
X017480Y013964D01*
X017528Y014013D01*
X017722Y013819D01*
X017770Y013868D01*
X017770Y013964D01*
X017722Y014013D01*
X017528Y014013D01*
X017528Y014114D02*
X017480Y014162D01*
X017480Y014259D01*
X017528Y014307D01*
X017577Y014307D01*
X017770Y014114D01*
X017770Y014307D01*
X017770Y014409D02*
X017770Y014554D01*
X017722Y014602D01*
X017673Y014602D01*
X017625Y014554D01*
X017625Y014409D01*
X017625Y014554D02*
X017577Y014602D01*
X017528Y014602D01*
X017480Y014554D01*
X017480Y014409D01*
X017770Y014409D01*
X017770Y014703D02*
X017770Y014800D01*
X017770Y014752D02*
X017480Y014752D01*
X017480Y014800D02*
X017480Y014703D01*
X017480Y014900D02*
X017480Y015045D01*
X017528Y015093D01*
X017625Y015093D01*
X017673Y015045D01*
X017673Y014900D01*
X017770Y014900D02*
X017480Y014900D01*
X017480Y015194D02*
X017770Y015194D01*
X017673Y015291D01*
X017770Y015388D01*
X017480Y015388D01*
X017920Y015480D02*
X017981Y015418D01*
X018228Y015418D01*
X018290Y015480D01*
X018290Y015603D01*
X018228Y015665D01*
X018167Y015787D02*
X017920Y016034D01*
X017920Y015787D02*
X018290Y015787D01*
X018105Y015848D02*
X018290Y016034D01*
X017981Y015665D02*
X017920Y015603D01*
X017920Y015480D01*
X017981Y015297D02*
X017920Y015235D01*
X017920Y015112D01*
X017981Y015050D01*
X018043Y015050D01*
X018105Y015112D01*
X018105Y015235D01*
X018167Y015297D01*
X018228Y015297D01*
X018290Y015235D01*
X018290Y015112D01*
X018228Y015050D01*
X019408Y015129D02*
X019470Y015129D01*
X019593Y015129D02*
X019840Y015129D01*
X019840Y015190D02*
X019840Y015067D01*
X019840Y014945D02*
X019840Y014821D01*
X019840Y014883D02*
X019470Y014883D01*
X019470Y014821D01*
X019593Y014638D02*
X019655Y014700D01*
X019778Y014700D01*
X019840Y014638D01*
X019840Y014453D01*
X019840Y014332D02*
X019655Y014332D01*
X019593Y014270D01*
X019655Y014208D01*
X019840Y014208D01*
X019840Y014085D02*
X019593Y014085D01*
X019593Y014146D01*
X019655Y014208D01*
X019655Y013963D02*
X019655Y013716D01*
X019593Y013716D02*
X019840Y013716D01*
X020070Y013778D02*
X020070Y013901D01*
X020070Y013840D02*
X020440Y013840D01*
X020440Y013901D02*
X020440Y013778D01*
X020317Y013595D02*
X020317Y013410D01*
X020317Y013288D02*
X020378Y013288D01*
X020440Y013226D01*
X020440Y013103D01*
X020378Y013041D01*
X020255Y013103D02*
X020255Y013226D01*
X020317Y013288D01*
X020440Y013410D02*
X020070Y013410D01*
X020070Y013595D01*
X020131Y013656D01*
X020255Y013656D01*
X020317Y013595D01*
X020131Y013288D02*
X020070Y013226D01*
X020070Y013103D01*
X020131Y013041D01*
X020193Y013041D01*
X020255Y013103D01*
X019840Y013042D02*
X019778Y012980D01*
X019655Y012980D01*
X019593Y013042D01*
X019593Y013165D01*
X019655Y013227D01*
X019717Y013227D01*
X019717Y012980D01*
X019840Y013042D02*
X019840Y013165D01*
X019840Y012858D02*
X019840Y012734D01*
X019840Y012796D02*
X019470Y012796D01*
X019470Y012734D01*
X019593Y012551D02*
X019655Y012613D01*
X019778Y012613D01*
X019840Y012551D01*
X019840Y012366D01*
X019840Y012245D02*
X019593Y012245D01*
X019593Y012366D02*
X019593Y012551D01*
X019593Y012366D02*
X019963Y012366D01*
X019840Y012245D02*
X019840Y012059D01*
X019778Y011998D01*
X019593Y011998D01*
X019655Y011876D02*
X019593Y011814D01*
X019593Y011691D01*
X019655Y011629D01*
X019778Y011629D01*
X019840Y011691D01*
X019840Y011814D01*
X019778Y011876D01*
X019655Y011876D01*
X019593Y011508D02*
X019593Y011323D01*
X019655Y011261D01*
X019778Y011261D01*
X019840Y011323D01*
X019840Y011508D01*
X020070Y011508D02*
X020070Y011384D01*
X020131Y011322D01*
X020378Y011322D01*
X020440Y011384D01*
X020440Y011508D01*
X020378Y011569D01*
X020131Y011569D02*
X020070Y011508D01*
X020131Y011201D02*
X020070Y011139D01*
X020070Y011016D01*
X020131Y010954D01*
X020070Y010832D02*
X020070Y010709D01*
X020070Y010770D02*
X020440Y010770D01*
X020440Y010709D02*
X020440Y010832D01*
X020440Y010954D02*
X020193Y011201D01*
X020131Y011201D01*
X020440Y011201D02*
X020440Y010954D01*
X020670Y010771D02*
X020670Y010647D01*
X020731Y010586D01*
X020670Y010771D02*
X020731Y010833D01*
X020793Y010833D01*
X021040Y010586D01*
X021040Y010833D01*
X021040Y010954D02*
X021040Y011016D01*
X020978Y011016D01*
X020978Y010954D01*
X021040Y010954D01*
X020978Y011138D02*
X021040Y011200D01*
X021040Y011323D01*
X020978Y011385D01*
X020855Y011385D01*
X020793Y011323D01*
X020793Y011262D01*
X020855Y011138D01*
X020670Y011138D01*
X020670Y011385D01*
X020378Y012121D02*
X020131Y012121D01*
X020193Y012182D02*
X020193Y012059D01*
X020378Y012121D02*
X020440Y012182D01*
X020378Y012305D02*
X020255Y012305D01*
X020193Y012366D01*
X020193Y012490D01*
X020255Y012551D01*
X020378Y012551D01*
X020440Y012490D01*
X020440Y012366D01*
X020378Y012305D01*
X019240Y012244D02*
X019240Y012121D01*
X019178Y012059D01*
X019117Y012059D01*
X019055Y012121D01*
X019055Y012244D01*
X019117Y012306D01*
X019178Y012306D01*
X019240Y012244D01*
X019055Y012244D02*
X018993Y012306D01*
X018931Y012306D01*
X018870Y012244D01*
X018870Y012121D01*
X018931Y012059D01*
X018993Y012059D01*
X019055Y012121D01*
X019240Y011938D02*
X019240Y011691D01*
X019240Y011814D02*
X018870Y011814D01*
X018993Y011691D01*
X018993Y011569D02*
X019055Y011508D01*
X019117Y011569D01*
X019178Y011569D01*
X019240Y011508D01*
X019240Y011384D01*
X019178Y011322D01*
X019240Y011201D02*
X018870Y010954D01*
X018993Y010833D02*
X018870Y010709D01*
X018993Y010586D01*
X019240Y010586D01*
X019240Y010464D02*
X018870Y010464D01*
X018993Y010341D01*
X018870Y010217D01*
X019240Y010217D01*
X019593Y010217D02*
X019840Y010217D01*
X019717Y010217D02*
X019593Y010341D01*
X019593Y010403D01*
X019593Y010524D02*
X019593Y010586D01*
X019655Y010648D01*
X019593Y010710D01*
X019655Y010771D01*
X019840Y010771D01*
X019840Y010648D02*
X019655Y010648D01*
X019593Y010524D02*
X019840Y010524D01*
X019778Y010893D02*
X019840Y010954D01*
X019840Y011078D01*
X019778Y011140D01*
X019655Y011140D01*
X019593Y011078D01*
X019593Y010954D01*
X019655Y010893D01*
X019778Y010893D01*
X019240Y010833D02*
X018993Y010833D01*
X019055Y010833D02*
X019055Y010586D01*
X019240Y010954D02*
X018870Y011201D01*
X018931Y011322D02*
X018870Y011384D01*
X018870Y011508D01*
X018931Y011569D01*
X018993Y011569D01*
X019055Y011508D02*
X019055Y011446D01*
X019055Y012427D02*
X018870Y012427D01*
X018870Y012674D01*
X018870Y012796D02*
X019055Y012796D01*
X018993Y012919D01*
X018993Y012981D01*
X019055Y013043D01*
X019178Y013043D01*
X019240Y012981D01*
X019240Y012857D01*
X019178Y012796D01*
X019178Y012674D02*
X019055Y012674D01*
X018993Y012612D01*
X018993Y012551D01*
X019055Y012427D01*
X019178Y012427D02*
X019240Y012489D01*
X019240Y012612D01*
X019178Y012674D01*
X018870Y012796D02*
X018870Y013043D01*
X019593Y013716D02*
X019470Y013840D01*
X019593Y013963D01*
X019840Y013963D01*
X020070Y014392D02*
X020070Y014577D01*
X020131Y014639D01*
X020193Y014639D01*
X020255Y014577D01*
X020255Y014392D01*
X020255Y014577D02*
X020317Y014639D01*
X020378Y014639D01*
X020440Y014577D01*
X020440Y014392D01*
X020070Y014392D01*
X019963Y014453D02*
X019593Y014453D01*
X019593Y014638D01*
X019593Y015067D02*
X019593Y015129D01*
X019655Y015312D02*
X019655Y015436D01*
X019593Y015558D02*
X019593Y015620D01*
X019840Y015620D01*
X019840Y015681D02*
X019840Y015558D01*
X019840Y015374D02*
X019531Y015374D01*
X019470Y015436D01*
X019470Y015620D02*
X019408Y015620D01*
X019593Y015865D02*
X019593Y015989D01*
X019655Y016050D01*
X019717Y016050D01*
X019717Y015804D01*
X019778Y015804D02*
X019655Y015804D01*
X019593Y015865D01*
X019778Y015804D02*
X019840Y015865D01*
X019840Y015989D01*
X019840Y016172D02*
X019593Y016172D01*
X019593Y016295D02*
X019593Y016357D01*
X019593Y016295D02*
X019717Y016172D01*
X020193Y016111D02*
X020255Y016049D01*
X020378Y016049D01*
X020440Y016111D01*
X020440Y016234D01*
X020317Y016296D02*
X020317Y016049D01*
X020193Y016111D02*
X020193Y016234D01*
X020255Y016296D01*
X020317Y016296D01*
X020440Y015928D02*
X020440Y015742D01*
X020378Y015681D01*
X020255Y015681D01*
X020193Y015742D01*
X020193Y015928D01*
X020502Y015928D01*
X020563Y015866D01*
X020563Y015804D01*
X020440Y015559D02*
X020440Y015374D01*
X020378Y015312D01*
X020255Y015312D01*
X020193Y015374D01*
X020193Y015559D01*
X020070Y015559D02*
X020440Y015559D01*
X020440Y015190D02*
X020440Y015067D01*
X020440Y015129D02*
X020193Y015129D01*
X020193Y015067D01*
X020193Y014945D02*
X020193Y014883D01*
X020317Y014760D01*
X020440Y014760D02*
X020193Y014760D01*
X020070Y015129D02*
X020008Y015129D01*
X017722Y013819D02*
X017528Y013819D01*
X016279Y012020D02*
X016279Y011650D01*
X016032Y011650D02*
X016032Y012020D01*
X016155Y011897D01*
X016279Y012020D01*
X014424Y012098D02*
X014424Y012292D01*
X014376Y012340D01*
X014279Y012340D01*
X014231Y012292D01*
X014231Y012098D01*
X014279Y012050D01*
X014376Y012050D01*
X014424Y012098D01*
X014130Y012098D02*
X014081Y012050D01*
X013984Y012050D01*
X013936Y012098D01*
X013984Y012195D02*
X014081Y012195D01*
X014130Y012147D01*
X014130Y012098D01*
X013984Y012195D02*
X013936Y012243D01*
X013936Y012292D01*
X013984Y012340D01*
X014081Y012340D01*
X014130Y012292D01*
X013836Y012340D02*
X013740Y012340D01*
X013788Y012340D02*
X013788Y012050D01*
X013740Y012050D02*
X013836Y012050D01*
X013638Y012050D02*
X013638Y012340D01*
X013542Y012243D01*
X013445Y012340D01*
X013445Y012050D01*
X013493Y013050D02*
X013445Y013098D01*
X013493Y013050D02*
X013590Y013050D01*
X013638Y013098D01*
X013638Y013147D01*
X013590Y013195D01*
X013493Y013195D01*
X013445Y013243D01*
X013445Y013292D01*
X013493Y013340D01*
X013590Y013340D01*
X013638Y013292D01*
X013740Y013292D02*
X013740Y013243D01*
X013788Y013195D01*
X013885Y013195D01*
X013933Y013147D01*
X013933Y013098D01*
X013885Y013050D01*
X013788Y013050D01*
X013740Y013098D01*
X013740Y013292D02*
X013788Y013340D01*
X013885Y013340D01*
X013933Y013292D01*
X014034Y013243D02*
X014131Y013340D01*
X014131Y013050D01*
X014034Y013050D02*
X014228Y013050D01*
X014228Y014050D02*
X014083Y014195D01*
X014034Y014147D02*
X014228Y014340D01*
X014034Y014340D02*
X014034Y014050D01*
X013933Y014098D02*
X013885Y014050D01*
X013788Y014050D01*
X013740Y014098D01*
X013740Y014292D01*
X013788Y014340D01*
X013885Y014340D01*
X013933Y014292D01*
X013638Y014292D02*
X013590Y014340D01*
X013493Y014340D01*
X013445Y014292D01*
X013445Y014243D01*
X013493Y014195D01*
X013590Y014195D01*
X013638Y014147D01*
X013638Y014098D01*
X013590Y014050D01*
X013493Y014050D01*
X013445Y014098D01*
X011778Y014176D02*
X011407Y014176D01*
X011407Y014361D01*
X011469Y014423D01*
X011592Y014423D01*
X011654Y014361D01*
X011654Y014176D01*
X011654Y014299D02*
X011778Y014423D01*
X011716Y014544D02*
X011592Y014544D01*
X011592Y014729D01*
X011654Y014791D01*
X011716Y014791D01*
X011778Y014729D01*
X011778Y014606D01*
X011716Y014544D01*
X011592Y014544D02*
X011469Y014668D01*
X011407Y014791D01*
X012333Y015950D02*
X012333Y016320D01*
X012518Y016320D01*
X012579Y016259D01*
X012579Y016135D01*
X012518Y016073D01*
X012333Y016073D01*
X012456Y016073D02*
X012579Y015950D01*
X012701Y016135D02*
X012948Y016135D01*
X012886Y015950D02*
X012886Y016320D01*
X012701Y016135D01*
X012090Y017238D02*
X011720Y017238D01*
X011720Y017424D01*
X011781Y017485D01*
X011905Y017485D01*
X011967Y017424D01*
X011967Y017238D01*
X011967Y017362D02*
X012090Y017485D01*
X012028Y017607D02*
X012090Y017668D01*
X012090Y017792D01*
X012028Y017854D01*
X011905Y017854D01*
X011843Y017792D01*
X011843Y017730D01*
X011905Y017607D01*
X011720Y017607D01*
X011720Y017854D01*
X010379Y019214D02*
X010379Y019311D01*
X010330Y019360D01*
X010379Y019461D02*
X010379Y019654D01*
X010379Y019557D02*
X010088Y019557D01*
X010185Y019461D01*
X010137Y019360D02*
X010088Y019311D01*
X010088Y019214D01*
X010137Y019166D01*
X010330Y019166D01*
X010379Y019214D01*
X010330Y019755D02*
X010379Y019804D01*
X010379Y019900D01*
X010330Y019949D01*
X010282Y019949D01*
X010234Y019900D01*
X010234Y019852D01*
X010234Y019900D02*
X010185Y019949D01*
X010137Y019949D01*
X010088Y019900D01*
X010088Y019804D01*
X010137Y019755D01*
X010770Y019875D02*
X010770Y020060D01*
X010831Y020122D01*
X010955Y020122D01*
X011017Y020060D01*
X011017Y019875D01*
X011140Y019875D02*
X010770Y019875D01*
X011017Y019998D02*
X011140Y020122D01*
X011078Y020243D02*
X011140Y020305D01*
X011140Y020428D01*
X011078Y020490D01*
X011017Y020490D01*
X010955Y020428D01*
X010955Y020367D01*
X010955Y020428D02*
X010893Y020490D01*
X010831Y020490D01*
X010770Y020428D01*
X010770Y020305D01*
X010831Y020243D01*
X013445Y019854D02*
X013493Y019903D01*
X013590Y019903D01*
X013638Y019854D01*
X013638Y019806D01*
X013590Y019758D01*
X013638Y019709D01*
X013638Y019661D01*
X013590Y019613D01*
X013493Y019613D01*
X013445Y019661D01*
X013542Y019758D02*
X013590Y019758D01*
X013740Y019709D02*
X013836Y019613D01*
X013933Y019709D01*
X013933Y019903D01*
X014034Y019854D02*
X014083Y019903D01*
X014179Y019903D01*
X014228Y019854D01*
X014228Y019806D01*
X014179Y019758D01*
X014228Y019709D01*
X014228Y019661D01*
X014179Y019613D01*
X014083Y019613D01*
X014034Y019661D01*
X014131Y019758D02*
X014179Y019758D01*
X014329Y019758D02*
X014522Y019758D01*
X014522Y019806D02*
X014522Y019613D01*
X014522Y019806D02*
X014426Y019903D01*
X014329Y019806D01*
X014329Y019613D01*
X013740Y019709D02*
X013740Y019903D01*
X014400Y020738D02*
X014647Y020738D01*
X014709Y020799D01*
X014709Y020923D01*
X014647Y020984D01*
X014709Y021106D02*
X014709Y021353D01*
X014709Y021229D02*
X014338Y021229D01*
X014462Y021106D01*
X014400Y020984D02*
X014338Y020923D01*
X014338Y020799D01*
X014400Y020738D01*
X014376Y021675D02*
X014424Y021723D01*
X014424Y021917D01*
X014376Y021965D01*
X014279Y021965D01*
X014231Y021917D01*
X014231Y021723D01*
X014279Y021675D01*
X014376Y021675D01*
X014130Y021723D02*
X014081Y021675D01*
X013984Y021675D01*
X013936Y021723D01*
X013984Y021820D02*
X014081Y021820D01*
X014130Y021772D01*
X014130Y021723D01*
X013984Y021820D02*
X013936Y021868D01*
X013936Y021917D01*
X013984Y021965D01*
X014081Y021965D01*
X014130Y021917D01*
X013836Y021965D02*
X013740Y021965D01*
X013788Y021965D02*
X013788Y021675D01*
X013740Y021675D02*
X013836Y021675D01*
X013638Y021675D02*
X013638Y021965D01*
X013542Y021868D01*
X013445Y021965D01*
X013445Y021675D01*
X013493Y022613D02*
X013445Y022661D01*
X013493Y022613D02*
X013590Y022613D01*
X013638Y022661D01*
X013638Y022709D01*
X013590Y022758D01*
X013493Y022758D01*
X013445Y022806D01*
X013445Y022854D01*
X013493Y022903D01*
X013590Y022903D01*
X013638Y022854D01*
X013740Y022854D02*
X013740Y022806D01*
X013788Y022758D01*
X013885Y022758D01*
X013933Y022709D01*
X013933Y022661D01*
X013885Y022613D01*
X013788Y022613D01*
X013740Y022661D01*
X013740Y022854D02*
X013788Y022903D01*
X013885Y022903D01*
X013933Y022854D01*
X014034Y022854D02*
X014083Y022903D01*
X014179Y022903D01*
X014228Y022854D01*
X014228Y022806D01*
X014179Y022758D01*
X014228Y022709D01*
X014228Y022661D01*
X014179Y022613D01*
X014083Y022613D01*
X014034Y022661D01*
X014131Y022758D02*
X014179Y022758D01*
X014228Y023613D02*
X014083Y023758D01*
X014034Y023709D02*
X014228Y023903D01*
X014034Y023903D02*
X014034Y023613D01*
X013933Y023661D02*
X013885Y023613D01*
X013788Y023613D01*
X013740Y023661D01*
X013740Y023854D01*
X013788Y023903D01*
X013885Y023903D01*
X013933Y023854D01*
X013638Y023854D02*
X013590Y023903D01*
X013493Y023903D01*
X013445Y023854D01*
X013445Y023806D01*
X013493Y023758D01*
X013590Y023758D01*
X013638Y023709D01*
X013638Y023661D01*
X013590Y023613D01*
X013493Y023613D01*
X013445Y023661D01*
X016111Y019433D02*
X016256Y019433D01*
X016305Y019384D01*
X016305Y019288D01*
X016256Y019239D01*
X016111Y019239D01*
X016111Y019143D02*
X016111Y019433D01*
X016208Y019239D02*
X016305Y019143D01*
X016406Y019143D02*
X016599Y019143D01*
X016502Y019143D02*
X016502Y019433D01*
X016406Y019336D01*
X016700Y019336D02*
X016797Y019433D01*
X016797Y019143D01*
X016700Y019143D02*
X016894Y019143D01*
X016845Y018495D02*
X016894Y018447D01*
X016700Y018253D01*
X016749Y018205D01*
X016845Y018205D01*
X016894Y018253D01*
X016894Y018447D01*
X016845Y018495D02*
X016749Y018495D01*
X016700Y018447D01*
X016700Y018253D01*
X016599Y018205D02*
X016406Y018205D01*
X016502Y018205D02*
X016502Y018495D01*
X016406Y018398D01*
X016305Y018350D02*
X016305Y018447D01*
X016256Y018495D01*
X016111Y018495D01*
X016111Y018205D01*
X016111Y018302D02*
X016256Y018302D01*
X016305Y018350D01*
X016208Y018302D02*
X016305Y018205D01*
X016281Y017558D02*
X016426Y017558D01*
X016474Y017509D01*
X016474Y017413D01*
X016426Y017364D01*
X016281Y017364D01*
X016377Y017364D02*
X016474Y017268D01*
X016575Y017316D02*
X016624Y017268D01*
X016720Y017268D01*
X016769Y017316D01*
X016769Y017509D01*
X016720Y017558D01*
X016624Y017558D01*
X016575Y017509D01*
X016575Y017461D01*
X016624Y017413D01*
X016769Y017413D01*
X016281Y017268D02*
X016281Y017558D01*
X014228Y018550D02*
X014034Y018550D01*
X014228Y018743D01*
X014228Y018792D01*
X014179Y018840D01*
X014083Y018840D01*
X014034Y018792D01*
X013933Y018792D02*
X013885Y018840D01*
X013788Y018840D01*
X013740Y018792D01*
X013740Y018743D01*
X013788Y018695D01*
X013885Y018695D01*
X013933Y018647D01*
X013933Y018598D01*
X013885Y018550D01*
X013788Y018550D01*
X013740Y018598D01*
X013638Y018598D02*
X013590Y018550D01*
X013493Y018550D01*
X013445Y018598D01*
X013493Y018695D02*
X013590Y018695D01*
X013638Y018647D01*
X013638Y018598D01*
X013493Y018695D02*
X013445Y018743D01*
X013445Y018792D01*
X013493Y018840D01*
X013590Y018840D01*
X013638Y018792D01*
X018695Y018987D02*
X018757Y018925D01*
X018880Y018925D01*
X018942Y018987D01*
X018942Y019048D01*
X018880Y019110D01*
X018757Y019110D01*
X018695Y019172D01*
X018695Y019234D01*
X018757Y019295D01*
X018880Y019295D01*
X018942Y019234D01*
X019063Y019234D02*
X019063Y018987D01*
X019125Y018925D01*
X019248Y018925D01*
X019310Y018987D01*
X019432Y018925D02*
X019679Y018925D01*
X019432Y018925D02*
X019432Y019295D01*
X019310Y019234D02*
X019248Y019295D01*
X019125Y019295D01*
X019063Y019234D01*
X019063Y019925D02*
X019248Y019925D01*
X019310Y019987D01*
X019310Y020234D01*
X019248Y020295D01*
X019063Y020295D01*
X019063Y019925D01*
X018942Y019987D02*
X018880Y019925D01*
X018757Y019925D01*
X018695Y019987D01*
X018757Y020110D02*
X018880Y020110D01*
X018942Y020048D01*
X018942Y019987D01*
X018757Y020110D02*
X018695Y020172D01*
X018695Y020234D01*
X018757Y020295D01*
X018880Y020295D01*
X018942Y020234D01*
X019432Y020172D02*
X019432Y019925D01*
X019432Y020110D02*
X019679Y020110D01*
X019679Y020172D02*
X019679Y019925D01*
X019679Y020172D02*
X019555Y020295D01*
X019432Y020172D01*
X019493Y020925D02*
X019432Y020987D01*
X019493Y020925D02*
X019617Y020925D01*
X019679Y020987D01*
X019679Y021048D01*
X019617Y021110D01*
X019555Y021110D01*
X019617Y021110D02*
X019679Y021172D01*
X019679Y021234D01*
X019617Y021295D01*
X019493Y021295D01*
X019432Y021234D01*
X019310Y021172D02*
X019187Y020925D01*
X019063Y021172D01*
X018942Y021172D02*
X018880Y021110D01*
X018942Y021048D01*
X018942Y020987D01*
X018880Y020925D01*
X018757Y020925D01*
X018695Y020987D01*
X018818Y021110D02*
X018880Y021110D01*
X018942Y021172D02*
X018942Y021234D01*
X018880Y021295D01*
X018757Y021295D01*
X018695Y021234D01*
X018750Y022363D02*
X018750Y022508D01*
X018798Y022556D01*
X018992Y022556D01*
X019040Y022508D01*
X019040Y022363D01*
X018750Y022363D01*
X018798Y022657D02*
X018847Y022657D01*
X018895Y022706D01*
X018895Y022802D01*
X018943Y022851D01*
X018992Y022851D01*
X019040Y022802D01*
X019040Y022706D01*
X018992Y022657D01*
X018798Y022657D02*
X018750Y022706D01*
X018750Y022802D01*
X018798Y022851D01*
X018750Y022952D02*
X018750Y023145D01*
X018750Y023049D02*
X019040Y023049D01*
X018992Y023246D02*
X018895Y023246D01*
X018847Y023295D01*
X018847Y023392D01*
X018895Y023440D01*
X018943Y023440D01*
X018943Y023246D01*
X018992Y023246D02*
X019040Y023295D01*
X019040Y023392D01*
X019040Y023541D02*
X018847Y023541D01*
X018847Y023589D01*
X018895Y023638D01*
X018847Y023686D01*
X018895Y023735D01*
X019040Y023735D01*
X019040Y023638D02*
X018895Y023638D01*
X018847Y023836D02*
X018847Y023981D01*
X018895Y024029D01*
X018992Y024029D01*
X019040Y023981D01*
X019040Y023836D01*
X019137Y023836D02*
X018847Y023836D01*
X020756Y021929D02*
X020695Y021867D01*
X020695Y021682D01*
X021065Y021682D01*
X021065Y021867D01*
X021003Y021929D01*
X020756Y021929D01*
X020695Y021560D02*
X021065Y021560D01*
X020695Y021313D01*
X021065Y021313D01*
X021003Y021192D02*
X020880Y021192D01*
X020880Y021068D01*
X021003Y020945D02*
X020756Y020945D01*
X020695Y021007D01*
X020695Y021130D01*
X020756Y021192D01*
X021003Y021192D02*
X021065Y021130D01*
X021065Y021007D01*
X021003Y020945D01*
X021003Y020455D02*
X020756Y020455D01*
X020695Y020394D01*
X020695Y020208D01*
X021065Y020208D01*
X021065Y020394D01*
X021003Y020455D01*
X019617Y018295D02*
X019432Y018295D01*
X019432Y017925D01*
X019617Y017925D01*
X019679Y017987D01*
X019679Y018234D01*
X019617Y018295D01*
X019310Y018295D02*
X019310Y017925D01*
X019063Y018295D01*
X019063Y017925D01*
X018942Y017987D02*
X018942Y018110D01*
X018818Y018110D01*
X018695Y017987D02*
X018757Y017925D01*
X018880Y017925D01*
X018942Y017987D01*
X018942Y018234D02*
X018880Y018295D01*
X018757Y018295D01*
X018695Y018234D01*
X018695Y017987D01*
X017816Y010179D02*
X017569Y010179D01*
X017507Y010117D01*
X017507Y009993D01*
X017569Y009932D01*
X017816Y009932D01*
X017878Y009993D01*
X017878Y010117D01*
X017816Y010179D01*
X017816Y009810D02*
X017878Y009749D01*
X017878Y009625D01*
X017816Y009563D01*
X017878Y009441D02*
X017878Y009318D01*
X017878Y009380D02*
X017507Y009380D01*
X017507Y009441D02*
X017507Y009318D01*
X017507Y009196D02*
X017878Y009196D01*
X017878Y008950D02*
X017507Y008950D01*
X017631Y009073D01*
X017507Y009196D01*
X017569Y009563D02*
X017631Y009563D01*
X017692Y009625D01*
X017692Y009749D01*
X017754Y009810D01*
X017816Y009810D01*
X017569Y009810D02*
X017507Y009749D01*
X017507Y009625D01*
X017569Y009563D01*
X017090Y009483D02*
X017090Y009386D01*
X017042Y009338D01*
X016945Y009434D02*
X016945Y009483D01*
X016993Y009531D01*
X017042Y009531D01*
X017090Y009483D01*
X016945Y009483D02*
X016897Y009531D01*
X016848Y009531D01*
X016800Y009483D01*
X016800Y009386D01*
X016848Y009338D01*
X016897Y009632D02*
X017090Y009729D01*
X016897Y009826D01*
X016848Y009927D02*
X016800Y009975D01*
X016800Y010072D01*
X016848Y010120D01*
X016897Y010120D01*
X016945Y010072D01*
X016993Y010120D01*
X017042Y010120D01*
X017090Y010072D01*
X017090Y009975D01*
X017042Y009927D01*
X016945Y010024D02*
X016945Y010072D01*
X019275Y007616D02*
X019337Y007616D01*
X019399Y007554D01*
X019399Y007431D01*
X019337Y007369D01*
X019275Y007369D01*
X019213Y007431D01*
X019213Y007554D01*
X019275Y007616D01*
X019399Y007554D02*
X019460Y007616D01*
X019522Y007616D01*
X019584Y007554D01*
X019584Y007431D01*
X019522Y007369D01*
X019460Y007369D01*
X019399Y007431D01*
X019584Y007248D02*
X019584Y007001D01*
X019584Y007124D02*
X019213Y007124D01*
X019337Y007001D01*
X019275Y006879D02*
X019213Y006818D01*
X019213Y006694D01*
X019275Y006633D01*
X019522Y006633D01*
X019584Y006694D01*
X019584Y006818D01*
X019522Y006879D01*
X020375Y005907D02*
X020665Y005907D01*
X020665Y006101D01*
X020665Y005709D02*
X020375Y005709D01*
X020375Y005613D02*
X020375Y005806D01*
X020423Y005511D02*
X020375Y005463D01*
X020375Y005366D01*
X020423Y005318D01*
X020617Y005318D01*
X020665Y005366D01*
X020665Y005463D01*
X020617Y005511D01*
X020665Y005217D02*
X020520Y005217D01*
X020472Y005168D01*
X020472Y005023D01*
X020665Y005023D01*
X020665Y004922D02*
X020520Y004922D01*
X020472Y004874D01*
X020472Y004777D01*
X020568Y004777D02*
X020568Y004922D01*
X020665Y004922D02*
X020665Y004777D01*
X020617Y004729D01*
X020568Y004777D01*
X020375Y004627D02*
X020375Y004434D01*
X020665Y004434D01*
X020617Y004333D02*
X020665Y004284D01*
X020665Y004188D01*
X020617Y004139D01*
X020520Y004188D02*
X020472Y004139D01*
X020423Y004139D01*
X020375Y004188D01*
X020375Y004284D01*
X020423Y004333D01*
X020520Y004284D02*
X020568Y004333D01*
X020617Y004333D01*
X020520Y004284D02*
X020520Y004188D01*
X020423Y004038D02*
X020375Y004038D01*
X020423Y004038D02*
X020520Y003941D01*
X020665Y003941D01*
X020520Y003941D02*
X020423Y003845D01*
X020375Y003845D01*
X020423Y003743D02*
X020375Y003695D01*
X020375Y003598D01*
X020423Y003550D01*
X020472Y003550D01*
X020520Y003598D01*
X020520Y003695D01*
X020568Y003743D01*
X020617Y003743D01*
X020665Y003695D01*
X020665Y003598D01*
X020617Y003550D01*
X020520Y004434D02*
X020520Y004531D01*
X019143Y003208D02*
X019020Y003146D01*
X018896Y003023D01*
X019082Y003023D01*
X019143Y002961D01*
X019143Y002899D01*
X019082Y002838D01*
X018958Y002838D01*
X018896Y002899D01*
X018896Y003023D01*
X018775Y003146D02*
X018713Y003208D01*
X018590Y003208D01*
X018528Y003146D01*
X018528Y002899D01*
X018590Y002838D01*
X018713Y002838D01*
X018775Y002899D01*
X018406Y002838D02*
X018283Y002838D01*
X018344Y002838D02*
X018344Y003208D01*
X018283Y003208D02*
X018406Y003208D01*
X018358Y001720D02*
X018406Y001672D01*
X018213Y001478D01*
X018261Y001430D01*
X018358Y001430D01*
X018406Y001478D01*
X018406Y001672D01*
X018358Y001720D02*
X018261Y001720D01*
X018213Y001672D01*
X018213Y001478D01*
X018114Y001478D02*
X018114Y001430D01*
X018066Y001430D01*
X018066Y001478D01*
X018114Y001478D01*
X017964Y001478D02*
X017916Y001430D01*
X017819Y001430D01*
X017771Y001478D01*
X017771Y001575D02*
X017868Y001623D01*
X017916Y001623D01*
X017964Y001575D01*
X017964Y001478D01*
X017771Y001575D02*
X017771Y001720D01*
X017964Y001720D01*
X017670Y001575D02*
X017476Y001575D01*
X017375Y001527D02*
X017327Y001575D01*
X017182Y001575D01*
X017182Y001478D01*
X017230Y001430D01*
X017327Y001430D01*
X017375Y001478D01*
X017375Y001527D01*
X017278Y001672D02*
X017182Y001575D01*
X017278Y001672D02*
X017375Y001720D01*
X016984Y001720D02*
X016984Y001430D01*
X017080Y001430D02*
X016887Y001430D01*
X016786Y001430D02*
X016592Y001430D01*
X016786Y001623D01*
X016786Y001672D01*
X016737Y001720D01*
X016641Y001720D01*
X016592Y001672D01*
X016491Y001720D02*
X016298Y001720D01*
X016298Y001575D01*
X016394Y001623D01*
X016443Y001623D01*
X016491Y001575D01*
X016491Y001478D01*
X016443Y001430D01*
X016346Y001430D01*
X016298Y001478D01*
X016196Y001478D02*
X016148Y001430D01*
X016051Y001430D01*
X016003Y001478D01*
X016003Y001672D01*
X016051Y001720D01*
X016148Y001720D01*
X016196Y001672D01*
X015903Y001720D02*
X015807Y001720D01*
X015855Y001720D02*
X015855Y001430D01*
X015807Y001430D02*
X015903Y001430D01*
X015705Y001430D02*
X015705Y001720D01*
X015609Y001623D01*
X015512Y001720D01*
X015512Y001430D01*
X015594Y002063D02*
X015841Y002063D01*
X015903Y002124D01*
X015903Y002248D01*
X015841Y002309D01*
X015903Y002431D02*
X015903Y002678D01*
X015903Y002554D02*
X015532Y002554D01*
X015656Y002431D01*
X015594Y002309D02*
X015532Y002248D01*
X015532Y002124D01*
X015594Y002063D01*
X015717Y002799D02*
X015717Y003046D01*
X015532Y002984D02*
X015717Y002799D01*
X015532Y002984D02*
X015903Y002984D01*
X014699Y002102D02*
X014575Y002040D01*
X014452Y001916D01*
X014637Y001916D01*
X014699Y001855D01*
X014699Y001793D01*
X014637Y001731D01*
X014513Y001731D01*
X014452Y001793D01*
X014452Y001916D01*
X014330Y001731D02*
X014083Y001731D01*
X014207Y001731D02*
X014207Y002102D01*
X014083Y001978D01*
X013962Y002040D02*
X013900Y002102D01*
X013777Y002102D01*
X013715Y002040D01*
X013715Y001793D01*
X013777Y001731D01*
X013900Y001731D01*
X013962Y001793D01*
X013875Y001608D02*
X013937Y001546D01*
X013875Y001608D02*
X013752Y001608D01*
X013690Y001546D01*
X013690Y001299D01*
X013752Y001238D01*
X013875Y001238D01*
X013937Y001299D01*
X014058Y001238D02*
X014305Y001484D01*
X014305Y001546D01*
X014244Y001608D01*
X014120Y001608D01*
X014058Y001546D01*
X014058Y001238D02*
X014305Y001238D01*
X014427Y001299D02*
X014674Y001546D01*
X014674Y001299D01*
X014612Y001238D01*
X014488Y001238D01*
X014427Y001299D01*
X014427Y001546D01*
X014488Y001608D01*
X014612Y001608D01*
X014674Y001546D01*
X016887Y001623D02*
X016984Y001720D01*
X016858Y004868D02*
X016761Y004868D01*
X016713Y004916D01*
X016614Y004916D02*
X016614Y004868D01*
X016566Y004868D01*
X016566Y004916D01*
X016614Y004916D01*
X016464Y004916D02*
X016416Y004868D01*
X016319Y004868D01*
X016271Y004916D01*
X016368Y005013D02*
X016416Y005013D01*
X016464Y004964D01*
X016464Y004916D01*
X016416Y005013D02*
X016464Y005061D01*
X016464Y005109D01*
X016416Y005158D01*
X016319Y005158D01*
X016271Y005109D01*
X016170Y005013D02*
X015976Y005013D01*
X015875Y004964D02*
X015875Y004916D01*
X015827Y004868D01*
X015730Y004868D01*
X015682Y004916D01*
X015682Y005013D01*
X015827Y005013D01*
X015875Y004964D01*
X015778Y005109D02*
X015682Y005013D01*
X015778Y005109D02*
X015875Y005158D01*
X015484Y005158D02*
X015484Y004868D01*
X015580Y004868D02*
X015387Y004868D01*
X015286Y004868D02*
X015092Y004868D01*
X015286Y005061D01*
X015286Y005109D01*
X015237Y005158D01*
X015141Y005158D01*
X015092Y005109D01*
X014991Y005158D02*
X014798Y005158D01*
X014798Y005013D01*
X014894Y005061D01*
X014943Y005061D01*
X014991Y005013D01*
X014991Y004916D01*
X014943Y004868D01*
X014846Y004868D01*
X014798Y004916D01*
X014696Y004916D02*
X014648Y004868D01*
X014551Y004868D01*
X014503Y004916D01*
X014503Y005109D01*
X014551Y005158D01*
X014648Y005158D01*
X014696Y005109D01*
X014403Y005158D02*
X014307Y005158D01*
X014355Y005158D02*
X014355Y004868D01*
X014307Y004868D02*
X014403Y004868D01*
X014205Y004868D02*
X014205Y005158D01*
X014109Y005061D01*
X014012Y005158D01*
X014012Y004868D01*
X013391Y004821D02*
X013391Y004574D01*
X013329Y004513D01*
X013206Y004513D01*
X013144Y004574D01*
X013391Y004821D01*
X013329Y004883D01*
X013206Y004883D01*
X013144Y004821D01*
X013144Y004574D01*
X013023Y004513D02*
X012776Y004513D01*
X012899Y004513D02*
X012899Y004883D01*
X012776Y004759D01*
X012654Y004821D02*
X012654Y004574D01*
X012593Y004513D01*
X012408Y004513D01*
X012408Y004883D01*
X012593Y004883D01*
X012654Y004821D01*
X013421Y005813D02*
X013606Y005813D01*
X013668Y005874D01*
X013668Y006121D01*
X013606Y006183D01*
X013421Y006183D01*
X013421Y005813D01*
X013789Y005874D02*
X013851Y005813D01*
X013974Y005813D01*
X014036Y005874D01*
X014036Y005998D01*
X013974Y006059D01*
X013913Y006059D01*
X013789Y005998D01*
X013789Y006183D01*
X014036Y006183D01*
X014563Y006170D02*
X014686Y006170D01*
X014625Y006170D02*
X014625Y005800D01*
X014686Y005800D02*
X014563Y005800D01*
X014808Y005862D02*
X014808Y006109D01*
X014870Y006170D01*
X014994Y006170D01*
X015055Y006109D01*
X015177Y006170D02*
X015424Y006170D01*
X015424Y006109D01*
X015177Y005862D01*
X015177Y005800D01*
X015055Y005862D02*
X014994Y005800D01*
X014870Y005800D01*
X014808Y005862D01*
X015484Y005158D02*
X015387Y005061D01*
X016713Y005109D02*
X016761Y005158D01*
X016858Y005158D01*
X016906Y005109D01*
X016906Y005061D01*
X016858Y005013D01*
X016906Y004964D01*
X016906Y004916D01*
X016858Y004868D01*
X016858Y005013D02*
X016810Y005013D01*
X017582Y005307D02*
X017644Y005245D01*
X017891Y005245D01*
X017953Y005307D01*
X017953Y005430D01*
X017891Y005492D01*
X017953Y005613D02*
X017953Y005860D01*
X017953Y005737D02*
X017582Y005737D01*
X017706Y005613D01*
X017644Y005492D02*
X017582Y005430D01*
X017582Y005307D01*
X017644Y005982D02*
X017582Y006043D01*
X017582Y006167D01*
X017644Y006229D01*
X017891Y006229D01*
X017953Y006167D01*
X017953Y006043D01*
X017891Y005982D01*
X017767Y006043D02*
X017767Y006229D01*
X017767Y006043D02*
X017706Y005982D01*
X017644Y005982D01*
X017693Y007000D02*
X017632Y007062D01*
X017693Y007000D02*
X017817Y007000D01*
X017879Y007062D01*
X017879Y007185D01*
X017817Y007247D01*
X017755Y007247D01*
X017632Y007185D01*
X017632Y007370D01*
X017879Y007370D01*
X017387Y007370D02*
X017387Y007000D01*
X017510Y007000D02*
X017263Y007000D01*
X017142Y007062D02*
X017080Y007000D01*
X016957Y007000D01*
X016895Y007062D01*
X016895Y007309D01*
X016957Y007370D01*
X017080Y007370D01*
X017142Y007309D01*
X017263Y007247D02*
X017387Y007370D01*
X019470Y009113D02*
X019470Y009359D01*
X019470Y009481D02*
X019840Y009481D01*
X020008Y009543D02*
X020070Y009543D01*
X020193Y009543D02*
X020440Y009543D01*
X020440Y009604D02*
X020440Y009481D01*
X020378Y009359D02*
X020193Y009359D01*
X020193Y009481D02*
X020193Y009543D01*
X020193Y009726D02*
X020193Y009850D01*
X020131Y009788D02*
X020378Y009788D01*
X020440Y009850D01*
X020440Y009972D02*
X020070Y009972D01*
X020193Y010034D02*
X020193Y010157D01*
X020255Y010219D01*
X020440Y010219D01*
X020255Y009972D02*
X020193Y010034D01*
X019840Y010034D02*
X019840Y009911D01*
X019778Y009849D01*
X019655Y009849D01*
X019593Y009911D01*
X019593Y010034D01*
X019655Y010096D01*
X019717Y010096D01*
X019717Y009849D01*
X019655Y009728D02*
X019840Y009728D01*
X019655Y009728D02*
X019593Y009666D01*
X019593Y009543D01*
X019655Y009481D01*
X019840Y009236D02*
X019470Y009236D01*
X020193Y009113D02*
X020378Y009113D01*
X020440Y009174D01*
X020378Y009236D01*
X020440Y009298D01*
X020378Y009359D01*
X020670Y009298D02*
X020731Y009359D01*
X020855Y009359D01*
X020917Y009298D01*
X020917Y009113D01*
X020917Y009236D02*
X021040Y009359D01*
X020978Y009481D02*
X020855Y009481D01*
X020793Y009543D01*
X020793Y009666D01*
X020855Y009728D01*
X020917Y009728D01*
X020917Y009481D01*
X020978Y009481D02*
X021040Y009543D01*
X021040Y009666D01*
X021040Y009973D02*
X020793Y010096D01*
X020793Y009849D02*
X021040Y009973D01*
X020670Y009298D02*
X020670Y009113D01*
X021040Y009113D01*
X010441Y011964D02*
X010441Y012061D01*
X010393Y012110D01*
X010441Y012211D02*
X010441Y012404D01*
X010441Y012307D02*
X010151Y012307D01*
X010248Y012211D01*
X010199Y012110D02*
X010151Y012061D01*
X010151Y011964D01*
X010199Y011916D01*
X010393Y011916D01*
X010441Y011964D01*
X010441Y012505D02*
X010248Y012699D01*
X010199Y012699D01*
X010151Y012650D01*
X010151Y012554D01*
X010199Y012505D01*
X010441Y012505D02*
X010441Y012699D01*
D11*
X010618Y008035D02*
X010118Y008035D01*
X010118Y005835D01*
X012118Y005835D01*
X012118Y008035D01*
X011618Y008035D01*
X011618Y007535D01*
X010618Y007535D01*
X010618Y008035D01*
X011618Y008035D01*
X014518Y003560D02*
X014518Y002760D01*
X012118Y003348D02*
X012118Y001148D01*
X010118Y001148D01*
X010118Y003348D01*
X010618Y003348D01*
X010618Y002848D01*
X011618Y002848D01*
X011618Y003348D01*
X012118Y003348D01*
X011618Y003348D02*
X010618Y003348D01*
X016218Y007698D02*
X016218Y008498D01*
X018672Y005314D02*
X018747Y005163D01*
X018897Y005013D01*
X018897Y005238D01*
X018972Y005314D01*
X019047Y005314D01*
X019123Y005238D01*
X019123Y005088D01*
X019047Y005013D01*
X018897Y005013D01*
X018897Y004853D02*
X018747Y004853D01*
X018672Y004778D01*
X018672Y004553D01*
X019123Y004553D01*
X018972Y004553D02*
X018972Y004778D01*
X018897Y004853D01*
X018672Y004393D02*
X018672Y004243D01*
X018672Y004318D02*
X019047Y004318D01*
X019123Y004243D01*
X019123Y004168D01*
X019047Y004093D01*
X018450Y016903D02*
X018150Y016903D01*
X018300Y016903D02*
X018300Y017353D01*
X018150Y017203D01*
X017989Y017278D02*
X017989Y017128D01*
X017914Y017053D01*
X017689Y017053D01*
X017689Y016903D02*
X017689Y017353D01*
X017914Y017353D01*
X017989Y017278D01*
X017529Y017353D02*
X017379Y017353D01*
X017454Y017353D02*
X017454Y016978D01*
X017379Y016903D01*
X017304Y016903D01*
X017229Y016978D01*
X017750Y021655D02*
X017825Y021655D01*
X017900Y021730D01*
X017900Y022105D01*
X017825Y022105D02*
X017975Y022105D01*
X018135Y022105D02*
X018361Y022105D01*
X018436Y022030D01*
X018436Y021880D01*
X018361Y021805D01*
X018135Y021805D01*
X018135Y021655D02*
X018135Y022105D01*
X018596Y022105D02*
X018896Y022105D01*
X018896Y022030D01*
X018596Y021730D01*
X018596Y021655D01*
X017750Y021655D02*
X017675Y021730D01*
X016643Y022460D02*
X016643Y024110D01*
X016043Y023838D02*
X016043Y023732D01*
X016430Y024239D02*
X016486Y024212D01*
X016540Y024181D01*
X016592Y024147D01*
X016642Y024110D01*
X015546Y024235D02*
X015489Y024206D01*
X015433Y024173D01*
X015380Y024138D01*
X015329Y024098D01*
X015281Y024056D01*
X015235Y024011D01*
X015192Y023964D01*
X015152Y023914D01*
X015115Y023861D01*
X015082Y023806D01*
X015051Y023750D01*
X015025Y023691D01*
X015002Y023631D01*
X014982Y023570D01*
X014967Y023508D01*
X014955Y023445D01*
X014947Y023381D01*
X014943Y023317D01*
X014943Y023253D01*
X014947Y023189D01*
X014955Y023125D01*
X014967Y023062D01*
X014982Y023000D01*
X015002Y022939D01*
X015025Y022879D01*
X015051Y022820D01*
X015082Y022764D01*
X015115Y022709D01*
X015152Y022656D01*
X015192Y022606D01*
X015235Y022559D01*
X015281Y022514D01*
X015329Y022472D01*
X015380Y022432D01*
X015433Y022397D01*
X015489Y022364D01*
X015546Y022335D01*
X014955Y022285D02*
X014880Y022360D01*
X014505Y022360D01*
X014655Y022520D02*
X014505Y022671D01*
X014955Y022671D01*
X014955Y022821D02*
X014955Y022520D01*
X014955Y022285D02*
X014955Y022135D01*
X014880Y022060D01*
X014505Y022060D01*
X016043Y022732D02*
X016043Y022838D01*
X016439Y022335D02*
X016493Y022362D01*
X016544Y022392D01*
X016594Y022425D01*
X016642Y022460D01*
X005362Y021740D02*
X004955Y021740D01*
X004894Y022249D02*
X004894Y019493D01*
X002689Y019493D01*
X002689Y022249D01*
X002138Y022249D01*
X002138Y019493D01*
X002689Y019493D01*
X002689Y018686D02*
X002138Y018686D01*
X002138Y015930D01*
X002689Y015930D01*
X002689Y018686D01*
X004894Y018686D01*
X004894Y015930D01*
X002689Y015930D01*
X002689Y015186D02*
X002138Y015186D01*
X002138Y012430D01*
X002689Y012430D01*
X002689Y015186D01*
X004894Y015186D01*
X004894Y012430D01*
X002689Y012430D01*
X002689Y011561D02*
X002138Y011561D01*
X002138Y008805D01*
X002689Y008805D01*
X002689Y011561D01*
X004894Y011561D01*
X004894Y008805D01*
X002689Y008805D01*
X004893Y009490D02*
X005300Y009490D01*
X005096Y009287D02*
X005096Y009694D01*
X004955Y010990D02*
X005362Y010990D01*
X005096Y012912D02*
X005096Y013319D01*
X004893Y013115D02*
X005300Y013115D01*
X005362Y014615D02*
X004955Y014615D01*
X005096Y016412D02*
X005096Y016819D01*
X004893Y016615D02*
X005300Y016615D01*
X005362Y018115D02*
X004955Y018115D01*
X005096Y019974D02*
X005096Y020381D01*
X004893Y020178D02*
X005300Y020178D01*
X004894Y022249D02*
X002689Y022249D01*
D12*
X007905Y020740D02*
X008025Y020740D01*
X007965Y020740D02*
X007965Y020380D01*
X007905Y020380D02*
X008025Y020380D01*
X008151Y020440D02*
X008211Y020380D01*
X008331Y020380D01*
X008391Y020440D01*
X008519Y020560D02*
X008759Y020560D01*
X008699Y020380D02*
X008699Y020740D01*
X008519Y020560D01*
X008391Y020680D02*
X008331Y020740D01*
X008211Y020740D01*
X008151Y020680D01*
X008151Y020440D01*
X008088Y016365D02*
X007968Y016365D01*
X008028Y016365D02*
X008028Y016005D01*
X007968Y016005D02*
X008088Y016005D01*
X008213Y016065D02*
X008213Y016305D01*
X008273Y016365D01*
X008394Y016365D01*
X008454Y016305D01*
X008582Y016305D02*
X008642Y016365D01*
X008762Y016365D01*
X008822Y016305D01*
X008822Y016245D01*
X008762Y016185D01*
X008822Y016125D01*
X008822Y016065D01*
X008762Y016005D01*
X008642Y016005D01*
X008582Y016065D01*
X008454Y016065D02*
X008394Y016005D01*
X008273Y016005D01*
X008213Y016065D01*
X008702Y016185D02*
X008762Y016185D01*
X007684Y015785D02*
X007684Y015708D01*
X007377Y015708D01*
X007377Y015632D02*
X007377Y015785D01*
X007454Y015862D01*
X007607Y015862D01*
X007684Y015785D01*
X007607Y015555D02*
X007454Y015555D01*
X007377Y015632D01*
X007223Y015632D02*
X007147Y015555D01*
X006917Y015555D01*
X006917Y015402D02*
X006917Y015862D01*
X007147Y015862D01*
X007223Y015785D01*
X007223Y015632D01*
X006763Y015555D02*
X006533Y015555D01*
X006456Y015632D01*
X006456Y015862D01*
X006303Y016015D02*
X005996Y016015D01*
X006149Y016015D02*
X006149Y015555D01*
X006610Y015402D02*
X006686Y015402D01*
X006763Y015478D01*
X006763Y015862D01*
X005382Y016015D02*
X005075Y015708D01*
X005152Y015785D02*
X005382Y015555D01*
X005075Y015555D02*
X005075Y016015D01*
X007968Y013428D02*
X008088Y013428D01*
X008028Y013428D02*
X008028Y013068D01*
X007968Y013068D02*
X008088Y013068D01*
X008213Y013128D02*
X008213Y013368D01*
X008273Y013428D01*
X008394Y013428D01*
X008454Y013368D01*
X008582Y013368D02*
X008642Y013428D01*
X008762Y013428D01*
X008822Y013368D01*
X008822Y013308D01*
X008582Y013068D01*
X008822Y013068D01*
X008454Y013128D02*
X008394Y013068D01*
X008273Y013068D01*
X008213Y013128D01*
X008150Y009490D02*
X008030Y009490D01*
X008090Y009490D02*
X008090Y009130D01*
X008030Y009130D02*
X008150Y009130D01*
X008276Y009190D02*
X008276Y009430D01*
X008336Y009490D01*
X008456Y009490D01*
X008516Y009430D01*
X008644Y009370D02*
X008764Y009490D01*
X008764Y009130D01*
X008644Y009130D02*
X008884Y009130D01*
X008516Y009190D02*
X008456Y009130D01*
X008336Y009130D01*
X008276Y009190D01*
X012017Y012458D02*
X012017Y012578D01*
X012017Y012518D02*
X012317Y012518D01*
X012378Y012458D01*
X012378Y012398D01*
X012317Y012338D01*
X012257Y012706D02*
X012257Y012886D01*
X012197Y012946D01*
X012077Y012946D01*
X012017Y012886D01*
X012017Y012706D01*
X012378Y012706D01*
X012317Y013074D02*
X012378Y013134D01*
X012378Y013254D01*
X012317Y013314D01*
X012257Y013314D01*
X012197Y013254D01*
X012197Y013194D01*
X012197Y013254D02*
X012137Y013314D01*
X012077Y013314D01*
X012017Y013254D01*
X012017Y013134D01*
X012077Y013074D01*
X012380Y020275D02*
X012440Y020335D01*
X012440Y020395D01*
X012380Y020455D01*
X012080Y020455D01*
X012080Y020395D02*
X012080Y020515D01*
X012080Y020643D02*
X012080Y020823D01*
X012140Y020884D01*
X012260Y020884D01*
X012320Y020823D01*
X012320Y020643D01*
X012440Y020643D02*
X012080Y020643D01*
X012140Y021012D02*
X012080Y021072D01*
X012080Y021192D01*
X012140Y021252D01*
X012200Y021252D01*
X012440Y021012D01*
X012440Y021252D01*
X016725Y022118D02*
X016725Y022298D01*
X016785Y022358D01*
X017025Y022358D01*
X017085Y022298D01*
X017085Y022118D01*
X016725Y022118D01*
X016785Y022486D02*
X016845Y022486D01*
X016905Y022546D01*
X016905Y022666D01*
X016965Y022726D01*
X017025Y022726D01*
X017085Y022666D01*
X017085Y022546D01*
X017025Y022486D01*
X016785Y022486D02*
X016725Y022546D01*
X016725Y022666D01*
X016785Y022726D01*
X016845Y022854D02*
X016725Y022974D01*
X017085Y022974D01*
X017085Y022854D02*
X017085Y023094D01*
X017025Y023222D02*
X016965Y023222D01*
X016905Y023282D01*
X016905Y023403D01*
X016965Y023463D01*
X017025Y023463D01*
X017085Y023403D01*
X017085Y023282D01*
X017025Y023222D01*
X016905Y023282D02*
X016845Y023222D01*
X016785Y023222D01*
X016725Y023282D01*
X016725Y023403D01*
X016785Y023463D01*
X016845Y023463D01*
X016905Y023403D01*
X016905Y023591D02*
X016905Y023771D01*
X016965Y023831D01*
X017025Y023831D01*
X017085Y023771D01*
X017085Y023591D01*
X016725Y023591D01*
X016725Y023771D01*
X016785Y023831D01*
X016845Y023831D01*
X016905Y023771D01*
X016785Y023959D02*
X016725Y024019D01*
X016725Y024139D01*
X016785Y024199D01*
X016845Y024199D01*
X017085Y023959D01*
X017085Y024199D01*
X017025Y024327D02*
X016785Y024568D01*
X017025Y024568D01*
X017085Y024508D01*
X017085Y024387D01*
X017025Y024327D01*
X016785Y024327D01*
X016725Y024387D01*
X016725Y024508D01*
X016785Y024568D01*
D13*
X001993Y003848D02*
X001993Y000973D01*
X021368Y000973D01*
X021368Y024910D01*
X001993Y024910D01*
X001993Y008223D01*
X006805Y008223D01*
X006805Y003848D01*
X001993Y003848D01*
D14*
X007647Y007869D02*
X007647Y008042D01*
X007647Y008163D02*
X007647Y008293D01*
X007691Y008337D01*
X007734Y008337D01*
X007777Y008293D01*
X007777Y008163D01*
X007647Y008163D02*
X007908Y008163D01*
X007908Y008293D01*
X007864Y008337D01*
X007821Y008337D01*
X007777Y008293D01*
X007691Y008458D02*
X007647Y008501D01*
X007647Y008588D01*
X007691Y008631D01*
X007734Y008631D01*
X007908Y008458D01*
X007908Y008631D01*
X007777Y007955D02*
X007777Y007869D01*
X007647Y007869D02*
X007908Y007869D01*
X007935Y009535D02*
X009175Y009535D01*
X009198Y009537D01*
X009221Y009542D01*
X009243Y009551D01*
X009263Y009564D01*
X009281Y009579D01*
X009296Y009597D01*
X009309Y009617D01*
X009318Y009639D01*
X009323Y009662D01*
X009325Y009685D01*
X009325Y011385D01*
X009323Y011408D01*
X009318Y011431D01*
X009309Y011453D01*
X009296Y011473D01*
X009281Y011491D01*
X009263Y011506D01*
X009243Y011519D01*
X009221Y011528D01*
X009198Y011533D01*
X009175Y011535D01*
X007935Y011535D01*
X007912Y011533D01*
X007889Y011528D01*
X007867Y011519D01*
X007847Y011506D01*
X007829Y011491D01*
X007814Y011473D01*
X007801Y011453D01*
X007792Y011431D01*
X007787Y011408D01*
X007785Y011385D01*
X007785Y009685D01*
X007787Y009662D01*
X007792Y009639D01*
X007801Y009617D01*
X007814Y009597D01*
X007829Y009579D01*
X007847Y009564D01*
X007867Y009551D01*
X007889Y009542D01*
X007912Y009537D01*
X007935Y009535D01*
X008355Y011535D02*
X008357Y011508D01*
X008362Y011481D01*
X008372Y011455D01*
X008384Y011431D01*
X008400Y011409D01*
X008418Y011389D01*
X008440Y011372D01*
X008463Y011357D01*
X008488Y011347D01*
X008514Y011339D01*
X008541Y011335D01*
X008569Y011335D01*
X008596Y011339D01*
X008622Y011347D01*
X008647Y011357D01*
X008670Y011372D01*
X008692Y011389D01*
X008710Y011409D01*
X008726Y011431D01*
X008738Y011455D01*
X008748Y011481D01*
X008753Y011508D01*
X008755Y011535D01*
X009113Y013473D02*
X007873Y013473D01*
X007850Y013475D01*
X007827Y013480D01*
X007805Y013489D01*
X007785Y013502D01*
X007767Y013517D01*
X007752Y013535D01*
X007739Y013555D01*
X007730Y013577D01*
X007725Y013600D01*
X007723Y013623D01*
X007723Y015323D01*
X007725Y015346D01*
X007730Y015369D01*
X007739Y015391D01*
X007752Y015411D01*
X007767Y015429D01*
X007785Y015444D01*
X007805Y015457D01*
X007827Y015466D01*
X007850Y015471D01*
X007873Y015473D01*
X009113Y015473D01*
X009136Y015471D01*
X009159Y015466D01*
X009181Y015457D01*
X009201Y015444D01*
X009219Y015429D01*
X009234Y015411D01*
X009247Y015391D01*
X009256Y015369D01*
X009261Y015346D01*
X009263Y015323D01*
X009263Y013623D01*
X009261Y013600D01*
X009256Y013577D01*
X009247Y013555D01*
X009234Y013535D01*
X009219Y013517D01*
X009201Y013502D01*
X009181Y013489D01*
X009159Y013480D01*
X009136Y013475D01*
X009113Y013473D01*
X008693Y015473D02*
X008691Y015446D01*
X008686Y015419D01*
X008676Y015393D01*
X008664Y015369D01*
X008648Y015347D01*
X008630Y015327D01*
X008608Y015310D01*
X008585Y015295D01*
X008560Y015285D01*
X008534Y015277D01*
X008507Y015273D01*
X008479Y015273D01*
X008452Y015277D01*
X008426Y015285D01*
X008401Y015295D01*
X008378Y015310D01*
X008356Y015327D01*
X008338Y015347D01*
X008322Y015369D01*
X008310Y015393D01*
X008300Y015419D01*
X008295Y015446D01*
X008293Y015473D01*
X007873Y016410D02*
X009113Y016410D01*
X009136Y016412D01*
X009159Y016417D01*
X009181Y016426D01*
X009201Y016439D01*
X009219Y016454D01*
X009234Y016472D01*
X009247Y016492D01*
X009256Y016514D01*
X009261Y016537D01*
X009263Y016560D01*
X009263Y018260D01*
X009261Y018283D01*
X009256Y018306D01*
X009247Y018328D01*
X009234Y018348D01*
X009219Y018366D01*
X009201Y018381D01*
X009181Y018394D01*
X009159Y018403D01*
X009136Y018408D01*
X009113Y018410D01*
X007873Y018410D01*
X007850Y018408D01*
X007827Y018403D01*
X007805Y018394D01*
X007785Y018381D01*
X007767Y018366D01*
X007752Y018348D01*
X007739Y018328D01*
X007730Y018306D01*
X007725Y018283D01*
X007723Y018260D01*
X007723Y016560D01*
X007725Y016537D01*
X007730Y016514D01*
X007739Y016492D01*
X007752Y016472D01*
X007767Y016454D01*
X007785Y016439D01*
X007805Y016426D01*
X007827Y016417D01*
X007850Y016412D01*
X007873Y016410D01*
X008293Y018410D02*
X008295Y018383D01*
X008300Y018356D01*
X008310Y018330D01*
X008322Y018306D01*
X008338Y018284D01*
X008356Y018264D01*
X008378Y018247D01*
X008401Y018232D01*
X008426Y018222D01*
X008452Y018214D01*
X008479Y018210D01*
X008507Y018210D01*
X008534Y018214D01*
X008560Y018222D01*
X008585Y018232D01*
X008608Y018247D01*
X008630Y018264D01*
X008648Y018284D01*
X008664Y018306D01*
X008676Y018330D01*
X008686Y018356D01*
X008691Y018383D01*
X008693Y018410D01*
X009050Y020785D02*
X007810Y020785D01*
X007787Y020787D01*
X007764Y020792D01*
X007742Y020801D01*
X007722Y020814D01*
X007704Y020829D01*
X007689Y020847D01*
X007676Y020867D01*
X007667Y020889D01*
X007662Y020912D01*
X007660Y020935D01*
X007660Y022635D01*
X007662Y022658D01*
X007667Y022681D01*
X007676Y022703D01*
X007689Y022723D01*
X007704Y022741D01*
X007722Y022756D01*
X007742Y022769D01*
X007764Y022778D01*
X007787Y022783D01*
X007810Y022785D01*
X009050Y022785D01*
X009073Y022783D01*
X009096Y022778D01*
X009118Y022769D01*
X009138Y022756D01*
X009156Y022741D01*
X009171Y022723D01*
X009184Y022703D01*
X009193Y022681D01*
X009198Y022658D01*
X009200Y022635D01*
X009200Y020935D01*
X009198Y020912D01*
X009193Y020889D01*
X009184Y020867D01*
X009171Y020847D01*
X009156Y020829D01*
X009138Y020814D01*
X009118Y020801D01*
X009096Y020792D01*
X009073Y020787D01*
X009050Y020785D01*
X008630Y022785D02*
X008628Y022758D01*
X008623Y022731D01*
X008613Y022705D01*
X008601Y022681D01*
X008585Y022659D01*
X008567Y022639D01*
X008545Y022622D01*
X008522Y022607D01*
X008497Y022597D01*
X008471Y022589D01*
X008444Y022585D01*
X008416Y022585D01*
X008389Y022589D01*
X008363Y022597D01*
X008338Y022607D01*
X008315Y022622D01*
X008293Y022639D01*
X008275Y022659D01*
X008259Y022681D01*
X008247Y022705D01*
X008237Y022731D01*
X008232Y022758D01*
X008230Y022785D01*
X014684Y020080D02*
X014684Y019490D01*
X014684Y019489D02*
X014688Y019471D01*
X014694Y019453D01*
X014704Y019436D01*
X014716Y019422D01*
X014731Y019409D01*
X014747Y019400D01*
X014765Y019394D01*
X014784Y019390D01*
X014803Y019390D01*
X014803Y019391D02*
X015432Y019391D01*
X015451Y019391D01*
X015470Y019395D01*
X015488Y019401D01*
X015504Y019411D01*
X015519Y019423D01*
X015531Y019437D01*
X015541Y019454D01*
X015547Y019471D01*
X015551Y019490D01*
X015551Y020080D01*
X015547Y020099D01*
X015541Y020116D01*
X015531Y020133D01*
X015519Y020147D01*
X015504Y020159D01*
X015488Y020169D01*
X015470Y020175D01*
X015451Y020179D01*
X015432Y020179D01*
X014803Y020179D01*
X014784Y020179D01*
X014765Y020175D01*
X014747Y020169D01*
X014731Y020159D01*
X014716Y020147D01*
X014704Y020133D01*
X014694Y020116D01*
X014688Y020099D01*
X014684Y020080D01*
X014803Y019241D02*
X015432Y019241D01*
X015432Y019242D02*
X015451Y019242D01*
X015470Y019238D01*
X015488Y019232D01*
X015504Y019222D01*
X015519Y019210D01*
X015531Y019196D01*
X015541Y019179D01*
X015547Y019162D01*
X015551Y019143D01*
X015551Y018552D01*
X015547Y018533D01*
X015541Y018516D01*
X015531Y018499D01*
X015519Y018485D01*
X015504Y018473D01*
X015488Y018463D01*
X015470Y018457D01*
X015451Y018453D01*
X015432Y018453D01*
X015432Y018454D02*
X014803Y018454D01*
X014803Y018453D02*
X014784Y018453D01*
X014765Y018457D01*
X014747Y018463D01*
X014731Y018472D01*
X014716Y018485D01*
X014704Y018499D01*
X014694Y018516D01*
X014688Y018534D01*
X014684Y018552D01*
X014684Y019143D01*
X014688Y019162D01*
X014694Y019179D01*
X014704Y019196D01*
X014716Y019210D01*
X014731Y019222D01*
X014747Y019232D01*
X014765Y019238D01*
X014784Y019242D01*
X014803Y019242D01*
X014803Y018304D02*
X015432Y018304D01*
X015451Y018304D01*
X015470Y018300D01*
X015488Y018294D01*
X015504Y018284D01*
X015519Y018272D01*
X015531Y018258D01*
X015541Y018241D01*
X015547Y018224D01*
X015551Y018205D01*
X015551Y017615D01*
X015547Y017596D01*
X015541Y017579D01*
X015531Y017562D01*
X015519Y017548D01*
X015504Y017536D01*
X015488Y017526D01*
X015470Y017520D01*
X015451Y017516D01*
X015432Y017516D01*
X014803Y017516D01*
X014803Y017515D02*
X014784Y017515D01*
X014765Y017519D01*
X014747Y017525D01*
X014731Y017534D01*
X014716Y017547D01*
X014704Y017561D01*
X014694Y017578D01*
X014688Y017596D01*
X014684Y017614D01*
X014684Y017615D02*
X014684Y018205D01*
X014688Y018224D01*
X014694Y018241D01*
X014704Y018258D01*
X014716Y018272D01*
X014731Y018284D01*
X014747Y018294D01*
X014765Y018300D01*
X014784Y018304D01*
X014803Y018304D01*
X014636Y010825D02*
X014636Y010565D01*
X014549Y010565D02*
X014723Y010565D01*
X014549Y010738D02*
X014636Y010825D01*
X014428Y010782D02*
X014428Y010738D01*
X014385Y010695D01*
X014255Y010695D01*
X014385Y010695D02*
X014428Y010652D01*
X014428Y010608D01*
X014385Y010565D01*
X014255Y010565D01*
X014255Y010825D01*
X014385Y010825D01*
X014428Y010782D01*
X014133Y010825D02*
X013960Y010825D01*
X013960Y010565D01*
X013960Y010695D02*
X014047Y010695D01*
X016124Y007396D02*
X016361Y007396D01*
X016361Y006924D02*
X016124Y006924D01*
X017006Y005966D02*
X017006Y005729D01*
X017479Y005729D02*
X017479Y005966D01*
X016541Y002653D02*
X016541Y002417D01*
X016069Y002417D02*
X016069Y002653D01*
X008565Y002600D02*
X008565Y003720D01*
X008045Y003720D01*
X008045Y002600D01*
X008565Y002600D01*
D15*
X007925Y009535D02*
X007925Y011535D01*
X007863Y013473D02*
X007863Y015473D01*
X007863Y016410D02*
X007863Y018410D01*
X007800Y020785D02*
X007800Y022785D01*
D16*
X007680Y020208D02*
X007522Y020070D01*
X007522Y019105D01*
X007680Y018987D01*
X008349Y018987D01*
X009097Y018987D02*
X009963Y018987D01*
X009963Y020227D01*
X009097Y020227D01*
X008349Y020208D02*
X007680Y020208D01*
X002318Y023785D02*
X002320Y023841D01*
X002326Y023898D01*
X002336Y023953D01*
X002350Y024008D01*
X002367Y024062D01*
X002389Y024114D01*
X002414Y024164D01*
X002442Y024213D01*
X002474Y024260D01*
X002509Y024304D01*
X002547Y024346D01*
X002588Y024385D01*
X002632Y024420D01*
X002678Y024453D01*
X002726Y024482D01*
X002776Y024508D01*
X002828Y024531D01*
X002882Y024549D01*
X002936Y024564D01*
X002991Y024575D01*
X003047Y024582D01*
X003104Y024585D01*
X003160Y024584D01*
X003217Y024579D01*
X003272Y024570D01*
X003327Y024557D01*
X003381Y024540D01*
X003434Y024520D01*
X003485Y024496D01*
X003534Y024468D01*
X003581Y024437D01*
X003626Y024403D01*
X003669Y024365D01*
X003708Y024325D01*
X003745Y024282D01*
X003778Y024237D01*
X003808Y024189D01*
X003835Y024139D01*
X003858Y024088D01*
X003878Y024035D01*
X003894Y023981D01*
X003906Y023925D01*
X003914Y023870D01*
X003918Y023813D01*
X003918Y023757D01*
X003914Y023700D01*
X003906Y023645D01*
X003894Y023589D01*
X003878Y023535D01*
X003858Y023482D01*
X003835Y023431D01*
X003808Y023381D01*
X003778Y023333D01*
X003745Y023288D01*
X003708Y023245D01*
X003669Y023205D01*
X003626Y023167D01*
X003581Y023133D01*
X003534Y023102D01*
X003485Y023074D01*
X003434Y023050D01*
X003381Y023030D01*
X003327Y023013D01*
X003272Y023000D01*
X003217Y022991D01*
X003160Y022986D01*
X003104Y022985D01*
X003047Y022988D01*
X002991Y022995D01*
X002936Y023006D01*
X002882Y023021D01*
X002828Y023039D01*
X002776Y023062D01*
X002726Y023088D01*
X002678Y023117D01*
X002632Y023150D01*
X002588Y023185D01*
X002547Y023224D01*
X002509Y023266D01*
X002474Y023310D01*
X002442Y023357D01*
X002414Y023406D01*
X002389Y023456D01*
X002367Y023508D01*
X002350Y023562D01*
X002336Y023617D01*
X002326Y023672D01*
X002320Y023729D01*
X002318Y023785D01*
X007742Y013083D02*
X007585Y012945D01*
X007585Y011980D01*
X007742Y011862D01*
X008411Y011862D01*
X009159Y011862D02*
X010025Y011862D01*
X010025Y013102D01*
X009159Y013102D01*
X008411Y013083D02*
X007742Y013083D01*
X007493Y008923D02*
X006993Y008923D01*
X006993Y007773D01*
X007493Y007773D01*
X007493Y008923D01*
X010149Y005168D02*
X011961Y005168D01*
X011961Y005109D01*
X011291Y004991D02*
X011291Y004204D01*
X011961Y004086D02*
X011961Y004027D01*
X010149Y004027D01*
X010149Y004086D01*
X010149Y005109D02*
X010149Y005168D01*
X012962Y006339D02*
X012962Y006516D01*
X012962Y006339D02*
X014773Y006339D01*
X014773Y006516D01*
X014261Y006516D02*
X014261Y007304D01*
X014773Y007304D02*
X014773Y007481D01*
X012962Y007481D01*
X012962Y007304D01*
X015383Y007783D02*
X015541Y007625D01*
X015974Y007625D01*
X015383Y007783D02*
X015383Y008412D01*
X015541Y008570D01*
X015974Y008570D01*
X016761Y008570D02*
X017352Y008570D01*
X017352Y007625D01*
X016761Y007625D01*
X017863Y007702D02*
X017863Y008568D01*
X019103Y008568D01*
X019103Y007702D01*
X019103Y006954D02*
X019103Y006285D01*
X018985Y006127D01*
X018020Y006127D01*
X017882Y006285D01*
X017882Y006954D01*
X016803Y006204D02*
X016803Y005866D01*
X016348Y006354D02*
X016137Y006354D01*
X015683Y006204D02*
X015683Y005866D01*
X015618Y004510D02*
X015618Y003810D01*
X017118Y003810D01*
X017118Y004510D01*
X015618Y004510D01*
X015194Y003632D02*
X014761Y003632D01*
X015194Y003632D02*
X015352Y003475D01*
X015352Y002845D01*
X015194Y002688D01*
X014761Y002688D01*
X013321Y003160D02*
X013323Y003222D01*
X013329Y003285D01*
X013339Y003346D01*
X013353Y003407D01*
X013370Y003467D01*
X013391Y003526D01*
X013417Y003583D01*
X013445Y003638D01*
X013477Y003692D01*
X013513Y003743D01*
X013551Y003793D01*
X013593Y003839D01*
X013637Y003883D01*
X013685Y003924D01*
X013734Y003962D01*
X013786Y003996D01*
X013840Y004027D01*
X013896Y004055D01*
X013954Y004079D01*
X014013Y004100D01*
X014073Y004116D01*
X014134Y004129D01*
X014196Y004138D01*
X014258Y004143D01*
X014321Y004144D01*
X014383Y004141D01*
X014445Y004134D01*
X014507Y004123D01*
X014567Y004108D01*
X014627Y004090D01*
X014685Y004068D01*
X014742Y004042D01*
X014797Y004012D01*
X014850Y003979D01*
X014901Y003943D01*
X014949Y003904D01*
X014995Y003861D01*
X015038Y003816D01*
X015078Y003768D01*
X015115Y003718D01*
X015149Y003665D01*
X015180Y003611D01*
X015206Y003555D01*
X015230Y003497D01*
X015249Y003437D01*
X015265Y003377D01*
X015277Y003315D01*
X015285Y003254D01*
X015289Y003191D01*
X015289Y003129D01*
X015285Y003066D01*
X015277Y003005D01*
X015265Y002943D01*
X015249Y002883D01*
X015230Y002823D01*
X015206Y002765D01*
X015180Y002709D01*
X015149Y002655D01*
X015115Y002602D01*
X015078Y002552D01*
X015038Y002504D01*
X014995Y002459D01*
X014949Y002416D01*
X014901Y002377D01*
X014850Y002341D01*
X014797Y002308D01*
X014742Y002278D01*
X014685Y002252D01*
X014627Y002230D01*
X014567Y002212D01*
X014507Y002197D01*
X014445Y002186D01*
X014383Y002179D01*
X014321Y002176D01*
X014258Y002177D01*
X014196Y002182D01*
X014134Y002191D01*
X014073Y002204D01*
X014013Y002220D01*
X013954Y002241D01*
X013896Y002265D01*
X013840Y002293D01*
X013786Y002324D01*
X013734Y002358D01*
X013685Y002396D01*
X013637Y002437D01*
X013593Y002481D01*
X013551Y002527D01*
X013513Y002577D01*
X013477Y002628D01*
X013445Y002682D01*
X013417Y002737D01*
X013391Y002794D01*
X013370Y002853D01*
X013353Y002913D01*
X013339Y002974D01*
X013329Y003035D01*
X013323Y003098D01*
X013321Y003160D01*
X013383Y002688D02*
X013383Y003632D01*
X013974Y003632D01*
X014005Y003710D02*
X013605Y003710D01*
X013383Y002688D02*
X013974Y002688D01*
X017058Y002678D02*
X017058Y003017D01*
X017512Y003167D02*
X017723Y003167D01*
X018178Y003017D02*
X018178Y002678D01*
X019243Y003973D02*
X019493Y003723D01*
X019993Y003723D01*
X020243Y003973D01*
X020243Y004473D01*
X019993Y004723D01*
X020243Y004973D01*
X020243Y005473D01*
X019993Y005723D01*
X019493Y005723D01*
X019243Y005473D01*
X019243Y004973D01*
X019493Y004723D01*
X019243Y004473D01*
X019243Y003973D01*
X019443Y002098D02*
X019445Y002154D01*
X019451Y002211D01*
X019461Y002266D01*
X019475Y002321D01*
X019492Y002375D01*
X019514Y002427D01*
X019539Y002477D01*
X019567Y002526D01*
X019599Y002573D01*
X019634Y002617D01*
X019672Y002659D01*
X019713Y002698D01*
X019757Y002733D01*
X019803Y002766D01*
X019851Y002795D01*
X019901Y002821D01*
X019953Y002844D01*
X020007Y002862D01*
X020061Y002877D01*
X020116Y002888D01*
X020172Y002895D01*
X020229Y002898D01*
X020285Y002897D01*
X020342Y002892D01*
X020397Y002883D01*
X020452Y002870D01*
X020506Y002853D01*
X020559Y002833D01*
X020610Y002809D01*
X020659Y002781D01*
X020706Y002750D01*
X020751Y002716D01*
X020794Y002678D01*
X020833Y002638D01*
X020870Y002595D01*
X020903Y002550D01*
X020933Y002502D01*
X020960Y002452D01*
X020983Y002401D01*
X021003Y002348D01*
X021019Y002294D01*
X021031Y002238D01*
X021039Y002183D01*
X021043Y002126D01*
X021043Y002070D01*
X021039Y002013D01*
X021031Y001958D01*
X021019Y001902D01*
X021003Y001848D01*
X020983Y001795D01*
X020960Y001744D01*
X020933Y001694D01*
X020903Y001646D01*
X020870Y001601D01*
X020833Y001558D01*
X020794Y001518D01*
X020751Y001480D01*
X020706Y001446D01*
X020659Y001415D01*
X020610Y001387D01*
X020559Y001363D01*
X020506Y001343D01*
X020452Y001326D01*
X020397Y001313D01*
X020342Y001304D01*
X020285Y001299D01*
X020229Y001298D01*
X020172Y001301D01*
X020116Y001308D01*
X020061Y001319D01*
X020007Y001334D01*
X019953Y001352D01*
X019901Y001375D01*
X019851Y001401D01*
X019803Y001430D01*
X019757Y001463D01*
X019713Y001498D01*
X019672Y001537D01*
X019634Y001579D01*
X019599Y001623D01*
X019567Y001670D01*
X019539Y001719D01*
X019514Y001769D01*
X019492Y001821D01*
X019475Y001875D01*
X019461Y001930D01*
X019451Y001985D01*
X019445Y002042D01*
X019443Y002098D01*
X016674Y009531D02*
X016493Y009531D01*
X016400Y009653D01*
X016311Y009531D02*
X016493Y009531D01*
X016503Y009537D02*
X016578Y009653D01*
X014818Y009910D02*
X013668Y009910D01*
X013668Y010410D01*
X014818Y010410D01*
X014818Y009910D01*
X015190Y012636D02*
X015190Y014434D01*
X015360Y013055D02*
X015362Y013081D01*
X015368Y013107D01*
X015377Y013131D01*
X015390Y013154D01*
X015406Y013175D01*
X015425Y013193D01*
X015446Y013209D01*
X015470Y013221D01*
X015494Y013229D01*
X015520Y013234D01*
X015547Y013235D01*
X015573Y013232D01*
X015598Y013225D01*
X015622Y013215D01*
X015645Y013201D01*
X015665Y013185D01*
X015682Y013165D01*
X015697Y013143D01*
X015708Y013119D01*
X015716Y013094D01*
X015720Y013068D01*
X015720Y013042D01*
X015716Y013016D01*
X015708Y012991D01*
X015697Y012967D01*
X015682Y012945D01*
X015665Y012925D01*
X015645Y012909D01*
X015622Y012895D01*
X015598Y012885D01*
X015573Y012878D01*
X015547Y012875D01*
X015520Y012876D01*
X015494Y012881D01*
X015470Y012889D01*
X015446Y012901D01*
X015425Y012917D01*
X015406Y012935D01*
X015390Y012956D01*
X015377Y012979D01*
X015368Y013003D01*
X015362Y013029D01*
X015360Y013055D01*
X017170Y012636D02*
X017170Y014434D01*
X017743Y017535D02*
X018243Y017535D01*
X018493Y017785D01*
X018493Y018285D01*
X018243Y018535D01*
X018493Y018785D01*
X018493Y019285D01*
X018243Y019535D01*
X018493Y019785D01*
X018493Y020285D01*
X018243Y020535D01*
X018493Y020785D01*
X018493Y021285D01*
X018243Y021535D01*
X017743Y021535D01*
X017493Y021285D01*
X017493Y020785D01*
X017743Y020535D01*
X017493Y020285D01*
X017493Y019785D01*
X017743Y019535D01*
X017493Y019285D01*
X017493Y018785D01*
X017743Y018535D01*
X017493Y018285D01*
X017493Y017785D01*
X017743Y017535D01*
X016671Y020425D02*
X016199Y020425D01*
X016045Y020529D02*
X016045Y021551D01*
X016199Y021645D02*
X016671Y021645D01*
X016199Y021645D01*
X016671Y021645D02*
X016829Y021527D01*
X016829Y020563D01*
X016671Y020425D01*
X015451Y020405D02*
X014781Y020405D01*
X014781Y021645D01*
X015451Y021645D01*
X017493Y022473D02*
X017493Y022973D01*
X017743Y023223D01*
X017493Y023473D01*
X017493Y023973D01*
X017743Y024223D01*
X018243Y024223D01*
X018493Y023973D01*
X018493Y023473D01*
X018243Y023223D01*
X018493Y022973D01*
X018493Y022473D01*
X018243Y022223D01*
X017743Y022223D01*
X017493Y022473D01*
X019443Y023785D02*
X019445Y023841D01*
X019451Y023898D01*
X019461Y023953D01*
X019475Y024008D01*
X019492Y024062D01*
X019514Y024114D01*
X019539Y024164D01*
X019567Y024213D01*
X019599Y024260D01*
X019634Y024304D01*
X019672Y024346D01*
X019713Y024385D01*
X019757Y024420D01*
X019803Y024453D01*
X019851Y024482D01*
X019901Y024508D01*
X019953Y024531D01*
X020007Y024549D01*
X020061Y024564D01*
X020116Y024575D01*
X020172Y024582D01*
X020229Y024585D01*
X020285Y024584D01*
X020342Y024579D01*
X020397Y024570D01*
X020452Y024557D01*
X020506Y024540D01*
X020559Y024520D01*
X020610Y024496D01*
X020659Y024468D01*
X020706Y024437D01*
X020751Y024403D01*
X020794Y024365D01*
X020833Y024325D01*
X020870Y024282D01*
X020903Y024237D01*
X020933Y024189D01*
X020960Y024139D01*
X020983Y024088D01*
X021003Y024035D01*
X021019Y023981D01*
X021031Y023925D01*
X021039Y023870D01*
X021043Y023813D01*
X021043Y023757D01*
X021039Y023700D01*
X021031Y023645D01*
X021019Y023589D01*
X021003Y023535D01*
X020983Y023482D01*
X020960Y023431D01*
X020933Y023381D01*
X020903Y023333D01*
X020870Y023288D01*
X020833Y023245D01*
X020794Y023205D01*
X020751Y023167D01*
X020706Y023133D01*
X020659Y023102D01*
X020610Y023074D01*
X020559Y023050D01*
X020506Y023030D01*
X020452Y023013D01*
X020397Y023000D01*
X020342Y022991D01*
X020285Y022986D01*
X020229Y022985D01*
X020172Y022988D01*
X020116Y022995D01*
X020061Y023006D01*
X020007Y023021D01*
X019953Y023039D01*
X019901Y023062D01*
X019851Y023088D01*
X019803Y023117D01*
X019757Y023150D01*
X019713Y023185D01*
X019672Y023224D01*
X019634Y023266D01*
X019599Y023310D01*
X019567Y023357D01*
X019539Y023406D01*
X019514Y023456D01*
X019492Y023508D01*
X019475Y023562D01*
X019461Y023617D01*
X019451Y023672D01*
X019445Y023729D01*
X019443Y023785D01*
X002318Y002160D02*
X002320Y002216D01*
X002326Y002273D01*
X002336Y002328D01*
X002350Y002383D01*
X002367Y002437D01*
X002389Y002489D01*
X002414Y002539D01*
X002442Y002588D01*
X002474Y002635D01*
X002509Y002679D01*
X002547Y002721D01*
X002588Y002760D01*
X002632Y002795D01*
X002678Y002828D01*
X002726Y002857D01*
X002776Y002883D01*
X002828Y002906D01*
X002882Y002924D01*
X002936Y002939D01*
X002991Y002950D01*
X003047Y002957D01*
X003104Y002960D01*
X003160Y002959D01*
X003217Y002954D01*
X003272Y002945D01*
X003327Y002932D01*
X003381Y002915D01*
X003434Y002895D01*
X003485Y002871D01*
X003534Y002843D01*
X003581Y002812D01*
X003626Y002778D01*
X003669Y002740D01*
X003708Y002700D01*
X003745Y002657D01*
X003778Y002612D01*
X003808Y002564D01*
X003835Y002514D01*
X003858Y002463D01*
X003878Y002410D01*
X003894Y002356D01*
X003906Y002300D01*
X003914Y002245D01*
X003918Y002188D01*
X003918Y002132D01*
X003914Y002075D01*
X003906Y002020D01*
X003894Y001964D01*
X003878Y001910D01*
X003858Y001857D01*
X003835Y001806D01*
X003808Y001756D01*
X003778Y001708D01*
X003745Y001663D01*
X003708Y001620D01*
X003669Y001580D01*
X003626Y001542D01*
X003581Y001508D01*
X003534Y001477D01*
X003485Y001449D01*
X003434Y001425D01*
X003381Y001405D01*
X003327Y001388D01*
X003272Y001375D01*
X003217Y001366D01*
X003160Y001361D01*
X003104Y001360D01*
X003047Y001363D01*
X002991Y001370D01*
X002936Y001381D01*
X002882Y001396D01*
X002828Y001414D01*
X002776Y001437D01*
X002726Y001463D01*
X002678Y001492D01*
X002632Y001525D01*
X002588Y001560D01*
X002547Y001599D01*
X002509Y001641D01*
X002474Y001685D01*
X002442Y001732D01*
X002414Y001781D01*
X002389Y001831D01*
X002367Y001883D01*
X002350Y001937D01*
X002336Y001992D01*
X002326Y002047D01*
X002320Y002104D01*
X002318Y002160D01*
D17*
X014675Y013188D02*
X014675Y013298D01*
X014675Y013243D02*
X015005Y013243D01*
X015005Y013188D02*
X015005Y013298D01*
X014950Y013433D02*
X015005Y013488D01*
X015005Y013598D01*
X014950Y013653D01*
X014950Y013801D02*
X015005Y013856D01*
X015005Y013966D01*
X014950Y014022D01*
X014840Y014022D01*
X014785Y013966D01*
X014785Y013911D01*
X014840Y013801D01*
X014675Y013801D01*
X014675Y014022D01*
X014730Y013653D02*
X014675Y013598D01*
X014675Y013488D01*
X014730Y013433D01*
X014950Y013433D01*
X015798Y003688D02*
X016018Y003688D01*
X016166Y003688D02*
X016331Y003688D01*
X016386Y003633D01*
X016386Y003578D01*
X016331Y003523D01*
X016166Y003523D01*
X016166Y003358D02*
X016166Y003688D01*
X016331Y003523D02*
X016386Y003468D01*
X016386Y003413D01*
X016331Y003358D01*
X016166Y003358D01*
X015908Y003523D02*
X015798Y003523D01*
X015798Y003358D02*
X015798Y003688D01*
X016534Y003688D02*
X016754Y003688D01*
X016754Y003633D01*
X016534Y003413D01*
X016534Y003358D01*
D18*
X015804Y009180D03*
X015804Y009760D03*
X008556Y005202D03*
X008556Y004622D03*
X007867Y004618D03*
X007867Y005198D03*
D19*
X008565Y011956D02*
X008565Y012979D01*
X008503Y019081D02*
X008503Y020104D01*
X017986Y007108D02*
X019009Y007108D01*
D20*
X016843Y017911D03*
X016263Y017911D03*
X016263Y018848D03*
X016843Y018848D03*
X016843Y019786D03*
X016263Y019786D03*
D21*
X014613Y019775D02*
X014613Y019800D01*
X014587Y019825D01*
X014462Y019825D01*
X014462Y019800D02*
X014462Y019850D01*
X014487Y019897D02*
X014462Y019922D01*
X014462Y019972D01*
X014487Y019997D01*
X014512Y019997D01*
X014537Y019972D01*
X014562Y019997D01*
X014587Y019997D01*
X014613Y019972D01*
X014613Y019922D01*
X014587Y019897D01*
X014537Y019947D02*
X014537Y019972D01*
X014613Y019775D02*
X014587Y019750D01*
X014587Y019703D02*
X014613Y019678D01*
X014613Y019628D01*
X014587Y019603D01*
X014537Y019628D02*
X014537Y019678D01*
X014562Y019703D01*
X014587Y019703D01*
X014537Y019628D02*
X014512Y019603D01*
X014487Y019603D01*
X014462Y019628D01*
X014462Y019678D01*
X014487Y019703D01*
X014487Y019060D02*
X014462Y019035D01*
X014462Y018985D01*
X014487Y018960D01*
X014462Y018912D02*
X014462Y018862D01*
X014462Y018887D02*
X014587Y018887D01*
X014613Y018862D01*
X014613Y018837D01*
X014587Y018812D01*
X014587Y018765D02*
X014613Y018740D01*
X014613Y018690D01*
X014587Y018665D01*
X014537Y018690D02*
X014512Y018665D01*
X014487Y018665D01*
X014462Y018690D01*
X014462Y018740D01*
X014487Y018765D01*
X014537Y018740D02*
X014562Y018765D01*
X014587Y018765D01*
X014537Y018740D02*
X014537Y018690D01*
X014613Y018960D02*
X014512Y019060D01*
X014487Y019060D01*
X014613Y019060D02*
X014613Y018960D01*
X014613Y018185D02*
X014613Y018085D01*
X014613Y018135D02*
X014462Y018135D01*
X014512Y018085D01*
X014462Y018037D02*
X014462Y017987D01*
X014462Y018012D02*
X014587Y018012D01*
X014613Y017987D01*
X014613Y017962D01*
X014587Y017937D01*
X014587Y017890D02*
X014613Y017865D01*
X014613Y017815D01*
X014587Y017790D01*
X014537Y017815D02*
X014537Y017865D01*
X014562Y017890D01*
X014587Y017890D01*
X014537Y017815D02*
X014512Y017790D01*
X014487Y017790D01*
X014462Y017815D01*
X014462Y017865D01*
X014487Y017890D01*
M02*
