G75*
%MOIN*%
%OFA0B0*%
%FSLAX24Y24*%
%IPPOS*%
%LPD*%
%AMOC8*
5,1,8,0,0,1.08239X$1,22.5*
%
%ADD10C,0.0100*%
%ADD11R,0.0394X0.0433*%
%ADD12R,0.0354X0.0315*%
%ADD13R,0.0433X0.0394*%
%ADD14R,0.0315X0.0354*%
D10*
X001993Y000973D02*
X001993Y003848D01*
X006805Y003848D01*
X006805Y008223D01*
X001993Y008223D01*
X001993Y024910D01*
X021368Y024910D01*
X021368Y000973D01*
X001993Y000973D01*
D11*
X008305Y010200D03*
X008805Y010200D03*
X008805Y010870D03*
X008305Y010870D03*
X005805Y013450D03*
X005805Y014120D03*
X008243Y014138D03*
X008743Y014138D03*
X008743Y014807D03*
X008243Y014807D03*
X008180Y017075D03*
X008743Y017075D03*
X008743Y017745D03*
X008180Y017745D03*
X005805Y017620D03*
X005805Y016950D03*
X005805Y020513D03*
X005805Y021182D03*
X008118Y021450D03*
X008680Y021450D03*
X008680Y022120D03*
X008118Y022120D03*
X016180Y014057D03*
X016680Y014057D03*
X016680Y013388D03*
X016180Y013388D03*
D12*
X005230Y011160D03*
X004630Y011160D03*
X004568Y012848D03*
X005168Y012848D03*
X005168Y014785D03*
X004568Y014785D03*
X004568Y016348D03*
X005168Y016348D03*
X005168Y018223D03*
X004568Y018223D03*
X004568Y019910D03*
X005168Y019910D03*
X005168Y021785D03*
X004568Y021785D03*
X004630Y009223D03*
X005230Y009223D03*
D13*
X015055Y013388D03*
X015055Y014057D03*
D14*
X005805Y010523D03*
X005805Y009923D03*
M02*
