G75*
%MOIN*%
%OFA0B0*%
%FSLAX24Y24*%
%IPPOS*%
%LPD*%
%AMOC8*
5,1,8,0,0,1.08239X$1,22.5*
%
%ADD10C,0.0100*%
%ADD11R,0.0840X0.0300*%
%ADD12C,0.0900*%
%ADD13C,0.0800*%
%ADD14R,0.0473X0.0434*%
%ADD15R,0.0160X0.0430*%
%ADD16R,0.0780X0.0780*%
%ADD17C,0.0780*%
%ADD18R,0.0540X0.0540*%
%ADD19R,0.0512X0.1024*%
%ADD20C,0.0540*%
%ADD21R,0.0355X0.0355*%
%ADD22R,0.0591X0.0473*%
%ADD23R,0.0709X0.1024*%
%ADD24R,0.0355X0.0394*%
%ADD25C,0.0434*%
%ADD26C,0.1621*%
%ADD27R,0.0827X0.0827*%
%ADD28R,0.0591X0.0434*%
%ADD29R,0.0512X0.0355*%
%ADD30R,0.0355X0.0512*%
%ADD31R,0.0591X0.0670*%
%ADD32R,0.1024X0.0709*%
%ADD33R,0.0540X0.0619*%
%ADD34R,0.0512X0.0552*%
%ADD35R,0.0257X0.0512*%
%ADD36R,0.0394X0.0355*%
%ADD37R,0.0690X0.0690*%
%ADD38C,0.0690*%
%ADD39C,0.0560*%
%ADD40R,0.0473X0.0591*%
%ADD41R,0.0290X0.0540*%
%ADD42R,0.0434X0.0473*%
D10*
X001993Y000973D02*
X001993Y003848D01*
X006805Y003848D01*
X006805Y008223D01*
X001993Y008223D01*
X001993Y024910D01*
X021368Y024910D01*
X021368Y000973D01*
X001993Y000973D01*
D11*
X007345Y009785D03*
X007345Y010285D03*
X007345Y010785D03*
X007345Y011285D03*
X007283Y013723D03*
X007283Y014223D03*
X007283Y014723D03*
X007283Y015223D03*
X007283Y016660D03*
X007283Y017160D03*
X007283Y017660D03*
X007283Y018160D03*
X009703Y018160D03*
X009703Y017660D03*
X009703Y017160D03*
X009703Y016660D03*
X009703Y015223D03*
X009703Y014723D03*
X009703Y014223D03*
X009703Y013723D03*
X009765Y011285D03*
X009765Y010785D03*
X009765Y010285D03*
X009765Y009785D03*
X009640Y021035D03*
X009640Y021535D03*
X009640Y022035D03*
X009640Y022535D03*
X007220Y022535D03*
X007220Y022035D03*
X007220Y021535D03*
X007220Y021035D03*
D12*
X003555Y021579D03*
X003555Y020201D03*
X003555Y018017D03*
X003555Y016639D03*
X003555Y014517D03*
X003555Y013139D03*
X003555Y010892D03*
X003555Y009514D03*
D13*
X012930Y009160D03*
X012930Y010160D03*
X012930Y011160D03*
X012930Y012160D03*
X012930Y013160D03*
X012930Y014160D03*
X012930Y018723D03*
X012930Y019723D03*
X012930Y020723D03*
X012930Y021723D03*
X012930Y022723D03*
X012930Y023723D03*
D14*
X011430Y020495D03*
X011430Y019825D03*
X011430Y017932D03*
X011430Y017263D03*
X011118Y014870D03*
X011118Y014200D03*
X011118Y010307D03*
X011118Y009638D03*
D15*
X015284Y012386D03*
X015540Y012386D03*
X015796Y012386D03*
X016052Y012386D03*
X016308Y012386D03*
X016564Y012386D03*
X016820Y012386D03*
X017076Y012386D03*
X017076Y014684D03*
X016820Y014684D03*
X016564Y014684D03*
X016308Y014684D03*
X016052Y014684D03*
X015796Y014684D03*
X015540Y014684D03*
X015284Y014684D03*
D16*
X017993Y021035D03*
X011618Y007035D03*
X011618Y002348D03*
D17*
X010618Y002348D03*
X010618Y007035D03*
X019743Y005223D03*
X019743Y004223D03*
X017993Y018035D03*
X017993Y019035D03*
X017993Y020035D03*
X017993Y022723D03*
X017993Y023723D03*
D18*
X007243Y008910D03*
X007243Y007910D03*
D19*
X015155Y021035D03*
X016455Y021035D03*
D20*
X017993Y014660D03*
X017680Y011348D03*
X017680Y010598D03*
D21*
X016493Y009893D03*
X016493Y009302D03*
D22*
X015805Y009079D03*
X015805Y009866D03*
X008555Y005304D03*
X007868Y005304D03*
X007868Y004516D03*
X008555Y004516D03*
D23*
X008057Y012473D03*
X009553Y012473D03*
X009491Y019598D03*
X007994Y019598D03*
D24*
X007243Y008648D03*
X007243Y008048D03*
D25*
X018868Y002035D03*
X004430Y023785D03*
D26*
X003118Y023785D03*
X020243Y023785D03*
X020243Y002098D03*
X003118Y002160D03*
D27*
X010268Y004598D03*
X011842Y004598D03*
D28*
X008738Y003160D03*
X007872Y002786D03*
X007872Y003534D03*
D29*
X016305Y002889D03*
X016305Y002181D03*
X017243Y005493D03*
X017243Y006202D03*
D30*
X016597Y007160D03*
X015888Y007160D03*
D31*
X015816Y008098D03*
X016919Y008098D03*
X014919Y003160D03*
X013816Y003160D03*
D32*
X018493Y006599D03*
X018493Y008096D03*
D33*
X014714Y006910D03*
X013021Y006910D03*
D34*
X015968Y004160D03*
X016768Y004160D03*
D35*
X017243Y003359D03*
X017992Y003359D03*
X017992Y002336D03*
X017618Y002336D03*
X017243Y002336D03*
X016617Y005523D03*
X016243Y005523D03*
X015868Y005523D03*
X015868Y006547D03*
X016617Y006547D03*
D36*
X014543Y010160D03*
X013943Y010160D03*
D37*
X014805Y003160D03*
D38*
X013805Y003160D03*
D39*
X015733Y022285D02*
X016253Y022285D01*
X016253Y023285D02*
X015733Y023285D01*
X015733Y024285D02*
X016253Y024285D01*
D40*
X016161Y019785D03*
X016949Y019785D03*
X016949Y018848D03*
X016161Y018848D03*
X016161Y017910D03*
X016949Y017910D03*
D41*
X015280Y017910D03*
X014955Y017910D03*
X014955Y018848D03*
X015280Y018848D03*
X015280Y019785D03*
X014955Y019785D03*
D42*
X012890Y015660D03*
X012220Y015660D03*
M02*
