%
M48
M72
T01C0.0236
T02C0.0276
T03C0.0320
T04C0.0394
T05C0.0400
T06C0.1181
%
T01
X8555Y6160
X6305Y9910
X5805Y11098
X6493Y13410
X7055Y13285
X5805Y14910
X7055Y16160
X6430Y16973
X5805Y18348
X6368Y20535
X7180Y20535
X5930Y22035
X15118Y9035
X15743Y10598
X15243Y11098
X13743Y12223
X13743Y13660
X13743Y15035
X14930Y15348
X14930Y15910
X14930Y16410
X15743Y17285
X15930Y16848
X16118Y16410
X16743Y16035
X16305Y15473
X15618Y13098
X16930Y11410
X18243Y12973
X20430Y16535
X15743Y18410
X15743Y19410
X13618Y19223
X10555Y17660
X10118Y18723
X11118Y15660
X10555Y14723
X11118Y13285
X12055Y14160
X12055Y14910
X11618Y10910
X10555Y10785
X10555Y22035
X10555Y22973
X19743Y21973
T02
X14805Y3160
X13805Y3160
T03
X15993Y22285
X15993Y23285
X15993Y24285
T04
X3555Y9514
X3555Y10892
X3555Y13139
X3555Y14517
X3555Y16639
X3555Y18017
X3555Y20201
X3555Y21579
X12930Y9160
X12930Y10160
X12930Y11160
X12930Y12160
X12930Y13160
X12930Y14160
X12930Y18723
X12930Y19723
X12930Y20723
X12930Y21723
X12930Y22723
X12930Y23723
T05
X10618Y2348
X11618Y2348
X11618Y7035
X10618Y7035
X19743Y4223
X19743Y5223
X17993Y18035
X17993Y19035
X17993Y20035
X17993Y21035
X17993Y22723
X17993Y23723
T06
X3118Y2160
X20243Y2098
X20243Y23785
X3118Y23785
M30
