G75*
%MOIN*%
%OFA0B0*%
%FSLAX24Y24*%
%IPPOS*%
%LPD*%
%AMOC8*
5,1,8,0,0,1.08239X$1,22.5*
%
%ADD10C,0.0100*%
%ADD11R,0.0800X0.0260*%
%ADD12R,0.0433X0.0394*%
%ADD13R,0.0120X0.0390*%
%ADD14R,0.0500X0.0500*%
%ADD15R,0.0472X0.0984*%
%ADD16R,0.0315X0.0315*%
%ADD17R,0.0551X0.0433*%
%ADD18R,0.0669X0.0984*%
%ADD19R,0.0315X0.0354*%
%ADD20R,0.0787X0.0787*%
%ADD21R,0.0551X0.0394*%
%ADD22R,0.0472X0.0315*%
%ADD23R,0.0315X0.0472*%
%ADD24R,0.0551X0.0630*%
%ADD25R,0.0984X0.0669*%
%ADD26R,0.0500X0.0579*%
%ADD27R,0.0472X0.0512*%
%ADD28R,0.0217X0.0472*%
%ADD29R,0.0354X0.0315*%
%ADD30R,0.0433X0.0551*%
%ADD31R,0.0250X0.0500*%
%ADD32R,0.0960X0.0900*%
%ADD33R,0.0394X0.0433*%
D10*
X001993Y000973D02*
X001993Y003848D01*
X006805Y003848D01*
X006805Y008223D01*
X001993Y008223D01*
X001993Y024910D01*
X021368Y024910D01*
X021368Y000973D01*
X001993Y000973D01*
D11*
X007345Y009785D03*
X007345Y010285D03*
X007345Y010785D03*
X007345Y011285D03*
X007283Y013723D03*
X007283Y014223D03*
X007283Y014723D03*
X007283Y015223D03*
X007283Y016660D03*
X007283Y017160D03*
X007283Y017660D03*
X007283Y018160D03*
X009703Y018160D03*
X009703Y017660D03*
X009703Y017160D03*
X009703Y016660D03*
X009703Y015223D03*
X009703Y014723D03*
X009703Y014223D03*
X009703Y013723D03*
X009765Y011285D03*
X009765Y010785D03*
X009765Y010285D03*
X009765Y009785D03*
X009640Y021035D03*
X009640Y021535D03*
X009640Y022035D03*
X009640Y022535D03*
X007220Y022535D03*
X007220Y022035D03*
X007220Y021535D03*
X007220Y021035D03*
D12*
X011430Y020495D03*
X011430Y019825D03*
X011430Y017932D03*
X011430Y017263D03*
X011118Y014870D03*
X011118Y014200D03*
X011118Y010307D03*
X011118Y009638D03*
D13*
X015284Y012386D03*
X015540Y012386D03*
X015796Y012386D03*
X016052Y012386D03*
X016308Y012386D03*
X016564Y012386D03*
X016820Y012386D03*
X017076Y012386D03*
X017076Y014684D03*
X016820Y014684D03*
X016564Y014684D03*
X016308Y014684D03*
X016052Y014684D03*
X015796Y014684D03*
X015540Y014684D03*
X015284Y014684D03*
D14*
X007243Y008910D03*
X007243Y007910D03*
D15*
X015155Y021035D03*
X016455Y021035D03*
D16*
X016493Y009893D03*
X016493Y009302D03*
D17*
X015805Y009079D03*
X015805Y009866D03*
X008555Y005304D03*
X007868Y005304D03*
X007868Y004516D03*
X008555Y004516D03*
D18*
X008057Y012473D03*
X009553Y012473D03*
X009491Y019598D03*
X007994Y019598D03*
D19*
X007243Y008648D03*
X007243Y008048D03*
D20*
X010268Y004598D03*
X011842Y004598D03*
D21*
X008738Y003160D03*
X007872Y002786D03*
X007872Y003534D03*
D22*
X016305Y002889D03*
X016305Y002181D03*
X017243Y005493D03*
X017243Y006202D03*
D23*
X016597Y007160D03*
X015888Y007160D03*
D24*
X015816Y008098D03*
X016919Y008098D03*
X014919Y003160D03*
X013816Y003160D03*
D25*
X018493Y006599D03*
X018493Y008096D03*
D26*
X014714Y006910D03*
X013021Y006910D03*
D27*
X015968Y004160D03*
X016768Y004160D03*
D28*
X017243Y003359D03*
X017992Y003359D03*
X017992Y002336D03*
X017618Y002336D03*
X017243Y002336D03*
X016617Y005523D03*
X016243Y005523D03*
X015868Y005523D03*
X015868Y006547D03*
X016617Y006547D03*
D29*
X014543Y010160D03*
X013943Y010160D03*
D30*
X016161Y017910D03*
X016949Y017910D03*
X016949Y018848D03*
X016161Y018848D03*
X016161Y019785D03*
X016949Y019785D03*
D31*
X015280Y019785D03*
X014955Y019785D03*
X014955Y018848D03*
X015280Y018848D03*
X015280Y017910D03*
X014955Y017910D03*
D32*
X015118Y017910D03*
X015118Y018848D03*
X015118Y019785D03*
D33*
X012890Y015660D03*
X012220Y015660D03*
M02*
