G75*
%MOIN*%
%OFA0B0*%
%FSLAX24Y24*%
%IPPOS*%
%LPD*%
%AMOC8*
5,1,8,0,0,1.08239X$1,22.5*
%
%ADD10C,0.0100*%
%ADD11R,0.0800X0.0260*%
%ADD12C,0.0860*%
%ADD13C,0.0760*%
%ADD14R,0.0433X0.0394*%
%ADD15R,0.0120X0.0390*%
%ADD16R,0.0740X0.0740*%
%ADD17C,0.0740*%
%ADD18R,0.0500X0.0500*%
%ADD19R,0.0472X0.0984*%
%ADD20C,0.0500*%
%ADD21R,0.0315X0.0315*%
%ADD22R,0.0551X0.0433*%
%ADD23R,0.0669X0.0984*%
%ADD24R,0.0315X0.0354*%
%ADD25C,0.0394*%
%ADD26C,0.1581*%
%ADD27R,0.0787X0.0787*%
%ADD28R,0.0551X0.0394*%
%ADD29R,0.0472X0.0315*%
%ADD30R,0.0315X0.0472*%
%ADD31R,0.0551X0.0630*%
%ADD32R,0.0984X0.0669*%
%ADD33R,0.0500X0.0579*%
%ADD34R,0.0472X0.0512*%
%ADD35R,0.0217X0.0472*%
%ADD36R,0.0354X0.0315*%
%ADD37R,0.0650X0.0650*%
%ADD38C,0.0650*%
%ADD39C,0.0520*%
%ADD40R,0.0433X0.0551*%
%ADD41R,0.0250X0.0500*%
%ADD42R,0.0394X0.0433*%
%ADD43C,0.0356*%
%ADD44C,0.0120*%
%ADD45C,0.0160*%
%ADD46C,0.0240*%
D10*
X001993Y000973D02*
X001993Y003848D01*
X006805Y003848D01*
X006805Y008223D01*
X001993Y008223D01*
X001993Y024910D01*
X021368Y024910D01*
X021368Y000973D01*
X001993Y000973D01*
X009765Y010285D02*
X011055Y010285D01*
X011077Y010307D01*
X011118Y010307D01*
X011118Y010848D01*
X011180Y010910D01*
X011618Y010910D01*
X011118Y010848D02*
X011118Y012535D01*
X011243Y012660D01*
X015011Y012660D01*
X015284Y012386D01*
X015540Y012386D02*
X015555Y012401D01*
X015555Y012723D01*
X015430Y012848D01*
X013243Y012848D01*
X012930Y013160D01*
X012055Y014160D02*
X011202Y014160D01*
X011118Y014200D01*
X011033Y014263D01*
X010993Y014223D01*
X009703Y014223D01*
X009703Y016660D02*
X012805Y016660D01*
X012868Y016598D01*
X012868Y016035D01*
X013555Y015973D02*
X013618Y015910D01*
X014930Y015910D01*
X014930Y016410D02*
X014118Y016410D01*
X013993Y016535D01*
X013993Y020098D01*
X013868Y020223D01*
X012118Y020223D01*
X012055Y020285D01*
X012055Y020535D01*
X011930Y020660D01*
X011452Y020660D01*
X011430Y020495D01*
X011430Y021535D01*
X011430Y022598D01*
X011555Y022723D01*
X012930Y022723D01*
X011430Y021535D02*
X009640Y021535D01*
X009640Y021035D02*
X009430Y021035D01*
X009703Y017160D02*
X011327Y017160D01*
X011430Y017263D01*
X013515Y017263D01*
X013555Y017223D01*
X013555Y015973D01*
X013555Y017223D02*
X013555Y018598D01*
X013452Y018700D01*
X012952Y018700D01*
X012930Y018723D01*
X011430Y017263D02*
X011408Y017160D01*
X015284Y017906D02*
X015284Y014684D01*
X015540Y014684D02*
X015540Y017083D01*
X015743Y017285D01*
X015930Y016848D02*
X015743Y016660D01*
X015743Y014973D01*
X015796Y014919D01*
X015796Y014684D01*
X016052Y014684D02*
X016052Y014975D01*
X015930Y015098D01*
X015930Y016223D01*
X016118Y016410D01*
X016743Y016035D02*
X016820Y015958D01*
X016820Y014684D01*
X016308Y014684D02*
X016308Y015407D01*
X016305Y015473D01*
X015618Y013098D02*
X015796Y012919D01*
X015796Y012386D01*
X016564Y012386D02*
X016564Y012026D01*
X016743Y011848D01*
X017493Y011848D01*
X017555Y011848D01*
X017680Y011723D01*
X017680Y011348D01*
X016493Y006035D02*
X015993Y006035D01*
X015868Y005911D01*
X015868Y005523D01*
X016617Y005523D02*
X016618Y005524D01*
X016618Y005910D01*
X016493Y006035D01*
X017368Y002848D02*
X017868Y002848D01*
X017993Y002723D01*
X017993Y002337D01*
X017992Y002336D01*
X017243Y002336D02*
X017243Y002723D01*
X017368Y002848D01*
X015743Y018410D02*
X015743Y018785D01*
X015805Y018848D01*
X016161Y018848D01*
X015805Y018848D02*
X015280Y018848D01*
X015743Y019410D02*
X015743Y019723D01*
X015680Y019785D01*
X016161Y019785D01*
X015680Y019785D02*
X015280Y019785D01*
D11*
X009703Y018160D03*
X009703Y017660D03*
X009703Y017160D03*
X009703Y016660D03*
X009703Y015223D03*
X009703Y014723D03*
X009703Y014223D03*
X009703Y013723D03*
X009765Y011285D03*
X009765Y010785D03*
X009765Y010285D03*
X009765Y009785D03*
X007345Y009785D03*
X007345Y010285D03*
X007345Y010785D03*
X007345Y011285D03*
X007283Y013723D03*
X007283Y014223D03*
X007283Y014723D03*
X007283Y015223D03*
X007283Y016660D03*
X007283Y017160D03*
X007283Y017660D03*
X007283Y018160D03*
X007220Y021035D03*
X007220Y021535D03*
X007220Y022035D03*
X007220Y022535D03*
X009640Y022535D03*
X009640Y022035D03*
X009640Y021535D03*
X009640Y021035D03*
D12*
X003555Y021579D03*
X003555Y020201D03*
X003555Y018017D03*
X003555Y016639D03*
X003555Y014517D03*
X003555Y013139D03*
X003555Y010892D03*
X003555Y009514D03*
D13*
X012930Y009160D03*
X012930Y010160D03*
X012930Y011160D03*
X012930Y012160D03*
X012930Y013160D03*
X012930Y014160D03*
X012930Y018723D03*
X012930Y019723D03*
X012930Y020723D03*
X012930Y021723D03*
X012930Y022723D03*
X012930Y023723D03*
D14*
X011430Y020495D03*
X011430Y019825D03*
X011430Y017932D03*
X011430Y017263D03*
X011118Y014870D03*
X011118Y014200D03*
X011118Y010307D03*
X011118Y009638D03*
D15*
X015284Y012386D03*
X015540Y012386D03*
X015796Y012386D03*
X016052Y012386D03*
X016308Y012386D03*
X016564Y012386D03*
X016820Y012386D03*
X017076Y012386D03*
X017076Y014684D03*
X016820Y014684D03*
X016564Y014684D03*
X016308Y014684D03*
X016052Y014684D03*
X015796Y014684D03*
X015540Y014684D03*
X015284Y014684D03*
D16*
X017993Y021035D03*
X011618Y007035D03*
X011618Y002348D03*
D17*
X010618Y002348D03*
X010618Y007035D03*
X019743Y005223D03*
X019743Y004223D03*
X017993Y018035D03*
X017993Y019035D03*
X017993Y020035D03*
X017993Y022723D03*
X017993Y023723D03*
D18*
X007243Y008910D03*
X007243Y007910D03*
D19*
X015155Y021035D03*
X016455Y021035D03*
D20*
X017993Y014660D03*
X017680Y011348D03*
X017680Y010598D03*
D21*
X016493Y009893D03*
X016493Y009302D03*
D22*
X015805Y009079D03*
X015805Y009866D03*
X008555Y005304D03*
X007868Y005304D03*
X007868Y004516D03*
X008555Y004516D03*
D23*
X008057Y012473D03*
X009553Y012473D03*
X009491Y019598D03*
X007994Y019598D03*
D24*
X007243Y008648D03*
X007243Y008048D03*
D25*
X018868Y002035D03*
X004430Y023785D03*
D26*
X003118Y023785D03*
X020243Y023785D03*
X020243Y002098D03*
X003118Y002160D03*
D27*
X010268Y004598D03*
X011842Y004598D03*
D28*
X008738Y003160D03*
X007872Y002786D03*
X007872Y003534D03*
D29*
X016305Y002889D03*
X016305Y002181D03*
X017243Y005493D03*
X017243Y006202D03*
D30*
X016597Y007160D03*
X015888Y007160D03*
D31*
X015816Y008098D03*
X016919Y008098D03*
X014919Y003160D03*
X013816Y003160D03*
D32*
X018493Y006599D03*
X018493Y008096D03*
D33*
X014714Y006910D03*
X013021Y006910D03*
D34*
X015968Y004160D03*
X016768Y004160D03*
D35*
X017243Y003359D03*
X017992Y003359D03*
X017992Y002336D03*
X017618Y002336D03*
X017243Y002336D03*
X016617Y005523D03*
X016243Y005523D03*
X015868Y005523D03*
X015868Y006547D03*
X016617Y006547D03*
D36*
X014543Y010160D03*
X013943Y010160D03*
D37*
X014805Y003160D03*
D38*
X013805Y003160D03*
D39*
X015733Y022285D02*
X016253Y022285D01*
X016253Y023285D02*
X015733Y023285D01*
X015733Y024285D02*
X016253Y024285D01*
D40*
X016161Y019785D03*
X016949Y019785D03*
X016949Y018848D03*
X016161Y018848D03*
X016161Y017910D03*
X016949Y017910D03*
D41*
X015280Y017910D03*
X014955Y017910D03*
X014955Y018848D03*
X015280Y018848D03*
X015280Y019785D03*
X014955Y019785D03*
D42*
X012890Y015660D03*
X012220Y015660D03*
D43*
X012055Y014910D03*
X012055Y014160D03*
X011118Y013285D03*
X010555Y014723D03*
X011118Y015660D03*
X010555Y017660D03*
X010118Y018723D03*
X010555Y022035D03*
X010555Y022973D03*
X007180Y020535D03*
X006368Y020535D03*
X005930Y022035D03*
X005805Y018348D03*
X006430Y016973D03*
X007055Y016160D03*
X005805Y014910D03*
X006493Y013410D03*
X007055Y013285D03*
X005805Y011098D03*
X006305Y009910D03*
X008555Y006160D03*
X010555Y010785D03*
X011618Y010910D03*
X013743Y012223D03*
X013743Y013660D03*
X013743Y015035D03*
X014930Y015348D03*
X014930Y015910D03*
X014930Y016410D03*
X015743Y017285D03*
X015930Y016848D03*
X016118Y016410D03*
X016743Y016035D03*
X016305Y015473D03*
X015618Y013098D03*
X016930Y011410D03*
X015743Y010598D03*
X015243Y011098D03*
X015118Y009035D03*
X018243Y012973D03*
X020430Y016535D03*
X015743Y018410D03*
X015743Y019410D03*
X013618Y019223D03*
X019743Y021973D03*
D44*
X020063Y022884D02*
X019732Y023022D01*
X019479Y023275D01*
X019342Y023606D01*
X019342Y023964D01*
X019479Y024295D01*
X019732Y024548D01*
X020063Y024686D01*
X020422Y024686D01*
X020753Y024548D01*
X021006Y024295D01*
X021143Y023964D01*
X021143Y023606D01*
X021006Y023275D01*
X020753Y023022D01*
X020422Y022884D01*
X020063Y022884D01*
X019903Y022951D02*
X018471Y022951D01*
X018484Y022926D02*
X018446Y023000D01*
X018397Y023068D01*
X018338Y023127D01*
X018270Y023176D01*
X018196Y023214D01*
X018117Y023239D01*
X018091Y023244D01*
X018264Y023316D01*
X018399Y023451D01*
X018472Y023627D01*
X018472Y023818D01*
X018399Y023994D01*
X018264Y024129D01*
X018088Y024202D01*
X017897Y024202D01*
X017721Y024129D01*
X017586Y023994D01*
X017568Y023952D01*
X016960Y023952D01*
X016825Y023818D01*
X016534Y023527D01*
X016462Y023599D01*
X016326Y023655D01*
X015659Y023655D01*
X015523Y023599D01*
X015419Y023495D01*
X015363Y023359D01*
X015363Y023211D01*
X015419Y023075D01*
X015523Y022971D01*
X015659Y022915D01*
X016326Y022915D01*
X016462Y022971D01*
X016546Y023055D01*
X016713Y023055D01*
X017150Y023493D01*
X017568Y023493D01*
X017586Y023451D01*
X017721Y023316D01*
X017894Y023244D01*
X017868Y023239D01*
X017789Y023214D01*
X017715Y023176D01*
X017647Y023127D01*
X017588Y023068D01*
X017539Y023000D01*
X017501Y022926D01*
X017476Y022847D01*
X017463Y022764D01*
X017463Y022763D01*
X017952Y022763D01*
X017952Y022682D01*
X017463Y022682D01*
X017463Y022681D01*
X017476Y022598D01*
X017501Y022519D01*
X017539Y022445D01*
X017588Y022377D01*
X017647Y022318D01*
X017715Y022269D01*
X017789Y022231D01*
X017868Y022206D01*
X017951Y022193D01*
X017952Y022193D01*
X017952Y022682D01*
X018033Y022682D01*
X018033Y022763D01*
X018522Y022763D01*
X018522Y022764D01*
X018509Y022847D01*
X018484Y022926D01*
X018512Y022833D02*
X021158Y022833D01*
X021158Y022951D02*
X020582Y022951D01*
X020801Y023070D02*
X021158Y023070D01*
X021158Y023188D02*
X020919Y023188D01*
X021019Y023307D02*
X021158Y023307D01*
X021158Y023425D02*
X021068Y023425D01*
X021117Y023544D02*
X021158Y023544D01*
X021143Y023662D02*
X021158Y023662D01*
X021143Y023781D02*
X021158Y023781D01*
X021143Y023899D02*
X021158Y023899D01*
X021158Y024018D02*
X021121Y024018D01*
X021158Y024136D02*
X021072Y024136D01*
X021023Y024255D02*
X021158Y024255D01*
X021158Y024373D02*
X020928Y024373D01*
X020810Y024492D02*
X021158Y024492D01*
X021158Y024610D02*
X020604Y024610D01*
X019881Y024610D02*
X016520Y024610D01*
X016526Y024605D02*
X016473Y024644D01*
X016414Y024674D01*
X016351Y024695D01*
X016317Y024700D01*
X021158Y024700D01*
X021158Y001182D01*
X002202Y001182D01*
X002202Y003638D01*
X006892Y003638D01*
X007015Y003761D01*
X007015Y007500D01*
X007183Y007500D01*
X007183Y007710D01*
X007224Y007710D01*
X007224Y007850D01*
X007261Y007850D01*
X007261Y007710D01*
X007302Y007710D01*
X007302Y007500D01*
X007514Y007500D01*
X007554Y007511D01*
X007591Y007532D01*
X007621Y007562D01*
X007642Y007598D01*
X007652Y007639D01*
X007652Y007850D01*
X007560Y007850D01*
X007560Y007970D01*
X007652Y007970D01*
X007652Y008160D01*
X014493Y008160D01*
X014493Y008897D01*
X014585Y008805D01*
X014940Y008805D01*
X014954Y008791D01*
X015060Y008747D01*
X015175Y008747D01*
X015281Y008791D01*
X015295Y008805D01*
X015431Y008805D01*
X015484Y008752D01*
X015586Y008752D01*
X015586Y008522D01*
X015495Y008522D01*
X015431Y008458D01*
X015431Y007737D01*
X015495Y007673D01*
X015658Y007673D01*
X015658Y007479D01*
X015621Y007442D01*
X015621Y006878D01*
X015638Y006860D01*
X015638Y006452D01*
X015650Y006440D01*
X015650Y006265D01*
X015715Y006201D01*
X016022Y006201D01*
X016087Y006265D01*
X016087Y006440D01*
X016098Y006452D01*
X016098Y006821D01*
X016156Y006878D01*
X016156Y007442D01*
X016118Y007479D01*
X016118Y007673D01*
X016137Y007673D01*
X016202Y007737D01*
X016202Y008458D01*
X016137Y008522D01*
X016046Y008522D01*
X016046Y008752D01*
X016126Y008752D01*
X016191Y008817D01*
X016191Y009075D01*
X016207Y009047D01*
X016237Y009017D01*
X016273Y008996D01*
X016314Y008985D01*
X016474Y008985D01*
X016474Y009283D01*
X016511Y009283D01*
X016511Y008985D01*
X016671Y008985D01*
X016712Y008996D01*
X016748Y009017D01*
X016778Y009047D01*
X016799Y009083D01*
X016810Y009124D01*
X016810Y009283D01*
X016511Y009283D01*
X016511Y009321D01*
X016474Y009321D01*
X016474Y009620D01*
X016314Y009620D01*
X016273Y009609D01*
X016237Y009588D01*
X016207Y009558D01*
X016186Y009521D01*
X016175Y009481D01*
X016175Y009356D01*
X016126Y009405D01*
X015484Y009405D01*
X015419Y009341D01*
X015419Y009265D01*
X015295Y009265D01*
X015281Y009279D01*
X015175Y009323D01*
X015060Y009323D01*
X014954Y009279D01*
X014940Y009265D01*
X014785Y009265D01*
X014785Y009912D01*
X014830Y009957D01*
X014830Y010363D01*
X014765Y010427D01*
X014493Y010427D01*
X014493Y011553D01*
X016135Y011553D01*
X016135Y011090D01*
X016385Y010840D01*
X016485Y010740D01*
X017110Y010740D01*
X017320Y010530D01*
X017320Y010526D01*
X017375Y010394D01*
X017476Y010292D01*
X017608Y010238D01*
X017752Y010238D01*
X017884Y010292D01*
X017985Y010394D01*
X018040Y010526D01*
X018040Y010669D01*
X017985Y010801D01*
X017884Y010903D01*
X017752Y010957D01*
X017608Y010957D01*
X017476Y010903D01*
X017452Y010879D01*
X017250Y011080D01*
X016625Y011080D01*
X016475Y011230D01*
X016475Y011721D01*
X016477Y011836D01*
X016478Y011837D01*
X016478Y011886D01*
X016583Y011781D01*
X016676Y011688D01*
X017489Y011688D01*
X017510Y011667D01*
X017476Y011653D01*
X017375Y011551D01*
X017320Y011419D01*
X017320Y011276D01*
X017375Y011144D01*
X017476Y011042D01*
X017608Y010988D01*
X017752Y010988D01*
X017884Y011042D01*
X017985Y011144D01*
X018040Y011276D01*
X018040Y011419D01*
X017985Y011551D01*
X017884Y011653D01*
X017840Y011671D01*
X017840Y011789D01*
X017746Y011882D01*
X017621Y012007D01*
X016809Y012007D01*
X016735Y012081D01*
X016925Y012081D01*
X016948Y012104D01*
X016970Y012081D01*
X017181Y012081D01*
X017246Y012146D01*
X017246Y012216D01*
X018539Y012216D01*
X018813Y012490D01*
X018912Y012590D01*
X018912Y018918D01*
X018725Y019105D01*
X018625Y019205D01*
X018442Y019205D01*
X018399Y019307D01*
X018264Y019442D01*
X018088Y019515D01*
X017897Y019515D01*
X017721Y019442D01*
X017586Y019307D01*
X017513Y019130D01*
X017513Y018940D01*
X017586Y018763D01*
X017721Y018628D01*
X017894Y018556D01*
X017868Y018552D01*
X017789Y018526D01*
X017715Y018488D01*
X017647Y018439D01*
X017588Y018380D01*
X017539Y018313D01*
X017501Y018238D01*
X017476Y018159D01*
X017463Y018077D01*
X017463Y018075D01*
X017952Y018075D01*
X017952Y017995D01*
X017463Y017995D01*
X017463Y017993D01*
X017476Y017911D01*
X017501Y017832D01*
X017539Y017757D01*
X017588Y017690D01*
X017647Y017631D01*
X017715Y017582D01*
X017789Y017544D01*
X017868Y017518D01*
X017951Y017505D01*
X017952Y017505D01*
X017952Y017995D01*
X018033Y017995D01*
X018033Y018075D01*
X018522Y018075D01*
X018522Y018077D01*
X018509Y018159D01*
X018484Y018238D01*
X018446Y018313D01*
X018397Y018380D01*
X018338Y018439D01*
X018270Y018488D01*
X018196Y018526D01*
X018117Y018552D01*
X018091Y018556D01*
X018264Y018628D01*
X018399Y018763D01*
X018442Y018865D01*
X018485Y018865D01*
X018573Y018777D01*
X018573Y012730D01*
X018398Y012556D01*
X017246Y012556D01*
X017246Y012627D01*
X017181Y012691D01*
X016990Y012691D01*
X016990Y012729D01*
X017063Y012803D01*
X018005Y012803D01*
X018079Y012728D01*
X018185Y012684D01*
X018300Y012684D01*
X018406Y012728D01*
X018487Y012809D01*
X018531Y012915D01*
X018531Y013030D01*
X018487Y013136D01*
X018406Y013217D01*
X018300Y013261D01*
X018185Y013261D01*
X018079Y013217D01*
X018005Y013142D01*
X016922Y013142D01*
X016823Y013043D01*
X016650Y012870D01*
X016650Y012691D01*
X016458Y012691D01*
X016436Y012669D01*
X016414Y012691D01*
X016228Y012691D01*
X016210Y012709D01*
X016174Y012730D01*
X016133Y012741D01*
X016052Y012741D01*
X015971Y012741D01*
X015956Y012737D01*
X015956Y012985D01*
X015904Y013037D01*
X015906Y013040D01*
X015906Y013155D01*
X015862Y013261D01*
X015781Y013342D01*
X015675Y013386D01*
X015560Y013386D01*
X015454Y013342D01*
X015373Y013261D01*
X015329Y013155D01*
X015329Y013040D01*
X015343Y013007D01*
X014493Y013007D01*
X014493Y013990D01*
X016500Y013990D01*
X016564Y014053D01*
X016627Y013990D01*
X017750Y013990D01*
X017850Y014090D01*
X018060Y014300D01*
X018064Y014300D01*
X018196Y014355D01*
X018298Y014456D01*
X018352Y014588D01*
X018352Y014732D01*
X018298Y014864D01*
X018196Y014965D01*
X018064Y015020D01*
X017921Y015020D01*
X017789Y014965D01*
X017687Y014864D01*
X017633Y014732D01*
X017633Y014588D01*
X017687Y014456D01*
X017711Y014432D01*
X017610Y014330D01*
X016768Y014330D01*
X016734Y014364D01*
X016734Y014379D01*
X016925Y014379D01*
X016948Y014401D01*
X016970Y014379D01*
X017181Y014379D01*
X017246Y014443D01*
X017246Y014924D01*
X017181Y014989D01*
X016980Y014989D01*
X016980Y015865D01*
X016987Y015872D01*
X017031Y015978D01*
X017031Y016092D01*
X016987Y016198D01*
X016906Y016279D01*
X016800Y016323D01*
X016685Y016323D01*
X016579Y016279D01*
X016498Y016198D01*
X016454Y016092D01*
X016454Y015978D01*
X016498Y015872D01*
X016579Y015791D01*
X016660Y015757D01*
X016660Y014989D01*
X016468Y014989D01*
X016468Y015228D01*
X016468Y015228D01*
X016549Y015309D01*
X016593Y015415D01*
X016593Y015530D01*
X016549Y015636D01*
X016468Y015717D01*
X016362Y015761D01*
X016248Y015761D01*
X016142Y015717D01*
X016090Y015665D01*
X016090Y016122D01*
X016175Y016122D01*
X016281Y016166D01*
X016362Y016247D01*
X016406Y016353D01*
X016406Y016467D01*
X016362Y016573D01*
X016281Y016654D01*
X016179Y016696D01*
X016218Y016790D01*
X016218Y016905D01*
X016174Y017011D01*
X016093Y017092D01*
X015992Y017134D01*
X016031Y017228D01*
X016031Y017342D01*
X015987Y017448D01*
X015911Y017524D01*
X016423Y017524D01*
X016488Y017589D01*
X016488Y018231D01*
X016423Y018296D01*
X016007Y018296D01*
X016031Y018353D01*
X016031Y018462D01*
X016423Y018462D01*
X016488Y018526D01*
X016488Y019169D01*
X016423Y019233D01*
X015973Y019233D01*
X015987Y019247D01*
X016031Y019353D01*
X016031Y019399D01*
X016423Y019399D01*
X016488Y019464D01*
X016488Y020106D01*
X016423Y020171D01*
X015899Y020171D01*
X015835Y020106D01*
X015835Y019945D01*
X015515Y019945D01*
X015515Y020081D01*
X015450Y020145D01*
X015197Y020145D01*
X015179Y020163D01*
X015142Y020184D01*
X015101Y020195D01*
X014958Y020195D01*
X014958Y019788D01*
X014953Y019788D01*
X014953Y020195D01*
X014809Y020195D01*
X014769Y020184D01*
X014732Y020163D01*
X014702Y020133D01*
X014681Y020097D01*
X014670Y020056D01*
X014670Y019788D01*
X014953Y019788D01*
X014953Y019782D01*
X014958Y019782D01*
X014958Y019375D01*
X015101Y019375D01*
X015142Y019386D01*
X015179Y019407D01*
X015197Y019425D01*
X015450Y019425D01*
X015454Y019429D01*
X015454Y019353D01*
X015498Y019247D01*
X015579Y019166D01*
X015685Y019122D01*
X015800Y019122D01*
X015835Y019136D01*
X015835Y019007D01*
X015515Y019007D01*
X015515Y019143D01*
X015450Y019207D01*
X015197Y019207D01*
X015179Y019226D01*
X015142Y019247D01*
X015101Y019257D01*
X014958Y019257D01*
X014958Y018850D01*
X014953Y018850D01*
X014953Y019257D01*
X014809Y019257D01*
X014769Y019247D01*
X014732Y019226D01*
X014702Y019196D01*
X014681Y019159D01*
X014493Y019159D01*
X014493Y019041D02*
X014670Y019041D01*
X014670Y019119D02*
X014670Y018850D01*
X014953Y018850D01*
X014953Y018845D01*
X014958Y018845D01*
X014958Y018438D01*
X015101Y018438D01*
X015142Y018448D01*
X015179Y018469D01*
X015197Y018488D01*
X015450Y018488D01*
X015472Y018509D01*
X015454Y018467D01*
X015454Y018353D01*
X015498Y018247D01*
X015579Y018166D01*
X015685Y018122D01*
X015800Y018122D01*
X015835Y018136D01*
X015835Y018100D01*
X015515Y018100D01*
X015515Y018206D01*
X015450Y018270D01*
X015197Y018270D01*
X015179Y018288D01*
X015142Y018309D01*
X015101Y018320D01*
X014958Y018320D01*
X014958Y017913D01*
X014953Y017913D01*
X014953Y018320D01*
X014809Y018320D01*
X014769Y018309D01*
X014732Y018288D01*
X014702Y018258D01*
X014681Y018222D01*
X014670Y018181D01*
X014670Y017913D01*
X014953Y017913D01*
X014953Y017907D01*
X014958Y017907D01*
X014958Y017500D01*
X015101Y017500D01*
X015124Y017506D01*
X015124Y016623D01*
X015093Y016654D01*
X014987Y016698D01*
X014873Y016698D01*
X014767Y016654D01*
X014686Y016573D01*
X014684Y016570D01*
X014493Y016570D01*
X014493Y024598D01*
X004743Y024598D01*
X004743Y022723D01*
X002202Y022723D01*
X002202Y024700D01*
X015668Y024700D01*
X015634Y024695D01*
X015571Y024674D01*
X015512Y024644D01*
X015459Y024605D01*
X015412Y024559D01*
X015373Y024505D01*
X015343Y024446D01*
X015323Y024383D01*
X015313Y024318D01*
X015313Y024305D01*
X015972Y024305D01*
X015972Y024265D01*
X015313Y024265D01*
X015313Y024252D01*
X015323Y024187D01*
X015343Y024124D01*
X015373Y024065D01*
X015412Y024011D01*
X015459Y023965D01*
X015512Y023926D01*
X015571Y023896D01*
X015634Y023875D01*
X015699Y023865D01*
X015972Y023865D01*
X015972Y024265D01*
X016013Y024265D01*
X016013Y024305D01*
X016672Y024305D01*
X016672Y024318D01*
X016662Y024383D01*
X016642Y024446D01*
X016612Y024505D01*
X016573Y024559D01*
X016526Y024605D01*
X016619Y024492D02*
X019675Y024492D01*
X019557Y024373D02*
X016664Y024373D01*
X016672Y024265D02*
X016013Y024265D01*
X016013Y023865D01*
X016286Y023865D01*
X016351Y023875D01*
X016414Y023896D01*
X016473Y023926D01*
X016526Y023965D01*
X016573Y024011D01*
X016612Y024065D01*
X016642Y024124D01*
X016662Y024187D01*
X016672Y024252D01*
X016672Y024265D01*
X016672Y024255D02*
X019462Y024255D01*
X019413Y024136D02*
X018248Y024136D01*
X018376Y024018D02*
X019364Y024018D01*
X019342Y023899D02*
X018439Y023899D01*
X018472Y023781D02*
X019342Y023781D01*
X019342Y023662D02*
X018472Y023662D01*
X018438Y023544D02*
X019368Y023544D01*
X019417Y023425D02*
X018374Y023425D01*
X018243Y023307D02*
X019466Y023307D01*
X019566Y023188D02*
X018246Y023188D01*
X018395Y023070D02*
X019684Y023070D01*
X018522Y022682D02*
X018033Y022682D01*
X018033Y022193D01*
X018034Y022193D01*
X018117Y022206D01*
X018196Y022231D01*
X018270Y022269D01*
X018338Y022318D01*
X018397Y022377D01*
X018446Y022445D01*
X018484Y022519D01*
X018509Y022598D01*
X018522Y022681D01*
X018522Y022682D01*
X018509Y022596D02*
X021158Y022596D01*
X021158Y022714D02*
X018033Y022714D01*
X017952Y022714D02*
X014493Y022714D01*
X014493Y022596D02*
X015449Y022596D01*
X015459Y022605D02*
X015412Y022559D01*
X015373Y022505D01*
X015343Y022446D01*
X015323Y022383D01*
X015313Y022318D01*
X015313Y022305D01*
X015972Y022305D01*
X015972Y022265D01*
X015313Y022265D01*
X015313Y022252D01*
X015323Y022187D01*
X015343Y022124D01*
X015373Y022065D01*
X015412Y022011D01*
X015459Y021965D01*
X015512Y021926D01*
X015571Y021896D01*
X015634Y021875D01*
X015699Y021865D01*
X015972Y021865D01*
X015972Y022265D01*
X016013Y022265D01*
X016013Y022305D01*
X016672Y022305D01*
X016672Y022318D01*
X016662Y022383D01*
X016642Y022446D01*
X016612Y022505D01*
X016573Y022559D01*
X016526Y022605D01*
X016473Y022644D01*
X016414Y022674D01*
X016351Y022695D01*
X016286Y022705D01*
X016013Y022705D01*
X016013Y022305D01*
X015972Y022305D01*
X015972Y022705D01*
X015699Y022705D01*
X015634Y022695D01*
X015571Y022674D01*
X015512Y022644D01*
X015459Y022605D01*
X015359Y022477D02*
X014493Y022477D01*
X014493Y022359D02*
X015319Y022359D01*
X015314Y022240D02*
X014493Y022240D01*
X014493Y022122D02*
X015344Y022122D01*
X015420Y022003D02*
X014493Y022003D01*
X014493Y021885D02*
X015606Y021885D01*
X015490Y021655D02*
X015453Y021676D01*
X015413Y021687D01*
X015214Y021687D01*
X015214Y021093D01*
X015552Y021093D01*
X015552Y021548D01*
X015541Y021589D01*
X015520Y021625D01*
X015490Y021655D01*
X015497Y021648D02*
X021158Y021648D01*
X021158Y021766D02*
X014493Y021766D01*
X014493Y021648D02*
X014813Y021648D01*
X014821Y021655D02*
X014791Y021625D01*
X014770Y021589D01*
X014759Y021548D01*
X014759Y021093D01*
X015097Y021093D01*
X015097Y020977D01*
X014759Y020977D01*
X014759Y020522D01*
X014770Y020481D01*
X014791Y020445D01*
X014821Y020415D01*
X014857Y020394D01*
X014898Y020383D01*
X015097Y020383D01*
X015097Y020977D01*
X015214Y020977D01*
X015214Y021093D01*
X015097Y021093D01*
X015097Y021687D01*
X014898Y021687D01*
X014857Y021676D01*
X014821Y021655D01*
X014759Y021529D02*
X014493Y021529D01*
X014493Y021411D02*
X014759Y021411D01*
X014759Y021292D02*
X014493Y021292D01*
X014493Y021174D02*
X014759Y021174D01*
X014759Y020937D02*
X014493Y020937D01*
X014493Y021055D02*
X015097Y021055D01*
X015214Y021055D02*
X016108Y021055D01*
X016108Y020937D02*
X015552Y020937D01*
X015552Y020977D02*
X015214Y020977D01*
X015214Y020383D01*
X015413Y020383D01*
X015453Y020394D01*
X015490Y020415D01*
X015520Y020445D01*
X015541Y020481D01*
X015552Y020522D01*
X015552Y020977D01*
X015552Y020818D02*
X016108Y020818D01*
X016108Y020700D02*
X015552Y020700D01*
X015552Y020581D02*
X016108Y020581D01*
X016108Y020497D02*
X016173Y020433D01*
X016719Y020433D01*
X016719Y020171D01*
X016687Y020171D01*
X016622Y020106D01*
X016622Y019464D01*
X016687Y019399D01*
X016719Y019399D01*
X016719Y019233D01*
X016687Y019233D01*
X016622Y019169D01*
X016622Y018526D01*
X016687Y018462D01*
X016719Y018462D01*
X016719Y018296D01*
X016687Y018296D01*
X016622Y018231D01*
X016622Y017589D01*
X016687Y017524D01*
X017211Y017524D01*
X017275Y017589D01*
X017275Y018231D01*
X017211Y018296D01*
X017179Y018296D01*
X017179Y018462D01*
X017211Y018462D01*
X017275Y018526D01*
X017275Y019169D01*
X017211Y019233D01*
X017179Y019233D01*
X017179Y019399D01*
X017211Y019399D01*
X017275Y019464D01*
X017275Y020106D01*
X017211Y020171D01*
X017179Y020171D01*
X017179Y020805D01*
X017513Y020805D01*
X017513Y020619D01*
X017577Y020555D01*
X018408Y020555D01*
X018472Y020619D01*
X018472Y021451D01*
X018408Y021515D01*
X017577Y021515D01*
X017513Y021451D01*
X017513Y021265D01*
X016801Y021265D01*
X016801Y021573D01*
X016736Y021637D01*
X016173Y021637D01*
X016108Y021573D01*
X016108Y020497D01*
X016143Y020463D02*
X015530Y020463D01*
X015214Y020463D02*
X015097Y020463D01*
X015097Y020581D02*
X015214Y020581D01*
X015214Y020700D02*
X015097Y020700D01*
X015097Y020818D02*
X015214Y020818D01*
X015214Y020937D02*
X015097Y020937D01*
X015097Y021174D02*
X015214Y021174D01*
X015214Y021292D02*
X015097Y021292D01*
X015097Y021411D02*
X015214Y021411D01*
X015214Y021529D02*
X015097Y021529D01*
X015097Y021648D02*
X015214Y021648D01*
X015552Y021529D02*
X016108Y021529D01*
X016108Y021411D02*
X015552Y021411D01*
X015552Y021292D02*
X016108Y021292D01*
X016108Y021174D02*
X015552Y021174D01*
X015972Y021885D02*
X016013Y021885D01*
X016013Y021865D02*
X016286Y021865D01*
X016351Y021875D01*
X016414Y021896D01*
X016473Y021926D01*
X016526Y021965D01*
X016573Y022011D01*
X016612Y022065D01*
X016642Y022124D01*
X016662Y022187D01*
X016672Y022252D01*
X016672Y022265D01*
X016013Y022265D01*
X016013Y021865D01*
X016013Y022003D02*
X015972Y022003D01*
X015972Y022122D02*
X016013Y022122D01*
X016013Y022240D02*
X015972Y022240D01*
X015972Y022359D02*
X016013Y022359D01*
X016013Y022477D02*
X015972Y022477D01*
X015972Y022596D02*
X016013Y022596D01*
X016536Y022596D02*
X017476Y022596D01*
X017523Y022477D02*
X016626Y022477D01*
X016666Y022359D02*
X017607Y022359D01*
X017772Y022240D02*
X016671Y022240D01*
X016641Y022122D02*
X021158Y022122D01*
X021158Y022240D02*
X018213Y022240D01*
X018033Y022240D02*
X017952Y022240D01*
X017952Y022359D02*
X018033Y022359D01*
X018033Y022477D02*
X017952Y022477D01*
X017952Y022596D02*
X018033Y022596D01*
X018378Y022359D02*
X021158Y022359D01*
X021158Y022477D02*
X018462Y022477D01*
X017739Y023188D02*
X016846Y023188D01*
X016964Y023307D02*
X017742Y023307D01*
X017611Y023425D02*
X017083Y023425D01*
X016788Y023781D02*
X014493Y023781D01*
X014493Y023899D02*
X015565Y023899D01*
X015408Y024018D02*
X014493Y024018D01*
X014493Y024136D02*
X015339Y024136D01*
X015313Y024255D02*
X014493Y024255D01*
X014493Y024373D02*
X015321Y024373D01*
X015366Y024492D02*
X014493Y024492D01*
X014493Y023662D02*
X016669Y023662D01*
X016551Y023544D02*
X016517Y023544D01*
X016420Y023899D02*
X016906Y023899D01*
X016646Y024136D02*
X017737Y024136D01*
X017609Y024018D02*
X016577Y024018D01*
X016013Y024018D02*
X015972Y024018D01*
X015972Y024136D02*
X016013Y024136D01*
X016013Y024255D02*
X015972Y024255D01*
X015972Y023899D02*
X016013Y023899D01*
X015468Y023544D02*
X014493Y023544D01*
X014493Y023425D02*
X015390Y023425D01*
X015363Y023307D02*
X014493Y023307D01*
X014493Y023188D02*
X015372Y023188D01*
X015425Y023070D02*
X014493Y023070D01*
X014493Y022951D02*
X015572Y022951D01*
X016413Y022951D02*
X017514Y022951D01*
X017473Y022833D02*
X014493Y022833D01*
X012930Y023723D02*
X008868Y023723D01*
X008743Y023598D01*
X008743Y021160D01*
X008868Y021035D01*
X008993Y021035D01*
X008868Y020910D01*
X008868Y016848D01*
X009055Y016660D01*
X009703Y016660D01*
X009703Y017660D02*
X010555Y017660D01*
X010805Y015973D02*
X007243Y015973D01*
X007055Y016160D01*
X009055Y013723D02*
X008930Y013598D01*
X008930Y009910D01*
X009055Y009785D01*
X009765Y009785D01*
X009765Y010785D02*
X010555Y010785D01*
X011118Y009638D02*
X010868Y009410D01*
X010805Y009348D01*
X008618Y009348D01*
X008180Y009785D01*
X007345Y009785D01*
X007652Y008139D02*
X015431Y008139D01*
X015431Y008257D02*
X014493Y008257D01*
X014493Y008376D02*
X015431Y008376D01*
X015467Y008494D02*
X014493Y008494D01*
X014493Y008613D02*
X015586Y008613D01*
X015586Y008731D02*
X014493Y008731D01*
X014493Y008850D02*
X014540Y008850D01*
X014785Y009324D02*
X015419Y009324D01*
X015484Y009540D02*
X016126Y009540D01*
X016191Y009604D01*
X016191Y009696D01*
X016225Y009696D01*
X016225Y009690D01*
X016289Y009625D01*
X016696Y009625D01*
X016760Y009690D01*
X016760Y010096D01*
X016696Y010160D01*
X016289Y010160D01*
X016225Y010096D01*
X016225Y010036D01*
X016191Y010036D01*
X016191Y010128D01*
X016126Y010193D01*
X015484Y010193D01*
X015419Y010128D01*
X015419Y009604D01*
X015484Y009540D01*
X015463Y009561D02*
X014785Y009561D01*
X014785Y009679D02*
X015419Y009679D01*
X015419Y009798D02*
X014785Y009798D01*
X014789Y009916D02*
X015419Y009916D01*
X015419Y010035D02*
X014830Y010035D01*
X014830Y010153D02*
X015444Y010153D01*
X015805Y009866D02*
X016493Y009866D01*
X016493Y009893D01*
X016760Y009916D02*
X021158Y009916D01*
X021158Y009798D02*
X016760Y009798D01*
X016749Y009679D02*
X021158Y009679D01*
X021158Y009561D02*
X016775Y009561D01*
X016778Y009558D02*
X016748Y009588D01*
X016712Y009609D01*
X016671Y009620D01*
X016511Y009620D01*
X016511Y009321D01*
X016810Y009321D01*
X016810Y009481D01*
X016799Y009521D01*
X016778Y009558D01*
X016810Y009442D02*
X021158Y009442D01*
X021158Y009324D02*
X016810Y009324D01*
X016810Y009205D02*
X021158Y009205D01*
X021158Y009087D02*
X016800Y009087D01*
X016511Y009087D02*
X016474Y009087D01*
X016474Y009205D02*
X016511Y009205D01*
X016511Y009324D02*
X016474Y009324D01*
X016474Y009442D02*
X016511Y009442D01*
X016511Y009561D02*
X016474Y009561D01*
X016210Y009561D02*
X016147Y009561D01*
X016175Y009442D02*
X014785Y009442D01*
X014830Y010272D02*
X017526Y010272D01*
X017378Y010390D02*
X014803Y010390D01*
X014493Y010509D02*
X017327Y010509D01*
X017223Y010627D02*
X014493Y010627D01*
X014493Y010746D02*
X016479Y010746D01*
X016361Y010864D02*
X014493Y010864D01*
X014493Y010983D02*
X016242Y010983D01*
X016135Y011101D02*
X014493Y011101D01*
X014493Y011220D02*
X016135Y011220D01*
X016135Y011338D02*
X014493Y011338D01*
X014493Y011457D02*
X016135Y011457D01*
X016305Y011723D02*
X016305Y011160D01*
X016555Y010910D01*
X017180Y010910D01*
X017493Y010598D01*
X017680Y010598D01*
X018008Y010746D02*
X021158Y010746D01*
X021158Y010864D02*
X017923Y010864D01*
X017943Y011101D02*
X021158Y011101D01*
X021158Y010983D02*
X017348Y010983D01*
X017417Y011101D02*
X016604Y011101D01*
X016486Y011220D02*
X017343Y011220D01*
X017320Y011338D02*
X016475Y011338D01*
X016475Y011457D02*
X017335Y011457D01*
X017398Y011575D02*
X016475Y011575D01*
X016475Y011694D02*
X016670Y011694D01*
X016552Y011812D02*
X016476Y011812D01*
X016305Y011723D02*
X013368Y011723D01*
X012930Y012160D01*
X014493Y012168D02*
X015114Y012168D01*
X015114Y012146D02*
X015179Y012081D01*
X015390Y012081D01*
X015412Y012104D01*
X015435Y012081D01*
X015646Y012081D01*
X015668Y012104D01*
X015691Y012081D01*
X015876Y012081D01*
X015894Y012063D01*
X015930Y012042D01*
X015971Y012031D01*
X016052Y012031D01*
X016052Y012386D01*
X016052Y012386D01*
X016052Y012031D01*
X016133Y012031D01*
X016138Y012033D01*
X016138Y011908D01*
X016138Y011892D01*
X014493Y011892D01*
X014493Y012500D01*
X014944Y012500D01*
X015114Y012330D01*
X015114Y012146D01*
X015114Y012286D02*
X014493Y012286D01*
X014493Y012405D02*
X015040Y012405D01*
X014493Y012049D02*
X015918Y012049D01*
X016052Y012049D02*
X016052Y012049D01*
X016052Y012168D02*
X016052Y012168D01*
X016052Y012286D02*
X016052Y012286D01*
X016055Y012383D02*
X016052Y012386D01*
X016052Y012741D01*
X016052Y012386D01*
X016052Y012386D01*
X016052Y012405D02*
X016052Y012405D01*
X016052Y012523D02*
X016052Y012523D01*
X016052Y012642D02*
X016052Y012642D01*
X015956Y012760D02*
X016650Y012760D01*
X016658Y012879D02*
X015956Y012879D01*
X015944Y012997D02*
X016777Y012997D01*
X016895Y013116D02*
X015906Y013116D01*
X015873Y013234D02*
X018121Y013234D01*
X018364Y013234D02*
X018573Y013234D01*
X018573Y013116D02*
X018495Y013116D01*
X018531Y012997D02*
X018573Y012997D01*
X018573Y012879D02*
X018515Y012879D01*
X018573Y012760D02*
X018437Y012760D01*
X018484Y012642D02*
X017231Y012642D01*
X017020Y012760D02*
X018048Y012760D01*
X018243Y012973D02*
X016993Y012973D01*
X016820Y012800D01*
X016820Y012386D01*
X017076Y012386D02*
X018469Y012386D01*
X018743Y012660D01*
X018743Y018848D01*
X018555Y019035D01*
X017993Y019035D01*
X018321Y018685D02*
X018573Y018685D01*
X018573Y018567D02*
X018116Y018567D01*
X018326Y018448D02*
X018573Y018448D01*
X018573Y018330D02*
X018434Y018330D01*
X018493Y018211D02*
X018573Y018211D01*
X018573Y018093D02*
X018520Y018093D01*
X018522Y017995D02*
X018033Y017995D01*
X018033Y017505D01*
X018034Y017505D01*
X018117Y017518D01*
X018196Y017544D01*
X018270Y017582D01*
X018338Y017631D01*
X018397Y017690D01*
X018446Y017757D01*
X018484Y017832D01*
X018509Y017911D01*
X018522Y017993D01*
X018522Y017995D01*
X018519Y017974D02*
X018573Y017974D01*
X018573Y017856D02*
X018491Y017856D01*
X018431Y017737D02*
X018573Y017737D01*
X018573Y017619D02*
X018321Y017619D01*
X018573Y017500D02*
X015935Y017500D01*
X016014Y017382D02*
X018573Y017382D01*
X018573Y017263D02*
X016031Y017263D01*
X015996Y017145D02*
X018573Y017145D01*
X018573Y017026D02*
X016159Y017026D01*
X016217Y016908D02*
X018573Y016908D01*
X018573Y016789D02*
X016218Y016789D01*
X016241Y016671D02*
X018573Y016671D01*
X018573Y016552D02*
X016371Y016552D01*
X016406Y016434D02*
X018573Y016434D01*
X018573Y016315D02*
X016819Y016315D01*
X016666Y016315D02*
X016390Y016315D01*
X016311Y016197D02*
X016498Y016197D01*
X016454Y016078D02*
X016090Y016078D01*
X016090Y015960D02*
X016462Y015960D01*
X016529Y015841D02*
X016090Y015841D01*
X016090Y015723D02*
X016156Y015723D01*
X016454Y015723D02*
X016660Y015723D01*
X016660Y015604D02*
X016562Y015604D01*
X016593Y015486D02*
X016660Y015486D01*
X016660Y015367D02*
X016573Y015367D01*
X016488Y015249D02*
X016660Y015249D01*
X016660Y015130D02*
X016468Y015130D01*
X016468Y015012D02*
X016660Y015012D01*
X016980Y015012D02*
X017900Y015012D01*
X018085Y015012D02*
X018573Y015012D01*
X018573Y015130D02*
X016980Y015130D01*
X016980Y015249D02*
X018573Y015249D01*
X018573Y015367D02*
X016980Y015367D01*
X016980Y015486D02*
X018573Y015486D01*
X018573Y015604D02*
X016980Y015604D01*
X016980Y015723D02*
X018573Y015723D01*
X018573Y015841D02*
X016980Y015841D01*
X017023Y015960D02*
X018573Y015960D01*
X018573Y016078D02*
X017031Y016078D01*
X016987Y016197D02*
X018573Y016197D01*
X018912Y016197D02*
X021158Y016197D01*
X021158Y016315D02*
X018912Y016315D01*
X018912Y016434D02*
X021158Y016434D01*
X021158Y016552D02*
X018912Y016552D01*
X018912Y016671D02*
X021158Y016671D01*
X021158Y016789D02*
X018912Y016789D01*
X018912Y016908D02*
X021158Y016908D01*
X021158Y017026D02*
X018912Y017026D01*
X018912Y017145D02*
X021158Y017145D01*
X021158Y017263D02*
X018912Y017263D01*
X018912Y017382D02*
X021158Y017382D01*
X021158Y017500D02*
X018912Y017500D01*
X018912Y017619D02*
X021158Y017619D01*
X021158Y017737D02*
X018912Y017737D01*
X018912Y017856D02*
X021158Y017856D01*
X021158Y017974D02*
X018912Y017974D01*
X018912Y018093D02*
X021158Y018093D01*
X021158Y018211D02*
X018912Y018211D01*
X018912Y018330D02*
X021158Y018330D01*
X021158Y018448D02*
X018912Y018448D01*
X018912Y018567D02*
X021158Y018567D01*
X021158Y018685D02*
X018912Y018685D01*
X018912Y018804D02*
X021158Y018804D01*
X021158Y018922D02*
X018908Y018922D01*
X018790Y019041D02*
X021158Y019041D01*
X021158Y019159D02*
X018671Y019159D01*
X018412Y019278D02*
X021158Y019278D01*
X021158Y019396D02*
X018310Y019396D01*
X018264Y019628D02*
X018088Y019555D01*
X017897Y019555D01*
X017721Y019628D01*
X017586Y019763D01*
X017513Y019940D01*
X017513Y020130D01*
X017586Y020307D01*
X017721Y020442D01*
X017897Y020515D01*
X018088Y020515D01*
X018264Y020442D01*
X018399Y020307D01*
X018472Y020130D01*
X018472Y019940D01*
X018399Y019763D01*
X018264Y019628D01*
X018269Y019633D02*
X021158Y019633D01*
X021158Y019515D02*
X018089Y019515D01*
X017896Y019515D02*
X017275Y019515D01*
X017275Y019633D02*
X017716Y019633D01*
X017597Y019752D02*
X017275Y019752D01*
X017275Y019870D02*
X017541Y019870D01*
X017513Y019989D02*
X017275Y019989D01*
X017274Y020107D02*
X017513Y020107D01*
X017552Y020226D02*
X017179Y020226D01*
X017179Y020344D02*
X017623Y020344D01*
X017770Y020463D02*
X017179Y020463D01*
X017179Y020581D02*
X017551Y020581D01*
X017513Y020700D02*
X017179Y020700D01*
X016719Y020344D02*
X014493Y020344D01*
X014493Y020226D02*
X016719Y020226D01*
X016623Y020107D02*
X016487Y020107D01*
X016488Y019989D02*
X016622Y019989D01*
X016622Y019870D02*
X016488Y019870D01*
X016488Y019752D02*
X016622Y019752D01*
X016622Y019633D02*
X016488Y019633D01*
X016488Y019515D02*
X016622Y019515D01*
X016719Y019396D02*
X016031Y019396D01*
X015999Y019278D02*
X016719Y019278D01*
X016622Y019159D02*
X016488Y019159D01*
X016488Y019041D02*
X016622Y019041D01*
X016622Y018922D02*
X016488Y018922D01*
X016488Y018804D02*
X016622Y018804D01*
X016622Y018685D02*
X016488Y018685D01*
X016488Y018567D02*
X016622Y018567D01*
X016719Y018448D02*
X016031Y018448D01*
X016021Y018330D02*
X016719Y018330D01*
X016622Y018211D02*
X016488Y018211D01*
X016488Y018093D02*
X016622Y018093D01*
X016622Y017974D02*
X016488Y017974D01*
X016488Y017856D02*
X016622Y017856D01*
X016622Y017737D02*
X016488Y017737D01*
X016488Y017619D02*
X016622Y017619D01*
X017275Y017619D02*
X017664Y017619D01*
X017554Y017737D02*
X017275Y017737D01*
X017275Y017856D02*
X017494Y017856D01*
X017466Y017974D02*
X017275Y017974D01*
X017275Y018093D02*
X017465Y018093D01*
X017492Y018211D02*
X017275Y018211D01*
X017179Y018330D02*
X017551Y018330D01*
X017659Y018448D02*
X017179Y018448D01*
X017275Y018567D02*
X017869Y018567D01*
X017664Y018685D02*
X017275Y018685D01*
X017275Y018804D02*
X017569Y018804D01*
X017520Y018922D02*
X017275Y018922D01*
X017275Y019041D02*
X017513Y019041D01*
X017524Y019159D02*
X017275Y019159D01*
X017179Y019278D02*
X017573Y019278D01*
X017675Y019396D02*
X017179Y019396D01*
X018215Y020463D02*
X021158Y020463D01*
X021158Y020581D02*
X018434Y020581D01*
X018472Y020700D02*
X021158Y020700D01*
X021158Y020818D02*
X018472Y020818D01*
X018472Y020937D02*
X021158Y020937D01*
X021158Y021055D02*
X018472Y021055D01*
X018472Y021174D02*
X021158Y021174D01*
X021158Y021292D02*
X018472Y021292D01*
X018472Y021411D02*
X021158Y021411D01*
X021158Y021529D02*
X016801Y021529D01*
X016801Y021411D02*
X017513Y021411D01*
X017513Y021292D02*
X016801Y021292D01*
X016379Y021885D02*
X021158Y021885D01*
X021158Y022003D02*
X016565Y022003D01*
X016727Y023070D02*
X017590Y023070D01*
X015465Y024610D02*
X003479Y024610D01*
X003628Y024548D02*
X003297Y024686D01*
X002938Y024686D01*
X002607Y024548D01*
X002354Y024295D01*
X002217Y023964D01*
X002217Y023606D01*
X002354Y023275D01*
X002607Y023022D01*
X002938Y022884D01*
X003297Y022884D01*
X003628Y023022D01*
X003881Y023275D01*
X004018Y023606D01*
X004018Y023964D01*
X003881Y024295D01*
X003628Y024548D01*
X003685Y024492D02*
X004743Y024492D01*
X004743Y024373D02*
X003803Y024373D01*
X003898Y024255D02*
X004743Y024255D01*
X004743Y024136D02*
X003947Y024136D01*
X003996Y024018D02*
X004229Y024018D01*
X004256Y024045D02*
X004170Y023959D01*
X004123Y023846D01*
X004123Y023724D01*
X004170Y023611D01*
X004256Y023525D01*
X004369Y023478D01*
X004491Y023478D01*
X004604Y023525D01*
X004690Y023611D01*
X004737Y023724D01*
X004737Y023846D01*
X004690Y023959D01*
X004604Y024045D01*
X004491Y024092D01*
X004369Y024092D01*
X004256Y024045D01*
X004145Y023899D02*
X004018Y023899D01*
X004018Y023781D02*
X004123Y023781D01*
X004149Y023662D02*
X004018Y023662D01*
X003992Y023544D02*
X004238Y023544D01*
X004622Y023544D02*
X004743Y023544D01*
X004743Y023662D02*
X004711Y023662D01*
X004737Y023781D02*
X004743Y023781D01*
X004743Y023899D02*
X004715Y023899D01*
X004743Y024018D02*
X004631Y024018D01*
X004743Y023425D02*
X003943Y023425D01*
X003894Y023307D02*
X004743Y023307D01*
X004743Y023188D02*
X003794Y023188D01*
X003676Y023070D02*
X004743Y023070D01*
X004743Y022951D02*
X003457Y022951D01*
X002778Y022951D02*
X002202Y022951D01*
X002202Y022833D02*
X004743Y022833D01*
X002756Y024610D02*
X002202Y024610D01*
X002202Y024492D02*
X002550Y024492D01*
X002432Y024373D02*
X002202Y024373D01*
X002202Y024255D02*
X002337Y024255D01*
X002288Y024136D02*
X002202Y024136D01*
X002202Y024018D02*
X002239Y024018D01*
X002217Y023899D02*
X002202Y023899D01*
X002202Y023781D02*
X002217Y023781D01*
X002202Y023662D02*
X002217Y023662D01*
X002202Y023544D02*
X002243Y023544D01*
X002202Y023425D02*
X002292Y023425D01*
X002341Y023307D02*
X002202Y023307D01*
X002202Y023188D02*
X002441Y023188D01*
X002559Y023070D02*
X002202Y023070D01*
X008993Y021035D02*
X009430Y021035D01*
X009640Y022035D02*
X010555Y022035D01*
X014493Y020818D02*
X014759Y020818D01*
X014759Y020700D02*
X014493Y020700D01*
X014493Y020581D02*
X014759Y020581D01*
X014781Y020463D02*
X014493Y020463D01*
X014493Y020107D02*
X014687Y020107D01*
X014670Y019989D02*
X014493Y019989D01*
X014493Y019870D02*
X014670Y019870D01*
X014670Y019782D02*
X014670Y019514D01*
X014681Y019473D01*
X014702Y019437D01*
X014732Y019407D01*
X014769Y019386D01*
X014809Y019375D01*
X014953Y019375D01*
X014953Y019782D01*
X014670Y019782D01*
X014670Y019752D02*
X014493Y019752D01*
X014493Y019633D02*
X014670Y019633D01*
X014670Y019515D02*
X014493Y019515D01*
X014493Y019396D02*
X014751Y019396D01*
X014953Y019396D02*
X014958Y019396D01*
X014953Y019515D02*
X014958Y019515D01*
X014953Y019633D02*
X014958Y019633D01*
X014953Y019752D02*
X014958Y019752D01*
X014953Y019870D02*
X014958Y019870D01*
X014953Y019989D02*
X014958Y019989D01*
X014953Y020107D02*
X014958Y020107D01*
X015488Y020107D02*
X015836Y020107D01*
X015835Y019989D02*
X015515Y019989D01*
X015454Y019396D02*
X015160Y019396D01*
X014958Y019159D02*
X014953Y019159D01*
X014953Y019041D02*
X014958Y019041D01*
X014953Y018922D02*
X014958Y018922D01*
X014953Y018845D02*
X014670Y018845D01*
X014670Y018576D01*
X014681Y018536D01*
X014702Y018499D01*
X014732Y018469D01*
X014769Y018448D01*
X014809Y018438D01*
X014953Y018437D01*
X014953Y018845D01*
X014953Y018804D02*
X014958Y018804D01*
X014953Y018685D02*
X014958Y018685D01*
X014953Y018567D02*
X014958Y018567D01*
X014953Y018448D02*
X014958Y018448D01*
X015141Y018448D02*
X015454Y018448D01*
X015464Y018330D02*
X014493Y018330D01*
X014493Y018448D02*
X014770Y018448D01*
X014673Y018567D02*
X014493Y018567D01*
X014493Y018685D02*
X014670Y018685D01*
X014670Y018804D02*
X014493Y018804D01*
X014493Y018922D02*
X014670Y018922D01*
X014670Y019119D02*
X014681Y019159D01*
X014493Y019278D02*
X015486Y019278D01*
X015499Y019159D02*
X015596Y019159D01*
X015515Y019041D02*
X015835Y019041D01*
X015534Y018211D02*
X015509Y018211D01*
X015280Y017910D02*
X015284Y017906D01*
X014958Y017856D02*
X014953Y017856D01*
X014953Y017907D02*
X014953Y017500D01*
X014809Y017500D01*
X014493Y017500D01*
X014493Y017382D02*
X015124Y017382D01*
X015124Y017500D02*
X015102Y017500D01*
X014958Y017500D02*
X014953Y017500D01*
X014953Y017619D02*
X014958Y017619D01*
X014953Y017737D02*
X014958Y017737D01*
X014953Y017907D02*
X014670Y017907D01*
X014670Y017639D01*
X014681Y017598D01*
X014702Y017562D01*
X014732Y017532D01*
X014769Y017511D01*
X014809Y017500D01*
X014676Y017619D02*
X014493Y017619D01*
X014493Y017737D02*
X014670Y017737D01*
X014670Y017856D02*
X014493Y017856D01*
X014493Y017974D02*
X014670Y017974D01*
X014670Y018093D02*
X014493Y018093D01*
X014493Y018211D02*
X014678Y018211D01*
X014953Y018211D02*
X014958Y018211D01*
X014953Y018093D02*
X014958Y018093D01*
X014953Y017974D02*
X014958Y017974D01*
X015124Y017263D02*
X014493Y017263D01*
X014493Y017145D02*
X015124Y017145D01*
X015124Y017026D02*
X014493Y017026D01*
X014493Y016908D02*
X015124Y016908D01*
X015124Y016789D02*
X014493Y016789D01*
X014493Y016671D02*
X014806Y016671D01*
X015054Y016671D02*
X015124Y016671D01*
X015124Y015697D02*
X015124Y014934D01*
X015114Y014924D01*
X015114Y014443D01*
X015179Y014379D01*
X015390Y014379D01*
X015412Y014401D01*
X015435Y014379D01*
X015646Y014379D01*
X015668Y014401D01*
X015691Y014379D01*
X015902Y014379D01*
X015924Y014401D01*
X015946Y014379D01*
X016158Y014379D01*
X016180Y014401D01*
X016202Y014379D01*
X016394Y014379D01*
X016394Y014364D01*
X016360Y014330D01*
X014493Y014330D01*
X014493Y015750D01*
X014684Y015750D01*
X014686Y015747D01*
X014767Y015666D01*
X014873Y015622D01*
X014987Y015622D01*
X015093Y015666D01*
X015124Y015697D01*
X015124Y015604D02*
X014493Y015604D01*
X014493Y015486D02*
X015124Y015486D01*
X015124Y015367D02*
X014493Y015367D01*
X014493Y015249D02*
X015124Y015249D01*
X015124Y015130D02*
X014493Y015130D01*
X014493Y015012D02*
X015124Y015012D01*
X015114Y014893D02*
X014493Y014893D01*
X014493Y014775D02*
X015114Y014775D01*
X015114Y014656D02*
X014493Y014656D01*
X014493Y014538D02*
X015114Y014538D01*
X015138Y014419D02*
X014493Y014419D01*
X014493Y013945D02*
X018573Y013945D01*
X018573Y013827D02*
X014493Y013827D01*
X014493Y013708D02*
X018573Y013708D01*
X018573Y013590D02*
X014493Y013590D01*
X014493Y013471D02*
X018573Y013471D01*
X018573Y013353D02*
X015755Y013353D01*
X015480Y013353D02*
X014493Y013353D01*
X014493Y013234D02*
X015362Y013234D01*
X015329Y013116D02*
X014493Y013116D01*
X014493Y011931D02*
X016138Y011931D01*
X016308Y011907D02*
X016305Y011723D01*
X016308Y011907D02*
X016308Y012386D01*
X016767Y012049D02*
X021158Y012049D01*
X021158Y011931D02*
X017698Y011931D01*
X017817Y011812D02*
X021158Y011812D01*
X021158Y011694D02*
X017840Y011694D01*
X017962Y011575D02*
X021158Y011575D01*
X021158Y011457D02*
X018025Y011457D01*
X018040Y011338D02*
X021158Y011338D01*
X021158Y011220D02*
X018017Y011220D01*
X018040Y010627D02*
X021158Y010627D01*
X021158Y010509D02*
X018033Y010509D01*
X017982Y010390D02*
X021158Y010390D01*
X021158Y010272D02*
X017834Y010272D01*
X016760Y010035D02*
X021158Y010035D01*
X021158Y010153D02*
X016703Y010153D01*
X016282Y010153D02*
X016166Y010153D01*
X016191Y009679D02*
X016236Y009679D01*
X016191Y008968D02*
X021158Y008968D01*
X021158Y008850D02*
X016191Y008850D01*
X016046Y008731D02*
X021158Y008731D01*
X021158Y008613D02*
X016046Y008613D01*
X016166Y008494D02*
X016505Y008494D01*
X016515Y008511D02*
X016494Y008474D01*
X016483Y008434D01*
X016483Y008157D01*
X016859Y008157D01*
X016859Y008038D01*
X016483Y008038D01*
X016483Y007761D01*
X016494Y007721D01*
X016515Y007684D01*
X016545Y007655D01*
X016581Y007633D01*
X016622Y007623D01*
X016859Y007623D01*
X016859Y008037D01*
X016979Y008037D01*
X016979Y007623D01*
X017215Y007623D01*
X017256Y007633D01*
X017293Y007655D01*
X017322Y007684D01*
X017343Y007721D01*
X017354Y007761D01*
X017354Y008038D01*
X016979Y008038D01*
X016979Y008157D01*
X017354Y008157D01*
X017354Y008434D01*
X017343Y008474D01*
X017322Y008511D01*
X017293Y008540D01*
X017256Y008562D01*
X017215Y008572D01*
X016979Y008572D01*
X016979Y008158D01*
X016859Y008158D01*
X016859Y008572D01*
X016622Y008572D01*
X016581Y008562D01*
X016545Y008540D01*
X016515Y008511D01*
X016483Y008376D02*
X016202Y008376D01*
X016202Y008257D02*
X016483Y008257D01*
X016483Y008020D02*
X016202Y008020D01*
X016202Y007902D02*
X016483Y007902D01*
X016483Y007783D02*
X016202Y007783D01*
X016118Y007665D02*
X016535Y007665D01*
X016578Y007556D02*
X016418Y007556D01*
X016378Y007545D01*
X016341Y007524D01*
X016311Y007494D01*
X016290Y007458D01*
X016279Y007417D01*
X016279Y007179D01*
X016578Y007179D01*
X016578Y007556D01*
X016578Y007546D02*
X016616Y007546D01*
X016616Y007556D02*
X016775Y007556D01*
X016816Y007545D01*
X016853Y007524D01*
X016882Y007494D01*
X016903Y007458D01*
X016914Y007417D01*
X016914Y007179D01*
X016616Y007179D01*
X016616Y007141D01*
X016914Y007141D01*
X016914Y006903D01*
X016903Y006862D01*
X016882Y006826D01*
X016853Y006796D01*
X016835Y006785D01*
X016835Y006265D01*
X016770Y006201D01*
X016463Y006201D01*
X016398Y006265D01*
X016398Y006769D01*
X016378Y006775D01*
X016341Y006796D01*
X016311Y006826D01*
X016290Y006862D01*
X016279Y006903D01*
X016279Y007141D01*
X016578Y007141D01*
X016578Y007179D01*
X016616Y007179D01*
X016616Y007556D01*
X016616Y007428D02*
X016578Y007428D01*
X016578Y007309D02*
X016616Y007309D01*
X016616Y007191D02*
X016578Y007191D01*
X016279Y007191D02*
X016156Y007191D01*
X016156Y007309D02*
X016279Y007309D01*
X016282Y007428D02*
X016156Y007428D01*
X016118Y007546D02*
X016380Y007546D01*
X016813Y007546D02*
X021158Y007546D01*
X021158Y007428D02*
X016912Y007428D01*
X016914Y007309D02*
X021158Y007309D01*
X021158Y007191D02*
X016914Y007191D01*
X016914Y007072D02*
X021158Y007072D01*
X021158Y006954D02*
X019095Y006954D01*
X019095Y006980D02*
X019030Y007044D01*
X017955Y007044D01*
X017890Y006980D01*
X017890Y006219D01*
X017955Y006155D01*
X018263Y006155D01*
X018263Y004818D01*
X018212Y004767D01*
X017274Y004767D01*
X017147Y004640D01*
X017146Y004640D01*
X017079Y004572D01*
X017033Y004526D01*
X016486Y004526D01*
X016421Y004461D01*
X016421Y003859D01*
X016486Y003794D01*
X017013Y003794D01*
X017013Y003264D01*
X017025Y003252D01*
X017025Y003078D01*
X017090Y003013D01*
X017397Y003013D01*
X017462Y003078D01*
X017462Y003252D01*
X017473Y003264D01*
X017473Y004065D01*
X017474Y004066D01*
X017473Y004160D01*
X017473Y004255D01*
X017473Y004256D01*
X017473Y004307D01*
X018402Y004307D01*
X018537Y004442D01*
X018722Y004627D01*
X018722Y006155D01*
X019030Y006155D01*
X019095Y006219D01*
X019095Y006980D01*
X019095Y006835D02*
X021158Y006835D01*
X021158Y006717D02*
X019095Y006717D01*
X019095Y006598D02*
X021158Y006598D01*
X021158Y006480D02*
X019095Y006480D01*
X019095Y006361D02*
X021158Y006361D01*
X021158Y006243D02*
X019095Y006243D01*
X018722Y006124D02*
X021158Y006124D01*
X021158Y006006D02*
X018722Y006006D01*
X018722Y005887D02*
X021158Y005887D01*
X021158Y005769D02*
X018722Y005769D01*
X018722Y005650D02*
X019429Y005650D01*
X019397Y005627D02*
X019338Y005568D01*
X019289Y005500D01*
X019251Y005426D01*
X019226Y005347D01*
X019213Y005264D01*
X019213Y005263D01*
X019702Y005263D01*
X019702Y005752D01*
X019701Y005752D01*
X019618Y005739D01*
X019539Y005714D01*
X019465Y005676D01*
X019397Y005627D01*
X019312Y005532D02*
X018722Y005532D01*
X018722Y005413D02*
X019247Y005413D01*
X019217Y005295D02*
X018722Y005295D01*
X018722Y005176D02*
X019213Y005176D01*
X019213Y005181D02*
X019226Y005098D01*
X019251Y005019D01*
X019289Y004945D01*
X019338Y004877D01*
X019397Y004818D01*
X019465Y004769D01*
X019539Y004731D01*
X019618Y004706D01*
X019644Y004701D01*
X019471Y004629D01*
X019336Y004494D01*
X019263Y004318D01*
X019263Y004127D01*
X019336Y003951D01*
X019471Y003816D01*
X019647Y003743D01*
X019838Y003743D01*
X020014Y003816D01*
X020149Y003951D01*
X020222Y004127D01*
X020222Y004318D01*
X020149Y004494D01*
X020014Y004629D01*
X019841Y004701D01*
X019867Y004706D01*
X019946Y004731D01*
X020020Y004769D01*
X020088Y004818D01*
X020147Y004877D01*
X020196Y004945D01*
X020234Y005019D01*
X020259Y005098D01*
X020272Y005181D01*
X020272Y005182D01*
X019783Y005182D01*
X019783Y005263D01*
X020272Y005263D01*
X020272Y005264D01*
X020259Y005347D01*
X020234Y005426D01*
X020196Y005500D01*
X020147Y005568D01*
X020088Y005627D01*
X020020Y005676D01*
X019946Y005714D01*
X019867Y005739D01*
X019784Y005752D01*
X019783Y005752D01*
X019783Y005263D01*
X019702Y005263D01*
X019702Y005182D01*
X019213Y005182D01*
X019213Y005181D01*
X019239Y005058D02*
X018722Y005058D01*
X018722Y004939D02*
X019293Y004939D01*
X019395Y004821D02*
X018722Y004821D01*
X018722Y004702D02*
X019641Y004702D01*
X019844Y004702D02*
X021158Y004702D01*
X021158Y004584D02*
X020060Y004584D01*
X020162Y004465D02*
X021158Y004465D01*
X021158Y004347D02*
X020211Y004347D01*
X020222Y004228D02*
X021158Y004228D01*
X021158Y004110D02*
X020215Y004110D01*
X020166Y003991D02*
X021158Y003991D01*
X021158Y003873D02*
X020071Y003873D01*
X019866Y003754D02*
X021158Y003754D01*
X021158Y003636D02*
X018210Y003636D01*
X018210Y003641D02*
X018145Y003706D01*
X017838Y003706D01*
X017773Y003641D01*
X017773Y003078D01*
X017838Y003013D01*
X018145Y003013D01*
X018210Y003078D01*
X018210Y003641D01*
X018210Y003517D02*
X021158Y003517D01*
X021158Y003399D02*
X018210Y003399D01*
X018210Y003280D02*
X021158Y003280D01*
X021158Y003162D02*
X018210Y003162D01*
X018175Y003043D02*
X021158Y003043D01*
X021158Y002925D02*
X020599Y002925D01*
X020753Y002861D02*
X020422Y002998D01*
X020063Y002998D01*
X019732Y002861D01*
X019479Y002608D01*
X019342Y002277D01*
X019342Y001918D01*
X019479Y001587D01*
X019732Y001334D01*
X020063Y001197D01*
X020422Y001197D01*
X020753Y001334D01*
X021006Y001587D01*
X021143Y001918D01*
X021143Y002277D01*
X021006Y002608D01*
X020753Y002861D01*
X020808Y002806D02*
X021158Y002806D01*
X021158Y002688D02*
X020926Y002688D01*
X021022Y002569D02*
X021158Y002569D01*
X021158Y002451D02*
X021071Y002451D01*
X021120Y002332D02*
X021158Y002332D01*
X021143Y002214D02*
X021158Y002214D01*
X021143Y002095D02*
X021158Y002095D01*
X021143Y001977D02*
X021158Y001977D01*
X021158Y001858D02*
X021118Y001858D01*
X021158Y001740D02*
X021069Y001740D01*
X021020Y001621D02*
X021158Y001621D01*
X021158Y001503D02*
X020921Y001503D01*
X020803Y001384D02*
X021158Y001384D01*
X021158Y001266D02*
X020587Y001266D01*
X019898Y001266D02*
X003311Y001266D01*
X003297Y001259D02*
X003628Y001397D01*
X003881Y001650D01*
X004018Y001981D01*
X004018Y002339D01*
X003881Y002670D01*
X003628Y002923D01*
X003297Y003061D01*
X002938Y003061D01*
X002607Y002923D01*
X002354Y002670D01*
X002217Y002339D01*
X002217Y001981D01*
X002354Y001650D01*
X002607Y001397D01*
X002938Y001259D01*
X003297Y001259D01*
X003597Y001384D02*
X019682Y001384D01*
X019564Y001503D02*
X003734Y001503D01*
X003852Y001621D02*
X019465Y001621D01*
X019416Y001740D02*
X018956Y001740D01*
X018929Y001728D02*
X019041Y001775D01*
X019128Y001861D01*
X019174Y001974D01*
X019174Y002096D01*
X019128Y002209D01*
X019041Y002295D01*
X018929Y002342D01*
X018806Y002342D01*
X018694Y002295D01*
X018607Y002209D01*
X018561Y002096D01*
X018561Y001974D01*
X018607Y001861D01*
X018694Y001775D01*
X018806Y001728D01*
X018929Y001728D01*
X018779Y001740D02*
X003918Y001740D01*
X003967Y001858D02*
X018611Y001858D01*
X018561Y001977D02*
X017829Y001977D01*
X017824Y001971D02*
X017842Y001989D01*
X018145Y001989D01*
X018210Y002054D01*
X018210Y002617D01*
X018152Y002675D01*
X018152Y002789D01*
X018059Y002882D01*
X017934Y003007D01*
X017301Y003007D01*
X017208Y002914D01*
X017083Y002790D01*
X017083Y002676D01*
X017025Y002617D01*
X017025Y002371D01*
X016651Y002371D01*
X016651Y002384D01*
X016587Y002448D01*
X016023Y002448D01*
X015965Y002390D01*
X015150Y002390D01*
X015035Y002505D01*
X015035Y002725D01*
X015176Y002725D01*
X015186Y002735D01*
X015240Y002735D01*
X015304Y002799D01*
X015304Y003521D01*
X015240Y003585D01*
X015186Y003585D01*
X015176Y003595D01*
X014944Y003595D01*
X014944Y006511D01*
X015010Y006511D01*
X015074Y006575D01*
X015074Y007245D01*
X015010Y007309D01*
X015621Y007309D01*
X015621Y007191D02*
X015074Y007191D01*
X015074Y007072D02*
X015621Y007072D01*
X015621Y006954D02*
X015074Y006954D01*
X015074Y006835D02*
X015638Y006835D01*
X015638Y006717D02*
X015074Y006717D01*
X015074Y006598D02*
X015638Y006598D01*
X015638Y006480D02*
X014944Y006480D01*
X014944Y006361D02*
X015650Y006361D01*
X015673Y006243D02*
X014944Y006243D01*
X014944Y006124D02*
X015855Y006124D01*
X015833Y006101D02*
X015708Y005977D01*
X015708Y005863D01*
X015650Y005805D01*
X015650Y005241D01*
X015678Y005214D01*
X015678Y004518D01*
X015621Y004461D01*
X015621Y003859D01*
X015686Y003794D01*
X016249Y003794D01*
X016314Y003859D01*
X016314Y004461D01*
X016249Y004526D01*
X016057Y004526D01*
X016057Y005146D01*
X016072Y005138D01*
X016113Y005127D01*
X016242Y005127D01*
X016242Y005523D01*
X016243Y005523D01*
X016243Y005127D01*
X016372Y005127D01*
X016413Y005138D01*
X016449Y005159D01*
X016467Y005177D01*
X016770Y005177D01*
X016835Y005241D01*
X016835Y005303D01*
X016896Y005303D01*
X016896Y005290D01*
X016961Y005226D01*
X017524Y005226D01*
X017589Y005290D01*
X017589Y005696D01*
X017524Y005761D01*
X016961Y005761D01*
X016896Y005696D01*
X016896Y005683D01*
X016835Y005683D01*
X016835Y005805D01*
X016777Y005862D01*
X016777Y005976D01*
X016684Y006070D01*
X016559Y006195D01*
X015926Y006195D01*
X015833Y006101D01*
X015737Y006006D02*
X014944Y006006D01*
X014944Y005887D02*
X015708Y005887D01*
X015650Y005769D02*
X014944Y005769D01*
X014944Y005650D02*
X015650Y005650D01*
X015650Y005532D02*
X014944Y005532D01*
X014944Y005413D02*
X015650Y005413D01*
X015650Y005295D02*
X014944Y005295D01*
X014944Y005176D02*
X015678Y005176D01*
X015678Y005058D02*
X014944Y005058D01*
X014944Y004939D02*
X015678Y004939D01*
X015678Y004821D02*
X014944Y004821D01*
X014944Y004702D02*
X015678Y004702D01*
X015678Y004584D02*
X014944Y004584D01*
X014944Y004465D02*
X015625Y004465D01*
X015621Y004347D02*
X014944Y004347D01*
X014944Y004228D02*
X015621Y004228D01*
X015621Y004110D02*
X014944Y004110D01*
X014944Y003991D02*
X015621Y003991D01*
X015621Y003873D02*
X014944Y003873D01*
X014944Y003754D02*
X017013Y003754D01*
X017013Y003636D02*
X014944Y003636D01*
X015304Y003517D02*
X017013Y003517D01*
X017013Y003399D02*
X015304Y003399D01*
X015304Y003280D02*
X017013Y003280D01*
X017025Y003162D02*
X016653Y003162D01*
X016639Y003175D02*
X016669Y003145D01*
X016690Y003109D01*
X016701Y003068D01*
X016701Y002908D01*
X016324Y002908D01*
X016324Y002871D01*
X016701Y002871D01*
X016701Y002711D01*
X016690Y002670D01*
X016669Y002634D01*
X016639Y002604D01*
X016603Y002583D01*
X016562Y002572D01*
X016324Y002572D01*
X016324Y002871D01*
X016286Y002871D01*
X015909Y002871D01*
X015909Y002711D01*
X015920Y002670D01*
X015941Y002634D01*
X015971Y002604D01*
X016007Y002583D01*
X016048Y002572D01*
X016286Y002572D01*
X016286Y002871D01*
X016286Y002908D01*
X015909Y002908D01*
X015909Y003068D01*
X015920Y003109D01*
X015941Y003145D01*
X015971Y003175D01*
X016007Y003196D01*
X016048Y003207D01*
X016286Y003207D01*
X016286Y002908D01*
X016324Y002908D01*
X016324Y003207D01*
X016562Y003207D01*
X016603Y003196D01*
X016639Y003175D01*
X016701Y003043D02*
X017060Y003043D01*
X017218Y002925D02*
X016701Y002925D01*
X016701Y002806D02*
X017100Y002806D01*
X017083Y002688D02*
X016695Y002688D01*
X017025Y002569D02*
X015035Y002569D01*
X015035Y002688D02*
X015915Y002688D01*
X015909Y002806D02*
X015304Y002806D01*
X015304Y002925D02*
X015909Y002925D01*
X015909Y003043D02*
X015304Y003043D01*
X015304Y003162D02*
X015957Y003162D01*
X016286Y003162D02*
X016324Y003162D01*
X016324Y003043D02*
X016286Y003043D01*
X016286Y002925D02*
X016324Y002925D01*
X016324Y002806D02*
X016286Y002806D01*
X016286Y002688D02*
X016324Y002688D01*
X017025Y002451D02*
X015090Y002451D01*
X014795Y002095D02*
X012097Y002095D01*
X012097Y001977D02*
X014913Y001977D01*
X014960Y001930D02*
X016006Y001930D01*
X016023Y001913D01*
X016587Y001913D01*
X016651Y001978D01*
X016651Y001991D01*
X017088Y001991D01*
X017090Y001989D01*
X017393Y001989D01*
X017411Y001971D01*
X017447Y001950D01*
X017488Y001939D01*
X017617Y001939D01*
X017617Y002336D01*
X017618Y002336D01*
X017618Y001939D01*
X017747Y001939D01*
X017788Y001950D01*
X017824Y001971D01*
X017618Y001977D02*
X017617Y001977D01*
X017617Y002095D02*
X017618Y002095D01*
X017617Y002214D02*
X017618Y002214D01*
X017617Y002332D02*
X017618Y002332D01*
X017406Y001977D02*
X016650Y001977D01*
X017427Y003043D02*
X017808Y003043D01*
X017773Y003162D02*
X017462Y003162D01*
X017473Y003280D02*
X017773Y003280D01*
X017773Y003399D02*
X017473Y003399D01*
X017473Y003517D02*
X017773Y003517D01*
X017773Y003636D02*
X017473Y003636D01*
X017473Y003754D02*
X019619Y003754D01*
X019414Y003873D02*
X017473Y003873D01*
X017473Y003991D02*
X019319Y003991D01*
X019270Y004110D02*
X017474Y004110D01*
X017473Y004228D02*
X019263Y004228D01*
X019274Y004347D02*
X018442Y004347D01*
X018560Y004465D02*
X019323Y004465D01*
X019425Y004584D02*
X018679Y004584D01*
X018263Y004821D02*
X016057Y004821D01*
X016057Y004939D02*
X018263Y004939D01*
X018263Y005058D02*
X016057Y005058D01*
X016242Y005176D02*
X016243Y005176D01*
X016242Y005295D02*
X016243Y005295D01*
X016242Y005413D02*
X016243Y005413D01*
X016466Y005176D02*
X018263Y005176D01*
X018263Y005295D02*
X017589Y005295D01*
X017589Y005413D02*
X018263Y005413D01*
X018263Y005532D02*
X017589Y005532D01*
X017589Y005650D02*
X018263Y005650D01*
X018263Y005769D02*
X016835Y005769D01*
X016777Y005887D02*
X016975Y005887D01*
X016985Y005884D02*
X017224Y005884D01*
X017224Y006183D01*
X017261Y006183D01*
X017261Y005884D01*
X017500Y005884D01*
X017540Y005895D01*
X017577Y005916D01*
X017607Y005946D01*
X017628Y005983D01*
X017639Y006023D01*
X017639Y006183D01*
X017261Y006183D01*
X017261Y006221D01*
X017224Y006221D01*
X017224Y006519D01*
X016985Y006519D01*
X016945Y006508D01*
X016908Y006487D01*
X016878Y006458D01*
X016857Y006421D01*
X016846Y006380D01*
X016846Y006221D01*
X017224Y006221D01*
X017224Y006183D01*
X016846Y006183D01*
X016846Y006023D01*
X016857Y005983D01*
X016878Y005946D01*
X016908Y005916D01*
X016945Y005895D01*
X016985Y005884D01*
X016851Y006006D02*
X016748Y006006D01*
X016846Y006124D02*
X016630Y006124D01*
X016812Y006243D02*
X016846Y006243D01*
X016835Y006361D02*
X016846Y006361D01*
X016835Y006480D02*
X016900Y006480D01*
X016835Y006598D02*
X017890Y006598D01*
X017890Y006480D02*
X017585Y006480D01*
X017577Y006487D02*
X017607Y006458D01*
X017628Y006421D01*
X017639Y006380D01*
X017639Y006221D01*
X017261Y006221D01*
X017261Y006519D01*
X017500Y006519D01*
X017540Y006508D01*
X017577Y006487D01*
X017639Y006361D02*
X017890Y006361D01*
X017890Y006243D02*
X017639Y006243D01*
X017639Y006124D02*
X018263Y006124D01*
X018263Y006006D02*
X017634Y006006D01*
X017510Y005887D02*
X018263Y005887D01*
X017890Y006717D02*
X016835Y006717D01*
X016888Y006835D02*
X017890Y006835D01*
X017890Y006954D02*
X016914Y006954D01*
X017224Y006480D02*
X017261Y006480D01*
X017261Y006361D02*
X017224Y006361D01*
X017224Y006243D02*
X017261Y006243D01*
X017261Y006124D02*
X017224Y006124D01*
X017224Y006006D02*
X017261Y006006D01*
X017261Y005887D02*
X017224Y005887D01*
X016896Y005295D02*
X016835Y005295D01*
X017209Y004702D02*
X016057Y004702D01*
X016057Y004584D02*
X017091Y004584D01*
X016425Y004465D02*
X016310Y004465D01*
X016314Y004347D02*
X016421Y004347D01*
X016421Y004228D02*
X016314Y004228D01*
X016314Y004110D02*
X016421Y004110D01*
X016421Y003991D02*
X016314Y003991D01*
X016314Y003873D02*
X016421Y003873D01*
X018017Y002925D02*
X019886Y002925D01*
X019677Y002806D02*
X018135Y002806D01*
X018152Y002688D02*
X019559Y002688D01*
X019463Y002569D02*
X018210Y002569D01*
X018210Y002451D02*
X019414Y002451D01*
X019365Y002332D02*
X018952Y002332D01*
X018783Y002332D02*
X018210Y002332D01*
X018210Y002214D02*
X018612Y002214D01*
X018561Y002095D02*
X018210Y002095D01*
X019123Y002214D02*
X019342Y002214D01*
X019342Y002095D02*
X019174Y002095D01*
X019174Y001977D02*
X019342Y001977D01*
X019367Y001858D02*
X019124Y001858D01*
X020090Y004821D02*
X021158Y004821D01*
X021158Y004939D02*
X020192Y004939D01*
X020246Y005058D02*
X021158Y005058D01*
X021158Y005176D02*
X020272Y005176D01*
X020268Y005295D02*
X021158Y005295D01*
X021158Y005413D02*
X020238Y005413D01*
X020173Y005532D02*
X021158Y005532D01*
X021158Y005650D02*
X020056Y005650D01*
X019783Y005650D02*
X019702Y005650D01*
X019702Y005532D02*
X019783Y005532D01*
X019783Y005413D02*
X019702Y005413D01*
X019702Y005295D02*
X019783Y005295D01*
X019046Y007612D02*
X019083Y007633D01*
X019113Y007663D01*
X019134Y007699D01*
X019145Y007740D01*
X019145Y008036D01*
X018553Y008036D01*
X018553Y008156D01*
X018552Y008156D02*
X018433Y008156D01*
X018433Y008590D01*
X017979Y008590D01*
X017939Y008579D01*
X017902Y008558D01*
X017872Y008528D01*
X017851Y008492D01*
X017840Y008451D01*
X017840Y008156D01*
X018432Y008156D01*
X018432Y008036D01*
X017840Y008036D01*
X017840Y007740D01*
X017851Y007699D01*
X017872Y007663D01*
X017902Y007633D01*
X017939Y007612D01*
X017979Y007601D01*
X018433Y007601D01*
X018433Y008036D01*
X018552Y008036D01*
X018552Y007601D01*
X019006Y007601D01*
X019046Y007612D01*
X019114Y007665D02*
X021158Y007665D01*
X021158Y007783D02*
X019145Y007783D01*
X019145Y007902D02*
X021158Y007902D01*
X021158Y008020D02*
X019145Y008020D01*
X019145Y008156D02*
X019145Y008451D01*
X019134Y008492D01*
X019113Y008528D01*
X019083Y008558D01*
X019046Y008579D01*
X019006Y008590D01*
X018552Y008590D01*
X018552Y008156D01*
X018553Y008156D02*
X019145Y008156D01*
X019145Y008257D02*
X021158Y008257D01*
X021158Y008139D02*
X018553Y008139D01*
X018552Y008257D02*
X018433Y008257D01*
X018432Y008139D02*
X016979Y008139D01*
X016979Y008257D02*
X016859Y008257D01*
X016859Y008139D02*
X016202Y008139D01*
X016859Y008020D02*
X016979Y008020D01*
X016979Y007902D02*
X016859Y007902D01*
X016859Y007783D02*
X016979Y007783D01*
X016979Y007665D02*
X016859Y007665D01*
X017303Y007665D02*
X017871Y007665D01*
X017840Y007783D02*
X017354Y007783D01*
X017354Y007902D02*
X017840Y007902D01*
X017840Y008020D02*
X017354Y008020D01*
X017354Y008257D02*
X017840Y008257D01*
X017840Y008376D02*
X017354Y008376D01*
X017332Y008494D02*
X017852Y008494D01*
X018433Y008494D02*
X018552Y008494D01*
X018552Y008376D02*
X018433Y008376D01*
X018433Y008020D02*
X018552Y008020D01*
X018552Y007902D02*
X018433Y007902D01*
X018433Y007783D02*
X018552Y007783D01*
X018552Y007665D02*
X018433Y007665D01*
X019145Y008376D02*
X021158Y008376D01*
X021158Y008494D02*
X019133Y008494D01*
X016979Y008494D02*
X016859Y008494D01*
X016859Y008376D02*
X016979Y008376D01*
X016279Y007072D02*
X016156Y007072D01*
X016156Y006954D02*
X016279Y006954D01*
X016306Y006835D02*
X016112Y006835D01*
X016098Y006717D02*
X016398Y006717D01*
X016398Y006598D02*
X016098Y006598D01*
X016098Y006480D02*
X016398Y006480D01*
X016398Y006361D02*
X016087Y006361D01*
X016064Y006243D02*
X016421Y006243D01*
X015621Y007428D02*
X012097Y007428D01*
X012097Y007451D02*
X012033Y007515D01*
X011202Y007515D01*
X011138Y007451D01*
X011138Y007140D01*
X011134Y007159D01*
X011109Y007238D01*
X011071Y007313D01*
X011022Y007380D01*
X010963Y007439D01*
X010895Y007488D01*
X010821Y007526D01*
X010742Y007552D01*
X010659Y007565D01*
X010658Y007565D01*
X010658Y007075D01*
X010577Y007075D01*
X010577Y006995D01*
X010088Y006995D01*
X010088Y006993D01*
X010101Y006911D01*
X010126Y006832D01*
X010164Y006757D01*
X010213Y006690D01*
X010272Y006631D01*
X010340Y006582D01*
X010414Y006544D01*
X010493Y006518D01*
X010576Y006505D01*
X010577Y006505D01*
X010577Y006995D01*
X010658Y006995D01*
X010658Y006505D01*
X010659Y006505D01*
X010742Y006518D01*
X010821Y006544D01*
X010895Y006582D01*
X010963Y006631D01*
X011022Y006690D01*
X011071Y006757D01*
X011109Y006832D01*
X011134Y006911D01*
X011138Y006930D01*
X011138Y006619D01*
X011202Y006555D01*
X011388Y006555D01*
X011388Y005086D01*
X011339Y005037D01*
X011339Y004158D01*
X011388Y004109D01*
X011388Y002827D01*
X011202Y002827D01*
X011138Y002763D01*
X011138Y001932D01*
X011202Y001868D01*
X012033Y001868D01*
X012097Y001932D01*
X012097Y002763D01*
X012033Y002827D01*
X011847Y002827D01*
X011847Y004094D01*
X012282Y004094D01*
X012346Y004158D01*
X012346Y005037D01*
X012282Y005101D01*
X011847Y005101D01*
X011847Y006555D01*
X012033Y006555D01*
X012097Y006619D01*
X012097Y006805D01*
X012661Y006805D01*
X012661Y006575D01*
X012725Y006511D01*
X013317Y006511D01*
X013381Y006575D01*
X013381Y007245D01*
X013317Y007309D01*
X014418Y007309D01*
X014354Y007245D01*
X014354Y006575D01*
X014418Y006511D01*
X014484Y006511D01*
X014484Y003595D01*
X014434Y003595D01*
X014370Y003531D01*
X014370Y002789D01*
X014434Y002725D01*
X014575Y002725D01*
X014575Y002315D01*
X014710Y002180D01*
X014960Y001930D01*
X014710Y002180D02*
X014710Y002180D01*
X014676Y002214D02*
X012097Y002214D01*
X012097Y002332D02*
X014575Y002332D01*
X014575Y002451D02*
X012097Y002451D01*
X012097Y002569D02*
X014575Y002569D01*
X014575Y002688D02*
X014122Y002688D01*
X014113Y002685D02*
X014154Y002696D01*
X014190Y002717D01*
X014220Y002747D01*
X014241Y002783D01*
X014252Y002824D01*
X014252Y002969D01*
X014254Y002974D01*
X014278Y003046D01*
X014290Y003122D01*
X014290Y003151D01*
X013876Y003151D01*
X013876Y003169D01*
X014290Y003169D01*
X014290Y003198D01*
X014278Y003274D01*
X014254Y003346D01*
X014252Y003351D01*
X014252Y003496D01*
X014241Y003537D01*
X014220Y003573D01*
X014190Y003603D01*
X014154Y003624D01*
X014113Y003635D01*
X013907Y003635D01*
X013843Y003645D01*
X013814Y003645D01*
X013814Y003220D01*
X013796Y003220D01*
X013796Y003645D01*
X013767Y003645D01*
X013703Y003635D01*
X013520Y003635D01*
X013479Y003624D01*
X013442Y003603D01*
X013413Y003573D01*
X013392Y003537D01*
X013381Y003496D01*
X013381Y003396D01*
X013356Y003346D01*
X013332Y003274D01*
X013320Y003198D01*
X013320Y003169D01*
X013756Y003169D01*
X013756Y003151D01*
X013320Y003151D01*
X013320Y003122D01*
X013332Y003046D01*
X013356Y002974D01*
X013381Y002924D01*
X013381Y002824D01*
X013392Y002783D01*
X013413Y002747D01*
X013442Y002717D01*
X013479Y002696D01*
X013520Y002685D01*
X013703Y002685D01*
X013767Y002675D01*
X013796Y002675D01*
X013796Y003100D01*
X013814Y003100D01*
X013814Y002675D01*
X013843Y002675D01*
X013907Y002685D01*
X014113Y002685D01*
X014247Y002806D02*
X014370Y002806D01*
X014370Y002925D02*
X014252Y002925D01*
X014277Y003043D02*
X014370Y003043D01*
X014370Y003162D02*
X013876Y003162D01*
X013756Y003162D02*
X011847Y003162D01*
X011847Y003280D02*
X013334Y003280D01*
X013381Y003399D02*
X011847Y003399D01*
X011847Y003517D02*
X013386Y003517D01*
X013707Y003636D02*
X011847Y003636D01*
X011847Y003754D02*
X014484Y003754D01*
X014484Y003636D02*
X013903Y003636D01*
X013814Y003636D02*
X013796Y003636D01*
X013796Y003517D02*
X013814Y003517D01*
X013814Y003399D02*
X013796Y003399D01*
X013796Y003280D02*
X013814Y003280D01*
X013796Y003043D02*
X013814Y003043D01*
X013814Y002925D02*
X013796Y002925D01*
X013796Y002806D02*
X013814Y002806D01*
X013814Y002688D02*
X013796Y002688D01*
X013510Y002688D02*
X012097Y002688D01*
X012055Y002806D02*
X013386Y002806D01*
X013381Y002925D02*
X011847Y002925D01*
X011847Y003043D02*
X013333Y003043D01*
X014276Y003280D02*
X014370Y003280D01*
X014370Y003399D02*
X014252Y003399D01*
X014246Y003517D02*
X014370Y003517D01*
X014484Y003873D02*
X011847Y003873D01*
X011847Y003991D02*
X014484Y003991D01*
X014484Y004110D02*
X012297Y004110D01*
X012346Y004228D02*
X014484Y004228D01*
X014484Y004347D02*
X012346Y004347D01*
X012346Y004465D02*
X014484Y004465D01*
X014484Y004584D02*
X012346Y004584D01*
X012346Y004702D02*
X014484Y004702D01*
X014484Y004821D02*
X012346Y004821D01*
X012346Y004939D02*
X014484Y004939D01*
X014484Y005058D02*
X012325Y005058D01*
X011847Y005176D02*
X014484Y005176D01*
X014484Y005295D02*
X011847Y005295D01*
X011847Y005413D02*
X014484Y005413D01*
X014484Y005532D02*
X011847Y005532D01*
X011847Y005650D02*
X014484Y005650D01*
X014484Y005769D02*
X011847Y005769D01*
X011847Y005887D02*
X014484Y005887D01*
X014484Y006006D02*
X011847Y006006D01*
X011847Y006124D02*
X014484Y006124D01*
X014484Y006243D02*
X011847Y006243D01*
X011847Y006361D02*
X014484Y006361D01*
X014484Y006480D02*
X011847Y006480D01*
X012076Y006598D02*
X012661Y006598D01*
X012661Y006717D02*
X012097Y006717D01*
X012097Y007265D02*
X012097Y007451D01*
X012097Y007309D02*
X012725Y007309D01*
X012681Y007265D01*
X012097Y007265D01*
X012725Y007309D02*
X013317Y007309D01*
X013381Y007191D02*
X014354Y007191D01*
X014354Y007072D02*
X013381Y007072D01*
X013381Y006954D02*
X014354Y006954D01*
X014354Y006835D02*
X013381Y006835D01*
X013381Y006717D02*
X014354Y006717D01*
X014354Y006598D02*
X013381Y006598D01*
X014418Y007309D02*
X015010Y007309D01*
X015431Y007783D02*
X007652Y007783D01*
X007652Y007665D02*
X015658Y007665D01*
X015658Y007546D02*
X010760Y007546D01*
X010658Y007546D02*
X010577Y007546D01*
X010577Y007565D02*
X010576Y007565D01*
X010493Y007552D01*
X010414Y007526D01*
X010340Y007488D01*
X010272Y007439D01*
X010213Y007380D01*
X010164Y007313D01*
X010126Y007238D01*
X010101Y007159D01*
X010088Y007077D01*
X010088Y007075D01*
X010577Y007075D01*
X010577Y007565D01*
X010475Y007546D02*
X007605Y007546D01*
X007302Y007546D02*
X007183Y007546D01*
X007183Y007665D02*
X007302Y007665D01*
X007261Y007783D02*
X007224Y007783D01*
X007224Y007970D02*
X007261Y007970D01*
X007261Y008029D01*
X007224Y008029D01*
X007224Y007970D01*
X007224Y008020D02*
X007261Y008020D01*
X007560Y007902D02*
X015431Y007902D01*
X015431Y008020D02*
X007652Y008020D01*
X007015Y007428D02*
X010260Y007428D01*
X010162Y007309D02*
X007015Y007309D01*
X007015Y007191D02*
X010111Y007191D01*
X010094Y006954D02*
X007015Y006954D01*
X007015Y007072D02*
X010577Y007072D01*
X010577Y006954D02*
X010658Y006954D01*
X010658Y006835D02*
X010577Y006835D01*
X010577Y006717D02*
X010658Y006717D01*
X010658Y006598D02*
X010577Y006598D01*
X010317Y006598D02*
X007015Y006598D01*
X007015Y006480D02*
X011388Y006480D01*
X011388Y006361D02*
X008761Y006361D01*
X008799Y006323D02*
X008718Y006404D01*
X008612Y006448D01*
X008498Y006448D01*
X008392Y006404D01*
X008311Y006323D01*
X008267Y006217D01*
X008267Y006103D01*
X008311Y005997D01*
X008325Y005983D01*
X008325Y005630D01*
X008259Y005630D01*
X008241Y005648D01*
X008205Y005669D01*
X008164Y005680D01*
X007916Y005680D01*
X007916Y005352D01*
X007819Y005352D01*
X007819Y005255D01*
X007916Y005255D01*
X007916Y004927D01*
X008164Y004927D01*
X008205Y004938D01*
X008241Y004959D01*
X008259Y004977D01*
X008876Y004977D01*
X008941Y005042D01*
X008941Y005566D01*
X008876Y005630D01*
X008785Y005630D01*
X008785Y005983D01*
X008799Y005997D01*
X008843Y006103D01*
X008843Y006217D01*
X008799Y006323D01*
X008833Y006243D02*
X011388Y006243D01*
X011388Y006124D02*
X008843Y006124D01*
X008803Y006006D02*
X011388Y006006D01*
X011388Y005887D02*
X008785Y005887D01*
X008785Y005769D02*
X011388Y005769D01*
X011388Y005650D02*
X008785Y005650D01*
X008941Y005532D02*
X011388Y005532D01*
X011388Y005413D02*
X008941Y005413D01*
X008941Y005295D02*
X011388Y005295D01*
X011388Y005176D02*
X008941Y005176D01*
X008941Y005058D02*
X009785Y005058D01*
X009764Y005037D02*
X009764Y004158D01*
X009828Y004094D01*
X010038Y004094D01*
X010038Y003390D01*
X009124Y003390D01*
X009124Y003402D01*
X009059Y003467D01*
X008417Y003467D01*
X008352Y003402D01*
X008352Y002918D01*
X008417Y002853D01*
X009059Y002853D01*
X009124Y002918D01*
X009124Y002930D01*
X010038Y002930D01*
X010038Y002602D01*
X010155Y002485D01*
X010138Y002443D01*
X010138Y002252D01*
X010211Y002076D01*
X010346Y001941D01*
X010522Y001868D01*
X010713Y001868D01*
X010889Y001941D01*
X011024Y002076D01*
X011097Y002252D01*
X011097Y002443D01*
X011024Y002619D01*
X010889Y002754D01*
X010713Y002827D01*
X010522Y002827D01*
X010498Y002817D01*
X010498Y004094D01*
X010707Y004094D01*
X010771Y004158D01*
X010771Y005037D01*
X010707Y005101D01*
X009828Y005101D01*
X009764Y005037D01*
X009764Y004939D02*
X008206Y004939D01*
X008189Y004843D02*
X007546Y004843D01*
X007482Y004778D01*
X007482Y004254D01*
X007546Y004190D01*
X007638Y004190D01*
X007638Y003841D01*
X007551Y003841D01*
X007486Y003776D01*
X007486Y003292D01*
X007551Y003227D01*
X008193Y003227D01*
X008258Y003292D01*
X008258Y003776D01*
X008193Y003841D01*
X008097Y003841D01*
X008097Y004190D01*
X008098Y004190D01*
X008189Y004190D01*
X008211Y004212D01*
X008234Y004190D01*
X008876Y004190D01*
X008941Y004254D01*
X008941Y004778D01*
X008876Y004843D01*
X008234Y004843D01*
X008211Y004820D01*
X008189Y004843D01*
X008211Y004821D02*
X008212Y004821D01*
X007916Y004939D02*
X007819Y004939D01*
X007819Y004927D02*
X007571Y004927D01*
X007530Y004938D01*
X007494Y004959D01*
X007464Y004989D01*
X007443Y005025D01*
X007432Y005066D01*
X007432Y005255D01*
X007819Y005255D01*
X007819Y004927D01*
X007819Y005058D02*
X007916Y005058D01*
X007916Y005176D02*
X007819Y005176D01*
X007819Y005295D02*
X007015Y005295D01*
X007015Y005413D02*
X007432Y005413D01*
X007432Y005352D02*
X007432Y005541D01*
X007443Y005582D01*
X007464Y005618D01*
X007494Y005648D01*
X007530Y005669D01*
X007571Y005680D01*
X007819Y005680D01*
X007819Y005352D01*
X007432Y005352D01*
X007432Y005176D02*
X007015Y005176D01*
X007015Y005058D02*
X007434Y005058D01*
X007529Y004939D02*
X007015Y004939D01*
X007015Y004821D02*
X007524Y004821D01*
X007482Y004702D02*
X007015Y004702D01*
X007015Y004584D02*
X007482Y004584D01*
X007482Y004465D02*
X007015Y004465D01*
X007015Y004347D02*
X007482Y004347D01*
X007508Y004228D02*
X007015Y004228D01*
X007015Y004110D02*
X007638Y004110D01*
X007638Y003991D02*
X007015Y003991D01*
X007015Y003873D02*
X007638Y003873D01*
X007486Y003754D02*
X007008Y003754D01*
X007486Y003636D02*
X002202Y003636D01*
X002202Y003517D02*
X007486Y003517D01*
X007486Y003399D02*
X002202Y003399D01*
X002202Y003280D02*
X007498Y003280D01*
X007535Y003132D02*
X007498Y003111D01*
X007468Y003081D01*
X007447Y003045D01*
X007436Y003004D01*
X007436Y002824D01*
X007833Y002824D01*
X007833Y002748D01*
X007436Y002748D01*
X007436Y002568D01*
X007447Y002527D01*
X007468Y002491D01*
X007498Y002461D01*
X007535Y002440D01*
X007575Y002429D01*
X007834Y002429D01*
X007834Y002748D01*
X007910Y002748D01*
X007910Y002429D01*
X008169Y002429D01*
X008209Y002440D01*
X008246Y002461D01*
X008276Y002491D01*
X008297Y002527D01*
X008308Y002568D01*
X008308Y002748D01*
X007910Y002748D01*
X007910Y002824D01*
X007834Y002824D01*
X007834Y003143D01*
X007575Y003143D01*
X007535Y003132D01*
X007447Y003043D02*
X003339Y003043D01*
X003625Y002925D02*
X007436Y002925D01*
X007436Y002688D02*
X003864Y002688D01*
X003923Y002569D02*
X007436Y002569D01*
X007516Y002451D02*
X003972Y002451D01*
X004018Y002332D02*
X010138Y002332D01*
X010141Y002451D02*
X008227Y002451D01*
X008308Y002569D02*
X010071Y002569D01*
X010038Y002688D02*
X008308Y002688D01*
X008308Y002824D02*
X008308Y003004D01*
X008297Y003045D01*
X008276Y003081D01*
X008246Y003111D01*
X008209Y003132D01*
X008169Y003143D01*
X007910Y003143D01*
X007910Y002824D01*
X008308Y002824D01*
X008308Y002925D02*
X008352Y002925D01*
X008352Y003043D02*
X008297Y003043D01*
X008352Y003162D02*
X002202Y003162D01*
X002202Y003043D02*
X002896Y003043D01*
X002610Y002925D02*
X002202Y002925D01*
X002202Y002806D02*
X002490Y002806D01*
X002371Y002688D02*
X002202Y002688D01*
X002202Y002569D02*
X002312Y002569D01*
X002263Y002451D02*
X002202Y002451D01*
X002202Y002332D02*
X002217Y002332D01*
X002202Y002214D02*
X002217Y002214D01*
X002202Y002095D02*
X002217Y002095D01*
X002202Y001977D02*
X002219Y001977D01*
X002202Y001858D02*
X002268Y001858D01*
X002317Y001740D02*
X002202Y001740D01*
X002202Y001621D02*
X002383Y001621D01*
X002501Y001503D02*
X002202Y001503D01*
X002202Y001384D02*
X002638Y001384D01*
X002924Y001266D02*
X002202Y001266D01*
X003745Y002806D02*
X007833Y002806D01*
X007910Y002806D02*
X010038Y002806D01*
X010038Y002925D02*
X009124Y002925D01*
X009124Y003399D02*
X010038Y003399D01*
X010038Y003517D02*
X008258Y003517D01*
X008258Y003399D02*
X008352Y003399D01*
X008352Y003280D02*
X008246Y003280D01*
X008258Y003636D02*
X010038Y003636D01*
X010038Y003754D02*
X008258Y003754D01*
X008097Y003873D02*
X010038Y003873D01*
X010038Y003991D02*
X008097Y003991D01*
X008097Y004110D02*
X009813Y004110D01*
X009764Y004228D02*
X008914Y004228D01*
X008941Y004347D02*
X009764Y004347D01*
X009764Y004465D02*
X008941Y004465D01*
X008941Y004584D02*
X009764Y004584D01*
X009764Y004702D02*
X008941Y004702D01*
X008898Y004821D02*
X009764Y004821D01*
X010498Y003991D02*
X011388Y003991D01*
X011388Y003873D02*
X010498Y003873D01*
X010498Y003754D02*
X011388Y003754D01*
X011388Y003636D02*
X010498Y003636D01*
X010498Y003517D02*
X011388Y003517D01*
X011388Y003399D02*
X010498Y003399D01*
X010498Y003280D02*
X011388Y003280D01*
X011388Y003162D02*
X010498Y003162D01*
X010498Y003043D02*
X011388Y003043D01*
X011388Y002925D02*
X010498Y002925D01*
X010765Y002806D02*
X011180Y002806D01*
X011138Y002688D02*
X010956Y002688D01*
X011045Y002569D02*
X011138Y002569D01*
X011138Y002451D02*
X011094Y002451D01*
X011097Y002332D02*
X011138Y002332D01*
X011138Y002214D02*
X011082Y002214D01*
X011032Y002095D02*
X011138Y002095D01*
X011138Y001977D02*
X010925Y001977D01*
X010310Y001977D02*
X004016Y001977D01*
X004018Y002095D02*
X010203Y002095D01*
X010153Y002214D02*
X004018Y002214D01*
X007015Y005532D02*
X007432Y005532D01*
X007497Y005650D02*
X007015Y005650D01*
X007015Y005769D02*
X008325Y005769D01*
X008325Y005887D02*
X007015Y005887D01*
X007015Y006006D02*
X008307Y006006D01*
X008267Y006124D02*
X007015Y006124D01*
X007015Y006243D02*
X008277Y006243D01*
X008349Y006361D02*
X007015Y006361D01*
X007015Y006717D02*
X010194Y006717D01*
X010125Y006835D02*
X007015Y006835D01*
X007819Y005650D02*
X007916Y005650D01*
X007916Y005532D02*
X007819Y005532D01*
X007819Y005413D02*
X007916Y005413D01*
X008238Y005650D02*
X008325Y005650D01*
X010577Y007191D02*
X010658Y007191D01*
X010658Y007309D02*
X010577Y007309D01*
X010577Y007428D02*
X010658Y007428D01*
X010975Y007428D02*
X011138Y007428D01*
X011138Y007309D02*
X011073Y007309D01*
X011124Y007191D02*
X011138Y007191D01*
X011138Y006835D02*
X011110Y006835D01*
X011138Y006717D02*
X011041Y006717D01*
X011159Y006598D02*
X010918Y006598D01*
X010751Y005058D02*
X011359Y005058D01*
X011339Y004939D02*
X010771Y004939D01*
X010771Y004821D02*
X011339Y004821D01*
X011339Y004702D02*
X010771Y004702D01*
X010771Y004584D02*
X011339Y004584D01*
X011339Y004465D02*
X010771Y004465D01*
X010771Y004347D02*
X011339Y004347D01*
X011339Y004228D02*
X010771Y004228D01*
X010723Y004110D02*
X011387Y004110D01*
X007910Y003043D02*
X007834Y003043D01*
X007834Y002925D02*
X007910Y002925D01*
X007910Y002688D02*
X007834Y002688D01*
X007834Y002569D02*
X007910Y002569D01*
X007910Y002451D02*
X007834Y002451D01*
X017246Y012168D02*
X021158Y012168D01*
X021158Y012286D02*
X018609Y012286D01*
X018727Y012405D02*
X021158Y012405D01*
X021158Y012523D02*
X018846Y012523D01*
X018912Y012642D02*
X021158Y012642D01*
X021158Y012760D02*
X018912Y012760D01*
X018912Y012879D02*
X021158Y012879D01*
X021158Y012997D02*
X018912Y012997D01*
X018912Y013116D02*
X021158Y013116D01*
X021158Y013234D02*
X018912Y013234D01*
X018912Y013353D02*
X021158Y013353D01*
X021158Y013471D02*
X018912Y013471D01*
X018912Y013590D02*
X021158Y013590D01*
X021158Y013708D02*
X018912Y013708D01*
X018912Y013827D02*
X021158Y013827D01*
X021158Y013945D02*
X018912Y013945D01*
X018912Y014064D02*
X021158Y014064D01*
X021158Y014182D02*
X018912Y014182D01*
X018912Y014301D02*
X021158Y014301D01*
X021158Y014419D02*
X018912Y014419D01*
X018912Y014538D02*
X021158Y014538D01*
X021158Y014656D02*
X018912Y014656D01*
X018912Y014775D02*
X021158Y014775D01*
X021158Y014893D02*
X018912Y014893D01*
X018912Y015012D02*
X021158Y015012D01*
X021158Y015130D02*
X018912Y015130D01*
X018912Y015249D02*
X021158Y015249D01*
X021158Y015367D02*
X018912Y015367D01*
X018912Y015486D02*
X021158Y015486D01*
X021158Y015604D02*
X018912Y015604D01*
X018912Y015723D02*
X021158Y015723D01*
X021158Y015841D02*
X018912Y015841D01*
X018912Y015960D02*
X021158Y015960D01*
X021158Y016078D02*
X018912Y016078D01*
X018573Y014893D02*
X018269Y014893D01*
X018335Y014775D02*
X018573Y014775D01*
X018573Y014656D02*
X018352Y014656D01*
X018331Y014538D02*
X018573Y014538D01*
X018573Y014419D02*
X018261Y014419D01*
X018065Y014301D02*
X018573Y014301D01*
X018573Y014182D02*
X017942Y014182D01*
X017824Y014064D02*
X018573Y014064D01*
X017993Y014473D02*
X017993Y014660D01*
X017993Y014473D02*
X017680Y014160D01*
X016698Y014160D01*
X016564Y014294D01*
X016430Y014160D01*
X012930Y014160D01*
X012930Y015660D01*
X012890Y015700D01*
X012890Y015660D01*
X012868Y015745D01*
X012868Y016035D01*
X014493Y015723D02*
X014710Y015723D01*
X016564Y014684D02*
X016564Y014294D01*
X017222Y014419D02*
X017699Y014419D01*
X017654Y014538D02*
X017246Y014538D01*
X017246Y014656D02*
X017633Y014656D01*
X017650Y014775D02*
X017246Y014775D01*
X017246Y014893D02*
X017716Y014893D01*
X017952Y017619D02*
X018033Y017619D01*
X018033Y017737D02*
X017952Y017737D01*
X017952Y017856D02*
X018033Y017856D01*
X018033Y017974D02*
X017952Y017974D01*
X018416Y018804D02*
X018546Y018804D01*
X018388Y019752D02*
X021158Y019752D01*
X021158Y019870D02*
X018444Y019870D01*
X018472Y019989D02*
X021158Y019989D01*
X021158Y020107D02*
X018472Y020107D01*
X018433Y020226D02*
X021158Y020226D01*
X021158Y020344D02*
X018362Y020344D01*
X012930Y014160D02*
X012930Y013910D01*
X012743Y013723D01*
X009703Y013723D01*
X009055Y013723D01*
X009703Y014723D02*
X010555Y014723D01*
X011118Y015660D02*
X010805Y015973D01*
D45*
X010920Y016126D02*
X012688Y016126D01*
X012688Y016124D02*
X012678Y016114D01*
X012678Y016007D01*
X012639Y016007D01*
X012563Y015930D01*
X012563Y015390D01*
X012639Y015313D01*
X012740Y015313D01*
X012740Y014633D01*
X012641Y014592D01*
X012498Y014449D01*
X012420Y014261D01*
X012420Y014059D01*
X012480Y013912D01*
X012243Y013912D01*
X012316Y013985D01*
X012363Y014099D01*
X012363Y014221D01*
X012316Y014335D01*
X012230Y014421D01*
X012116Y014468D01*
X011994Y014468D01*
X011880Y014421D01*
X011799Y014340D01*
X011464Y014340D01*
X011464Y014451D01*
X011388Y014527D01*
X010847Y014527D01*
X010771Y014451D01*
X010771Y014402D01*
X010232Y014402D01*
X010232Y014406D01*
X010166Y014473D01*
X010226Y014533D01*
X010309Y014533D01*
X010380Y014461D01*
X010494Y014414D01*
X010616Y014414D01*
X010730Y014461D01*
X010816Y014548D01*
X010824Y014566D01*
X010847Y014543D01*
X011388Y014543D01*
X011464Y014619D01*
X011464Y015120D01*
X011388Y015196D01*
X011327Y015196D01*
X011327Y015434D01*
X011343Y015450D01*
X011894Y015450D01*
X011894Y015390D01*
X011970Y015313D01*
X012471Y015313D01*
X012547Y015390D01*
X012547Y015930D01*
X012471Y016007D01*
X011970Y016007D01*
X011894Y015930D01*
X011894Y015870D01*
X011343Y015870D01*
X011292Y015921D01*
X011179Y015968D01*
X011078Y015968D01*
X010995Y016051D01*
X010884Y016162D01*
X007363Y016162D01*
X007363Y016171D01*
X007492Y016301D01*
X007492Y016400D01*
X007736Y016400D01*
X007812Y016476D01*
X007812Y016844D01*
X007746Y016910D01*
X007812Y016976D01*
X007812Y017344D01*
X007746Y017410D01*
X007812Y017476D01*
X007812Y017844D01*
X007779Y017878D01*
X007793Y017886D01*
X007827Y017919D01*
X007850Y017961D01*
X007862Y018006D01*
X007862Y018160D01*
X007862Y018314D01*
X007850Y018359D01*
X007827Y018401D01*
X007793Y018434D01*
X007752Y018458D01*
X007706Y018470D01*
X007283Y018470D01*
X007283Y018160D01*
X007862Y018160D01*
X007283Y018160D01*
X007283Y018160D01*
X007282Y018160D01*
X006703Y018160D01*
X006703Y018006D01*
X006715Y017961D01*
X006738Y017919D01*
X006772Y017886D01*
X006786Y017878D01*
X006779Y017870D01*
X006704Y017870D01*
X006702Y017872D01*
X006702Y018309D01*
X006577Y018434D01*
X006454Y018557D01*
X006031Y018557D01*
X005980Y018609D01*
X005866Y018656D01*
X005744Y018656D01*
X005630Y018609D01*
X005544Y018522D01*
X005497Y018409D01*
X005497Y018286D01*
X005544Y018173D01*
X005630Y018086D01*
X005744Y018039D01*
X005866Y018039D01*
X005980Y018086D01*
X006031Y018138D01*
X006281Y018138D01*
X006283Y018136D01*
X006283Y017698D01*
X006406Y017575D01*
X006531Y017450D01*
X006779Y017450D01*
X006819Y017410D01*
X006779Y017370D01*
X006531Y017370D01*
X006441Y017281D01*
X006369Y017281D01*
X006255Y017234D01*
X006169Y017147D01*
X006122Y017034D01*
X006122Y016911D01*
X006169Y016798D01*
X006255Y016711D01*
X006369Y016664D01*
X006491Y016664D01*
X006605Y016711D01*
X006691Y016798D01*
X006738Y016911D01*
X006738Y016950D01*
X006779Y016950D01*
X006819Y016910D01*
X006753Y016844D01*
X006753Y016476D01*
X006829Y016400D01*
X006859Y016400D01*
X006794Y016335D01*
X006747Y016221D01*
X006747Y016099D01*
X006794Y015985D01*
X006880Y015899D01*
X006994Y015852D01*
X007094Y015852D01*
X007164Y015783D01*
X010726Y015783D01*
X010809Y015699D01*
X010809Y015599D01*
X010856Y015485D01*
X010908Y015434D01*
X010908Y015196D01*
X010847Y015196D01*
X010771Y015120D01*
X010771Y014942D01*
X010730Y014984D01*
X010616Y015031D01*
X010494Y015031D01*
X010380Y014984D01*
X010309Y014912D01*
X010226Y014912D01*
X010166Y014973D01*
X010232Y015039D01*
X010232Y015406D01*
X010156Y015482D01*
X009249Y015482D01*
X009173Y015406D01*
X009173Y015039D01*
X009239Y014973D01*
X009173Y014906D01*
X009173Y014539D01*
X009239Y014473D01*
X009173Y014406D01*
X009173Y014039D01*
X009239Y013973D01*
X009179Y013912D01*
X008976Y013912D01*
X008865Y013801D01*
X008740Y013676D01*
X008740Y009831D01*
X008851Y009720D01*
X008851Y009720D01*
X008865Y009706D01*
X008976Y009595D01*
X009241Y009595D01*
X009299Y009537D01*
X008696Y009537D01*
X008259Y009975D01*
X007869Y009975D01*
X007809Y010035D01*
X007875Y010101D01*
X007875Y010469D01*
X007809Y010535D01*
X007875Y010601D01*
X007875Y010969D01*
X007841Y011003D01*
X007856Y011011D01*
X007889Y011044D01*
X007913Y011086D01*
X007925Y011131D01*
X007925Y011285D01*
X007925Y011439D01*
X007913Y011484D01*
X007889Y011526D01*
X007856Y011559D01*
X007814Y011583D01*
X007769Y011595D01*
X007345Y011595D01*
X007345Y011285D01*
X007345Y011285D01*
X007925Y011285D01*
X007345Y011285D01*
X007345Y011285D01*
X007345Y011285D01*
X006765Y011285D01*
X006765Y011439D01*
X006777Y011484D01*
X006801Y011526D01*
X006834Y011559D01*
X006876Y011583D01*
X006921Y011595D01*
X007345Y011595D01*
X007345Y011285D01*
X006765Y011285D01*
X006765Y011131D01*
X006777Y011086D01*
X006801Y011044D01*
X006834Y011011D01*
X006849Y011003D01*
X006841Y010995D01*
X006642Y010995D01*
X006329Y011307D01*
X006031Y011307D01*
X005980Y011359D01*
X005866Y011406D01*
X005744Y011406D01*
X005630Y011359D01*
X005544Y011272D01*
X005497Y011159D01*
X005497Y011036D01*
X005544Y010923D01*
X005630Y010836D01*
X005744Y010789D01*
X005866Y010789D01*
X005980Y010836D01*
X006031Y010888D01*
X006156Y010888D01*
X006345Y010698D01*
X006468Y010575D01*
X006841Y010575D01*
X006881Y010535D01*
X006841Y010495D01*
X006406Y010495D01*
X006218Y010307D01*
X006095Y010184D01*
X006095Y010136D01*
X006044Y010085D01*
X005997Y009971D01*
X005997Y009849D01*
X006044Y009735D01*
X006130Y009649D01*
X006244Y009602D01*
X006366Y009602D01*
X006480Y009649D01*
X006566Y009735D01*
X006613Y009849D01*
X006613Y009971D01*
X006573Y010068D01*
X006579Y010075D01*
X006841Y010075D01*
X006881Y010035D01*
X006815Y009969D01*
X006815Y009601D01*
X006891Y009525D01*
X007799Y009525D01*
X007869Y009595D01*
X008101Y009595D01*
X008428Y009269D01*
X008539Y009158D01*
X010884Y009158D01*
X010999Y009273D01*
X011041Y009311D01*
X011388Y009311D01*
X011464Y009387D01*
X011464Y009428D01*
X011807Y009428D01*
X012329Y009950D01*
X012465Y009950D01*
X012498Y009871D01*
X012641Y009728D01*
X012804Y009660D01*
X012641Y009592D01*
X012498Y009449D01*
X012420Y009261D01*
X012420Y009059D01*
X012498Y008871D01*
X012641Y008728D01*
X012829Y008650D01*
X013031Y008650D01*
X013219Y008728D01*
X013362Y008871D01*
X013440Y009059D01*
X013440Y009261D01*
X013362Y009449D01*
X013219Y009592D01*
X013056Y009660D01*
X013219Y009728D01*
X013362Y009871D01*
X013378Y009910D01*
X013674Y009910D01*
X013711Y009873D01*
X013993Y009873D01*
X013993Y008535D01*
X007622Y008535D01*
X007637Y008549D01*
X007660Y008591D01*
X007672Y008636D01*
X007672Y008865D01*
X007576Y008865D01*
X007568Y008894D01*
X007544Y008935D01*
X007524Y008955D01*
X007672Y008955D01*
X007672Y009184D01*
X007660Y009229D01*
X007637Y009271D01*
X007603Y009304D01*
X007562Y009328D01*
X007516Y009340D01*
X007288Y009340D01*
X007288Y009005D01*
X007243Y009005D01*
X007243Y008955D01*
X007242Y008955D01*
X007242Y009005D01*
X007197Y009005D01*
X007197Y009340D01*
X006969Y009340D01*
X006923Y009328D01*
X006882Y009304D01*
X006848Y009271D01*
X006825Y009229D01*
X006813Y009184D01*
X006813Y008955D01*
X006961Y008955D01*
X006941Y008935D01*
X006917Y008894D01*
X006909Y008865D01*
X006813Y008865D01*
X006813Y008636D01*
X006825Y008591D01*
X006848Y008549D01*
X006863Y008535D01*
X002222Y008535D01*
X002222Y022410D01*
X005118Y022410D01*
X005118Y024285D01*
X013993Y024285D01*
X013993Y020352D01*
X013942Y020402D01*
X013390Y020402D01*
X013409Y020429D01*
X013449Y020508D01*
X013476Y020591D01*
X013490Y020678D01*
X013490Y020704D01*
X012948Y020704D01*
X012948Y020741D01*
X013490Y020741D01*
X013490Y020767D01*
X013476Y020854D01*
X013449Y020937D01*
X013409Y021016D01*
X013357Y021087D01*
X013295Y021150D01*
X013224Y021201D01*
X013145Y021241D01*
X013121Y021249D01*
X013219Y021290D01*
X013362Y021434D01*
X013440Y021621D01*
X013440Y021824D01*
X013362Y022011D01*
X013219Y022155D01*
X013056Y022222D01*
X013219Y022290D01*
X013362Y022434D01*
X013440Y022621D01*
X013440Y022824D01*
X013362Y023011D01*
X013219Y023155D01*
X013056Y023222D01*
X013219Y023290D01*
X013362Y023434D01*
X013440Y023621D01*
X013440Y023824D01*
X013362Y024011D01*
X013219Y024155D01*
X013031Y024232D01*
X012829Y024232D01*
X012641Y024155D01*
X012498Y024011D01*
X012457Y023912D01*
X008789Y023912D01*
X008678Y023801D01*
X008553Y023676D01*
X008553Y021081D01*
X008664Y020970D01*
X008678Y020956D01*
X008678Y016769D01*
X008865Y016581D01*
X008976Y016470D01*
X009179Y016470D01*
X009249Y016400D01*
X010156Y016400D01*
X010232Y016476D01*
X010232Y016480D01*
X012688Y016480D01*
X012688Y016124D01*
X012688Y016285D02*
X007477Y016285D01*
X007283Y016388D02*
X007055Y016160D01*
X006773Y016285D02*
X003993Y016285D01*
X004030Y016322D02*
X004115Y016527D01*
X004115Y016750D01*
X004030Y016956D01*
X003872Y017114D01*
X003666Y017199D01*
X003444Y017199D01*
X003238Y017114D01*
X003080Y016956D01*
X002995Y016750D01*
X002995Y016527D01*
X003080Y016322D01*
X003238Y016164D01*
X003444Y016079D01*
X003666Y016079D01*
X003872Y016164D01*
X004030Y016322D01*
X004080Y016443D02*
X006786Y016443D01*
X006753Y016602D02*
X004115Y016602D01*
X004111Y016760D02*
X006207Y016760D01*
X006122Y016919D02*
X004045Y016919D01*
X003909Y017077D02*
X006140Y017077D01*
X006260Y017236D02*
X002222Y017236D01*
X002222Y017394D02*
X006803Y017394D01*
X006618Y017160D02*
X006430Y016973D01*
X006618Y017160D02*
X007283Y017160D01*
X007283Y016660D02*
X007283Y016388D01*
X007779Y016443D02*
X009206Y016443D01*
X009179Y016850D02*
X009134Y016850D01*
X009057Y016926D01*
X009057Y018954D01*
X009086Y018938D01*
X009132Y018925D01*
X009411Y018925D01*
X009411Y019517D01*
X009571Y019517D01*
X009571Y019518D02*
X009571Y019677D01*
X010005Y019677D01*
X010005Y020113D01*
X009993Y020159D01*
X009969Y020200D01*
X009936Y020234D01*
X009895Y020257D01*
X009849Y020270D01*
X009571Y020270D01*
X009571Y019678D01*
X009411Y019678D01*
X009411Y020270D01*
X009132Y020270D01*
X009086Y020257D01*
X009057Y020241D01*
X009057Y020831D01*
X009071Y020845D01*
X009116Y020845D01*
X009186Y020775D01*
X010094Y020775D01*
X010170Y020851D01*
X010170Y021219D01*
X010104Y021285D01*
X010170Y021351D01*
X010170Y021355D01*
X011250Y021355D01*
X011250Y020821D01*
X011160Y020821D01*
X011083Y020745D01*
X011083Y020244D01*
X011160Y020168D01*
X011700Y020168D01*
X011777Y020244D01*
X011777Y020480D01*
X011855Y020480D01*
X011875Y020460D01*
X011875Y020210D01*
X012043Y020043D01*
X012529Y020043D01*
X012498Y020011D01*
X012465Y019932D01*
X011777Y019932D01*
X011777Y020076D01*
X011700Y020152D01*
X011160Y020152D01*
X011083Y020076D01*
X011083Y019575D01*
X011160Y019499D01*
X011220Y019499D01*
X011220Y018259D01*
X011160Y018259D01*
X011083Y018183D01*
X011083Y017681D01*
X011160Y017605D01*
X011700Y017605D01*
X011777Y017681D01*
X011777Y018183D01*
X011700Y018259D01*
X011640Y018259D01*
X011640Y019499D01*
X011700Y019499D01*
X011714Y019513D01*
X012465Y019513D01*
X012498Y019434D01*
X012641Y019290D01*
X012804Y019222D01*
X012641Y019155D01*
X012498Y019011D01*
X012420Y018824D01*
X012420Y018621D01*
X012498Y018434D01*
X012641Y018290D01*
X012829Y018213D01*
X013031Y018213D01*
X013219Y018290D01*
X013362Y018434D01*
X013375Y018464D01*
X013375Y017443D01*
X011777Y017443D01*
X011777Y017514D01*
X011700Y017590D01*
X011160Y017590D01*
X011083Y017514D01*
X011083Y017340D01*
X010232Y017340D01*
X010232Y017344D01*
X010166Y017410D01*
X010226Y017470D01*
X010309Y017470D01*
X010380Y017399D01*
X010494Y017352D01*
X010616Y017352D01*
X010730Y017399D01*
X010816Y017485D01*
X010863Y017599D01*
X010863Y017721D01*
X010816Y017835D01*
X010730Y017921D01*
X010616Y017968D01*
X010494Y017968D01*
X010380Y017921D01*
X010309Y017850D01*
X010226Y017850D01*
X010166Y017910D01*
X010232Y017976D01*
X010232Y018344D01*
X010156Y018420D01*
X009249Y018420D01*
X009173Y018344D01*
X009173Y017976D01*
X009239Y017910D01*
X009173Y017844D01*
X009173Y017476D01*
X009239Y017410D01*
X009173Y017344D01*
X009173Y016976D01*
X009239Y016910D01*
X009179Y016850D01*
X009230Y016919D02*
X009065Y016919D01*
X009057Y017077D02*
X009173Y017077D01*
X009173Y017236D02*
X009057Y017236D01*
X009057Y017394D02*
X009223Y017394D01*
X009173Y017553D02*
X009057Y017553D01*
X009057Y017711D02*
X009173Y017711D01*
X009198Y017870D02*
X009057Y017870D01*
X009057Y018028D02*
X009173Y018028D01*
X009173Y018187D02*
X009057Y018187D01*
X009057Y018345D02*
X009174Y018345D01*
X009057Y018504D02*
X011220Y018504D01*
X011220Y018662D02*
X009057Y018662D01*
X009057Y018821D02*
X011220Y018821D01*
X011220Y018979D02*
X009953Y018979D01*
X009969Y018995D02*
X009993Y019036D01*
X010005Y019082D01*
X010005Y019518D01*
X009571Y019518D01*
X009571Y019517D02*
X009571Y018925D01*
X009849Y018925D01*
X009895Y018938D01*
X009936Y018961D01*
X009969Y018995D01*
X010005Y019138D02*
X011220Y019138D01*
X011220Y019296D02*
X010005Y019296D01*
X010005Y019455D02*
X011220Y019455D01*
X011083Y019613D02*
X009571Y019613D01*
X009571Y019455D02*
X009411Y019455D01*
X009411Y019296D02*
X009571Y019296D01*
X009571Y019138D02*
X009411Y019138D01*
X009411Y018979D02*
X009571Y018979D01*
X009571Y019772D02*
X009411Y019772D01*
X009411Y019930D02*
X009571Y019930D01*
X009571Y020089D02*
X009411Y020089D01*
X009411Y020247D02*
X009571Y020247D01*
X009913Y020247D02*
X011083Y020247D01*
X011083Y020406D02*
X009057Y020406D01*
X009057Y020564D02*
X011083Y020564D01*
X011083Y020723D02*
X009057Y020723D01*
X009057Y020247D02*
X009069Y020247D01*
X008678Y020247D02*
X007430Y020247D01*
X007430Y020349D02*
X007441Y020360D01*
X007488Y020474D01*
X007488Y020596D01*
X007441Y020710D01*
X007390Y020761D01*
X007390Y020775D01*
X007674Y020775D01*
X007750Y020851D01*
X007750Y021219D01*
X007684Y021285D01*
X007750Y021351D01*
X007750Y021719D01*
X007684Y021785D01*
X007750Y021851D01*
X007750Y022219D01*
X007716Y022253D01*
X007731Y022261D01*
X007764Y022294D01*
X007788Y022336D01*
X007800Y022381D01*
X007800Y022535D01*
X007800Y022689D01*
X007788Y022734D01*
X007764Y022776D01*
X007731Y022809D01*
X007689Y022833D01*
X007644Y022845D01*
X007220Y022845D01*
X007220Y022535D01*
X007220Y022535D01*
X007800Y022535D01*
X007220Y022535D01*
X007220Y022535D01*
X007220Y022535D01*
X006640Y022535D01*
X006640Y022689D01*
X006652Y022734D01*
X006676Y022776D01*
X006709Y022809D01*
X006751Y022833D01*
X006796Y022845D01*
X007220Y022845D01*
X007220Y022535D01*
X006640Y022535D01*
X006640Y022381D01*
X006652Y022336D01*
X006676Y022294D01*
X006709Y022261D01*
X006724Y022253D01*
X006716Y022245D01*
X006156Y022245D01*
X006105Y022296D01*
X005991Y022343D01*
X005869Y022343D01*
X005755Y022296D01*
X005669Y022210D01*
X005622Y022096D01*
X005622Y021974D01*
X005669Y021860D01*
X005755Y021774D01*
X005869Y021727D01*
X005991Y021727D01*
X006105Y021774D01*
X006156Y021825D01*
X006716Y021825D01*
X006756Y021785D01*
X006716Y021745D01*
X006468Y021745D01*
X006281Y021557D01*
X006158Y021434D01*
X006158Y020761D01*
X006106Y020710D01*
X006059Y020596D01*
X006059Y020474D01*
X006106Y020360D01*
X006193Y020274D01*
X006306Y020227D01*
X006429Y020227D01*
X006542Y020274D01*
X006629Y020360D01*
X006676Y020474D01*
X006676Y020596D01*
X006629Y020710D01*
X006577Y020761D01*
X006577Y021261D01*
X006642Y021325D01*
X006716Y021325D01*
X006756Y021285D01*
X006690Y021219D01*
X006690Y020851D01*
X006766Y020775D01*
X006970Y020775D01*
X006970Y020761D01*
X006919Y020710D01*
X006872Y020596D01*
X006872Y020474D01*
X006919Y020360D01*
X006930Y020349D01*
X006930Y019735D01*
X006968Y019643D01*
X007038Y019573D01*
X007226Y019386D01*
X007318Y019348D01*
X007530Y019348D01*
X007530Y019052D01*
X007606Y018975D01*
X008383Y018975D01*
X008459Y019052D01*
X008459Y020143D01*
X008383Y020220D01*
X007606Y020220D01*
X007530Y020143D01*
X007530Y019847D01*
X007471Y019847D01*
X007430Y019889D01*
X007430Y020349D01*
X007460Y020406D02*
X008678Y020406D01*
X008678Y020564D02*
X007488Y020564D01*
X007428Y020723D02*
X008678Y020723D01*
X008678Y020881D02*
X007750Y020881D01*
X007750Y021040D02*
X008594Y021040D01*
X008553Y021198D02*
X007750Y021198D01*
X007750Y021357D02*
X008553Y021357D01*
X008553Y021515D02*
X007750Y021515D01*
X007750Y021674D02*
X008553Y021674D01*
X008553Y021832D02*
X007731Y021832D01*
X007750Y021991D02*
X008553Y021991D01*
X008553Y022149D02*
X007750Y022149D01*
X007772Y022308D02*
X008553Y022308D01*
X008553Y022466D02*
X007800Y022466D01*
X007800Y022625D02*
X008553Y022625D01*
X008553Y022783D02*
X007757Y022783D01*
X007220Y022783D02*
X007220Y022783D01*
X007220Y022625D02*
X007220Y022625D01*
X006683Y022783D02*
X005118Y022783D01*
X005118Y022625D02*
X006640Y022625D01*
X006640Y022466D02*
X005118Y022466D01*
X005118Y022942D02*
X008553Y022942D01*
X008553Y023100D02*
X005118Y023100D01*
X005118Y023259D02*
X008553Y023259D01*
X008553Y023417D02*
X005118Y023417D01*
X005118Y023576D02*
X008553Y023576D01*
X008610Y023734D02*
X005118Y023734D01*
X005118Y023893D02*
X008769Y023893D01*
X008946Y023533D02*
X008932Y023519D01*
X008932Y021239D01*
X008946Y021225D01*
X009116Y021225D01*
X009176Y021285D01*
X009110Y021351D01*
X009110Y021719D01*
X009176Y021785D01*
X009110Y021851D01*
X009110Y022219D01*
X009176Y022285D01*
X009110Y022351D01*
X009110Y022719D01*
X009186Y022795D01*
X010094Y022795D01*
X010170Y022719D01*
X010170Y022351D01*
X010104Y022285D01*
X010164Y022225D01*
X010309Y022225D01*
X010380Y022296D01*
X010494Y022343D01*
X010616Y022343D01*
X010730Y022296D01*
X010816Y022210D01*
X010863Y022096D01*
X010863Y021974D01*
X010816Y021860D01*
X010730Y021774D01*
X010616Y021727D01*
X010494Y021727D01*
X010380Y021774D01*
X010309Y021845D01*
X010164Y021845D01*
X010104Y021785D01*
X010170Y021719D01*
X010170Y021715D01*
X011250Y021715D01*
X011250Y022672D01*
X011355Y022777D01*
X011480Y022902D01*
X012453Y022902D01*
X012498Y023011D01*
X012641Y023155D01*
X012804Y023222D01*
X012641Y023290D01*
X012498Y023434D01*
X012457Y023533D01*
X008946Y023533D01*
X008932Y023417D02*
X012514Y023417D01*
X012717Y023259D02*
X008932Y023259D01*
X008932Y023100D02*
X012586Y023100D01*
X012469Y022942D02*
X008932Y022942D01*
X008932Y022783D02*
X009174Y022783D01*
X009110Y022625D02*
X008932Y022625D01*
X008932Y022466D02*
X009110Y022466D01*
X009154Y022308D02*
X008932Y022308D01*
X008932Y022149D02*
X009110Y022149D01*
X009110Y021991D02*
X008932Y021991D01*
X008932Y021832D02*
X009129Y021832D01*
X009110Y021674D02*
X008932Y021674D01*
X008932Y021515D02*
X009110Y021515D01*
X009110Y021357D02*
X008932Y021357D01*
X010170Y021198D02*
X011250Y021198D01*
X011250Y021040D02*
X010170Y021040D01*
X010170Y020881D02*
X011250Y020881D01*
X011610Y020881D02*
X012393Y020881D01*
X012384Y020854D02*
X012370Y020767D01*
X012370Y020741D01*
X012912Y020741D01*
X012912Y020704D01*
X012370Y020704D01*
X012370Y020678D01*
X012384Y020591D01*
X012411Y020508D01*
X012451Y020429D01*
X012470Y020402D01*
X012235Y020402D01*
X012235Y020610D01*
X012110Y020735D01*
X012005Y020840D01*
X011610Y020840D01*
X011610Y021460D01*
X011610Y022523D01*
X011630Y022543D01*
X012453Y022543D01*
X012498Y022434D01*
X012641Y022290D01*
X012804Y022222D01*
X012641Y022155D01*
X012498Y022011D01*
X012420Y021824D01*
X012420Y021621D01*
X012498Y021434D01*
X012641Y021290D01*
X012739Y021249D01*
X012715Y021241D01*
X012636Y021201D01*
X012565Y021150D01*
X012503Y021087D01*
X012451Y021016D01*
X012411Y020937D01*
X012384Y020854D01*
X012468Y021040D02*
X011610Y021040D01*
X011610Y021198D02*
X012632Y021198D01*
X012575Y021357D02*
X011610Y021357D01*
X011610Y021515D02*
X012464Y021515D01*
X012420Y021674D02*
X011610Y021674D01*
X011610Y021832D02*
X012423Y021832D01*
X012489Y021991D02*
X011610Y021991D01*
X011610Y022149D02*
X012635Y022149D01*
X012624Y022308D02*
X011610Y022308D01*
X011610Y022466D02*
X012484Y022466D01*
X013236Y022308D02*
X013993Y022308D01*
X013993Y022466D02*
X013376Y022466D01*
X013440Y022625D02*
X013993Y022625D01*
X013993Y022783D02*
X013440Y022783D01*
X013391Y022942D02*
X013993Y022942D01*
X013993Y023100D02*
X013274Y023100D01*
X013143Y023259D02*
X013993Y023259D01*
X013993Y023417D02*
X013346Y023417D01*
X013421Y023576D02*
X013993Y023576D01*
X013993Y023734D02*
X013440Y023734D01*
X013412Y023893D02*
X013993Y023893D01*
X013993Y024051D02*
X013323Y024051D01*
X013087Y024210D02*
X013993Y024210D01*
X012773Y024210D02*
X005118Y024210D01*
X005118Y024051D02*
X012537Y024051D01*
X011361Y022783D02*
X010106Y022783D01*
X010170Y022625D02*
X011250Y022625D01*
X011250Y022466D02*
X010170Y022466D01*
X010126Y022308D02*
X010408Y022308D01*
X010322Y021832D02*
X010151Y021832D01*
X010788Y021832D02*
X011250Y021832D01*
X011250Y021991D02*
X010863Y021991D01*
X010841Y022149D02*
X011250Y022149D01*
X011250Y022308D02*
X010702Y022308D01*
X012110Y020735D02*
X012110Y020735D01*
X012122Y020723D02*
X012912Y020723D01*
X012948Y020723D02*
X013993Y020723D01*
X013993Y020881D02*
X013467Y020881D01*
X013392Y021040D02*
X013993Y021040D01*
X013993Y021198D02*
X013228Y021198D01*
X013285Y021357D02*
X013993Y021357D01*
X013993Y021515D02*
X013396Y021515D01*
X013440Y021674D02*
X013993Y021674D01*
X013993Y021832D02*
X013437Y021832D01*
X013371Y021991D02*
X013993Y021991D01*
X013993Y022149D02*
X013225Y022149D01*
X013467Y020564D02*
X013993Y020564D01*
X013993Y020406D02*
X013392Y020406D01*
X013331Y020043D02*
X013793Y020043D01*
X013813Y020023D01*
X013813Y016460D01*
X013918Y016355D01*
X013993Y016280D01*
X013993Y016090D01*
X013735Y016090D01*
X013735Y018672D01*
X013632Y018775D01*
X013527Y018880D01*
X013417Y018880D01*
X013362Y019011D01*
X013219Y019155D01*
X013056Y019222D01*
X013219Y019290D01*
X013362Y019434D01*
X013440Y019621D01*
X013440Y019824D01*
X013362Y020011D01*
X013331Y020043D01*
X013396Y019930D02*
X013813Y019930D01*
X013813Y019772D02*
X013440Y019772D01*
X013437Y019613D02*
X013813Y019613D01*
X013813Y019455D02*
X013371Y019455D01*
X013225Y019296D02*
X013813Y019296D01*
X013813Y019138D02*
X013236Y019138D01*
X013376Y018979D02*
X013813Y018979D01*
X013813Y018821D02*
X013587Y018821D01*
X013632Y018775D02*
X013632Y018775D01*
X013735Y018662D02*
X013813Y018662D01*
X013813Y018504D02*
X013735Y018504D01*
X013735Y018345D02*
X013813Y018345D01*
X013813Y018187D02*
X013735Y018187D01*
X013735Y018028D02*
X013813Y018028D01*
X013813Y017870D02*
X013735Y017870D01*
X013735Y017711D02*
X013813Y017711D01*
X013813Y017553D02*
X013735Y017553D01*
X013735Y017394D02*
X013813Y017394D01*
X013813Y017236D02*
X013735Y017236D01*
X013735Y017077D02*
X013813Y017077D01*
X013813Y016919D02*
X013735Y016919D01*
X013735Y016760D02*
X013813Y016760D01*
X013813Y016602D02*
X013735Y016602D01*
X013735Y016443D02*
X013830Y016443D01*
X013735Y016285D02*
X013988Y016285D01*
X013993Y016126D02*
X013735Y016126D01*
X013375Y016126D02*
X013047Y016126D01*
X013047Y016124D02*
X013047Y016672D01*
X012942Y016777D01*
X012880Y016840D01*
X010232Y016840D01*
X010232Y016844D01*
X010166Y016910D01*
X010232Y016976D01*
X010232Y016980D01*
X011116Y016980D01*
X011160Y016936D01*
X011700Y016936D01*
X011777Y017012D01*
X011777Y017083D01*
X013375Y017083D01*
X013375Y015898D01*
X013543Y015730D01*
X013993Y015730D01*
X013993Y014350D01*
X013403Y014350D01*
X013362Y014449D01*
X013219Y014592D01*
X013120Y014633D01*
X013120Y015313D01*
X013140Y015313D01*
X013216Y015390D01*
X013216Y015930D01*
X013140Y016007D01*
X013057Y016007D01*
X013057Y016114D01*
X013047Y016124D01*
X013047Y016285D02*
X013375Y016285D01*
X013375Y016443D02*
X013047Y016443D01*
X013047Y016602D02*
X013375Y016602D01*
X013375Y016760D02*
X012960Y016760D01*
X012688Y016443D02*
X010199Y016443D01*
X010175Y016919D02*
X013375Y016919D01*
X013375Y017077D02*
X011777Y017077D01*
X011738Y017553D02*
X013375Y017553D01*
X013375Y017711D02*
X011777Y017711D01*
X011777Y017870D02*
X013375Y017870D01*
X013375Y018028D02*
X011777Y018028D01*
X011773Y018187D02*
X013375Y018187D01*
X013375Y018345D02*
X013274Y018345D01*
X012586Y018345D02*
X011640Y018345D01*
X011640Y018504D02*
X012469Y018504D01*
X012420Y018662D02*
X011640Y018662D01*
X011640Y018821D02*
X012420Y018821D01*
X012484Y018979D02*
X011640Y018979D01*
X011640Y019138D02*
X012624Y019138D01*
X012635Y019296D02*
X011640Y019296D01*
X011640Y019455D02*
X012489Y019455D01*
X012930Y019723D02*
X011430Y019723D01*
X011430Y019825D01*
X011430Y019723D02*
X011430Y017932D01*
X011220Y018345D02*
X010231Y018345D01*
X010232Y018187D02*
X011087Y018187D01*
X011083Y018028D02*
X010232Y018028D01*
X010207Y017870D02*
X010329Y017870D01*
X010392Y017394D02*
X010182Y017394D01*
X010718Y017394D02*
X011083Y017394D01*
X011122Y017553D02*
X010844Y017553D01*
X010863Y017711D02*
X011083Y017711D01*
X011083Y017870D02*
X010781Y017870D01*
X011180Y015968D02*
X011931Y015968D01*
X012220Y015660D02*
X011118Y015660D01*
X011118Y014870D01*
X010771Y015017D02*
X010650Y015017D01*
X010460Y015017D02*
X010210Y015017D01*
X010232Y015175D02*
X010826Y015175D01*
X010908Y015334D02*
X010232Y015334D01*
X010854Y015492D02*
X007798Y015492D01*
X007793Y015497D02*
X007752Y015520D01*
X007706Y015532D01*
X007283Y015532D01*
X007283Y015223D01*
X007282Y015223D01*
X007282Y015532D01*
X006859Y015532D01*
X006813Y015520D01*
X006772Y015497D01*
X006738Y015463D01*
X006715Y015422D01*
X006703Y015376D01*
X006703Y015223D01*
X007282Y015223D01*
X007282Y015222D01*
X006703Y015222D01*
X006703Y015069D01*
X006715Y015023D01*
X006738Y014982D01*
X006772Y014948D01*
X006786Y014940D01*
X006779Y014932D01*
X006642Y014932D01*
X006577Y014997D01*
X006454Y015120D01*
X006031Y015120D01*
X005980Y015171D01*
X005866Y015218D01*
X005744Y015218D01*
X005630Y015171D01*
X005544Y015085D01*
X005497Y014971D01*
X005497Y014849D01*
X005544Y014735D01*
X005630Y014649D01*
X005744Y014602D01*
X005866Y014602D01*
X005980Y014649D01*
X006031Y014700D01*
X006281Y014700D01*
X006030Y014700D01*
X006281Y014700D02*
X006468Y014513D01*
X006779Y014513D01*
X006819Y014473D01*
X006779Y014432D01*
X006593Y014432D01*
X006406Y014245D01*
X006283Y014122D01*
X006283Y013636D01*
X006231Y013585D01*
X006184Y013471D01*
X006184Y013349D01*
X006231Y013235D01*
X006318Y013149D01*
X006431Y013102D01*
X006554Y013102D01*
X006667Y013149D01*
X006747Y013229D01*
X006747Y013224D01*
X006794Y013110D01*
X006805Y013099D01*
X006805Y012610D01*
X006843Y012518D01*
X006913Y012448D01*
X007101Y012261D01*
X007193Y012223D01*
X007592Y012223D01*
X007592Y011927D01*
X007668Y011850D01*
X008445Y011850D01*
X008522Y011927D01*
X008522Y013018D01*
X008445Y013095D01*
X007668Y013095D01*
X007592Y013018D01*
X007592Y012722D01*
X007346Y012722D01*
X007305Y012764D01*
X007305Y013099D01*
X007316Y013110D01*
X007363Y013224D01*
X007363Y013296D01*
X007492Y013426D01*
X007492Y013463D01*
X007736Y013463D01*
X007812Y013539D01*
X007812Y013906D01*
X007746Y013973D01*
X007812Y014039D01*
X007812Y014406D01*
X007746Y014473D01*
X007812Y014539D01*
X007812Y014906D01*
X007779Y014940D01*
X007793Y014948D01*
X007827Y014982D01*
X007850Y015023D01*
X007862Y015069D01*
X007862Y015222D01*
X007283Y015222D01*
X007283Y015223D01*
X007862Y015223D01*
X007862Y015376D01*
X007850Y015422D01*
X007827Y015463D01*
X007793Y015497D01*
X007862Y015334D02*
X009173Y015334D01*
X009173Y015175D02*
X007862Y015175D01*
X007846Y015017D02*
X009195Y015017D01*
X009173Y014858D02*
X007812Y014858D01*
X007812Y014700D02*
X009173Y014700D01*
X009173Y014541D02*
X007812Y014541D01*
X007812Y014383D02*
X009173Y014383D01*
X009173Y014224D02*
X007812Y014224D01*
X007812Y014066D02*
X009173Y014066D01*
X008971Y013907D02*
X007812Y013907D01*
X007812Y013749D02*
X008812Y013749D01*
X008740Y013590D02*
X007812Y013590D01*
X007492Y013432D02*
X008740Y013432D01*
X008740Y013273D02*
X007363Y013273D01*
X007318Y013115D02*
X008740Y013115D01*
X008740Y012956D02*
X008522Y012956D01*
X008522Y012798D02*
X008740Y012798D01*
X008740Y012639D02*
X008522Y012639D01*
X008522Y012481D02*
X008740Y012481D01*
X008740Y012322D02*
X008522Y012322D01*
X008522Y012164D02*
X008740Y012164D01*
X008740Y012005D02*
X008522Y012005D01*
X008740Y011847D02*
X002222Y011847D01*
X002222Y012005D02*
X007592Y012005D01*
X007592Y012164D02*
X002222Y012164D01*
X002222Y012322D02*
X007039Y012322D01*
X006881Y012481D02*
X002222Y012481D01*
X002222Y012639D02*
X003298Y012639D01*
X003238Y012664D02*
X003444Y012579D01*
X003666Y012579D01*
X003872Y012664D01*
X004030Y012822D01*
X004115Y013027D01*
X004115Y013250D01*
X004030Y013456D01*
X003872Y013614D01*
X003666Y013699D01*
X003444Y013699D01*
X003238Y013614D01*
X003080Y013456D01*
X002995Y013250D01*
X002995Y013027D01*
X003080Y012822D01*
X003238Y012664D01*
X003104Y012798D02*
X002222Y012798D01*
X002222Y012956D02*
X003025Y012956D01*
X002995Y013115D02*
X002222Y013115D01*
X002222Y013273D02*
X003004Y013273D01*
X003070Y013432D02*
X002222Y013432D01*
X002222Y013590D02*
X003214Y013590D01*
X003444Y013957D02*
X003666Y013957D01*
X003872Y014042D01*
X004030Y014200D01*
X004115Y014405D01*
X004115Y014628D01*
X004030Y014834D01*
X003872Y014992D01*
X003666Y015077D01*
X003444Y015077D01*
X003238Y014992D01*
X003080Y014834D01*
X002995Y014628D01*
X002995Y014405D01*
X003080Y014200D01*
X003238Y014042D01*
X003444Y013957D01*
X003214Y014066D02*
X002222Y014066D01*
X002222Y014224D02*
X003070Y014224D01*
X003004Y014383D02*
X002222Y014383D01*
X002222Y014541D02*
X002995Y014541D01*
X003025Y014700D02*
X002222Y014700D01*
X002222Y014858D02*
X003104Y014858D01*
X003298Y015017D02*
X002222Y015017D01*
X002222Y015175D02*
X005640Y015175D01*
X005516Y015017D02*
X003812Y015017D01*
X004006Y014858D02*
X005497Y014858D01*
X005580Y014700D02*
X004085Y014700D01*
X004115Y014541D02*
X006439Y014541D01*
X006543Y014383D02*
X004106Y014383D01*
X004040Y014224D02*
X006385Y014224D01*
X006283Y014066D02*
X003896Y014066D01*
X003896Y013590D02*
X006237Y013590D01*
X006283Y013749D02*
X002222Y013749D01*
X002222Y013907D02*
X006283Y013907D01*
X006493Y014035D02*
X006493Y013410D01*
X006216Y013273D02*
X004106Y013273D01*
X004115Y013115D02*
X006401Y013115D01*
X006584Y013115D02*
X006792Y013115D01*
X006805Y012956D02*
X004085Y012956D01*
X004006Y012798D02*
X006805Y012798D01*
X006805Y012639D02*
X003812Y012639D01*
X004040Y013432D02*
X006184Y013432D01*
X006493Y014035D02*
X006680Y014223D01*
X007283Y014223D01*
X007283Y014723D02*
X006555Y014723D01*
X006368Y014910D01*
X005805Y014910D01*
X005970Y015175D02*
X006703Y015175D01*
X006703Y015334D02*
X002222Y015334D01*
X002222Y015492D02*
X006767Y015492D01*
X007137Y015809D02*
X002222Y015809D01*
X002222Y015651D02*
X010809Y015651D01*
X011327Y015334D02*
X011950Y015334D01*
X012491Y015334D02*
X012619Y015334D01*
X012563Y015492D02*
X012547Y015492D01*
X012547Y015651D02*
X012563Y015651D01*
X012547Y015809D02*
X012563Y015809D01*
X012600Y015968D02*
X012510Y015968D01*
X013160Y015334D02*
X013993Y015334D01*
X013993Y015492D02*
X013216Y015492D01*
X013216Y015651D02*
X013993Y015651D01*
X013993Y015175D02*
X013120Y015175D01*
X013120Y015017D02*
X013993Y015017D01*
X013993Y014858D02*
X013120Y014858D01*
X013120Y014700D02*
X013993Y014700D01*
X013993Y014541D02*
X013270Y014541D01*
X013390Y014383D02*
X013993Y014383D01*
X013993Y013970D02*
X013993Y013027D01*
X013427Y013027D01*
X013440Y013059D01*
X013440Y013261D01*
X013362Y013449D01*
X013219Y013592D01*
X013056Y013660D01*
X013219Y013728D01*
X013362Y013871D01*
X013403Y013970D01*
X013993Y013970D01*
X013993Y013907D02*
X013377Y013907D01*
X013240Y013749D02*
X013993Y013749D01*
X013993Y013590D02*
X013221Y013590D01*
X013370Y013432D02*
X013993Y013432D01*
X013993Y013273D02*
X013435Y013273D01*
X013440Y013115D02*
X013993Y013115D01*
X013993Y012480D02*
X013993Y011912D01*
X013446Y011912D01*
X013399Y011960D01*
X013440Y012059D01*
X013440Y012261D01*
X013362Y012449D01*
X013331Y012480D01*
X013993Y012480D01*
X013993Y012322D02*
X013415Y012322D01*
X013440Y012164D02*
X013993Y012164D01*
X013993Y012005D02*
X013418Y012005D01*
X013349Y011533D02*
X013993Y011533D01*
X013993Y010447D01*
X013711Y010447D01*
X013674Y010410D01*
X013378Y010410D01*
X013362Y010449D01*
X013219Y010592D01*
X013121Y010633D01*
X013145Y010641D01*
X013224Y010681D01*
X013295Y010733D01*
X013357Y010795D01*
X013409Y010866D01*
X013449Y010945D01*
X013476Y011029D01*
X013490Y011116D01*
X013490Y011142D01*
X012948Y011142D01*
X012948Y011178D01*
X013490Y011178D01*
X013490Y011204D01*
X013476Y011291D01*
X013449Y011375D01*
X013409Y011454D01*
X013357Y011525D01*
X013349Y011533D01*
X013352Y011530D02*
X013993Y011530D01*
X013993Y011371D02*
X013450Y011371D01*
X013489Y011213D02*
X013993Y011213D01*
X013993Y011054D02*
X013480Y011054D01*
X013424Y010896D02*
X013993Y010896D01*
X013993Y010737D02*
X013299Y010737D01*
X013233Y010579D02*
X013993Y010579D01*
X013684Y010420D02*
X013374Y010420D01*
X012930Y010160D02*
X012243Y010160D01*
X011720Y009638D01*
X011118Y009638D01*
X010771Y009628D02*
X010295Y009628D01*
X010295Y009601D02*
X010231Y009537D01*
X010725Y009537D01*
X010736Y009547D01*
X010771Y009582D01*
X010771Y009889D01*
X010847Y009965D01*
X011388Y009965D01*
X011464Y009889D01*
X011464Y009848D01*
X011633Y009848D01*
X012033Y010247D01*
X012156Y010370D01*
X012465Y010370D01*
X012498Y010449D01*
X012641Y010592D01*
X012739Y010633D01*
X012715Y010641D01*
X012636Y010681D01*
X012565Y010733D01*
X012503Y010795D01*
X012451Y010866D01*
X012411Y010945D01*
X012384Y011029D01*
X012370Y011116D01*
X012370Y011142D01*
X012912Y011142D01*
X012912Y011178D01*
X012370Y011178D01*
X012370Y011204D01*
X012384Y011291D01*
X012411Y011375D01*
X012451Y011454D01*
X012503Y011525D01*
X012565Y011587D01*
X012636Y011639D01*
X012715Y011679D01*
X012739Y011687D01*
X012641Y011728D01*
X012498Y011871D01*
X012420Y012059D01*
X012420Y012261D01*
X012498Y012449D01*
X012529Y012480D01*
X011317Y012480D01*
X011297Y012460D01*
X011297Y011090D01*
X011362Y011090D01*
X011443Y011171D01*
X011556Y011218D01*
X011679Y011218D01*
X011792Y011171D01*
X011879Y011085D01*
X011926Y010971D01*
X011926Y010849D01*
X011879Y010735D01*
X011792Y010649D01*
X011679Y010602D01*
X011556Y010602D01*
X011443Y010649D01*
X011362Y010730D01*
X011297Y010730D01*
X011297Y010634D01*
X011388Y010634D01*
X011464Y010558D01*
X011464Y010056D01*
X011388Y009980D01*
X010847Y009980D01*
X010771Y010056D01*
X010771Y010105D01*
X010295Y010105D01*
X010295Y010101D01*
X010229Y010035D01*
X010295Y009969D01*
X010295Y009601D01*
X010295Y009786D02*
X010771Y009786D01*
X010827Y009945D02*
X010295Y009945D01*
X010295Y010103D02*
X010771Y010103D01*
X010771Y010465D02*
X010295Y010465D01*
X010295Y010469D01*
X010229Y010535D01*
X010289Y010595D01*
X010309Y010595D01*
X010380Y010524D01*
X010494Y010477D01*
X010616Y010477D01*
X010730Y010524D01*
X010816Y010610D01*
X010863Y010724D01*
X010863Y010846D01*
X010816Y010960D01*
X010730Y011046D01*
X010616Y011093D01*
X010494Y011093D01*
X010380Y011046D01*
X010309Y010975D01*
X010289Y010975D01*
X010229Y011035D01*
X010295Y011101D01*
X010295Y011469D01*
X010219Y011545D01*
X009311Y011545D01*
X009235Y011469D01*
X009235Y011101D01*
X009301Y011035D01*
X009235Y010969D01*
X009235Y010601D01*
X009301Y010535D01*
X009235Y010469D01*
X009235Y010101D01*
X009301Y010035D01*
X009241Y009975D01*
X009134Y009975D01*
X009120Y009989D01*
X009120Y011829D01*
X009149Y011813D01*
X009195Y011800D01*
X009473Y011800D01*
X009473Y012392D01*
X009633Y012392D01*
X009633Y011800D01*
X009911Y011800D01*
X009957Y011813D01*
X009998Y011836D01*
X010032Y011870D01*
X010055Y011911D01*
X010068Y011957D01*
X010068Y012393D01*
X009633Y012393D01*
X009633Y012552D01*
X010068Y012552D01*
X010068Y012988D01*
X010055Y013034D01*
X010032Y013075D01*
X009998Y013109D01*
X009957Y013132D01*
X009911Y013145D01*
X009633Y013145D01*
X009633Y012553D01*
X009473Y012553D01*
X009473Y013145D01*
X009195Y013145D01*
X009149Y013132D01*
X009120Y013116D01*
X009120Y013519D01*
X009134Y013533D01*
X009179Y013533D01*
X009249Y013463D01*
X010156Y013463D01*
X010226Y013533D01*
X012581Y013533D01*
X012498Y013449D01*
X012420Y013261D01*
X012420Y013059D01*
X012498Y012871D01*
X012529Y012840D01*
X011168Y012840D01*
X011043Y012715D01*
X010938Y012610D01*
X010938Y010634D01*
X010847Y010634D01*
X010771Y010558D01*
X010771Y010465D01*
X010784Y010579D02*
X010792Y010579D01*
X010863Y010737D02*
X010938Y010737D01*
X010938Y010896D02*
X010843Y010896D01*
X010938Y011054D02*
X010711Y011054D01*
X010938Y011213D02*
X010295Y011213D01*
X010295Y011371D02*
X010938Y011371D01*
X010938Y011530D02*
X010234Y011530D01*
X010008Y011847D02*
X010938Y011847D01*
X010938Y012005D02*
X010068Y012005D01*
X010068Y012164D02*
X010938Y012164D01*
X010938Y012322D02*
X010068Y012322D01*
X010068Y012639D02*
X010967Y012639D01*
X010938Y012481D02*
X009633Y012481D01*
X009633Y012639D02*
X009473Y012639D01*
X009473Y012798D02*
X009633Y012798D01*
X009633Y012956D02*
X009473Y012956D01*
X009473Y013115D02*
X009633Y013115D01*
X009988Y013115D02*
X012420Y013115D01*
X012425Y013273D02*
X009120Y013273D01*
X009120Y013432D02*
X012490Y013432D01*
X012462Y012956D02*
X010068Y012956D01*
X010068Y012798D02*
X011125Y012798D01*
X011297Y012322D02*
X012445Y012322D01*
X012420Y012164D02*
X011297Y012164D01*
X011297Y012005D02*
X012442Y012005D01*
X012522Y011847D02*
X011297Y011847D01*
X011297Y011688D02*
X012737Y011688D01*
X012508Y011530D02*
X011297Y011530D01*
X011297Y011371D02*
X012410Y011371D01*
X012371Y011213D02*
X011692Y011213D01*
X011543Y011213D02*
X011297Y011213D01*
X010938Y011688D02*
X009120Y011688D01*
X009120Y011530D02*
X009296Y011530D01*
X009235Y011371D02*
X009120Y011371D01*
X009120Y011213D02*
X009235Y011213D01*
X009282Y011054D02*
X009120Y011054D01*
X009120Y010896D02*
X009235Y010896D01*
X009235Y010737D02*
X009120Y010737D01*
X009120Y010579D02*
X009258Y010579D01*
X009235Y010420D02*
X009120Y010420D01*
X009120Y010262D02*
X009235Y010262D01*
X009235Y010103D02*
X009120Y010103D01*
X008740Y010103D02*
X007875Y010103D01*
X007875Y010262D02*
X008740Y010262D01*
X008740Y010420D02*
X007875Y010420D01*
X007852Y010579D02*
X008740Y010579D01*
X008740Y010737D02*
X007875Y010737D01*
X007875Y010896D02*
X008740Y010896D01*
X008740Y011054D02*
X007895Y011054D01*
X007925Y011213D02*
X008740Y011213D01*
X008740Y011371D02*
X007925Y011371D01*
X007885Y011530D02*
X008740Y011530D01*
X008740Y011688D02*
X002222Y011688D01*
X002222Y011530D02*
X006805Y011530D01*
X006765Y011371D02*
X005950Y011371D01*
X005660Y011371D02*
X003861Y011371D01*
X003872Y011367D02*
X003666Y011452D01*
X003444Y011452D01*
X003238Y011367D01*
X003080Y011209D01*
X002995Y011003D01*
X002995Y010780D01*
X003080Y010575D01*
X003238Y010417D01*
X003444Y010332D01*
X003666Y010332D01*
X003872Y010417D01*
X004030Y010575D01*
X004115Y010780D01*
X004115Y011003D01*
X004030Y011209D01*
X003872Y011367D01*
X004026Y011213D02*
X005519Y011213D01*
X005497Y011054D02*
X004094Y011054D01*
X004115Y010896D02*
X005571Y010896D01*
X005805Y011098D02*
X006243Y011098D01*
X006555Y010785D01*
X007345Y010785D01*
X007345Y010285D02*
X006493Y010285D01*
X006305Y010098D01*
X006305Y009910D01*
X006182Y009628D02*
X004114Y009628D01*
X004115Y009625D02*
X004030Y009831D01*
X003872Y009989D01*
X003666Y010074D01*
X003444Y010074D01*
X003238Y009989D01*
X003080Y009831D01*
X002995Y009625D01*
X002995Y009402D01*
X003080Y009197D01*
X003238Y009039D01*
X003444Y008954D01*
X003666Y008954D01*
X003872Y009039D01*
X004030Y009197D01*
X004115Y009402D01*
X004115Y009625D01*
X004115Y009469D02*
X008227Y009469D01*
X008386Y009311D02*
X007592Y009311D01*
X007672Y009152D02*
X012420Y009152D01*
X012440Y009311D02*
X011040Y009311D01*
X011408Y009945D02*
X011730Y009945D01*
X011889Y010103D02*
X011464Y010103D01*
X011464Y010262D02*
X012047Y010262D01*
X012324Y009945D02*
X012467Y009945D01*
X012583Y009786D02*
X012165Y009786D01*
X012007Y009628D02*
X012726Y009628D01*
X012518Y009469D02*
X011848Y009469D01*
X012447Y008994D02*
X007672Y008994D01*
X007672Y008835D02*
X012534Y008835D01*
X012765Y008677D02*
X007672Y008677D01*
X007243Y008726D02*
X007243Y008865D01*
X007242Y008865D01*
X007242Y008726D01*
X007243Y008726D01*
X007242Y008835D02*
X007243Y008835D01*
X007242Y008994D02*
X007243Y008994D01*
X007197Y009152D02*
X007288Y009152D01*
X007288Y009311D02*
X007197Y009311D01*
X006893Y009311D02*
X004077Y009311D01*
X003985Y009152D02*
X006813Y009152D01*
X006813Y008994D02*
X003762Y008994D01*
X003348Y008994D02*
X002222Y008994D01*
X002222Y009152D02*
X003125Y009152D01*
X003033Y009311D02*
X002222Y009311D01*
X002222Y009469D02*
X002995Y009469D01*
X002996Y009628D02*
X002222Y009628D01*
X002222Y009786D02*
X003062Y009786D01*
X003194Y009945D02*
X002222Y009945D01*
X002222Y010103D02*
X006062Y010103D01*
X005997Y009945D02*
X003916Y009945D01*
X004048Y009786D02*
X006023Y009786D01*
X006428Y009628D02*
X006815Y009628D01*
X006815Y009786D02*
X006587Y009786D01*
X006613Y009945D02*
X006815Y009945D01*
X006331Y010420D02*
X003875Y010420D01*
X004031Y010579D02*
X006464Y010579D01*
X006306Y010737D02*
X004097Y010737D01*
X003235Y010420D02*
X002222Y010420D01*
X002222Y010262D02*
X006172Y010262D01*
X006583Y011054D02*
X006795Y011054D01*
X006765Y011213D02*
X006424Y011213D01*
X007345Y011371D02*
X007345Y011371D01*
X007345Y011530D02*
X007345Y011530D01*
X007305Y012798D02*
X007592Y012798D01*
X007592Y012956D02*
X007305Y012956D01*
X007055Y013285D02*
X007283Y013513D01*
X007283Y013723D01*
X006719Y015017D02*
X006558Y015017D01*
X007282Y015334D02*
X007283Y015334D01*
X007282Y015492D02*
X007283Y015492D01*
X006812Y015968D02*
X002222Y015968D01*
X002222Y016126D02*
X003330Y016126D01*
X003117Y016285D02*
X002222Y016285D01*
X002222Y016443D02*
X003030Y016443D01*
X002995Y016602D02*
X002222Y016602D01*
X002222Y016760D02*
X002999Y016760D01*
X003065Y016919D02*
X002222Y016919D01*
X002222Y017077D02*
X003201Y017077D01*
X003444Y017457D02*
X003666Y017457D01*
X003872Y017542D01*
X004030Y017700D01*
X004115Y017905D01*
X004115Y018128D01*
X004030Y018334D01*
X003872Y018492D01*
X003666Y018577D01*
X003444Y018577D01*
X003238Y018492D01*
X003080Y018334D01*
X002995Y018128D01*
X002995Y017905D01*
X003080Y017700D01*
X003238Y017542D01*
X003444Y017457D01*
X003227Y017553D02*
X002222Y017553D01*
X002222Y017711D02*
X003076Y017711D01*
X003010Y017870D02*
X002222Y017870D01*
X002222Y018028D02*
X002995Y018028D01*
X003019Y018187D02*
X002222Y018187D01*
X002222Y018345D02*
X003091Y018345D01*
X003267Y018504D02*
X002222Y018504D01*
X002222Y018662D02*
X008678Y018662D01*
X008678Y018504D02*
X006508Y018504D01*
X006368Y018348D02*
X005805Y018348D01*
X005497Y018345D02*
X004019Y018345D01*
X004091Y018187D02*
X005538Y018187D01*
X005536Y018504D02*
X003843Y018504D01*
X004115Y018028D02*
X006283Y018028D01*
X006283Y017870D02*
X004100Y017870D01*
X004034Y017711D02*
X006283Y017711D01*
X006428Y017553D02*
X003883Y017553D01*
X003780Y016126D02*
X006747Y016126D01*
X006753Y016760D02*
X006653Y016760D01*
X006738Y016919D02*
X006810Y016919D01*
X006618Y017660D02*
X006493Y017785D01*
X006493Y018223D01*
X006368Y018348D01*
X006667Y018345D02*
X006711Y018345D01*
X006715Y018359D02*
X006703Y018314D01*
X006703Y018160D01*
X007282Y018160D01*
X007282Y018160D01*
X007282Y018470D01*
X006859Y018470D01*
X006813Y018458D01*
X006772Y018434D01*
X006738Y018401D01*
X006715Y018359D01*
X006702Y018187D02*
X006703Y018187D01*
X006702Y018028D02*
X006703Y018028D01*
X006618Y017660D02*
X007283Y017660D01*
X007282Y018187D02*
X007283Y018187D01*
X007282Y018345D02*
X007283Y018345D01*
X007854Y018345D02*
X008678Y018345D01*
X008678Y018187D02*
X007862Y018187D01*
X007862Y018028D02*
X008678Y018028D01*
X008678Y017870D02*
X007787Y017870D01*
X007812Y017711D02*
X008678Y017711D01*
X008678Y017553D02*
X007812Y017553D01*
X007762Y017394D02*
X008678Y017394D01*
X008678Y017236D02*
X007812Y017236D01*
X007812Y017077D02*
X008678Y017077D01*
X008678Y016919D02*
X007755Y016919D01*
X007812Y016760D02*
X008686Y016760D01*
X008845Y016602D02*
X007812Y016602D01*
X008678Y018821D02*
X002222Y018821D01*
X002222Y018979D02*
X007602Y018979D01*
X007530Y019138D02*
X002222Y019138D01*
X002222Y019296D02*
X007530Y019296D01*
X007157Y019455D02*
X002222Y019455D01*
X002222Y019613D02*
X006998Y019613D01*
X006930Y019772D02*
X003917Y019772D01*
X003872Y019727D02*
X004030Y019884D01*
X004115Y020090D01*
X004115Y020313D01*
X004030Y020519D01*
X003872Y020676D01*
X003666Y020761D01*
X003444Y020761D01*
X003238Y020676D01*
X003080Y020519D01*
X002995Y020313D01*
X002995Y020090D01*
X003080Y019884D01*
X003238Y019727D01*
X003444Y019641D01*
X003666Y019641D01*
X003872Y019727D01*
X004049Y019930D02*
X006930Y019930D01*
X006930Y020089D02*
X004114Y020089D01*
X004115Y020247D02*
X006258Y020247D01*
X006477Y020247D02*
X006930Y020247D01*
X006900Y020406D02*
X006647Y020406D01*
X006676Y020564D02*
X006872Y020564D01*
X006932Y020723D02*
X006616Y020723D01*
X006577Y020881D02*
X006690Y020881D01*
X006690Y021040D02*
X006577Y021040D01*
X006577Y021198D02*
X006690Y021198D01*
X006368Y021348D02*
X006368Y020535D01*
X006088Y020406D02*
X004077Y020406D01*
X003984Y020564D02*
X006059Y020564D01*
X006119Y020723D02*
X003760Y020723D01*
X003666Y021019D02*
X003444Y021019D01*
X003238Y021105D01*
X003080Y021262D01*
X002995Y021468D01*
X002995Y021691D01*
X003080Y021897D01*
X003238Y022054D01*
X003444Y022139D01*
X003666Y022139D01*
X003872Y022054D01*
X004030Y021897D01*
X004115Y021691D01*
X004115Y021468D01*
X004030Y021262D01*
X003872Y021105D01*
X003666Y021019D01*
X003715Y021040D02*
X006158Y021040D01*
X006158Y021198D02*
X003966Y021198D01*
X004069Y021357D02*
X006158Y021357D01*
X006238Y021515D02*
X004115Y021515D01*
X004115Y021674D02*
X006397Y021674D01*
X006555Y021535D02*
X006368Y021348D01*
X006555Y021535D02*
X007220Y021535D01*
X007220Y022035D02*
X005930Y022035D01*
X005644Y022149D02*
X002222Y022149D01*
X002222Y021991D02*
X003174Y021991D01*
X003054Y021832D02*
X002222Y021832D01*
X002222Y021674D02*
X002995Y021674D01*
X002995Y021515D02*
X002222Y021515D01*
X002222Y021357D02*
X003041Y021357D01*
X003144Y021198D02*
X002222Y021198D01*
X002222Y021040D02*
X003395Y021040D01*
X003350Y020723D02*
X002222Y020723D01*
X002222Y020881D02*
X006158Y020881D01*
X007180Y020995D02*
X007180Y020535D01*
X007180Y020995D02*
X007220Y021035D01*
X007430Y020089D02*
X007530Y020089D01*
X007530Y019930D02*
X007430Y019930D01*
X008387Y018979D02*
X008678Y018979D01*
X008678Y019138D02*
X008459Y019138D01*
X008459Y019296D02*
X008678Y019296D01*
X008678Y019455D02*
X008459Y019455D01*
X008459Y019613D02*
X008678Y019613D01*
X008678Y019772D02*
X008459Y019772D01*
X008459Y019930D02*
X008678Y019930D01*
X008678Y020089D02*
X008459Y020089D01*
X010005Y020089D02*
X011096Y020089D01*
X011083Y019930D02*
X010005Y019930D01*
X010005Y019772D02*
X011083Y019772D01*
X011764Y020089D02*
X011997Y020089D01*
X011875Y020247D02*
X011777Y020247D01*
X011777Y020406D02*
X011875Y020406D01*
X012235Y020406D02*
X012468Y020406D01*
X012393Y020564D02*
X012235Y020564D01*
X015280Y017910D02*
X016161Y017910D01*
X013464Y015809D02*
X013216Y015809D01*
X013179Y015968D02*
X013375Y015968D01*
X012740Y015175D02*
X011409Y015175D01*
X011464Y015017D02*
X012740Y015017D01*
X012740Y014858D02*
X011464Y014858D01*
X011464Y014700D02*
X012740Y014700D01*
X012590Y014541D02*
X010809Y014541D01*
X011464Y014383D02*
X011842Y014383D01*
X012268Y014383D02*
X012470Y014383D01*
X012420Y014224D02*
X012362Y014224D01*
X012349Y014066D02*
X012420Y014066D01*
X012380Y011054D02*
X011891Y011054D01*
X011926Y010896D02*
X012436Y010896D01*
X012561Y010737D02*
X011879Y010737D01*
X011443Y010579D02*
X012627Y010579D01*
X012486Y010420D02*
X011464Y010420D01*
X010326Y010579D02*
X010272Y010579D01*
X010248Y011054D02*
X010399Y011054D01*
X009633Y011847D02*
X009473Y011847D01*
X009473Y012005D02*
X009633Y012005D01*
X009633Y012164D02*
X009473Y012164D01*
X009473Y012322D02*
X009633Y012322D01*
X008740Y009945D02*
X008289Y009945D01*
X008448Y009786D02*
X008785Y009786D01*
X008865Y009706D02*
X008865Y009706D01*
X008944Y009628D02*
X008606Y009628D01*
X006813Y008835D02*
X002222Y008835D01*
X002222Y008677D02*
X006813Y008677D01*
X003249Y011371D02*
X002222Y011371D01*
X002222Y011213D02*
X003084Y011213D01*
X003016Y011054D02*
X002222Y011054D01*
X002222Y010896D02*
X002995Y010896D01*
X003013Y010737D02*
X002222Y010737D01*
X002222Y010579D02*
X003079Y010579D01*
X007868Y003534D02*
X007872Y003534D01*
X012988Y006877D02*
X013021Y006910D01*
X013095Y008677D02*
X013993Y008677D01*
X013993Y008835D02*
X013326Y008835D01*
X013413Y008994D02*
X013993Y008994D01*
X013993Y009152D02*
X013440Y009152D01*
X013420Y009311D02*
X013993Y009311D01*
X013993Y009469D02*
X013342Y009469D01*
X013134Y009628D02*
X013993Y009628D01*
X013993Y009786D02*
X013277Y009786D01*
X015857Y005535D02*
X015868Y005523D01*
X015868Y005522D01*
X015868Y004410D01*
X015968Y004310D01*
X015968Y004160D01*
X014919Y003160D02*
X014714Y003365D01*
X014776Y003189D02*
X014805Y003160D01*
X014919Y003160D01*
X014919Y003109D01*
X016284Y002160D02*
X016305Y002181D01*
X017243Y002181D01*
X017243Y002336D01*
X017243Y005493D02*
X016646Y005493D01*
X016617Y005523D01*
X016618Y005522D01*
X015888Y005503D02*
X015868Y005523D01*
X003193Y019772D02*
X002222Y019772D01*
X002222Y019930D02*
X003061Y019930D01*
X002996Y020089D02*
X002222Y020089D01*
X002222Y020247D02*
X002995Y020247D01*
X003033Y020406D02*
X002222Y020406D01*
X002222Y020564D02*
X003126Y020564D01*
X004056Y021832D02*
X005697Y021832D01*
X005622Y021991D02*
X003936Y021991D01*
X002222Y022308D02*
X005783Y022308D01*
X006077Y022308D02*
X006668Y022308D01*
D46*
X007180Y020535D02*
X007180Y019785D01*
X007368Y019598D01*
X007994Y019598D01*
X007055Y013285D02*
X007055Y012660D01*
X007243Y012473D01*
X008057Y012473D01*
X012930Y010160D02*
X013943Y010160D01*
X014543Y010160D02*
X014555Y010148D01*
X014555Y009160D01*
X014680Y009035D01*
X015118Y009035D01*
X015743Y009035D01*
X015786Y009079D01*
X015805Y009079D01*
X015816Y009067D01*
X015816Y008098D01*
X015888Y008026D01*
X015888Y007160D01*
X015868Y007140D01*
X015868Y006547D01*
X014714Y006910D02*
X014714Y003365D01*
X014919Y003160D02*
X014805Y003046D01*
X014805Y002410D01*
X015055Y002160D01*
X016284Y002160D01*
X017243Y003359D02*
X017243Y004160D01*
X017243Y004410D01*
X017369Y004537D01*
X018307Y004537D01*
X018493Y004723D01*
X018493Y006599D01*
X017243Y004160D02*
X016768Y004160D01*
X013021Y006910D02*
X012896Y007035D01*
X011618Y007035D01*
X011618Y004697D01*
X011842Y004598D01*
X011618Y004373D01*
X011618Y002348D01*
X010618Y002348D02*
X010268Y002697D01*
X010268Y003160D01*
X008738Y003160D01*
X007872Y003534D02*
X007868Y003538D01*
X007868Y004285D01*
X008118Y004535D01*
X008286Y004535D01*
X007868Y004516D01*
X008555Y004516D01*
X008555Y005304D02*
X008555Y006160D01*
X010268Y004598D02*
X010268Y003160D01*
X011868Y004435D02*
X011842Y004598D01*
X016949Y017910D02*
X016949Y018848D01*
X016949Y019785D01*
X016949Y020954D01*
X016868Y021035D01*
X017993Y021035D01*
X016868Y021035D02*
X016455Y021035D01*
X016618Y023285D02*
X015993Y023285D01*
X016618Y023285D02*
X017055Y023723D01*
X017993Y023723D01*
M02*
