G75*
%MOIN*%
%OFA0B0*%
%FSLAX24Y24*%
%IPPOS*%
%LPD*%
%AMOC8*
5,1,8,0,0,1.08239X$1,22.5*
%
%ADD10C,0.0100*%
%ADD11C,0.0220*%
%ADD12C,0.0030*%
%ADD13C,0.0080*%
%ADD14C,0.0070*%
D10*
X001993Y000973D02*
X001993Y003848D01*
X006805Y003848D01*
X006805Y008223D01*
X001993Y008223D01*
X001993Y024910D01*
X021368Y024910D01*
X021368Y000973D01*
X001993Y000973D01*
D11*
X008293Y010535D02*
X008317Y010535D01*
X008793Y010535D02*
X008817Y010535D01*
X008755Y014473D02*
X008730Y014473D01*
X008255Y014473D02*
X008230Y014473D01*
X008192Y017410D02*
X008168Y017410D01*
X008730Y017410D02*
X008755Y017410D01*
X008692Y021785D02*
X008668Y021785D01*
X008130Y021785D02*
X008105Y021785D01*
X016168Y013723D02*
X016192Y013723D01*
X016668Y013723D02*
X016692Y013723D01*
D12*
X017020Y013805D02*
X017082Y013743D01*
X017020Y013805D02*
X017020Y013928D01*
X017082Y013990D01*
X017143Y013990D01*
X017205Y013928D01*
X017205Y013867D01*
X017205Y013928D02*
X017267Y013990D01*
X017329Y013990D01*
X017390Y013928D01*
X017390Y013805D01*
X017329Y013743D01*
X017329Y013622D02*
X017390Y013560D01*
X017390Y013437D01*
X017329Y013375D01*
X017082Y013375D01*
X017020Y013437D01*
X017020Y013560D01*
X017082Y013622D01*
X015840Y013731D02*
X015779Y013669D01*
X015840Y013731D02*
X015840Y013854D01*
X015779Y013916D01*
X015717Y013916D01*
X015470Y013669D01*
X015470Y013916D01*
X015532Y013548D02*
X015470Y013486D01*
X015470Y013363D01*
X015532Y013301D01*
X015779Y013301D01*
X015840Y013363D01*
X015840Y013486D01*
X015779Y013548D01*
X014828Y013486D02*
X014766Y013548D01*
X014643Y013548D01*
X014581Y013486D01*
X014581Y013301D01*
X014581Y013424D02*
X014458Y013548D01*
X014458Y013669D02*
X014458Y013916D01*
X014458Y013793D02*
X014828Y013793D01*
X014704Y013669D01*
X014828Y013486D02*
X014828Y013301D01*
X014458Y013301D01*
X009453Y017187D02*
X009391Y017125D01*
X009144Y017125D01*
X009083Y017187D01*
X009083Y017310D01*
X009144Y017372D01*
X009268Y017493D02*
X009268Y017740D01*
X009453Y017678D02*
X009268Y017493D01*
X009391Y017372D02*
X009453Y017310D01*
X009453Y017187D01*
X009453Y017678D02*
X009083Y017678D01*
X007840Y017604D02*
X007840Y017357D01*
X007779Y017235D02*
X007840Y017174D01*
X007840Y017050D01*
X007779Y016988D01*
X007532Y016988D01*
X007470Y017050D01*
X007470Y017174D01*
X007532Y017235D01*
X007532Y017357D02*
X007470Y017357D01*
X007532Y017357D02*
X007779Y017604D01*
X007840Y017604D01*
X008958Y014984D02*
X008958Y014737D01*
X008958Y014615D02*
X008958Y014368D01*
X008958Y014492D02*
X009328Y014492D01*
X009204Y014368D01*
X009266Y014247D02*
X009328Y014185D01*
X009328Y014062D01*
X009266Y014000D01*
X009019Y014000D01*
X008958Y014062D01*
X008958Y014185D01*
X009019Y014247D01*
X009204Y014737D02*
X009328Y014860D01*
X008958Y014860D01*
X007965Y014604D02*
X007965Y014481D01*
X007904Y014419D01*
X007842Y014419D01*
X007780Y014481D01*
X007780Y014666D01*
X007657Y014666D02*
X007904Y014666D01*
X007965Y014604D01*
X007904Y014298D02*
X007965Y014236D01*
X007965Y014113D01*
X007904Y014051D01*
X007657Y014051D01*
X007595Y014113D01*
X007595Y014236D01*
X007657Y014298D01*
X007657Y014419D02*
X007595Y014481D01*
X007595Y014604D01*
X007657Y014666D01*
X007683Y010904D02*
X007683Y010657D01*
X007683Y010535D02*
X007683Y010288D01*
X007929Y010535D01*
X007991Y010535D01*
X008053Y010474D01*
X008053Y010350D01*
X007991Y010288D01*
X007991Y010167D02*
X008053Y010105D01*
X008053Y009982D01*
X007991Y009920D01*
X007744Y009920D01*
X007683Y009982D01*
X007683Y010105D01*
X007744Y010167D01*
X007929Y010657D02*
X008053Y010780D01*
X007683Y010780D01*
X009058Y010749D02*
X009304Y010996D01*
X009366Y010996D01*
X009428Y010934D01*
X009428Y010811D01*
X009366Y010749D01*
X009366Y010628D02*
X009428Y010566D01*
X009428Y010443D01*
X009366Y010381D01*
X009366Y010259D02*
X009428Y010198D01*
X009428Y010074D01*
X009366Y010013D01*
X009119Y010013D01*
X009058Y010074D01*
X009058Y010198D01*
X009119Y010259D01*
X009058Y010381D02*
X009304Y010628D01*
X009366Y010628D01*
X009058Y010628D02*
X009058Y010381D01*
X009058Y010749D02*
X009058Y010996D01*
X009019Y021313D02*
X008958Y021374D01*
X008958Y021498D01*
X009019Y021559D01*
X008958Y021681D02*
X008958Y021928D01*
X008958Y021804D02*
X009328Y021804D01*
X009204Y021681D01*
X009266Y021559D02*
X009328Y021498D01*
X009328Y021374D01*
X009266Y021313D01*
X009019Y021313D01*
X009019Y022049D02*
X009266Y022296D01*
X009019Y022296D01*
X008958Y022234D01*
X008958Y022111D01*
X009019Y022049D01*
X009266Y022049D01*
X009328Y022111D01*
X009328Y022234D01*
X009266Y022296D01*
X007778Y021979D02*
X007716Y022041D01*
X007654Y022041D01*
X007593Y021979D01*
X007593Y021856D01*
X007654Y021794D01*
X007716Y021794D01*
X007778Y021856D01*
X007778Y021979D01*
X007593Y021979D02*
X007531Y022041D01*
X007469Y022041D01*
X007408Y021979D01*
X007408Y021856D01*
X007469Y021794D01*
X007531Y021794D01*
X007593Y021856D01*
X007716Y021673D02*
X007778Y021611D01*
X007778Y021488D01*
X007716Y021426D01*
X007469Y021426D01*
X007408Y021488D01*
X007408Y021611D01*
X007469Y021673D01*
D13*
X006081Y021477D02*
X006081Y020218D01*
X005529Y020218D01*
X005529Y021477D01*
X006081Y021477D01*
X005443Y021535D02*
X005443Y022035D01*
X004293Y022035D01*
X004293Y021535D01*
X005443Y021535D01*
X005443Y020160D02*
X004293Y020160D01*
X004293Y019660D01*
X005443Y019660D01*
X005443Y020160D01*
X005443Y018473D02*
X004293Y018473D01*
X004293Y017973D01*
X005443Y017973D01*
X005443Y018473D01*
X005529Y017915D02*
X006081Y017915D01*
X006081Y016655D01*
X005529Y016655D01*
X005529Y017915D01*
X005443Y016598D02*
X004293Y016598D01*
X004293Y016098D01*
X005443Y016098D01*
X005443Y016598D01*
X005443Y015035D02*
X004293Y015035D01*
X004293Y014535D01*
X005443Y014535D01*
X005443Y015035D01*
X005529Y014415D02*
X006081Y014415D01*
X006081Y013155D01*
X005529Y013155D01*
X005529Y014415D01*
X005443Y013098D02*
X004293Y013098D01*
X004293Y012598D01*
X005443Y012598D01*
X005443Y013098D01*
X005505Y011410D02*
X004355Y011410D01*
X004355Y010910D01*
X005505Y010910D01*
X005505Y011410D01*
X005555Y010798D02*
X006055Y010798D01*
X006055Y009648D01*
X005555Y009648D01*
X005555Y010798D01*
X005505Y009473D02*
X004355Y009473D01*
X004355Y008973D01*
X005505Y008973D01*
X005505Y009473D01*
D14*
X005403Y009590D02*
X005458Y009645D01*
X005458Y009755D01*
X005403Y009810D01*
X005403Y009958D02*
X005458Y010013D01*
X005458Y010124D01*
X005403Y010179D01*
X005348Y010179D01*
X005128Y009958D01*
X005128Y010179D01*
X005183Y010327D02*
X005238Y010327D01*
X005293Y010382D01*
X005293Y010492D01*
X005238Y010547D01*
X005183Y010547D01*
X005128Y010492D01*
X005128Y010382D01*
X005183Y010327D01*
X005293Y010382D02*
X005348Y010327D01*
X005403Y010327D01*
X005458Y010382D01*
X005458Y010492D01*
X005403Y010547D01*
X005348Y010547D01*
X005293Y010492D01*
X005183Y009810D02*
X005128Y009755D01*
X005128Y009645D01*
X005183Y009590D01*
X005403Y009590D01*
X005375Y008813D02*
X005210Y008813D01*
X005155Y008758D01*
X005155Y008703D01*
X005210Y008648D01*
X005375Y008648D01*
X005375Y008483D02*
X005375Y008813D01*
X005523Y008813D02*
X005743Y008813D01*
X005743Y008483D01*
X005743Y008648D02*
X005633Y008648D01*
X005375Y008483D02*
X005210Y008483D01*
X005155Y008538D01*
X005155Y008593D01*
X005210Y008648D01*
X005007Y008703D02*
X004897Y008813D01*
X004897Y008483D01*
X005007Y008483D02*
X004786Y008483D01*
X004638Y008483D02*
X004418Y008483D01*
X004528Y008483D02*
X004528Y008813D01*
X004638Y008703D01*
X004673Y011508D02*
X004673Y011838D01*
X004783Y011728D01*
X004931Y011728D02*
X004987Y011673D01*
X005152Y011673D01*
X005152Y011508D02*
X005152Y011838D01*
X004987Y011838D01*
X004931Y011783D01*
X004931Y011728D01*
X004987Y011673D02*
X004931Y011618D01*
X004931Y011563D01*
X004987Y011508D01*
X005152Y011508D01*
X005410Y011673D02*
X005520Y011673D01*
X005520Y011508D02*
X005520Y011838D01*
X005300Y011838D01*
X005132Y012170D02*
X004966Y012170D01*
X004911Y012225D01*
X004911Y012280D01*
X004966Y012335D01*
X005132Y012335D01*
X005132Y012170D02*
X005132Y012500D01*
X004966Y012500D01*
X004911Y012445D01*
X004911Y012390D01*
X004966Y012335D01*
X004763Y012390D02*
X004708Y012335D01*
X004543Y012335D01*
X004543Y012225D02*
X004543Y012445D01*
X004598Y012500D01*
X004708Y012500D01*
X004763Y012445D01*
X004763Y012390D01*
X004763Y012225D02*
X004708Y012170D01*
X004598Y012170D01*
X004543Y012225D01*
X004360Y011838D02*
X004250Y011838D01*
X004195Y011783D01*
X004415Y011563D01*
X004360Y011508D01*
X004250Y011508D01*
X004195Y011563D01*
X004195Y011783D01*
X004360Y011838D02*
X004415Y011783D01*
X004415Y011563D01*
X004563Y011508D02*
X004783Y011508D01*
X005500Y012170D02*
X005500Y012500D01*
X005280Y012500D01*
X005390Y012335D02*
X005500Y012335D01*
X005328Y013203D02*
X005108Y013203D01*
X005053Y013258D01*
X005053Y013368D01*
X005108Y013423D01*
X005053Y013571D02*
X005273Y013791D01*
X005328Y013791D01*
X005383Y013736D01*
X005383Y013626D01*
X005328Y013571D01*
X005328Y013423D02*
X005383Y013368D01*
X005383Y013258D01*
X005328Y013203D01*
X005053Y013571D02*
X005053Y013791D01*
X005108Y013939D02*
X005053Y013994D01*
X005053Y014104D01*
X005108Y014159D01*
X005163Y014159D01*
X005218Y014104D01*
X005218Y014049D01*
X005218Y014104D02*
X005273Y014159D01*
X005328Y014159D01*
X005383Y014104D01*
X005383Y013994D01*
X005328Y013939D01*
X005270Y015133D02*
X005270Y015463D01*
X005050Y015463D01*
X004902Y015463D02*
X004902Y015133D01*
X004737Y015133D01*
X004681Y015188D01*
X004681Y015243D01*
X004737Y015298D01*
X004902Y015298D01*
X004902Y015463D02*
X004737Y015463D01*
X004681Y015408D01*
X004681Y015353D01*
X004737Y015298D01*
X004533Y015353D02*
X004533Y015408D01*
X004478Y015463D01*
X004368Y015463D01*
X004313Y015408D01*
X004313Y015353D01*
X004368Y015298D01*
X004478Y015298D01*
X004533Y015353D01*
X004478Y015298D02*
X004533Y015243D01*
X004533Y015188D01*
X004478Y015133D01*
X004368Y015133D01*
X004313Y015188D01*
X004313Y015243D01*
X004368Y015298D01*
X004536Y015670D02*
X004481Y015725D01*
X004481Y015780D01*
X004536Y015835D01*
X004701Y015835D01*
X004701Y015725D01*
X004646Y015670D01*
X004536Y015670D01*
X004701Y015835D02*
X004591Y015945D01*
X004481Y016000D01*
X004849Y015945D02*
X004849Y015890D01*
X004904Y015835D01*
X005069Y015835D01*
X005069Y015670D02*
X005069Y016000D01*
X004904Y016000D01*
X004849Y015945D01*
X004904Y015835D02*
X004849Y015780D01*
X004849Y015725D01*
X004904Y015670D01*
X005069Y015670D01*
X005327Y015835D02*
X005437Y015835D01*
X005437Y015670D02*
X005437Y016000D01*
X005217Y016000D01*
X005270Y015298D02*
X005160Y015298D01*
X005120Y016896D02*
X005065Y016951D01*
X005065Y017061D01*
X005120Y017116D01*
X005120Y017264D02*
X005065Y017319D01*
X005065Y017429D01*
X005120Y017484D01*
X005175Y017484D01*
X005230Y017429D01*
X005230Y017264D01*
X005120Y017264D01*
X005230Y017264D02*
X005340Y017374D01*
X005395Y017484D01*
X005340Y017116D02*
X005395Y017061D01*
X005395Y016951D01*
X005340Y016896D01*
X005120Y016896D01*
X005027Y018570D02*
X004862Y018570D01*
X004806Y018625D01*
X004806Y018680D01*
X004862Y018735D01*
X005027Y018735D01*
X005027Y018570D02*
X005027Y018900D01*
X004862Y018900D01*
X004806Y018845D01*
X004806Y018790D01*
X004862Y018735D01*
X004658Y018735D02*
X004548Y018790D01*
X004493Y018790D01*
X004438Y018735D01*
X004438Y018625D01*
X004493Y018570D01*
X004603Y018570D01*
X004658Y018625D01*
X004658Y018735D02*
X004658Y018900D01*
X004438Y018900D01*
X004536Y019233D02*
X004536Y019563D01*
X004701Y019398D01*
X004481Y019398D01*
X004849Y019453D02*
X004849Y019508D01*
X004904Y019563D01*
X005069Y019563D01*
X005069Y019233D01*
X004904Y019233D01*
X004849Y019288D01*
X004849Y019343D01*
X004904Y019398D01*
X005069Y019398D01*
X004904Y019398D02*
X004849Y019453D01*
X005217Y019563D02*
X005437Y019563D01*
X005437Y019233D01*
X005437Y019398D02*
X005327Y019398D01*
X005395Y018900D02*
X005175Y018900D01*
X005285Y018735D02*
X005395Y018735D01*
X005395Y018570D02*
X005395Y018900D01*
X005340Y020458D02*
X005120Y020458D01*
X005065Y020513D01*
X005065Y020624D01*
X005120Y020679D01*
X005120Y020827D02*
X005065Y020882D01*
X005065Y020992D01*
X005120Y021047D01*
X005230Y021047D01*
X005285Y020992D01*
X005285Y020937D01*
X005230Y020827D01*
X005395Y020827D01*
X005395Y021047D01*
X005340Y020679D02*
X005395Y020624D01*
X005395Y020513D01*
X005340Y020458D01*
X005395Y022133D02*
X005395Y022463D01*
X005175Y022463D01*
X005027Y022463D02*
X004862Y022463D01*
X004806Y022408D01*
X004806Y022353D01*
X004862Y022298D01*
X005027Y022298D01*
X005027Y022133D02*
X005027Y022463D01*
X004862Y022298D02*
X004806Y022243D01*
X004806Y022188D01*
X004862Y022133D01*
X005027Y022133D01*
X005285Y022298D02*
X005395Y022298D01*
X004658Y022408D02*
X004603Y022463D01*
X004493Y022463D01*
X004438Y022408D01*
X004438Y022353D01*
X004493Y022298D01*
X004438Y022243D01*
X004438Y022188D01*
X004493Y022133D01*
X004603Y022133D01*
X004658Y022188D01*
X004548Y022298D02*
X004493Y022298D01*
M02*
