G75*
%MOIN*%
%OFA0B0*%
%FSLAX24Y24*%
%IPPOS*%
%LPD*%
%AMOC8*
5,1,8,0,0,1.08239X$1,22.5*
%
%ADD10C,0.0100*%
%ADD11R,0.0434X0.0473*%
%ADD12C,0.0900*%
%ADD13C,0.0800*%
%ADD14R,0.0394X0.0355*%
%ADD15R,0.0780X0.0780*%
%ADD16C,0.0780*%
%ADD17R,0.0473X0.0434*%
%ADD18C,0.1621*%
%ADD19R,0.0690X0.0690*%
%ADD20C,0.0690*%
%ADD21C,0.0560*%
%ADD22R,0.0355X0.0394*%
D10*
X001993Y000973D02*
X001993Y003848D01*
X006805Y003848D01*
X006805Y008223D01*
X001993Y008223D01*
X001993Y024910D01*
X021368Y024910D01*
X021368Y000973D01*
X001993Y000973D01*
D11*
X008305Y010200D03*
X008805Y010200D03*
X008805Y010870D03*
X008305Y010870D03*
X005805Y013450D03*
X005805Y014120D03*
X008243Y014138D03*
X008743Y014138D03*
X008743Y014807D03*
X008243Y014807D03*
X008180Y017075D03*
X008743Y017075D03*
X008743Y017745D03*
X008180Y017745D03*
X005805Y017620D03*
X005805Y016950D03*
X005805Y020513D03*
X005805Y021182D03*
X008118Y021450D03*
X008680Y021450D03*
X008680Y022120D03*
X008118Y022120D03*
X016180Y014057D03*
X016680Y014057D03*
X016680Y013388D03*
X016180Y013388D03*
D12*
X003555Y013139D03*
X003555Y014517D03*
X003555Y016639D03*
X003555Y018017D03*
X003555Y020201D03*
X003555Y021579D03*
X003555Y010892D03*
X003555Y009514D03*
D13*
X012930Y009160D03*
X012930Y010160D03*
X012930Y011160D03*
X012930Y012160D03*
X012930Y013160D03*
X012930Y014160D03*
X012930Y018723D03*
X012930Y019723D03*
X012930Y020723D03*
X012930Y021723D03*
X012930Y022723D03*
X012930Y023723D03*
D14*
X005168Y021785D03*
X004568Y021785D03*
X004568Y019910D03*
X005168Y019910D03*
X005168Y018223D03*
X004568Y018223D03*
X004568Y016348D03*
X005168Y016348D03*
X005168Y014785D03*
X004568Y014785D03*
X004568Y012848D03*
X005168Y012848D03*
X005230Y011160D03*
X004630Y011160D03*
X004630Y009223D03*
X005230Y009223D03*
D15*
X011618Y007035D03*
X011618Y002348D03*
X017993Y021035D03*
D16*
X017993Y020035D03*
X017993Y019035D03*
X017993Y018035D03*
X017993Y022723D03*
X017993Y023723D03*
X010618Y007035D03*
X010618Y002348D03*
X019743Y004223D03*
X019743Y005223D03*
D17*
X015055Y013388D03*
X015055Y014057D03*
D18*
X020243Y023785D03*
X003118Y023785D03*
X003118Y002160D03*
X020243Y002098D03*
D19*
X014805Y003160D03*
D20*
X013805Y003160D03*
D21*
X015733Y022285D02*
X016253Y022285D01*
X016253Y023285D02*
X015733Y023285D01*
X015733Y024285D02*
X016253Y024285D01*
D22*
X005805Y010523D03*
X005805Y009923D03*
M02*
